<?xml version="1.0" encoding="UTF-8"?>
<svg id="Ebene_2" data-name="Ebene 2" xmlns="http://www.w3.org/2000/svg" viewBox="0 0 153.93 371.98">
  <defs>
    <style>
      .cls-1 {
        fill: #0dff00;
      }
    </style>
  </defs>
  <g id="Ebene_1-2" data-name="Ebene 1">
    <path class="cls-1" d="M38.55,144.12c-.28.81-1.3,1.09-2.01.58-.33-.28-.4-2.29-.65-2.91-.13-.33.07-.45-.56-.42-.2.57-1.12,2.07-1.6,2.29-.72.33-1.31-.4-1.98-.15-.39.14-.8.92-1.25,1.24-.83.58-3.15,2.1-4.04,1.4-1.23-.97,1.95-3.88,2.26-5,.21-.75-.63-1.22-.49-1.88.18-.83,2.82-1.94.53-2.3-.1,1.33-1.35,1.15-2.17,1.77-.77.58-2.33,3.16-3.08,3.28-2.85-.37.01-2.95-.31-4.68-.43-.64-1.88,2.25-3.14,1.21-.26-.22.14-1.19-.54-1.1-1.22.17-3.94,2.22-5.43,2.45-3.57-.83,1.84-4.14,2.89-5.43l.05-.39c-1.11-.28-1.17-1.37-.67-2.3l4.94-1.01c.11-.46-.88-.4-1.19-.43-.97-.1-6.01-.27-4.08-2.45.12-.14,3.19-1.03,3.57-1.06.9-.07,1.81.26,2.55.15.59-.09,1.45-1.04,2.52-1.15.62-.06,2.36.26,2.46.19.08-.06.04-.84.41-1.2.43-.42,1.26-.1,1.6-.45.07-.07.85-1.53.9-1.67.18-.52-.04-.37-.35-.46-2.11-.58-6.62.31-6.94-2.67l.88-.45-1.15-.82.2-1.38c-.13-.45-2.84-2.1-3.3-3.27-.29-.73-.02-1.03-.06-1.62,0-.12-1.56-1.41.64-.89l.1.8c1.95.34,4.24,1.95,6.04,2.36.71.16,1.17-.3,1.94-.06.91.29,1.4,1.14,1.94,1.44.48.27.36-.12.45-.35.33-.89.33-1.9,1.47-2.22,1.77-.49,1.46,1.03,2.02,1.97.5.83,1.29,1.45,1.59,2.42l1.66-1.16.05-.4c-.85-.66-1.13-2.05-1.66-2.74-.31-.4-.96-.64-1.28-1.08-.73-1-2.63-3.3-1.91-4.37,1.07-1.6,3.74,2.08,5.03,2.45.34.1.66-.29,1.03-.3,1.61-.04,2.44,3.13,3.16,3.1,2.94-2.67,2.36-.24,3.11,1.53.23.54,1.84,3.58,2.15,4.06.84,1.28,2.82,2.46,3.5,4.11.57-2.08-4.71-4.73-.66-5.59-.42-1.32.87-5.1,2.57-4.3.72.34.82,3.63.71,4.46l1.73-.02c1.42,1.22.38,3.26.42,4.81,0,.27.58,2.91.67,3.08.35.67,4.73,2.36,5.28,3.89l1.69-8.97c-.02-.84-1.56-4.75-2.28-5.06-1.09-.48-6.49-.41-6.38-2.4.04-.72.91-.86.66-1.68-.05-.15-1.64-2.44-1.76-2.56-.46-.48-1.21-.6-1.75-1.08-.99-.88-1.91-1.98-2.6-3.12-.29-1.94,2.65-.95,3.67-1.12-1.67-.84-1.3-2.84-1.84-3.94-.35-.71-2.02-.87-2.06-2.08-.04-1.08.81-1.43.83-2.06,0-.39-.4-.77-.41-1.19-.04-1.15.03-4.29.18-5.42s1.63-4.93,1.37-5.49c-.14-.32-5.4-2.54-6.34-3.14-.88-.56-.84-1.26-1.17-1.53-.55-.44-4.13-.31-2.47-2.26.84-.99,1.89-.2,2.89-.36s.94-1.08,2.89-.68c3.18.66,3.1,3.25,5.93,4.07.01-.81.47-2.7,1.38-2.81.66-.08,1.23.77,1.71.02.29-.66-.54-2.5-.58-3.4-.05-1.1.13-5.72,1.65-5.56,1.67.18,1,2.56,1.29,3.77.42,1.75,2.01,3.98,2.95,5.51.26.43.43.9.58,1.38,1.58.42,2.51-.54,2.42-2.11-2.2.82-4.79-1.41-2.74-3.39l2.68-.46c-2.47,0-3.52-3.19-1.14-4.13-.41-1.23-.63-3.73-.41-4.99.12-.71.76-1.26.98-1.89,1.15-3.33-.27-6.54-.55-9.94-.23-2.84.34-5.6-.3-8.52-.23-1.08-1.48-3.62-1.39-4.29.15-1.13,1.86-2.6,2.86-1.72.27.24,2.14,4.85,2.46,5.65.29.71.38,1.57.66,2.17.14.31.7.44.79.85.19.86-.95,2.63-.19,3.92.85-.26.22-1.01.7-1.76,1.37-2.15,2.79,2.52,3.39,2.01.34-.74-.31-1.5-.27-2.11.21-3.13-.14-2.86-.51-5.69-.14-1.04-.42-4.82.53-5.31,1.27-.47,1.88,1.49,2.22,2.45.27.77.15,1.92.73,2.48.15-3.08.71-6.66.02-9.63-.96-.93-2.32-.67-3.44-.99-1.24-.36-3.26-2.58-2.17-3.72,1.35-1.4,4.19,1.99,6.03.24-.98-1.89-5.77-3.22-5.46-5.65.07-.54,1.59-1.97,1.97-2.05.7-.15,1.48.56,2.22.53.38-1.07-.73-1.37-1.11-1.94-.27-.41-.23-.91-.52-1.3-.51-.67-1.74-.7-1.57-1.98.16-1.23,1.89-1.26,2.88-1.18l.17-.27c.94-1.63.18-3.43.28-4.99.11-1.77.46-5.41.92-7.01.34-1.19,1.06-1.53,2-.6.22.22,1.4,2.56,1.43,2.8.09.63-.69,3.25-.68,4.15,0,2.07,1.46,4.6,1.53,6.39.02.55-.39,1.05-.37,1.45.02.31,1.42.38,1.37,1.93-.04,1-.84,1.36-1.02,2.02-.17.62.09,1.14.01,1.63-.23,1.37-.96,2.28-.12,3.79.32.58,1.24.94,1.05,1.78s-1.96,1.36-1.86,2.48l3.21,8.86c.92-3.1,3.16-5.72,4.8-8.45.37-.61,1.74-2.56,1.8-2.71.25-.57.11-1.24.5-1.88.52-.84,1.48-.52,2.25-.87s1.26-1.67,2.44-.93c.37.23,1.18,1.48,1.01,1.94l-5.48,7.24,3.31-1.77c1.45-1.85,4.09-1.66,4.8.76-.03,1.21-1.77,1.13-2.67,1.59-2.28,1.16-3.32,3.63-4.71,4.62-.78.55-2.59.88-3.34,1.35-.42.27-2.92,3.45-3.06,3.92-.63,2-.44,4.69-1.21,6.79,1.06-.6,1.77-1.74,2.62-2.59.16-.16.56-.19.78-.4.34-.34.87-1.51,1.09-1.62.14-.07.48.21.74.15.93-.22,2.9-1.13,2.52.92-.1.55-.81.81-1.08,1.3-1.3,2.38-.64,1.76-2.61,3.88-1.77,1.91-.99,3.07-2.55,4.57-.44.42-1.04.57-1.23.77-.32.34-.35,1.16-.94,1.47-.88.47-2.47-.41-3.21,1.2l-2.37,15.37,1.03-1.68c.74-2.21,1.03-5.75,1.73-7.79.48-1.38,1.92-2.61,2.66-3.83.27-.44.19-1.13.46-1.61.45-.81,2.77-3.62,3.52-3.95.66-.29,1.33.1,1.86-.43-.51-1.06-.18-2.93.38-3.92.3-.54,1.54-1.3,1.98-1.86,1.06-1.36,1.87-4.55,4.07-3.09,1.66,1.1.66,1.98.37,3.17-.75,3.02-1.94,6.91-3.64,9.47-1.66,2.49-4.06,4.7-5.82,7.28-1.51,2.22-.55,2.46-.93,3.82-.18.63-.96.88-1.17,1.34-.22.5-.14,1.13-.4,1.69-.42.94-1.73,1.1-1.96,1.57-.74,1.52.66,3.84-.3,4.97-1.49,1.75-1.25,3.06-2.19,5.04-.18.38-.7.52-.83.83-.16.4.15,1.07.06,1.61-.03.14-.88,2.42-.95,2.58-.2.43-.97.38-1.11.75-.12.32.25,1.72-.05,2.3l2.16.8c3.05-1.31,2.54-3.87,3.34-6.42.56-1.79,1.94-3.04,2.96-4.54,1.54.25,1.39,1.95,1.75,3.12.08.27-.22.45.38.43l10.14-8.33c1.16.02,1.33.57.97,1.59-.58,1.68-2.96,4.85-4.2,6.24-.76.85-1.99,1-1.82,2.53,2.58.7,4.4-4.17,6.36-3.59,2.7.79-2.82,5.98-2.58,6.28,1.35-.31,1.7-.07,2.66.79,1.71-.24,2.82-3.47,4.4-2.22,1.31,1.04-1.61,3.28-2.42,3.82-7.19,4.82-18.41,4.62-26.4,7.74l-.45.68c-1.11,4.9-1.97,9.87-2.52,14.87.24.3,4.08-1.1,4.66-1.37,1.92-.9,5.63-5.51,6.51-1.03.81.19,2.54-.64,3.43-.61.75.02,1.4.7,2.3.81s1.81-.4,2.44-.21c.93.27,1.8,1.71,1.11,2.58-.34.42-1.21.13-1.32.65,1.17.35,2.29-.39,3.45-.13.59.14.85.6,1.29.73,1.25.36,2.43,0,3.41,1.26.28.36.81,1.24.2,1.55-.75.37-3.88.53-4.99.8-.36.09-.81.06-.95.5,1.17.14,4.59-.7,3.94,1.46-.23.78-1.42.79-.81,1.85.32.55,2.83,1.66,3.66,2.29.56.42,2.05,1.68,2.02,2.32-.09,2.36-3.51.02-4.18.13-.32.05-.42.54-.61.63-1.89.92-4.26-3.12-6.25-1.77l.31,1.52c1.62.37,3.4.81,4.9,1.57.83.42,1.99,1.02,1.49,2.11-1.13.24-2.26-.12-3.34-.07-1.95.09-3.01,1.8-5.26.91,1.05,1.38.97,2.89-1.13,2.33-.69,1.69,3.37,3.32,2.26,4.96-1.07,1.57-3.77-1.43-5.29-1.24-.35.04-.81,1.61-2.11.01-.19.2.61,2.72-.84,2.89-.72.08-1.41-1.33-1.96-1.82-.62-.55-1.57-.97-1.98-1.39-.69-.71-1.9-3.08-2.66-3.78-.52-.48-1.19-.43-1.49-.68-.83-.69-.83-3.75-3.53-2.99-.23.06-1.99,1.48-2.09,1.71-.59,1.33-.67,5.47-.98,7.25-.26,1.55-.84,3.36-1.19,4.92,1.68-.12,3.76-1.1,5.5-.92,1.32.13,2.45,1.55,3.09,1.7.31.07,2.56-.68,3.62-.59.67.06,1.07.36,1.6.47,1.28.25,2.23-.39,2.08,1.92l2.07.59c-1.04,3.94,4.81,2.78,5.76,4.68.72,1.44-1.66,1.3-2.28,2.45l-2.23.42c.91.58,3.15.83,3.79,1.57.6.69.38,1.64-.62,1.59l-.05.39c.87.77,1.16,2.34,2.29,2.62.74.18,2.05-.09,2.53.47.34.4.05,1.02.36,1.43.38.52,2.37.82,2.69,1.57.21.48.2,1.48-.45,1.64-.75.18-2.59.2-3.18.46-.18.08-.31.5-.6.63-.5.24-3.47-.59-4.2-.84-.78-.27-1.18-1.1-1.95-1.29.15.72-.37,1.84-.18,2.44.36,1.14,3.65,3.33,2.33,4.6-1.42,1.35-4.12-2.2-5.12-2.43-.64-.15-1.29,1.49-2.64.59-.77-.51-.14-1.21-.24-1.76-.25-1.42-.73-3.43-2.02-4.16-.1,2.1-.65,3.96-1.82,5.69-.66.17-1.25.14-1.55-.53-.71-1.6-.38-4.19-.12-5.88-1.88.22-1.4.68-1.68,1.76-.25.96-.48,1.97-.97,2.84l-.58.21c-2.04.1-.83-3.21-1.5-4.45-.33-.61-1.03-.48-1.41-.86-.63-.64,0-2.19,0-3.05-.62.12-.79,1.27-1.46,1.41-3.82.8.55-5.36.13-5.99-.91.5-1.69-.64-2.36.25l-2.11,15.23c1.15.34.79.99,1.2,1.55.47.65,1.97.88,2.3,1.89.36,1.09-1.13,1.72-1.16,2.34-.02.48.68,1.18.84,1.78s.75,3.46.71,3.96c-.08,1.06-.72,1.1-1.64,1.03-.09.07.96,1.23.75,2.11-.24,1.06-1.22.73-1.37.86-.09.08-.84,2.08-.87,2.2-.15.62.27,1.56.24,2.26-.08,1.81-1.49,2.5-2.56.87-.06,1.22-.25,2-1.42,2.49l-3.07,26.07c.29.37,4.12-.59,4.77-.92,1.87-.95,6.54-6.09,7.88-6.2,1.84-.15,1.4,1.58,1.66,1.53.8-.3,1.92-1.16,2.76-1.19.75-.02,1.46.86,2.78.79.8-.04,1.94-1.04,2.61-1.01,1.53.08,1.02,2.82,1.55,2.92,1.44-1.1,1.78-.14,2.75.07,1.1.23,4.13.09,4.31,1.31.26,1.79-3.23,1.61-4.14,2.57,2.25-.52,3.89.55,1.64,2.27l.11.15c.85.29,1.37,1.13,2.06,1.57,1.08.69,5.33,1.92,4.15,3.63-.78,1.12-2.61-.08-3.56.12-.54.12-.51.93-.85,1.11-1.12.61-2.92-1.79-4.32-1.5-.32.07-1.3,1.36-2.47.75.08.52.6.27.63,1.1.01.39.06.77-.34,1.01-.98.5-3.29-1.38-4.52-1.28l.87,2.85c2.05-2.92,3.07,0,4.37.29.62.14,1.21-.32,1.83-.18,1.34.31,1.97,2.2,3.37,2.24.25,0,.28-1.76,2.01-1.07,1.4.56,1.97,2.85,2.72,4,.52.8,4.06,4.56,4.76,4.59.74-.38.45-1.29.68-1.94,1.01-2.91,1.91-5.78,2.8-8.67.32-1.05.89-1.63.89-2.98,0-.61-.92-.65-.89-1.78.02-.91.62-1.16.79-1.93-.13-.17-2.92,1.13-2.97-.53-.06-1.99,4.92-2.79,4.46-4.88-.16-.71-1.74-.44-1.31-2.07.21-.79,1.85-1.35,2.41-1.95l1.61-1.86c-.33-.34-3.77.59-4.6.47-.63-.09-1.07-.69-1.77-.69-1.64,0-5.51,3.3-5.34-.72-1.58.13-2.78-.77-4.1-1.09-1.55-.38-3.75.13-4.57-1.58-.12-1.92,5.76-1.87,6.51-2.35.32-.21.63-1.5,1.75-1.36l3.92.5c-2.9-3.77-.06-7.71,3.45-3.28,1.46,1.84,3.21,5.77,5.43,6.77.27.12.5.24.8.23.63-1.61.81-3.29,1.21-4.9s1.22-2.81,1.07-4.78c-.07-.98-.93-2.36-1-3.61-.05-1.01.24-1.9.18-2.82-.32-4.49-5.67-10.97-4.84-15.24.04-.2.68-1.36.75-1.39,1.84-.83,2.73,5.81,3.47,5.9.5-.52,1.21-.88,1.95-.58.27.11.16.69.53.86.55.26,1.48-.08,1.32,1.17l-.57,4.46c.54-.02.37-.91.85-1.27.75-.57.92.37,1.41-1.63,1.28-5.26,2.14-10.72,3.2-16.04.27-1.37,1.16-1.91.74-3.51-.25-.95-2.77-3.15-3.64-3.75-3.43-2.34-8.31-2.8-11.12-6.26-.9-1.11-.42-2.38-.64-2.65-.36-.45-1.65-1.31-2.24-1.94-1.34-1.42-2.37-2.67-3.95-4.01-1.01-.86-4.1-2.31-2.38-4.21.89-.98,1.39.24,1.98.35.53.1,1.15-.4,1.89-.23.64.14,3.13,1.85,3.28,1.74-.02-1.05-.46-2.54,1.08-2.56,2-.03,2.72,3.75,3.9,5.04.16.17,3.47,2.77,3.67,2.89,1.27.78,2.28,1,3.37,2.51.32.44.62,2.15.73,2.24.4.33,1.71-.05,2.6.8s1.02,4.16,2.51,5.12c.59.08.89-3.19.84-3.81-.07-.89-.87-2.09-1-3.13-.1-.82.13-1.54.03-2.22-.07-.48-.61-.89-.57-1.53.08-1.29,1.43-.89,1.55-1.18.15-.37.04-1.07.2-1.57,1.15-3.53,1.45-3.85,3.26-6.81.57-.92,1.5-7.32,1.43-8.54-.05-.84-1.46-2.41-1.57-3.9-.13-1.73.61-3.54.43-5.2-.14-1.28-1.37-2.01-1.77-3.26-.51-1.6-.42-1.86-1.17-3.49-.24-.51-.21-1.37-.5-1.8-.48-.71-2.03-.73-2.7-1.32-.53-.46-.39-1.12-.61-1.36-.26-.28-1.43-.49-2-1.02-.31-.29-.34-.77-.63-1.04-.73-.68-2.88-1.99-2.64-2.9.63-1.39,2.6-1.43,3.84-.88.96.42,1.89,1.96,3.22.92-.56-.71-1.63-2.17-1.74-3.04-.09-.7.28-1.21.27-1.9-.03-1.59-2.78-7.46-.94-8.3.7-.32,1.06.13,1.45.6.88,1.06,2.98,6.72,3.48,7.05.39.26.39-.12.5-.28.53-.77,1.32-2.8,2.64-1.66.89.77-.54,4.16.6,4.9,1.87-1.59,2.4-6.42,4.91-7.2.66-.2,1.65.41,1.68-.33-.46-1.07-1.73-1.53-2.32-2.35-.33-.46-.48-1.42-.73-1.63-.74-.59-2.98.08-3.24-1.64-.17-1.09.29-.4-.44-1.85-.16-.32-.16-.81-.29-.99-.32-.45-1.22-.5-1.74-.84-1.49-.95-.49-2.1-.65-3.39-.1-.81-1.13-2.26-1.39-3.06-.47-1.4-.72-3.56-1.17-4.69-.31-.77-1.11-1.07-1.52-1.75-.9-1.52-.08-2.73-.19-4.24-.11-1.51-.39-2.91-.49-4.73-.08-1.43-1.34-3.33-.96-4.52.21-.65.98-.9,1.17-1.35.35-.82.08-1.78.61-2.68s1.51-.57,1.95-1.25c.51-.79.3-2.27,1.11-2.97.52-.45,1.93-.39,2.33.16.06.08.32,1.9.3,2-.42,1.97-2.64,4.63-2.64,6.62,0,.44.41,1.03.5,1.58.52,3.01,2.35,6.82,2.57,9.48.07.83-.48,1.48-.34,2.18.11.57,1.01.68,1.31,1.19.46.79-.02,1.95.18,2.42.46,1.08,1.82,2.35,2.27,3.24.95,1.91,1.12,2.38,2.32,4.3.3.48.31,1.28.62,1.71.53.74,1.54.65,2.03,1.11s.04,1.05.55,1.15l.47-6.08c-.14-.84-1.53-.55-1.55-1.44-.03-1.48,1.65-2.05.67-4.15-.13-.29-.63-.39-.7-.74-.14-.68.63-1.67.47-1.94-.04-.07-.62-.23-.85-.44-1.01-.95-1.03-1.67-1.1-3.01,1.54-.35,2.54-2.4,2.21-3.95-.1-.49-.68-1.04-.86-1.52-.62-1.65.25-1.75.5-3.07.29-1.52.57-3.61.67-5.15.06-.9-.35-1.79-.23-2.47.1-.56.68-1.09.72-1.59.05-.55-.84-1.56-.71-2.55.15-1.24,1.17-1.31,1.26-1.55.34-.85.05-2.9.59-3.58.97-.5,2.23-.84,3.18-.14-.09-.97.66-1.71.85-2.52.29-1.21.21-2.59.51-3.76.51-2.05,3.77-5.42,3.76-1.69,0,3.72-.53,7.35-1.31,10.81,2.44,2.06-.01,2.52-.46,3.56-.24.56-.12,1.26-.3,1.82-.22.67-.86,1.15-.79,1.97,1.47-.45,3.02,2.11,2.85,3.26-.18,1.21-1.46,1.52-1.56,1.74-.21.48.42,1,.35,1.66s-.62,1.22-.8,1.86c-.12.45.11.93.02,1.31-.14.61-2.32,3.44-2.3,3.82.14.37.49.62.6,1,1.16,3.94,1.89,6.75.14,10.77-.41.94-1.63,1.99-2.16,2.88-1.79,2.97-1.29,6.79-2.61,10.02.59-.08.59-.77.96-1.13.25-.23.67-.21.9-.48,1.82-2.14.88-2.03,3.63-3.73,2.34-1.45-.04-2.89,1.55-5.23,1.36-1.99,1.18-3.21,1.61-5.46.15-.79.93-1.31,1.04-1.83s-.16-1.2-.04-1.9c.17-.98.87-1.4,1.09-2.08.32-1.01-.06-2.62,1.3-3.05.41-.13,1.11.02,1.27-.09.39-.26.93-4.28,2.87-2.74,1.49,1.18.25,5.73-.14,7.38-.15.64-.67,1.16-.78,1.85s.16,1.4.02,2.18c-.26,1.45-1.36,1.72-1.67,2.61-.32.9.11,1.62-.21,2.53-.29.85-1.28,1.28-1.47,1.92-.4,1.39.06,3.94-.64,5.79-.36.95-1.31,1.32-1.64,1.98-.54,1.08-.41,2.42-1.46,3.47-.55.56-2.44,1.13-2.55,1.27-.29.38.02,1.22-.19,1.8-.68,1.9-2.46,2.38-3.29,3.4-.39.48-.13,1.38-.64,1.9-.43.43-1.38.34-1.75.89-.49.74-1.82,4.27,0,4.13.19-.01.28-.51.51-.61.57-.26,1.6-.82,1.94-.96.42-.16,1.24-.05,1.44-.2.09-.07,1.02-1.8,1.07-1.95.59-1.53.72-4.9,2.78-5.2.59-.74,2.67-4.89,3.11-5.12.53-.27,1.08-.03,1.55-.19,1.05-.36,3.43-4.46,4.28-.14,1.52-1.13,3.04-3.34,4.99-1.41.7.69,1.48,3.95.75,4.74-1.13,1.22-1.43-.83-2.48-.4s-.56.95-.92,1.64c-.7,1.36-2.21.69-3.28,1.14-.68.28-4.24,3.63-4.7,4.32-.9,1.35-2.05,4.8-2.99,5.9-.37.43-.96.43-1.42,1.01-.81,1.03-.56,2.4-1.11,3.29-.5.8-2.2.61-2.25,1.97,1,.04,1.88.27,1.73,1.42-.09.7-1.04,1.47-.39,2.04,1.93-.23,2.96-3.31,4.1-3.83.98-.45,2.05.15,3.12-.05s1.57-1.55,2.62-1.65c1.62-.16,2.45.48,2.01,2.12,1.59-.3,3.15.24,4.74.31.65.03,1.26-.35,1.98-.28,1.23.12,1.59.99.73,1.91-.17.18-4.01,2.41-4.36,2.54-.97.37-2.41.81-3.47,1.18-.83.29-3.7.2-3.95,1.05-.09.3.21.68-.12,1.22-2.3,3.77-10.87,1.61-14.3,2.31-1.48.3-1.66,1.85-1.93,3.17-.79,3.72-.24,6.89.01,10.58.6.19.44.03.65-.27.82-1.13.89-3.79,2.73-3.57,1.47.18,1,1.14,1.09,2.21.77-.38.96-1.75,1.53-2.12.46-.31,3.88-1.8,4.39-1.88,1.37-.21,4.2.13,4.13,1.86-.04,1.11-1.99.94-2.91,1.3-1.25.48-3.53,3.09-4.03,4.26-.53,1.21.46,2.49-1.9,3.2.15,1.48,1.81.48,2.54.58.15.02,2.41.79,2.51.88.37.33.16,1.41-.11,1.79-.62.84-4.61,1.44-5.72,2.05-.59.33-.84.9-1.33,1.11-1.46.61-3.68-.97-4.35,1.14,1.17-.01,1.67.77,1.69,1.87,1.42-.84,2.42-.18,3.71-.05,1.45.15,3.63-.61,3.21,1.76.91.02,1.7-.33,2.42.44l.09,1.51c.97-.07,1.22.75,1.91,1.08,1.57.75,5.14.89,2.47,3.21.31.6,1.21.47,1.54.99.38.6-.1,1.34.08,1.77.22.55,2.81,1.89,1.48,3.16-1.23,1.17-8.78-1.86-10.78-1.82l1.56,2.08c2.09-.1,2.48.68,3.77,1.47s3.33,1.24,3.16,2.94c-.12,1.13-1.29.91-2.08,1.34,1.25.85,2.7,4.86,1.44,5.96-.6.36-1.08.32-1.64-.08-.63,1.52,1.17,5.25.28,6.19-1.11,1.16-2.61-.75-3.68-1.14-.03,1.49-1.29,1.3-1.52,1.5-.1.08-.2,1.1-.57,1.64-.7,1.03-2.86,1.78-2.9,3.64,2.07-1.57,7.06-8.76,6.83-1.87,1.55.52,2.56-.73,3.81-1.21,2.05-.8,9.65-3.7,11.36-2.84.32.16.55.7.54,1.03-.05,1.08-3.72,2.18-4.79,2.82-2.21,1.31-4.75,2.96-6.81,4.42-.43.31-1.2.22-1.46.79,2.14-.63,4.45-.59,6.6-1.06,2.45-.54,5.48-3.71,4.85,1.41-2.7,1.15-6.22,1.22-8.36,3.35,1.19.16,1.4,1.17,2.71,1.17,1.47,0,4.79-1.33,5.95-1.18,1.4.18,1.23,1.66.09,2.36s-7.24,1.9-8.64,1.76c-.82-.08-1.36-.44-2.07-.53-8.36-1.07-18.17-3.75-26.49-2.76-1.69.2-2.88.84-4.46,1.31l-3.08,10.64c.02.3,2.43,1.52,2.15,2.79-.17.78-1.07.6-1.51.91-1.54,1.1,2.6,3,3.12,3.44.22.18,2.09,2.34,2.13,2.51.38,1.85-1.79,1.51-1.83,1.65.52,1.42.23,2.8.36,4.11.07.77,1.31,2.57-.35,2.85-3.15.53-2.85-3.64-5.34-3.93-.25,1.17.02,4.46-1.99,3.87-.51-.15-.61-.72-1.16-.7.62,1.86-1.94,2.5-2,2.67-.28.74-.05,2.04-.42,2.86l-6.34,17.8c.16.2,2.02-.61,2.5-.7.9-.17,3.17-.1,3.67-.29.19-.08,1.72-1.99,1.87-2.3.91-1.81,1.08-5.73,4.11-3.66.7-1.28,1.54-4.06,3.52-3.08,1.5.74-.43,3.87-.41,4.4,0,.21,1.17.62.89,1.8-.34,1.46-3.66,1.1-3.68,2.97,1.32-1.08,3.16-1.4,4.53-2.17.8-.44,2.69-1.82,3.48-2.43,1.25-.95,1.41-2.39,3.5-1.88.2.33-.23,1.79.48,1.68,1.36-.33,2.34-1.86,3.75-1.42.46.14.6.6,1.23.66,1.61.14,3.47-1.15,4.96-.56,2.07,1.39-2.95,3.47-3.81,3.9-.46.23-1.11.18-1.33.32-.51.33-.93,2.04-2.47,1.54.46.78,1.23.89.84,2.03l4.57-2.47c1.49.45,1.48,2.19.79,3.43.83.04,1.58-.57,2.42-.5.7.06,1.44.67,2.33.85,1.08.22,2.41.32,3.52.44.94.1,3.05-.49,3.26,1.17.21,1.66-4.08,1.73-4.69,2.34-.35.35-.32.96-.68,1.33-.26.27-.88.3-1.05.52-.22.3.39.92-.61,1.43-1.93.99-4.73-1.17-6.69-1.26l-.51,1.85c1.87.3,1.13,1.77,1.39,2.34.1.21,2.3.99,2.78,1.38.54.44.59,1.12.95,1.46.53.5,1.7.64,2.39,1.08.54.34,3.16,2.75,3.1,3.22-.28,2.23-4.87-.1-6.01-.36,1.3,2.04,6.78,3.49,2.06,5.35l2.08,4.72c.05.73.06,1.61-.85,1.63-1.91.05-3.34-3.58-4.62-4.72l-.41.07c-1.58,2.27-2.03-.78-2.91-1.88-.62,1.41-.05,3.43-1.43,4.47-1.74.35-1.71-3.29-2.17-4.36-.39-.89-1.61-1.54-1.41-2.76l-.79-.29.41,2.62c-.14.96-1.27.54-1.38.95l.9,5.03c-.14.39-.41.7-.78.89-1.95.98-3.28-4.19-3.99-4.92-.34-.35-.78-.13-1.12-.32-.92-.51-1.11-1.97-1.07-2.95-1.34.63-1.8,3.21-3.57,2.15-1.44-1.13,1.59-5.32,1.29-5.75-.53-.16-.77.38-1.3.39-1.12.02-2.41-1.23-2.71-2.28-.91.95-.34,2.52-.56,3.35-.15.55-.79.66-.99,1.26-.41,1.23-.18,3.09-.86,4.4-2.75.18-2.34-2.75-2.26-4.68l-1.57-.22c-1.54-.61.54-3.96.46-5.13l-2.06.51-.63-.38-.13-.95,6.94-10.13c.33-1.02-1.97-2.16-2.65-1.51-.57,1.42-1.77,2.79-2.45,4.07-.86,1.61-.18,3.39-3.05,1.57-.25.72-1.34,1.04-1.76,1.49-.3.32-.32.96-.59,1.14-.45.3-2.02.47-2.52,0-.56-.52.05-1.24-.83-1.19-.77,2.42-1.65,4.84-2.6,7.2-.97,2.42-3.3,6.75-3.83,8.95-.14.57.13,1.15,0,1.52-.17.45-1.89,1.31-1.65,2.45l3.04-.04c.51.81,0,1.44-.55,2,1.13.17,4.93,1.06,5.62,1.81.43.47.28,1.1.27,1.69,1.09,0,5.47,2.01,5.61,2.86.06.35-.16.97-.06,1.14.28.47,4.6,1.08,1.24,2.94,1.35-.02,1.36,1.18,1.98,1.76,1.21,1.13,4.22,2.17,1.17,3.73.24.47,1.07,1.1,1.13,1.58.11.84-.68,1.09-.67,1.46,0,.27,2.41,3.4.2,3.51-1.39.07-4.04-2.28-5.24-3.01-.43-.27-3.17-1.84-3.35-1.67-.74,2.21.81,1.99,1.95,3,.35.31,3.07,3.91,3.11,4.17.31,1.86-1.18,2-2.63,1.67,1.28,1.75.88,4.4-.23,6.17l-2.12-.7c.14.95-.73,1.77-.86,2.52-.19,1.09.25,2.63-.76,3.75-.75.44-3.06-2.39-2.89-3.28-.52.04-.34.94-.75,1.39-1.24,1.39-1.99-1.18-2.16-1.21-1.11.86-1.99,4.86-3.59,4.5-1.2-.27-.56-2.15-.66-2.93-.1-.86-.71-1.75-.41-2.73l-1.82.33c-1.85-1.18.36-3.03.46-4.49.08-1.25-1.77-3.38-.74-5.18l-1.36.95c-1.84-.05-1.32-4.23-.82-5.35-1.2.21-2.04,1.91-3.12.59-.54-.9.44-2.18.45-3.26,0-.38-.07-.83-.49-.48-.45,1.27-1,2.57-1.58,3.79-5.5,11.6-11.15,21.75-17.54,32.79-3.08,5.33-5.28,10.28-8.84,15.36-2.34,3.34-4.74,6.73-7.09,10.05-1.62,2.28-5.88,1.05-5.09-1.52.24-.79,2.94-4.46,3.63-5.42,3.85-5.39,6.85-9.67,10.21-15.48,5.43-9.39,10.31-18.41,15.14-28.01.42-.84,2.72-5.34,2.6-5.78-.18-.68-1.44-1.32-2.06-1.61-.69-.12-.72,1.38-2.18.73-.76-.34-.68-1.54-1.47-1.79-.61.05-.98,4.41-2.77,3.37-1.12-1.12-.57-2.4-.7-3.61-.29-2.63-1.08-5.83-2.33-8.18-.3-.57-1.99-3.11-2.59-1.82-.67,1.34.42,2.05.73,3.02.23.74.21,1.58.51,2.28.59,1.37,3.16,3.42-.51,3.69.08,1.12.78,2.08.69,3.26-.11,1.48-1.19,4.17-2.82,2.4-.58-1.9-2.1-3.49-1.73-5.6-.23-.31-1.7,1.29-2.35-.5-.25-.7.21-1.88-.65-1.81.04,1-.92,1.35-1.31,1.94-1.18,1.79-1.6,5.92-2.22,8.16-4.74,17.02-9.65,32.76-19.1,47.8-.52.82-1.49,2.54-2.38,2.61-2.03.16-2.74-1.97-2.33-3.66.58-2.4,4.54-7.75,5.92-10.33,5.53-10.34,9.25-23.31,12.45-34.65,1.68-5.96,2.94-12.08,4.55-18.06-.03-.54-1.66-3.2-2.17-3.16-1.63,2.13-2.31.92-3.93.91-.72,0-3.34,1.01-3.89,1.43-.28.22-.76,1.54-1.2,2.07-2.13,2.58-4.4,3.14-3.39-1.08-.9-.18-.88,1.17-1.95,1.14-.81-.03-.88-.89-1.5-1.04-.91-.22-3.54,1.3-3.85-.68-.23-1.47,1.97-1.55,2.73-2.34-2.51-2.51-.28-3.35,2.33-3.14-.12-1.14-.56-1.9.11-3.01-2.81.32-5.54,2.9-8.39,1.37-.11-.81.38-1.24,1-1.63-1.46-1.73-4.05-.31-5.82-1.87-.05-2.08,1.78-1.42,3.02-2.07.66-.35,1-1.16,1.63-1.37.41-.13,1.07.03,1.26-.1.13-.09.18-.61.42-.86,1.13-1.14,5.18.4,6.93-.34-.21-1.56-1.86-1.24-2.87-2.28-1.08-1.11-1.81-3.52-3.18-5.09-.4-.45-1.05-.6-1.34-1.17-.68-1.34.97-1.57,1.01-1.75.11-.47-1.37-2.02-.93-3.42.35-1.12,1.33-.46,1.89-.71.89-.39,2.68-2.4,2.75-3.38.04-.59-.72-.83-.11-1.72.57-.85,2.79-1.34,3.05-1.74.36-.56-1.03-.56-1.17-1.29-.11-.54.07-.88.39-1.29.99-1.28,4.03-2.59,5.29-3.86l4.32-.25c-.62-1.09-3.87-1.48-2.35-3.2.4-.45,3.4-1.72,4.11-1.93,1.79-.51,4.22-.29,5.68-.85.74-.29,1.51-1.35,2.17-1.32,1.2.05,2.88,3.52,4.98,2.85l2.15-27.49-1.42.24c.03,1.61.66,6.34-1.23,6.92-1.49.46-3.27-4.09-2.53-5.35-3.97.37-1.91-1.79-1.72-3.65.08-.72-.24-1.53-.24-2.27,0-1.3,1.06-3.57-1.01-3.13-.44.32-.59.78-.71,1.28-.88,3.59-.73,7-.11,10.57.15.86,1.01,1.76.3,2.6-1.46,1.75-3.35-2.94-3.76-2.49-.16,4.07-2.18,1.82-3.03,2.21-.8.37-3.61,6.04-5.15,3.5-.69-1.13.74-2,1.12-3.03.24-.67.19-1.41.43-1.97.33-.76,2.22-1.62,1.97-2.96-.21-.29-2.25.43-2.73.41-.92-.03-1.45-.85-1.74-.89-1.38-.16-1.15,2.25-1.5,3.29-.46,1.34-1.81,3.15-3.13,1.66l-.46-2.68c-.34.88-1.11,2.38-2.25,1.87-.57-.25-.53-1.03-.63-1.11-.77-.6-6.16,3.89-7.22,1.8-.76-1.51,1.81-2.15,2.61-2.8.89-.73,1.28-1.75,2.07-2.52-1.1-.5-2.88-1.15-1.87-2.57-.79-.9-4.43,4.11-5.77,2.15-.8-1.18.71-1.87,1.18-2.74-.32-.38-3.59,2.29-2.53-1.7-2.24-.35-5.81,3.62-6.96.6.05-1.1,3.86-3.24,4.89-3.76l.05-.4c-1.02-.24-.93-1.42-.48-2.2l5.76-.43-6.05-1.9c.07-3.16,3.92-1.9,5.8-2.04.78-.06,1.62-.67,2.64-.67,1.49-.01,2.76.48,4.1,1.05.12-1.55,1.01-1.13,1.51-1.52.42-.32.33-1.36,1.58-1.11.77-.68-2.08-.81-2.42-.92-.43-.14-3.86-1.73-4.01-1.89-.78-.84.4-1.57.41-1.67.03-.24-1.08-.72-1.16-1.3s.59-1.39.44-1.65c-1.29-.65-3.79-3.18-2.7-4.64.78-.4,4.73,1.88,5.75,2.4.36.18.69.71.91.77.44.13.76-.53,1.18-.6.9-.16,1.65,1.24,2.48,1.65l.63-1.54c.16-.1.9.06,1.13.18.77.38,2.84,4.33,3.75,5.38.6.7,1.45,1.58,1.77.22-.71-.18-2.31-1.29-2.21-2.08l1.53-1.18c-.91-.71-.65-1.77-1.02-2.61-.63-1.43-3.6-3.78-2.44-5.66s2.29.65,3.16,1.45c1.17,1.09,2.57,1.35,3.52,2.15.69.58,1.63,2.66,1.96,2.87.94.61,1.62.15,2.7,1.57.9,1.19.7,2.16,1.21,3.45.66,1.65,2.07,3.67,2.87,5.33.46.26.53-.25.44-.59-.34-1.25-3.86-5.04.54-3.96.49-1.24.72-4.56,2.61-4.22,1.75.31.51,3.71,1,4.98.07.17,1.55.42,1.64,1.15l-.75,5.81c1.9-.05,2.75-2.45,4.77-2.88l2.72-21.27-.27-2.13c-2.44,1.37-1.17,2.72-1.38,4.35-.07.6-.55,2.54-.75,3.14-.13.4-.87,1.78-1.15,1.98-1.37.97-2.26-1.77-2.7-1.45,0,1.6-3.88,4.12-5.08,3.07l-.44-1.85c-.56.87-1.8.57-2.37.87-.09.05-1.41,1.08-1.53,1.19-.37.34.04,1.26-1.78.38-1.5-.72.04-2.76.25-3.96l-2.19-.14.54-2c-.38-.49-5.71,1.55-5.66-.87.15-.79,1.15-.82,1.55-1.24.55-.57.91-2.03,1.89-2.05l.06-.38c-2.85-3.66,1.56-2.6,2.92-3.49.58-.38,1.06-2.42,1.63-2.94.44-.4,1.41-.18,1.87-.73l-1.42-.84c-.29-.31-.31-.56-.22-.96.02-.11,1.33-1.58,1.42-1.64.69-.51,1.72-.61,2.22-1.38-1.14-.09-2.92-.88-2.06-2.19.54-.61,1.4-.49,2.04-.83.92-.49,1.29-1.75,2.54-1.6-.51-.75-.43-1.35-.27-2.22-1.15-.05-4.23-1.65-2.92-3.01.52-.54,3-.56,3.8-.47,1.36.15,2.16,1.32,3.53,1.28-.88-1.59-.47-3.86,1.71-2.65.19.11.3.5.47.58.3.15.68-.08.96.01,1.51.46,1.96,6.76,5.39,3.8l1.14-10.53-1.33-.43c-.98-2.06,1.66-2.27,2.13-3.87l2.17-14.51c-.75-.4-1.01-.64-1.49-1.33-.56-.8-1.27-3.5-1.76-3.87s-1.85.09-2.17-.89c-.25-.74.29-1.24.27-1.9-.06-1.72-.62-3.59-.74-5.32l-2.3-.16c-.34.18-.37.71-.42,1.06-.23,1.89,1.02,6.88,1.29,9.23.12,1.05.82,1.7.3,2.87-.45,1-.76.93-1.6.39-.27-.17-.5-1.16-.89-1.07-1.67,1.18.18,6.69-3.54,4.08-.51,1.13-1.92,4.92-3.52,3.82-1.13-.78-.02-2.33.16-3.28.21-1.09,0-2.12.13-2.99.1-.64,1.32-3.16,1.22-3.31-.66-.24-.71.5-1.11.69-1.41.65-2.52.4-3.55-.74-.39,1.44-.19,3.68-.64,5ZM63,247.72c1.24-.1,4.1.53,5.54.71.06,0,.48-.93.67-1.11-.04-1.61-4.54-.34-5.52-.6-.85-.23-.68-1.11-1.01-1.24-.92-.36-3.71.1-3.76-1.45-.07-2.68,7.62-1.66,7.77-2.84-.53-.7-1.06-1.82-.06-2.33l3.81,1.02-3.86-2.74c-2.07-1.66.41-3.07,2.11-1.88.51-.92-1.24-1.44-1.9-1.94-.41-.31-.66-.96-1.04-1.15-.79-.39-1.01,1.36-2.6.31-.84-.55-1.73-5.06-4.16-6.04-1.29-.52-4.13-.61-5.42-.06-1.21.52-.53,1.24-.63,2.31-1.92,19.5-2.67,39.23-5.89,58.63-.17,1-.74,1.97-.68,3.06.22.33,1.38-1.07,2.19.13,1.09,1.62-1.03,3.27.22,4.58-.02-2.04.82-4.14,1.08-6.04.2-1.51-.19-2.64.37-4.23.61-1.73,1.37-1.17,1.75-1.58.43-.46.74-2.79,1.25-3.67.41-.71,1.1-.9,1.54-1.47.6-.77,2.04-4.25,2.71-4.38,3.1-.6.87,5.28.62,6.51-.19.95.11,1.88-.36,2.83,3.14.22.79,2.21.6,3.92.68.22.49-.06.73-.45,1.05-1.69,1.6-6.64,2.53-7.3,1.27-.9,1.87,1.07,2.3.77.44-1.8,1.11-2.27,2.94-1.88l4.08-4.65c2.91-.79,1.91,1.49,1.29,3.25-.22.61-.94,1.5-.98,1.89-.07.68,1.43,1.42-.04,2.46,2.69,1.5-.21,2.35-1.08,3.96l-3.56,2.17c1.59.22,3.16.48,4.3,1.65,1.61-1.34,3.42-3.07,5.62-2.04,3.16-6.53,5.57-13.38,8.19-20.15.82-2.14,4.19-7.13-.69-6.89-1.26.06-1.73,1.31-2.26,1.49-.61.2-1.17-.12-1.73-.08-.26.02-3.65,2.1-4.32,2.34-1.21.44-2.79.43-4.01,1.13-1.73-.08-1.45-1.85-.21-2.65-1.63.38-1.7-1.17-2.43-1.42-1.14-.38-5,.75-4.5-1.43.41-1.75,3.21-1.58,3.78-2.65.3-.56-1.49-.84-1.5-1.31-.02-.94,1.3-.98,1.36-1.86-2.08.22-2.18-1.42-3.03-2.16-.76-.67-3.95-1.21-3.16-2.85.18-.24.76-.58,1.01-.6ZM45.28,260.56c-2.13.18-.6,3.34-.96,4.31-.25.67-1.13.65-1.33,1.07-1.04,2.17-.11,2.95-2.74,4.97-2.54,1.95-2.16-.3-2.58-1.91-.26-.99-1.34-1.49-.22-2.99l-.52-.21c-1.38,2.02-1.52,5.28-4.32,5.67-.41,2.78.23,5.47-.5,8.27l1.42-1.79c.45-1.6.86-3.56,2.29-4.6,4.12-3.01,1.68,4.56,1.97,4.92,4.18.38.49,2.79.15,4.11-.18.71.68,1.26.62,1.89-.08.94-1.44,2.22-1.87,3.13-.65,1.35-1.1,3.37-1.24,4.85,2.7-1.27,2.83-5.87,6.71-5.19.85-6.07,2.02-12.1,2.63-18.22.06-.64-.11-1.26-.05-1.91.19-2.13.83-4.28.56-6.4ZM25.55,277.26c.59-.9.74-2.18,1.2-3.03.56-1.03,1.86-1.42.56-3.05-1.65.37-1.98,3.6-3.94,3.06-.44-.12-1.66-1.65-2-.67-.22.64,3.11,3.95,4.18,3.69ZM25.56,294.3c.52.49,4.63-.82,4.58-1.47-1.64-1.57-3.55.02-4.58,1.47ZM61.15,303.82c.71-.57-2.03-3.17-2.39-3.63-.77-.97-.36-1.99-2.2-2.19-.44-.05-1.88.07-2.13.43-.26.38,1.02,1,1.31,1.18.96.59,3.22,1.43,3.87,2.12.59.62.08,2.01,1.54,2.1ZM65.38,311.51c.16-1.33,1.93-3.29,1.66-4.56-.04-.2-2.6-2.34-2.87-3.02-.63,1.46.97,1.34,1.25,2.08.38,1.91-1.91,1.66-3.14,1.95-.25.06-.74-.05-.61.45.25.93,1.92,1.2,2.51,1.71.52.45.42,1.37,1.21,1.38Z"/>
  </g>
</svg>