<?xml version="1.0" encoding="UTF-8"?>
<svg id="Ebene_2" data-name="Ebene 2" xmlns="http://www.w3.org/2000/svg" viewBox="0 0 189.85 312.35">
  <defs>
    <style>
      .cls-1 {
        fill: #0dff00;
      }
    </style>
  </defs>
  <g id="Ebene_1-2" data-name="Ebene 1">
    <path class="cls-1" d="M63.33,137h1.04c.3.29-.73,4.53-1.3,5.08l1.05-.02c1.03.76-.63,5.1-.76,6.3-.31,2.75.6,5.4.98,8.08.17,1.16,0,2.5.34,3.7l2.03.83c-.96-3.18-2.55-6.37-2.62-9.76-.04-2.36.72-4.85,1.01-7.1.06-.43-.28-.89-.19-1.21.11-.4.84-.43.98-.86.16-.48-.05-1.14.1-1.72.18-.7,1.31-2.61,1.39-3.45.06-.64-.74-1.52-.87-2.14-.19-.91.06-1.89-.08-2.79-.08-.5-1.48-3.84-.11-3.54,1.1.8,2.03,2.75,3.52,2.74l-12.76-65-2.08.79c3.88,2.44,1.13,6.9-2.86,6.51.44,2.52-.54,7.05-3.98,5.41-2.22-1.06-1.19-3.78-1.23-5.67-1.89,1.46.63,3.58-1.32,5.32-3.04,2.71-7.83-.04-5.97-3.75-3.84-.23-4.62-3.52-4.17-6.77l-3.9.52c-.12.61.1.43.49.63-.62,1.07.41,1.75.55,2.88.16,1.26.18,4.05-.8,4.94-.29.26-2.36,1.15-2.74,1.18-.63.06-1.32-.29-2.06-.28-.49,0-2.93.43-3.33.6-.64.27-1.07,1.72-1.58,2.2-1.62,1.54-4.87.62-5.52-1.47-.16-.51-.02-1.24-.18-1.52-.06-.1-.59-.23-.85-.58-1.72-2.31-.01-5.17.37-7.44.26-1.59-.25-5.3.92-6.37.37-.34.94-.4,1.3-.79s.4-1.03.71-1.39,1.37-1.1,1.51-1.41c1.25-2.84.43-6.09,2.5-8.9.25-.35.78-.48.84-.58.33-.57-.27-1.43.83-2.43,1.4-1.28,3.09-.26,3.35-.41.07-.04.15-.51.46-.71.93-.62,4.4-2.22,5.51-2.57.67-.21,1.58.25,1.63-.85.71.65,1.43.57,2.34.52l-.26-.78h.78s-.26.78-.26.78l1.27-.03c.29-1.28,1.57-2.91,2.5-3.88,1.14-1.19,2.09-2.09,3.89-1.81,2.18.34,1.82,2.88,2.36,3.11.25-.94,2.31-1.88,3.1-1.83.15,0,.12.48.32.53.29.07,2.56.06,2.66-.02.01-1.47.94-2,1.59-3.1-2.36.27-5.9,1.74-6.85-1.35-.25-.81-.89-4.32-.01-4.61,1.9-.63,3.34,3.69,2.96,5.18l5.73-.79-1.05-3.12-.73,2-.83.6.53-1.43-.51-.24.24-1.19c-4.59-.21-6.59-2.57-6.23-7.14.05-.67.77-1.28.11-1.71l-2.21,2.34c.39-2.58,2.26-4.1,4.81-4.33l2.73,1.98.52-5.21c-.65.27-.99,1.09-1.56,1.43-.23.14-.82.36-.78-.12.39.08.4-.14.56-.37.98-1.48,1.27-2.8,3.34-3.18,1.25-.23,1.19,1.65,1.59,2.35.24.42,1.88,1.15.63,1.46l-1.43-1.56.26,3.91c1.27-.26,1.52-2,3.11-1.55-.06,1.23.77,2.68,1.84,2.99v.91s-1.31-.52-1.31-.52c-.01.99-.08,2.25-.32,3.19-.16.62-.74.91-.72,1.59.02.64.68,1.8.99,2.42l1.86,2.69c-.43-1.81-.29-3.65,0-5.47-.9-.07-.64,1.36-1.82,1.04-.38-.38,1.67-2.81,1.88-3.45.55-1.66-.19-1.83-.34-3.17-.17-1.55.13-3.1.54-4.58l-.91.78c-.4.06-.45.01-.39-.39.16-1.14,2.45-3.42,3.66-2.59.33.23,1.6,2.56,2.33,2.98-.89.18-1.18-.73-1.82-1.04-.04,1.67.19,3.74-.58,5.28-.29.59-1.01.8-.98,1.49,2.2-.6,2.15.13,3.38,1.56v-2.35c-.45.08-.73.37-1.04-.13l.76-2.56,2.63-.57,1.56,2.36-.78.13c.87,1.6.42,3.47.53,5.21,2.17-.9,2.46.6,3.65,1.95l-1.56-.39c.59,1.7-.23,4.19-1.74,5.17-1.55,1-4.96.31-6.86.57.98,1.19,2.6,2.14,3.93,2.97,11.8,7.37,26.28,9.34,39.16,14.22.08-.33-.45-.91-.66-1.17-4.49-5.55-9.09-10.54-13.23-16.47-.44-.63-1.76-3.16-2.19-3.41-.66-.39-2.59.23-3.46.23-3.04-.02-4.11-4.19-4.43-4.19l-1.43,1.3c-.23-.69.37-.45.45-.56.07-.09-.18-.45-.06-.72.3-.67,1.14-1.13.91-2.1l3.12.78-.26-2.08-1.04.78c.35-1.18.95-2.1.52-3.39l-1.69,1.56c-2.15,1.42-2.61-.93-3.7-1.25-1.56-.46-3.34.56-5.5-.23-1.77-.65-2.39-4.14-1.87-5.82-.3-.08-1.85,3.03-2.08,1.69-.03-.15,1.36-2.37,1.56-2.6.94-1.06,1.74-.28,2.22-1.43.26-.02,2.24,2.36,2.99,2.08.14,1.34-1.32-.25-1.56,0,.59,1.74,1.44,3.6.78,5.47l2.36-.11c.58-.39-.04-1.4-.02-1.97l-.65.78c-.96-.41.55-2-.65-1.83-.11-.43.46-.12.53-.42.08-.37-.09-.86,0-1.25.12-.49.47-.92.51-1.34.08-.78-.49-1.82-.26-2.71l-1.2,1.79-.62.03c-.07-.42.72-.33.78-.65s-.55-.59-.41-.9c.05-.1,1.22-1.78,1.31-1.85.21-.17,1.43-.11,1.83-.5.44,1.37,1.35,1.74,2.48,2.48l-1.3.13.26,1.82c-.13-.96,1.67-1.23,1.74-1.68l-.43-1.34-.79.15c.45-1.12.8-2.71,2.28-2.83.6-.05.79.42,1.23.47,1.13.11,1.33-1.23.91-2.07l.52.52.78-2.47c1.6-.62,1.6.12,2.38.75.36.3,2.23,1.69,2.31,1.85.59,1.17-1.96-.78-2.08-.65.99,2.27,1.09,4.26,0,6.51l1.43-1.23c.51.66,1.08.13,1.51.23.52.12.96,1.04,2.26.48-.34-2.05.46-3.37,1.04-5.21-.35-.36-2.17,1.88-2.08.65l.02-.37c1.4-.12,2.78-2.59,4.25-2.31.97.19,1.27,3.24,2.5,3.33-.82,1.37-1.47-1.6-2.34-1.83l.13,2.35c.46.91,3.12.14,2.6,2.33l1.7,1.84c-1.67-4.41-3.68-8.92.26-12.76-.54-.48-2.49,2.53-3.38,1.69l3.58-2.7,1.89.23c-.47.85.3.96.46,1.5.28.98.36,2.18.58,3.19-.32-.12-.74-.51-.89-.8-.29-.56-.14-1.54-.67-1.8.22,1.89-.29,3.27-1.35,4.79-.2.28-.69.38-.75.61-.17.67.44,2.93.66,3.72.17.59.4,1.73.91,2.08.62-1.84,1.76-3.67,3.74-4.14.9.14.91,4.04,1.21,4.92h-1.03c-.08.96-.29,1.99-.66,2.86-.45,1.08-1.98,2.02-1.04,2.87.04-2.2,2.33-.73,2.87-2.86.26-1.03.06-2.11.2-3.19.2-1.55.9-2.65,1.23-4.11l-1.43,1.3-.38-.52c.76.12.26-.39.33-.46.23-.28,2.32-1.78,2.01-2.14l-.52-.26,2.56.04,1.48,4.12,1.36-1.27c.62.46,1.4.11,1.97.27.67.19,2.42,3.47,2.01,3.87-.75.74-1.38-1.96-2.08-2.08.1,1.84,0,3.45-.52,5.21.48-.91,2.93-1.96,3.14-.8l.37.02c.45-1.08.81-.58,1.78-.79l.44.66-.53.25.83,1.39,1.13-.21c.44-1.32.93-2.77.52-4.17-1.37-1.58-6.57-4.39-7.29-5.99-.71-1.57.08-3.12.39-4.69l-.78.52c-.25-1.2.45-1.33.95-1.91.26-.31,0-.88.74-.97,1.82-.22,2.44,1.46,2.47,3.01l-.52.13-.52-.78c.35,1.49-.4,3.17-.97,4.56l2.66,2.47c1.06-.04-.29-.94-.5-1.32-.69-1.22-.27-2.09-.15-3.37l-.52.78c-.39.04-.61.1-.52-.39.15-.84,1.69-1.69,1.58-2.73.61.36,1.45-.12,1.9.02.56.17,1.24,2.58,2.27-.54l1.9.48.82,2.89c1.82-2.74,5.15-2.37,4.82,1.31,2.56.31,2.4-3.11,5.45-1.8.07,1.13.5,2.58.44,3.71s-.69,1.78-.71,2.91c-.02,1.3.61,2.71.55,4.04l.76-2.49c-.11-2.05.14-3.98,1.32-5.71-.29-.41-.67.22-.96.34-1.58.66.66-1.54.84-1.77l.52.52.13-.52,1.5.32c.77,3.62,2.23,5.1,4.22,1.11l-.92.06-.38-.71c1.07.13,2.23-.36,2.73-1.31h.65c.03,1.85,2.54.67,3.64,1.71.64.61.33,2.42.85,3.19,4.04.2,1.94,2.09,2.27,4.09.3,1.85,6.38,0,7.16,2.46,3.64-2.72,4.5-1.76,4.56,2.63-.48-.38-.22-.59-1.05-.39l-.51,1.69c.23.21,3.21-.95,3.5-1.31.38-.46.63-1.81,1.44-2.33l-1.56.13c1.62-1.33,4.58-1.98,4.69.91,1.01-.32,1.08-1.12,1.72-1.8,2.62.39,1.9,2.21,2.71,4.15-1.32.36-.74-1.43-1.56-1.82-.09,1.78-.57,3.6-1.56,5.08l.78.13-.26,2.6,1.82-1.43-1.56-.65c1.31.44,3.22-1.02,4.18-.13.4.37-.34,2.35.21,3.1l-.74.42-.52-1.04-.26,1.3c.78-.54,1.18.46,1.43.46.12,0,.45-.41.8-.45,1.27-.16,3.58.08,3.25,1.81l.39-.52c.65.68.94,1.13.66,2.07l1.79.56-.24,3.62c-1.63.03.22-1.95-1.04-1.82-3.08,7.11-10.77-.59-15.18.32-1.25.26-5.19,2.94-6.69,3.72-13.93,7.23-28.05,12.78-43.44,16.2-2.79.62-5.97.17-7.54,2.88l-2.4,10.49c1.96-.81,4.67-1.43,6.69-.57.52.22,1.43,1.05,1.55,1.07.17.03,1.44-.84,2.11-.95,1.33-.23,3.99.33,5.27.85.69.28,1.76,1.39,2.2,1.41,1.86.11,3.59-1.83,5.25-2.04,2.12-.27,3.22,1.02,5.43.74.63-.08,1.16-.45,1.85-.51,2.54-.2,5.05,1.82,5.08,4.42,1.59-.02,3.95.79,5.29,1.61,1.42.88,2.23,3.31,4.07,2.57l-.26.78c.7.12,1.38.4,2.01.73,1.48.77,6.73,3.92,7.48,5.02.43.63.54,1.37.93,1.94s1.25,1.08,1.68,1.71c1.18,1.72,2.03,4.3,2.22,6.37.06.59-.19,2.38-.13,2.48.14.24,1.29.75,1.69,1.16.98,1,.93,2.22,1.38,2.92.18.3,1.83,1.25,2.28,1.75,2.58,2.84.96,8.81-1.57,11.22-1.49,1.42-3.36,2.7-5.46,2.22-.11,2.01-1.34,3.84-2.87,5.07-1.44,1.15-3.92,1.75-5.1,2.98-.44.46-.51,1.49-.94,2.19-.91,1.49-2.92,2.38-4.65,2.15-3.4-.45-7.51-3.94-8.86-7.04-1.11-2.55.23-3.36.51-5.51.19-1.44-.3-2.91.09-4.34.21-.78,1.52-2.42,1.12-3.06l-14.2-10.94c-3.89,11.99-8.22,23.78-13.28,35.31,1.69.41-1.12,3.59-.78,4.03l1.03.13-2.08,3.52c3.38-.53,1.82-.17,1.16,1.55-.34.89.04,1.31-.8,2.34-.22.27-1.05.27-.49.8,2.53-.55,1.16.13.77,1.29-.36,1.09-.27,2.21-1.42,3.01l1.03.78-2.34,2.61c.2.46,1.84.13,1.56.78l-2.34,2.61,1.41-.12.39.61c-1.19,2.01-2.48,3.4-4.4,4.72-.1.55.21.43.6.34.8-.19,1.83-1.05,2.14.06,1.3-1.02,1.68-.02,2.59,0,1.14.04,1.92-1.34,2.12.27.51.33,1.3.1,1.74.23.3.09.26.62.61.74.62.22,2.04-.02,2.84.04.39.03.75-.2.64.39l-3.12,1.96.77.65-1.82,1.18c-.33.65.58.46.52.64l-1.82,1.31.52.65-1.56.65,1.29,1.04c.01.71-2.78-.12-3.38.39l1.3.64c-1.05.95-2.45,1.94-3.9,1.96l.52,1.04-1.81.28v1.03s-2.1,0-2.1,0l.26.52h-2.34s.26,1.04.26,1.04c-.61.2-1.45-.33-1.92-.27-.17.02-.14.48-.34.53-.73.19-1.45-.13-2.11-.18-.37-.03-.94-.36-.84.31l1.93.14.33.38-.18.65,2.6-.26-.52,1.3c1.77.82,2.55-1.18,4.25-1.87.95-.38,1.74-.6,2.78-.47-1.49,1.16-2.59,2.56-2.84,4.52l1.8.96-.78,1.3,1.78.3c.54.62-.41,1.14-.1,1.54l1.7.52-1.04,1.3,1.82.65-1.03.78,3.12,3.91-1.56.52,1.69,1.43,2.87-4.68.39.52.87-.5,1.21.77-4.64,9.31c-.24,1.43,1.41,1.33,1.26,2.01-.2.67-1.83.07-1.56.78.11.3,1,1.28,1.29,1.59.26.27.76.34.79.38.6.68-1.3.43-1.29.91l2.08,1.83-1.04.78.78.13c.08.7.02.66-.52.91.54.58,1.71,1.8,1.95,2.49.12.36-.11.74,0,1.02.53,1.32,1.24,2.56,1.69,3.91-.5.47-3.44-2.27-4.53-2.1l-.51.52c-.87-.9-2.13-1-3.01-1.42-.65-.31-.86-1.25-1.39-1.5-.31-.15-1.2-.08-1.6-.46-1.07,1.1-.26,1.63.63,2.5l-1.04.78,2.86,3.65-.78.39c-.42.46,1.93,2.74,2.34,3.26l-1.03.78,1.45,1.67c1.59-.06,1.14-1.78,1.53-2.34.19-.27.72-.14.94-.42.38-.48.39-2.03,1.01-2.57.79-.52.84,1.09,1.18,1.44.22-.45,1.13-.75,1.3-1.05.23-.4.05-1.02.25-1.32.24-.36.95-.08,1.22-.41.44-.54.7-2.59,1.41-2.96.58-.3.3.66.4.75h1.51c.09-1.14,1.33-1.87,1.67-2.64.3-.69.1-1.58.72-2.16.79.22,1.1-.22,1.68-.34.24-.05.6.3.92.11.09-.05,1.17-1.48,1.25-1.64.25-.53.27-2.04.71-2.16l1.42.52.26-2.6,1.3.26.39-2.88c.26-.39.8.1,1.04-.23.48-.65,1.14-2.56,1.76-3.47.21-.31.21-.57.71-.46.47,1.06.11,2.2.28,3.24.07.47.38,1.77.5,2.31.07.3.68.27.75.59.14.57-.53,2.42-.75,2.98h.78s-.78,1.96-.78,1.96l.78.26-.53,3.51h1.04s-1.05,2.22-1.05,2.22l.51.74-1.02,1.34,1.3.26c.04.75-.87,1.64-.99,2.14-.09.39.23.82.04,1.3-.16.4-1.14.74-.88,1.89h1.3s-1.3,2.48-1.3,2.48l.78.52c-.93.98-1.94,1.02-1.32,2.61l-.77.13c-.21.95,1.15.38,1.69.52.63.95-1.28,1.35-1.58,2.09l.39.65c-.99.53-1.21,1.22-1.8,2.09l1.82.65c.42.57-1.85,1.68-2.08,2.21l1.04.91c-1.03.38-2.44,1.07-1.84,2.31l-2.32,1.47,2.08,1.04c0,.38-1.88.91-2.16,1.15s-.11.72-.6,1.02c-.41.25-1.17.27-1.66.3l1.04,1.56-2.86,1.05.52,1.04-3.12.53.51.91-1.04.39c.02,1.77.81.63,1.17.61.27-.01.58.42,1,.38.64-.05,2.13-1.58,2.86-1.85.59-.21.92.11,1.29.02.44-.11,1.09-1.07,1.68-1.2.34-.07.7.17,1.11.09.63-.13,1.58-1.05,2.01-1.14s.88.26,1.44.17c.58-.09,1.43-.85,2.22-.96.61-.08,1.15.21,1.46.16.38-.07.63-.78,1.12-.93.22-.07,3.02-.7,3.18-.72.36-.03.66.41,1.18.42.73.02,1.36-.56,2.09-.54l-.13.52c2-.23,3.7.04,5.63-.77.52-.09.51.73.8.8.62.13,2.06-.55,2.79-.55l.31.55c1.3-.5,2.74.04,4.11-.1.48-.05.86-.5,1.61-.46.33.02.71,1,1.68.55.84.77-2.39,1.97-2.61,2.21-.33.37-.18.93-.52,1.31s-2.27,1.12-2.86,1.17l.78.51-2.32,1.07.19.6-1.51.68.26,1.04c-1.71.1-3.37.59-3.43,2.56l-3.86,1.35,1.04.78c-2,.28-3.54,1.86-5.73,1.57l.52.78-2.34.27.52.78-3.37.8-.17.73-2.44.04c-.08.41.47.24.65.51.22.34.07.91.37,1.45.46.81,3.87,3.47,4.84,4.28,3.95,3.3,8.37,6.56,12.54,9.6,1.77,1.29,7.81,4.87,8.68,6.17.6.9.56,1.62-.14,2.47-1.9,2.26-3.73-.7-4.98-2.05l-1.55.98c-.31.06-1.08-.42-1.38-.63-5.12-3.46-11.44-9.06-16.28-13.15-1.27-1.07-6.79-6.45-7.62-6.71-.21-.06-.38-.08-.59-.06l.26.78-2.73-.78.13,1.04-2.86-.26,1.04,1.82c-1.26-.04-2.55.26-3.64-.52v1.04s-3.91-.78-3.91-.78l.52,1.56-3.38-.26.26.78c-.79.1-1.44-.19-1.95-.78-.48,1.31-1.94-.02-2.86-.26l.13.78-2.86-.52v.78s-3.12-1.04-3.12-1.04c.2,1.98,1.31,1.51,2.86,1.82l-.26.78,2.07.29.16.77,2.98.24-.52,1.04,3.12.27-.52,1.04,1.57.27-.02.92,3.14.12-.26,1.04,3.64,1.05c-3.12,2.87.98,2.18,2.35,2.99.57.34-.42.94-.79.92.46,1.74,2.51.83,3.9,1.04l-1.04,1.43.72.5-.21.93,3.91.52-.52,1.17.79.13-.26,1.04,2.89.12c.65.02.45.83.74,1.08.08.07.93-.18,1.39-.11.66.1.63.6.91.72.6.25,1.52.15,2.16.41.36.22-.08.72.01,1.01.15.49,1.23.16.5,1.73.7-.28,1.52-.61,2.28-.71,1.53-.2,2.44.51,3.97.19l-.26.78,2.86-.52v1.56c1.03-.84,1.76.02,2.44,0,.94-.03,2.54-1.06,3.7-1.06.47,0,.32.48.55.54.4.1,1.81.24,2.29.27.97.06,1.37-.93,1.85.8,1.31-.57,2.1.59,2.63.73.59.15,1.3-.59,2.27.06.68.46.11.93.16,1,.17.25,4.92,1.53,4.94,3.14l-6.25-.78-.03.74c-1.51.27-2.68.79-4.26.84s-.78.11-1.35.25c-.6.15-1.51-.1-2.17,0l.26,1.04h-2.08s.26.52.26.52l-2.09.26v1.05s-2.2-.02-2.2-.02l-.29.82-3.24-.28.26.78-1.55.03-.15.77-2.47-.54v1.05s-2.34-.53-2.34-.53v.78s-2.6-.51-2.6-.51l.52,1.56c-.4.31-3.15-1.16-3.84-1.24-1.06-.13-.73.12-2.03-.31-.84-.28.35,1.05-.51.77-.4-.13-1.94-1.27-2.22-1.04l1.3,2.47c-1.45.51-2.5-1.07-3.71-1.5-1.31-.47-2.84-.5-4.1-1.5l-.05.74-.72.05c-.28.27.86,2.79-.15,2.6-.94-.17-2.87-2.11-3.79-2.73s-2.4-1.21-3.54-1.64c-.51-.2-1.12-.84-1.52-.85l-.13,1.05-1.82-.26c-.04.91.67,1.61.78,2.48.04.35,0,.5-.38.38-.51-.16-2.83-1.7-3.35-2.12-.38-.31-.71-1.03-.94-1.13-.29-.13-.82.31-1.32.01-.31-.19-1.06-1.6-1.69-1.98-.37-.23-.79.03-1.42-.38s-1.16-1.54-1.45-1.69c-.64-.32-.37,1.31-1.03,1.04-.24-.1-1.66-1.64-1.96-1.3l.26,1.82c-1.73.23-2.5-1.49-3.5-2.36-.64-.56-1.44-.61-1.84-1.54-.86.34.09,2.85-.78,2.6-1.48-.12-2.95-3.85-3.25-4.06-.27-.19-.75.23-1.05.04-.62-.37-.97-3.05-2-1.75l-.34-.07-1.44-2.23-1.3,3.12c-1.27-.79-1.28-1.98-1.84-3.1-.17-.33-.62-.56-.84-.99-.3-.59-.49-2.46-.63-2.62s-.76-.01-1.11-.58c-.46-.75-.28-2.61-.43-2.82-.16-.24-1.06.06-1.22-1-.33-2.19,1.67-4.27,2.81-5.94.06-.43.02-.42-.39-.39-.35.02-3.98.92-4.18,1.03-.66.38-3.45,4.27-3.97,5.15-1.12,1.91-1.8,4.05-2.87,5.99-2.32,4.21-5.62,6.98-6.48,12.01-.6,3.5.1,8.5-4.37,3.18-.38.16-.68,2.94-1.95,2.86.35-7.93,2.86-15.51,3.87-23.35.43-3.31.63-6.66.82-9.99-.53-.08-1.16.41-1.66.24-.37-.13-.34-.76-.57-.78-.26-.02-.92.41-1.34.48-.96.15-1.98.14-2.93.32l.26-1.04-3.38.26c-.02-.34.02-.68.17-.99.2-.4.67-.16.61-.57l-2.34.26-.15-.8-3.24-.25.52-1.04c-.2-.15-2.12.12-2.68,0-.22-.05-.21-.44-.36-.52-.9-.45-1.97-.21-2.94-.26l1.03-1.43-2.6-.65,1.04-1.3c-.68-.34-3.33-.41-3.66-.64s-.17-1.45-1.29-1.19l.27-.78-1.3-.27.52-.78-1.82-.53.26-.78-2.6-.26c-.12-1.03,1.44-.99,1.3-1.82l-1.07-.12c-.08-1.41-2.61-1.6-3.47-2.24-.44-.33-.29-.84-.59-1.03-.42-.26-3.7-.63-2.93-1.8.23-.35,3.13-.72,3.37-1.57-1.72.11-1.26-.98-1.61-1.51-.07-.1-1.32-1.24-1.67-1.59s-1.16-.73-1.66-.81l.78-.91c-.1-.22-1.54-1-1.82-1.07-1.17-.29-2.36,1.39-3.56,1.4-.36,0-.58-.4-.94-.4-.81-.01-2.3,1.18-2.66-.08l-2.62,1.06-.76-.78c-.76.32-2.21,1.41-2.93,1.52-.88.14-1.95-.49-3.04.29l-.41-1.03c-2.93,1-6.13.52-9.11,0-.51-2.33,4.19-1.33,3.39-3.38,2.71.68,3-1.9,4.95-2.35l-.48-.65c1.03-.56.97-1.58,1.39-2.19.53-.77,1.32-.8,1.62-1.14.24-.27.21-.86.84-1.38.33-.27.93-.34,1-.43.18-.22.02-.96.39-1.44.57-.72,4.07-1.71,4.12-2.55.08-1.2-1.04-1.94-2.11-1.96l.46-1.17-2.17-2.21.41-.65-2.3-1.47.74-.87c-.29-.6-1.61-1.25-1.84-1.62-.16-.26-.12-.74-.25-.91-.69-.9-1.36-1.85-2.59-2.05.72-1.4-1.33-1.9-1.54-2.77-.13-.5.32-1.03.11-1.37-.22-.36-5.42-2.61-3.79-3.53.31-.18,1.08.31,1.56-.37.41,1.32,2.86.69,3.72.82.7.11,1.45,1.01,1.99,1.12,2.53.55,3.01.85,5.24,2.06.79.43,2.23.79,3.05,1.13.56.24,1.03.99,1.51,1.38l.13-1.04.66-.27c.48,1.26,1.8,1.02,2.6,1.56.37.25.87,1.06,1.15,1.17.7.25,1.5-.55,2.23,1.17,1.14-1.42,2.14.31,2.98.42.36.05.57-.43.89-.38.36.06,1.98,1.68,2.38,2.05l.54-1.03c1.84.51,2.03,1.88,4.1.72.75-.42.16-.8.17-1.51l2.87-.52-.26-1.04c.78-.39,1.71-.12,2.43-.27.2-.04.2-.65.89-.73.76-.09,1.49.4,2.24.22.22-.05.08-.55.55-.54,1.05.01,2.39.73,3.17.8,1.46.14,3.22-.02,4.87.32.86.18,1.51,1.1,1.94,1.21.47.12.91-.23,1.38-.11.6.15,1.41,1.13,2.06,1.34,2.36.74,5.62-3.62,7.04-5.23-1.14-.1-2.32,1.17-3.47.91-.21-.05-.08-.52-.56-.55-1.53-.12-3.34,1.14-4.92.24-.34-.19-.39-.68-.61-.74-.88-.22-3.92.36-3.46-1.3-1.15-.02-2.81.1-3.84-.46-.52-.29-.6-.79-1.01-1.07-.64-.44-1.77-.45-2.44-.94l-.24-.26.48-.52-2.84-1.44.52-1.03c-.39-.08-2.2-.66-2.3-.83-.16-.27.06-.85-.17-1.26s-1.48-.6-1.85-1.04l.15-1.04c-.72.08-.89-.23-1.17-.78-.51,1.21-1.61.71-1.69.78-.1.09-.67,1.93-1,2.52-.38.67-1.88,3.41-2.26,1.91-.94.73-1.56,2.53-2.83,2.59-.21.01-.63-.29-.68-.25-.04.03-.1.6-.3.87-1.11,1.55-1.43.45-2.18.93-1.17.73-2.18,3.62-3.13,4.45-.33.29-.45.34-.9.27-.37-.37,1.02-4.88,1.04-5.64.01-.7-.38-2.33-.24-3.33.12-.84.6-1.98.76-2.89l-.75-.14c-.13-.85.07-1.75.42-2.52.81-1.79,2.03-4.41,2.49-6.38.28-1.22.26-2.9,1-3.95.33-.48,1.09-.5,1.01-1.2-.15-.14-3.17,1.73-3.9,1.3l.26-1.04-2.73.78-.14-.78c-.77-.1-1.46.57-2.2.52-.48-.04-.83-.48-1.31-.49-.61-.02-2.14.76-2.99.9-.54.09-2.83-.46-2.09.63-1.8-1.02-3.67.5-5.61.53-.97.02-2.09-.43-2.72-1.18,1.16-.58,2.18-.61,3.36-1.32.8-.48,1.46-1.37,2-1.9,1.14-1.11.81-.63,1.81-1.05.83-.35.58-1.02,1.16-1.47.38-.29,1.01-.27,1.24-.45.2-.17.29-.84.71-1.24.46-.44,1.31-.74,1.96-.78l-.78-.91,2.86-1.71c-.86-1.34.85-1.41,1.19-2.08.27-.53-.15-1.07-.02-1.32.19-.36,2.17-1.36,2.74-1.29-.22-.51-1.09-.04-.92-1.04,1.38-1.1,3.27-.46,4.05-2.21.27-.61-1.16-.46-1.29-.66v-.75c.74-.13,2.89-1.56,3.26-2.09.39-.57-.08-.43-.41-.66-.03-.84,2.68-1.29,3.39-1.17.16-.82-.79-.28-.52-1.3l2.87-.52-.52-1.04c.68.07,1.16-.1,1.56-.65l-1.05-.25c-.4-.29-.15-.42.13-.66.92-.78,2.6-1.22,3.67-1.81l-.16-1.05,3.39-.52v-1.05c.17-.18,3.51-.13,3.99-.25.28-.07.14-.53.17-.53h3.65l-.13-.79c-.93.11-1.95.46-2.87.53-.65.06-1.23-.29-1.75-.22-.62.08-1.26.93-2.1.74-.19-.04-.17-.54-.31-.55-.45-.03-1.16.66-1.76.5-.32-.09-.53-.58-.88-.69-.67-.2-1.57.15-2.17-.18l.26-1.18-4.29.78-.27-.79-6.89.79c-.48-.92,1.64-2.02.26-2.22-.81-.11-1.42.59-1.71-.4l-3.11,1.06-.13-1.05-4.43.26c-.24-1.06.91-1.11,1.3-1.82l-1.3.26c.23-1.58-.83-1.19-1.94-1.58l-.15.53-1.44-1.02.15-1.06c-.97-.66-3.62-.3-4.18-.65-.66-.41.26-.95.26-1.05-.01-.9-3.6-1.45-4.4-1.45.28-1.04-.54-.78-.54-1.54.54.24,1.05.46,1.3-.26-1.46.06-1.1-1.21-1.35-1.52-.12-.15-.93-.09-1.26-.43-.31-.32-.21-.92-.5-1.32-.3-.43-1.74-1.03-1.97-1.42-.31-.52-.01-1.15-.12-1.64-.03-.12-1.21-.79-1.44-1.5-.15-.48.21-.89.09-1.36-.14-.57-.9-1.67-1.28-3.13-.03-.1-1.17-1.06-1.36-1.56-.15-.41.14-.8-.05-1.21-.48-1.04-2.96-2.47-2.48-4.44.39-.38,3.46,1.68,4.04,2.08.7-1.51,2.11.28,2.99.65,1.26.53,2.02-.02,3.21.19.48.08,2.35,1.48,3.2,1.51.63.03.96-.64,1.48-.5.42.11,1.34,1.26,2,1.42.4.1.77-.16,1.12-.09.82.15,1.44,1.17,2.5.43.28-.44-.38-1.3.43-1.27,1.39.06,2.85,1.69,4.8,1.71.53,0,1.38-.7,2.36-.14.36-1.14-.86-1.45-1.16-2.09-.51-1.08-1.03-2.79-1.59-3.88-.3-.58-1.3-1.47-1.38-1.77-.13-.52.27-.98.18-1.45s-1.08-1.24-1.14-1.99c-.03-.35.38-.56.36-.89-.03-.49-.78-1.09-.76-1.88.02-.57.55-.94.5-1.24-.26-1.6-1.02-4.4-1.02-6.06,0-.48.51-.33.55-.55.03-.13.27-2.37.27-2.56.04-.87-.62-1.71-.56-2.35s.79-.55.81-.8c.03-.33-.58-1.17-.56-1.81.02-.6.5-.88.54-1.3s-.55-1.23.15-1.42c.44-.12.96.68.9-.14-.07-1.01-.87-1.66-1.01-2.41-.16-.84.53-1.07.45-1.69-.08-.59-1.04-1.66-1.01-2.43-.1-.52.76-.53.8-.79.08-.46-.61-1.25-.57-2.06.02-.55.65-.24.53-.74-.25-.71-1.1-1.42-1.34-2.06s-.12-1.27-.33-1.76c-.79-1.88-2.21-3.49-2.47-5.57l.64-.41c.51.11,1.83,2.36,2.34,2.87.34.34,2.94,2.77,3.13,2.88.34.2.68-.03.9.11.4.26.68,1.29.85,1.38.34.19.92-.08,1.21.09.12.07.46,1.46.94,1.81.43.31,1.02-.17,1.18-.03.19.16.19,2.59,1.53,1.84l.6,1.5c1.63-.3,1.69,1.64,2.94.57.35.06.9,1.73,1.24,2.01.08.06.41-.17.73.18.35.38.85,1.77,1.11,1.91s.67.02.97.2c.32.19.07.88.78.65l.65-1.04c.96.49,1.63,2.96,2.6,2.88l.27-.55.48.04,2.02,2.81c1.79-1.19,2.11,1.98,2.61,2.35.1.08.52-.17.77-.11.99.23,1.39,2.38,2.05,3.14l1.31-.4c.48,1.61,1.74,2.63,1.83,4.43.87.1.63-1.35,1.82-1.04.11.51.68,3.49.83,3.61.17.14.74-.02,1.01.16l.26,2.48,1.18.25.37,2.88h1.04s.26,2.87.26,2.87l.65-.18.36.34-.23,4.52.78-.26v4.43ZM126.35,5.44h-.78c.04,1.48.16,2.74-.69,4.03l1.22,1.95h.52c-1.09-1.79-.18-3.99-.26-5.99ZM89.63,12.46l-.77-1.7-.53-2.98-.54,1.93.54.54c-.56.78-1.19.19-1.82-.13l.52,2.6c1.02.02,1.69.29,2.6-.26ZM128.43,12.47l.26-2.86c-.35.02-.75.96-.78,1.19-.04.3.07,1.58.52,1.67ZM115.51,12.12c-.38-.77-.2-1.88-1.14-2.26.54,1.91-.03,4.4-1.09,6.08-.54.85-1.61,1.46-1.8,2.63l1.19.92,1.7-1.22.77-3.2c-.49.24-.72.03-1.02-.39l1.8-2.09c.17-.45-.36-.37-.41-.47ZM154.47,12.21l1.03-.65c-.57-.42-.57-1.03-.52-1.69l-.52,2.34ZM129.99,12.99c.11-.12.28-1.03.26-1.3-.6.17-.55.83-.52,1.3.08-.01.22.04.25,0ZM139.36,11.95c-1.96.18-1,1.98-.39,3.13.2.37.52,1.15.91,1.3l-.52-4.43ZM102.39,15.6c1.15-.58,1.52-1.76.39-2.6l-.39,2.6ZM144.05,12.99c-.62-.11-.49.06-.64.52-.3.94-.44,2.15-.66,3.13.34-.16.83-1.24.92-1.55.2-.69.02-1.43.38-2.09ZM136.75,13.26l-7.47,2.4-1.37,3.98c1.73-.13,2.18.59,3.49,1.19.2-.03.7-1.47,1.19-1.73.23-.12,1.9.1,2.03.19.22.15.54,2.17,1.09,2.56l-1.3-.26-.26,2.35c.82-.76,1.22-1.06,2.37-1.19l.75-2.97h-1.56c.02-1.34,2.13-2.12,3.38-1.57l-2.36-4.94ZM86.77,15.08l-.13-1.3-.65.26v.39s.78.65.78.65ZM153.16,19.24c-.23-2.08.19-3.62,1.04-5.47-2.17.33-1.54,1.19-1.95,2.9l.91,2.57ZM144.31,16.64c.8-.51,1.62-1.31,1.56-2.34-.97.38-1.56,1.28-1.56,2.34ZM98.48,19.5c-.17-1.16-1.46-1.27-1.95-1.83-.24-.27-.89-2.4-1.05-2.34-1.56,1.85,1.44,3.68,2.99,4.16ZM147.18,15.86c-.36-.37-1.91,1.56-1.82,2.08l1.42-1.05.4-1.03ZM88.33,17.94c.67-.38,1.18-.76.78-1.56l-.78,1.56ZM149,16.9l-.93.24-2.19,1.84c1.67-.62,2.76.06,3.12-2.08ZM91.19,17.16c-.61-.17-.44.16-.59.33-.5.57-1.02,1.15-1.49,1.75h2.34s-.26-2.08-.26-2.08ZM106.03,19.24c.11-.13-.45-1.31-.78-1.3-.42.91.01.96.78,1.3ZM101.34,19.26l-1.56-.53,1.17,1.82.39-1.29ZM154.99,21.59l.26-2.6-.8.43.54,2.18ZM163.58,19.5c.33,2.34,1.61.98,1.82-.52-.6.21-.92.34-.78,1.04l-1.04-.52ZM150.28,19.25l-6.49,1.69c1.21.44.71,1.84.78,1.95.2.31,2.59-.29,3.26.78l-.13,1.83c.87-.93,3.08-2.03,3.92-.6.35.6-.07,1.66.63,1.64.42-.43.97-.69.88-1.37-.19-1.34-2.43-4.41-2.84-5.92ZM96.92,20.54l-1.3-1.04c-.02.38-.09.71.25.92l1.05.12ZM160.2,21.07c.58-.3,1.16-.84,1.04-1.56-.3.08-1.18,1.4-1.04,1.56ZM157.33,22.37c.22-1.1,1.6-1.32,1.3-2.6-.49.29-1.11.86-1.36,1.37-.12.23-.49,1.24.06,1.23ZM176.34,20.29l-1.01.03-1.33,3.09c.56.54,1.95-2.79,2.34-3.12ZM90.41,20.55c-.41.13-2.29-.36-2.08.38,2.02,2.62,2.21,6.93,6.24,7.17-1.55-1.44-3.19-2.71-3.52-4.96l-1.43-.25.78-2.34ZM102.91,25.23l1.54-4.04c-1.62-1.38-2.41.84-2.2,2.49.04.34.24,1.46.66,1.55ZM116.71,20.55h-1.04c.37,1.01-.04,1.97-.52,2.86l1.04.26.52-3.13ZM113.06,21.33c-.56-.09-.88.37-.78.91l1.04.39-.26-1.3ZM130.97,22.43c-.05-.08-1.05-.82-1.23-1.1.39,1.55-.55,3.18-.54,4.56,0,1.23.86,2.05.8,3.26.68.07.41,0,.53-.38.19-.64.68-2.39.71-2.94.02-.38-.18-3.25-.26-3.39ZM164.32,21.89s-.57-.2-.74-.3v1.82c.77.19,1.01-1.11.74-1.52ZM161.23,23.67l.26-1.82-2.34,1.57c.23.58,1.56.12,2.08.25ZM127.65,22.11c-.56-.11-.61.26-.8.63-.35.68-1.03,3.36-.97,4.11.15,1.79,1.98,2.09,3.07,3.33.27-.34-2.37-6.91-1.3-8.07ZM168.26,22.89v-.52h-.26v.52h.26ZM140.4,26.8c.08-.86-.13-1.85.06-2.68.14-.62.76-.86.72-1.49-1.17,1.25-2.67,2.82-.78,4.17ZM59.16,28.88l-1.18-3.11-.37-2.88c-.03.72-.78,1.79-.72,2.43.07.73,1.54,3.08,2.27,3.56ZM55.37,25.39c-.25-.31-2.09-2.63-2.45-2.24.62,2.21,1.19,4.29.56,6.62.78,1.25,4.4,1.55,4.39-.23,0-.55-2.01-3.54-2.5-4.15ZM110.98,24.19l-1.3-1.04c-.32.38.85,1.17,1.3,1.04ZM96.4,23.41c-.91-.14-.38.39-.25,1.04h.52s-.26-1.04-.26-1.04ZM100.04,24.71v-1.3h-.26v1.3h.26ZM96.4,27.58c-.34-.89-.71-1.77-1.17-2.61-.21-.38-.52-1.15-.91-1.3-.29,1.71.39,3.34,2.08,3.9ZM161.76,25.24h4.56c.5,0,1.1-1.1.78-1.57-1.43.99-3.02.85-4.62,1.11-.24.04-.78.11-.71.46ZM112.54,51.55c-.03-3.25.04-6.52.27-9.77.25-3.64,1.36-8.78,1.23-12.17-.02-.42-.21-1.61-.43-1.92l-5.23-3.49c-.41,7.77,1.39,15.35,2.72,22.93l1.44,4.42ZM132.08,31.23c.56.06,1.02-.16,1.43-.52.38-.32,3.73-5.03,3.78-5.36.07-.45-.01-.87-.4-1.16-.39,1.52-1.42,2.87-2.69,3.82l-2.12,3.21ZM123.22,53.11c6.19-1.38,12.34-3.22,18.36-5.2s11-3.85,16.53-6.64c3.65-1.84,10.31-4.94,13.36-7.22.39-.29.91-.57.96-1.13l-1.3-8.72c-3.26,3.66-8.13,2.23-12.37,1.83-.78-.07-1.44.15-2.08.13-.21,0-.48-.39-.78-.4-.62-.01-2.36,2.23-2.21,2.34,1.79-.04,4.32.26,3.91,2.61l1.66-.02c.26,1.54,1.14.78,1.68,1.1.47.28.59,2.68,1.34,2.57-.29.76-.73.57-1.19.01-.35-.43-.21-1.01-.63-1.06-1.76,5.85-4.47,3.39-8.33,2.21-.85-.26-4.69-1.29-5.28-1.13-1.63,1.14-2.93,2.63-4.5,3.86-5.43,4.25-10.88,9.62-16.6,13.09-.82.5-1.85,1.1-2.52,1.77ZM113.85,24.46h-.78s.65.78.65.78l.13-.78ZM134.16,24.72c-2.19.34-2.35,2.91-2.6,4.69,1.66-1.25,2.07-2.8,2.6-4.69ZM121.4,25.24l-2.34,1.3,2.1-.11.24-1.19ZM100.05,27.58l1-.67-.22-1.15-.78,1.82ZM108.38,44.25l-2.34-18.49c.2,1.65-.3,3.87-2.35,3.65-.53.52,3.61,12.55,4.24,14.13.11.28.08.78.45.72ZM91.19,30.18c-.7-2.28-2.8-3.06-4.95-3.64l1.94,1.83.68,2.05,2.33-.24ZM138.58,26.8h-.51s-.53,1.04-.53,1.04c.81.12,1.16-.25,1.04-1.04ZM69.06,28.36c-1.41.28-1.02-.71-1.82-1.3l.26,3.13c.35-.14,1.86-1.55,1.56-1.82ZM114.63,51.55l8.85-24.49c-2.12,1.08-4.78.16-7.11.82l-.4.38c-1.04,7.4-1.88,14.86-1.6,22.37.01.31-.2.97.26.91ZM138.3,28.39l-1.02-.16-1.81,2.74,2.54-.32.29-2.26ZM144.05,29.14v-1.04h-.26v1.04h.26ZM147.03,29.78c.52-.57.88-.55.66-1.68-1.78.54-3.07,4.33-.66,1.68ZM64.64,34.09h5.47c-.16-2.16,1.06-3.63,1.82-5.47-.65.27-1,1.09-1.56,1.43-.23.14-.83.36-.78-.12.66-.15,1.53-.83,1.56-1.57l-4.16,4.04-2.35,1.69ZM175.91,31.84c1.16-1.05,2.34-1.52,1.99-3.48-.69.48-.91,1.4-1.45,2.06s-1.5.63-1.15,2.11c.36-.02.4-.5.61-.69ZM94.32,29.15l-1.3.13.65.41.65-.53ZM127.91,30.97l-2.34-1.57-.24,1.8,2.45.29.13-.52ZM101.86,29.68l-2.34.11c-.44.27.08,1.45.21,1.9,1.08,3.72,4.25,9.58,6.18,13.09.21.38.51,1.15.91,1.3l-4.96-16.4ZM122.7,49.72c.73.61,13.66-8.49,14.85-10.02.87-2.06,4.29-5.01,4.84-6.9.21-.74-.96-1.95-1.46-2.49-.97-.39-.74,3.05-.91,3.53-.31.87-.39-.71-.91-.26-.02,1.3-1.61,1.23-1.31,2.6l-1.04-.52c-.8,3.36-3.39,3.32-4.82.26-4.02,3.94-5.88,9.38-9.24,13.8ZM102.65,42.17l-5.33-11.46c-.73-.65-2.37-.09-3.26,0l3.69,5.82c1.01,1.28,2.08,2.53,3.08,3.76.21.25,1.31,2.36,1.82,1.88ZM136.44,31.81l-2.12.46c-.35,2.11,1.78.66,2.96.52l-.84-.98ZM156.29,31.75c-.33-.17-.91.42-.78.52.33.17.91-.42.78-.52ZM151.34,32.01c-.72,0-1.86-.25-1.82.78.85.36,1.72.36,1.82-.78ZM128.95,32.53c-1.6.45-3.32.37-4.87-.21l-.46.2-6.9,18.25c.27.28,1.22-.81,1.44-1.04,2.52-2.66,8.58-8.84,9.58-12.04.52-1.65.66-3.5,1.22-5.16ZM181.55,32.27c-.8.31-1.41.69-2.25,1.02-.37.14-.76-.25-.61.54l2.57-.29.29-1.27ZM153.43,34.09c.96.18,1.53-.36,1.56-1.3l-1.56,1.3ZM178.42,33.32h-.78v.26h.78v-.26ZM134.68,34.36l-1.56-.52c-.33.75-.2,1.79.77,1.82l.79-1.3ZM184.15,35.14c-1.52-.5-3.63-.88-4.95.25l4.05,1.25.9-1.5ZM65.94,38.52l-3.38-2.6c-.55,1.79-2.6,2.56-3.39,4.43.68-.25,1.48.02,2.09-.1,1.55-.32,2.84-2.14,4.68-1.72ZM57.61,37.48c-.29.8-.43,1.57.61,1.8,2.45-1.38.26-3.88-1.91-2.84l.78.39-.78.39,1.3.27ZM102.58,74.4c.52-.53.95-2.17,1.41-2.88,1.06-1.62,3.46-2.43,5.31-1.8l.25-.18c.11-2.06,2.37-11.25,1.82-12.5-.75-1.71-2.9-2.44-4.49-3.08-6.32-2.51-13.26-4.39-19.85-6.06,1.28,2.11,4.23,3.43,5.44,5.37.26.43.22.98.44,1.38,1.19,2.17,5.14,2.29,6.06,3.83,1.36,2.26.14,3.48.62,5.37.16.61,1.09,1.59,1.38,2.27s.59,1.79.95,2.7c1.29,3.24-.9,3.77-2.91,5.65,1.19-.16,2.59.92,3.57-.07ZM51.04,56.29c-.26-.15-.67-.05-.98-.05l-.26,1.79,3.37,1.84c-.4-.51-1.85-3.43-2.14-3.59ZM33.13,58.06h-.52s.26.78.26.78h.25s0-.78,0-.78ZM60.21,61.19c.72-.26,3.27-1.62,2.49-2.62l-1.71-.51c-.31.95.03,1.74-.98,2.2l.19.93ZM63.85,58.32c-.41-.41-1.19.37-.78.78s1.19-.37.78-.78ZM53.44,62.23l-4.16-2.86c-.28,1.05,1.17,1.06,1.29,1.46l-.25,1.14,3.12.26ZM36.78,66.13c-.54-1.9-.33-4.14-2.34-5.21l.47,3.2-2.29,2.53,4.17-.52ZM62.51,62.97c.07-.04.66-1.4.56-1.52l-1.82,1.43c.17.24,1.09.19,1.26.09ZM55.52,64.84c-.67.16-1.84.35-1.56,1.3l1.56-1.3ZM84.03,65.36c-1.11-.23-3.64,0-4.95,0-.07,0-.17-.28-.33-.2l-.58.72,6.77.52c.24-.39-.84-1.03-.91-1.04ZM60.99,65.88l-1.04-.26.26,2.08.78-1.82ZM84.16,67.96l-6.25-.52c.34,1.12,1.23.18,1.82.91.14.66-.9.56-1,.68-.23.28.31,1.97-1.24,2.8-.48.26-1.03.16-1.42.47-1.45,1.15-.3,3.74-2.4,4.83s-4.45,1.02-6.36-.26c-.52-.35-.67-.84-1.18-1.16-.66-.42-3.61-1.3-4.04-1.82-.2-.25-.15-1.64-.84-1.76l10.93,55.23c1.13.2.46-1.89.62-2.09,1.41-.26.96-.98,1.45-1.7.14-.2.55-.27.7-.46.8-1.01,1.32-2.17,2.57-2.78l.25.52c1.19-.55,1.41-1.74,1.99-2.44,1.95-2.33,4.25-3.62,6.36-5.62,1.02-.97,1.65-2.52,2.85-3.39,1.06-.02-.19,4.25-.15,4.82.03.51.43.84.45,1.04.02.27-1.06,2.11-.95,2.21h.78s-.26,2.6-.26,2.6l.65.26c.19-1.61,1.85-1.62,2.41-2.15s.56-2.6,1.88-2.28l.39,1.04c1.56-.69,1.95-1.87,2.73-3.26.77-.48,1.49.91,2.6-.26,1.47-1.54,1.89-10.72,2.87-13.15-.8.12-1.39.65-2.23.76-2.69.35-6.32-.32-7.88-2.75-1.37-2.14-.25-3.1-.6-4.33-.11-.37-.78-.81-1.05-1.31-.51-.95-2.08-3.93-2.23-4.8-.18-1.06-.09-2.16.41-3.12.32-.62.91-.9,1.2-1.4.56-.95.77-2.39,1.49-3.46.66-.98,1.81-1.64,2.3-2.78-3.27,1.2-5.67.88-7.66-2.11-.74-1.12-.84-1.35-1.72-2.45-1.01-1.27-1.11-3.19-.26-4.56ZM128.95,89.06c-.03-.93-.6-1.49-1.56-1.3l1.56,1.3ZM131.49,88.35c-.08-.11-.87-.54-.98-.2l1.3,1.69c-.09-.35-.17-1.28-.32-1.5ZM134.42,88.55h-1.3s.78,2.86.78,2.86l.52-2.86ZM137.02,88.8c-.63.24-.8.11-1.3-.26v3.12s1.3-2.86,1.3-2.86ZM128.43,91.41c.22-.6-1.44-1.64-1.56-1.56l-.53,1.04,2.08.52ZM139.62,90.63l-.8.14-.5-.66-.52,1.82c.34-.07.48-.48.79-.65.5-.26,1.22.16,1.03-.66ZM140.93,91.15c-.19-.17-1.04.08-1.04.52.56.44,1.41-.17,1.04-.52ZM128.69,93.5c-.99-.24-2.04-.79-3-1.05-.32-.09-.69-.42-.9.14-.29.77,1.89.6,2.2.66.41.09,1.47,1.01,1.71.25ZM140.4,93.75c.07-.44.06-1.71-.64-1.56l-.92,1.3,1.56.26ZM156.03,95.84l3-1.03c-.09-1.05-.08-2.46-1.31-1.32l-1.69,2.35ZM112.55,94.27l-.95-1.02-1.13.89,2.08.13ZM125.82,95.05c-.16-.52-1.84-.83-2.22-.79-.21.02-1.43,1.05-1.16,1.31,1.06-.6,2.2-.56,3.38-.52ZM131.29,96.88c-.52-.51-9.96-.19-11.58-.27-2.59-.12-5.38-.65-7.88-.98-1.5-.2-3-.38-4.49-.59l-3.39,14.33c.89-.09,1.05-1.2,1.85-1.68.52-.31,1.23-.12,1.54-.51.34-.44.47-1.24.82-1.81.93-1.52,2.4-3.97,3.73-5.13,1.67-1.46,2.42-.91,4.11-1.36.68-.18,1.44-1.13,2.52-1.39,2.85-.68,5.31-.46,6.89,2.26.46.79.08,1.54,1.31,1.27.51-.11,4.86-3.88,4.57-4.16ZM157.33,96.88l-3.08.3-.87,2.65-2.04,1.73c1.3.23,8.44,2.77,9.11,2.49.17-.07.34-.4.52-.53-2.94-1.07-4.73-3.43-3.64-6.64ZM129.73,105.74l1.82-6.51-3.61,3.03,1.79,3.48ZM158.11,105.22c-5.93-1.72-11.81-3.44-17.44-5.99,1.19,1.34,2.74,2.42,4.19,3.49.76.56,5.46,3.94,5.88,4.01.35.06,1.91-.93,2.82-1,1.12-.08,1.77.36,2.79.47l1.76-.99ZM109.48,112.45c-.15-.09-.35-.89-.58-.72-.64,1.7-1.59,3.55-2.86,4.82l.77.52c-.41,1.24-2.29,2.4-2.28,3.7,0,.41.5.55.37,1.12-.23.99-1.4,2.01-1.83,2.89-.33.65-.12,1.64-.9,2.23l.72.97c-.8,1.71-1.81,3.36-3.35,4.48l.52.25-.78,1.44h1.04c-.16,3.33-4.37,4.79-3.91,8.34.59-.25,1.12-.51,1.55.13l-2.86,3.91c.88.14.85.32,1.07,1.14l1.27.03c-.21-2.09.82-3.55,1.61-5.29.27-.59.2-1.47.76-1.86,1.23-.87.49-.79,1.01-1.33.23-.24.8-.23.99-.44.3-.35.24-1.65.52-2.22.22-.45.7-.5.86-.76.46-.73.22-3.17,1.69-2.17l.25,1.31c.71-1.01.36-1.76,1.89-1.89l1.89-3.21c1.44.22.83-.14,1.31-.48.42-.3.94-.41,1.3-.8s.56-1.35,1.04-1.59c.45-.22.88.19,1.29.03s1.16-1.42,1.55-1.56c.33-.12.76.24,1.01.09.08-.05.54-1.2.95-1.54.87-.73,1.43-1.3,2.2-1.97.6-.52,1.86-1,2.5-1.67.43-.06.42-.02.39.39-.06.91-.44,1.96-.53,2.88-.05.51.28.98.22,1.49-.07.62-.8,1.07-.73,1.75,1.68-2.13,2.22-5.25,3.12-7.81-1.21.48-2.4.74-3.72.46-.5-.1-.94-.6-1.39-.65-.87-.1-1.84.58-2.59.69-4.08.6-6.95-2.97-5.32-6.75-.49-.18-1.69-.13-2.02-.33ZM66.68,163.35l-1-.3c-.24.25.56,1.83.91,2.08l.09-1.78ZM75.74,165.58c.3-.82.02-1.73-.18-2.53l-3.38,1.57,2.5,2.32,1.06-1.36ZM69.51,166.49c-1.91.4-.85,2.9.07,3.48.6.38,2.53-.89,3.12-1.31-1.02-.79-1.71-2.48-3.19-2.17ZM65.94,170.87l-.78-1.3-.26,1.3h1.04ZM71.32,172.77c.46.67.73,1.61,1.18,2.34,2.78,4.57,6.42,8.61,9.19,13.2.33,0,.66-2.33.6-2.68-.1-.69-1.26-1.48-1.46-2.46-.26-1.27.12-2.56-.24-3.93-.3-1.14-2.14-3.22-2.9-4.4-1.03-1.6-1.51-4.32-4.02-4.19-.75.04-2.33.79-2.81,1.37s.23.42.44.74ZM64.9,194.57c-.5-.69,3.06-1.94,3.58-2.02,1.31-.21,2.39.06,3.78-.39.35-.11.59-.58.84-.62.4-.06,1.26.46,1.85.44.75-.03,1.08-.64,2.33-.54.98.08,2.3,1.19,2.63-.27l-11.08-16.4c-.08,2.73-1.35,4.82-2.28,7.23-.31.8-.77,3.16-1.07,3.56-.26.34-.85.03-1.04.18-.12.1-.67,2.63-.84,3.07l-.97.06-.56,1.43c-1.23-.56-2.81,2.7-1.69,3.23l1.02-.5c.47.18.75,1.37,1.21,1.66.42.27,1.02.14,1.54.55.72.56.87,1.86,1.3,2.35.37.42,1.05.33,1.44.9s.31,1.66.68,2.19c.4.57,1.68.65,1.79,2.11l1.03.09.27-.9c1.63.38.82-1.85,2.62-1.94l.24,3.24c1.82.15.61,2.82.78,3.61.05.25.61.21.76.6.17.46.2,2.52.34,2.68l.75.15-.54,4.41c-.26.77-.58,1.57-.77,2.36-.03.13-.51.67.13.64.16,0,2.36-1.61,2.59-1.83.35-.34,1.37-1.88,1.52-2.38.37-1.24.54-3.17.7-4.51.45-3.77.27-7.66,1.3-11.33-.95-.03-2.34.1-3.2-.32-.36-.18-.39-.61-.64-.72-2.28-.96-5.26-1.9-7.74-2.08-1.65-.12-3.01.56-4.55,0ZM103.17,178.17l-3.9-2.09c-.13.72-1.74,4.67-.39,4.68l1.59-1.79,2.7-.81ZM95.36,180.77c-.2-.2-1.05-.12-.78.65.32.9,1.12-.31.78-.65ZM92.44,189.83c.74-1.56-3.61-2.8-4.37-3.85l-1.02,4.93c1.09.25,2.31.45,3.43.22.4-.08,1.84-1.05,1.96-1.3ZM93.28,204.47c-.54-2.17-.1-4.44-.25-6.65-.02-.32-.23-2.06-.27-2.31s-.46-1.35-.77-1.46c-.39,1.98-3.62,2.16-3.61,4.05,0,.11.35.11.46.32.86,1.69,2.05,3.12,3.04,4.72l1.41,1.32ZM91.71,208.12l-6.12-8.85c-.64-.02-.61,3.99-.68,4.52-.17,1.25-.69,2.78-.75,3.95-.04.78.29,1.38.28,1.8,0,.11-1.05.24-.53.67.28.23,2.1-1.05,2.55-1.22,1.62-.6,3.53-.94,5.26-.86ZM95.88,200.83v6.12c0,1.3,6.61,8.12,7.29,10.03.35.07.27-.1.26-.39-.01-1.15-.61-2.55-.53-3.77l-.39.53-1.14-.71c.71-1.59-.48-1.8-.55-2.09-.13-.51.1-1.33,0-1.9l-.66.03-.37-2.47c-1.47-.12-.72-1.77-1.11-2.45-.06-.1-.71-.34-.99-.7-.6-.76-.54-1.85-1.81-2.23ZM106.56,227.4c-.15-1.05-1-2.07-1.62-2.95-1.96-2.81-4.58-6.26-6.72-8.91-.79-.98-3.68-4.31-4.59-4.79-1.47-.76-1.82-.01-2.89.17-.64.11-1.27.01-1.91.17-1.81.45-3.52,1.93-5.21,2.66l-.65,5.57c.31.4,1.38.19,1.82.49.27.19-.04.64.47.89.73.36,1.98.45,2.81.44l-.26,1.04,2.88.92-.02.9c.52-.06.76.05.91.53l.65-.15c-.42-1.24.42-2.49.5-3.39.16-1.63-.09-3.42.02-5.06,1.08-1.11,2.78,3.88,2.94,4.09s.61.23.82.6c.23.4.17,1.12.37,1.41.18.26.67,0,.81.32.47,1.09.02,2.83.26,3.82.02.1.99.68.51,1.74h1.05c-.41,1.77.81,3.38.52,4.95.57.15.96-.53,1.31-.65.86-.3.23,2.9.32,3.57.07.57.34,2.06.85,2.3.77-1.23,4.98-10.32,4.55-10.94l-.51.27ZM72.97,219.85c1.88-.66.45-1.51,0-.39-.05.11,0,.26,0,.39ZM78.17,219.58l-.26-.78h-.25s0,.78,0,.78h.52ZM105.77,218.81h-.52c-.06.48-.01.76.39,1.04l.38-.39-.26-.65ZM72.71,220.11h-.52v.26h.52v-.26ZM69.53,238.65c-.1-.16-.69-.08-.74-.69-.04-.46.36-.98.28-1.55-.05-.38-.47-.63-.47-1.01,0-.51.67-1.42.67-1.92,0-.38-.43-.61-.45-.99-.05-.81,1.12-2.66,1.24-3.46.08-.55-.23-.97-.17-1.44.09-.7,1.18-1.83.99-2.79l-3.49,2.6c-.2,1.12-.02,2.42-.18,3.5-.2,1.39-.89,2.67-1.21,4-.18.75-.02,2.07-.32,2.76-.13.29-1.1-.1-1.07,1.35,0,.16,1.34,1.39,1.69,1.97.29.48.65,1.7.72,1.76.16.13.69,0,.99.17.36.21.37.89.66,1.17.25.24.65.23.89.42.29.22.15.7.53.62l.25-1.14c-1.57-.65.07-1.57-.23-2.84-.07-.29-.96-.42-1-.83-.02-.24.78-1.06.41-1.65ZM88.33,231.05l-.78-.52c-.35.42,1.38,1.28,1.82,1.69.94.89,1.48,1.83,2.34,2.74l.52-.67c-.06-.64-.6-2.02-.53-2.54,0-.07,1.1-.64.53-1.21-.61-.61-1.22.59-1.3.64-.72.47-1.85-.19-2.48-.65l-.13.52ZM112.2,233.73c-.21-.25-.78-.43-1.11-.84-.47-.6-.89-1.54-1.42-2.22-.21-.27-.18-.08-.38.12l-5,11.89.47,2.15,1,.04c.48,1.33-.25,3.08.53,4.24.2.29.57.1.71.23.56.52.02,2.96-.19,3.71l.53.5-.52,2.25h1.04c.3.87-.34,2.33-.27,2.96.02.18.41.18.53.35.43.62-.23.95-.26,1.52-.06,1.13.4.54-.18,1.75-.9,1.88.92.45,1.59-.35,2.5-3.04,1.75-4.08.86-7.59-.45-1.78-.62-2.83-.97-4.46-.02-.08-.98-.52-.49-1.46l.76-.15c-.78-.53-.42-1.33-.53-2.07-.16-1.02-.32-1.9-.45-2.94-.1-.81-.05-1.63-.32-2.41l.89.24.39-.41c-.25-1.5.84-2.98,1.07-4.52.77.18.97.71,1.82.26l-.52-.26c-.09-.1,1.35-1.44.44-2.53ZM91.71,235.48h-.78s0,.25,0,.25l.78.52v-.78ZM80.81,257.33c.21-1.97-.44-1.49-1.85-2.05-.33.37.69,1.99,1.05,2.21.3.18.75.06.97.19.25.15.45,1.37.73,1.75.26.34.78.41,1.01.81,1.36,2.31.7,4.51.4,6.9-.1.82.09,1.68-.06,2.54-.18,1.03-1.5,2.24-1.44,2.88.04.47,1.53,3.17,1.91,3.55.21.21.24.37.63.27l4.83-8.61c-.33-1.48.45-.89.78-1.54.89-1.79-.72-1.64-.87-1.87-.26-.4,0-1.7-.07-1.75-.19-.14-.63.09-.97-.46-.29-.46-.28-1.36-.3-1.92h-1.04s0-1.57,0-1.57c-1.07.78-1.55-1.07-1.87-1.25-.62-.33-1.54.36-1.77-1.35l-.51.13.78,1.43-2.31-.29ZM127.13,255.8c-1.84-.05-3.63.37-5.3,1.08-.99.42-4.73,2.61-5.03,3.41-.05.12.24.41.18.45-.62-.14-3.16.55-3.58.84-.19.13-.52,1.42-1.1,1.63l.51.39c.24-1.13,2.62-.37,2.09-2.08l.79.42c.25-.41,1.67-.9,1.76-1.01.15-.18,0-.64.06-.7.1-.1.75.18,1.07.11,1.18-.23,3.54-1.79,4.92-2.07l3.64-2.48ZM97.88,264.73c-.38-.4-1.29-.91-1.74-1.38l.78,2.34-.78-.26.26,2.34-.78.13.77,1.58c-1.39.3.33,2.49.27,2.85-.05.27-.43.46-.79.27-.57-.3-3.84-4.13-4.42-3.52.53,1.08-.13.61-.47,1.21-1.23,2.17-2.23,4.75-3.7,6.86l6.57-2.93c.89-.83,2.18-1.1,3.08-1.61,2.62-1.49,5.09-3.38,7.53-5.1.07-.43-.35-.24-.64-.26-1.81-.08-3.81.23-5.23-1.29-.38-.41-.46-.96-.72-1.24ZM108.33,270.96c.14.09.22.7.43.72l1.95-.9c-.46-.66-1.26-.26-1.9-.44-.56-.16-1.59-1.75-2.38-1.51-.66,1.62-2.85,1.9-3.79,3.38.77.23,1.23-.99,1.31-1.03.6-.38.4.64.9.54.75-.18,2.88-1.12,3.47-.75ZM112.81,272.21c1.56.09,1-1.09-.26-1.04l.26,1.04ZM79.73,273.78l-3.59,2.78-.83,8.94c.67.16.45-.22.68-.49,1.24-1.51,3.31-6.21,4.12-6.82.32-.24.53-.3.93-.24l-.78,4.17,2.31-3.31-2.84-5.03Z"/>
  </g>
</svg>