<?xml version="1.0" encoding="UTF-8"?>
<svg id="Ebene_1" data-name="Ebene 1" xmlns="http://www.w3.org/2000/svg" viewBox="0 0 223.17 456.37">
  <defs>
    <style>
      .cls-1 {
        fill: #0dff00;
      }
    </style>
  </defs>
  <path class="cls-1" d="M186.01,451.19l.34.78c.02-.37-.03-.67-.34-.78Z"/>
  <path class="cls-1" d="M149.24,106.57s0,0,0,0c0,0,0,0,0,0Z"/>
  <polygon class="cls-1" points="74.86 386.62 74.87 386.62 74.85 386.61 74.83 386.62 74.86 386.62"/>
  <path class="cls-1" d="M185.68,450.1l-.16-.1c.03-.05.03-.09.05-.14l-.49-1.05c-.08-.07-.15-.15-.21-.24l1.1,2.52.07-.23-.35-.76Z"/>
  <rect class="cls-1" x="100.71" y="131.57" width="0" height="0" transform="translate(-39.28 42.93) rotate(-20.22)"/>
  <path class="cls-1" d="M187.3,453.58c-.13-.18-.17-.39-.41-.38l1.38,3.16-.46-1.61v-.03l-.03-.11-.48-1.04Z"/>
  <path class="cls-1" d="M112.28,387.09h0s0,0,0-.01h0s0,0,0,.01Z"/>
  <path class="cls-1" d="M184.31,447.14s-.03.01-.05.02l.09.2v-.14l-.04-.08Z"/>
  <path class="cls-1" d="M184.77,448.13l-.11-.23-.07.03.23.52c-.04-.09-.06-.2-.05-.32Z"/>
  <path class="cls-1" d="M223.17,137.63c-1.32-.64-1.52-1.41-1.64-2.77-.04-.4.18-.86.14-1.16-.05-.45-.82-.8-.83-1.61-.01-.81.65-1.05.71-1.74l-.94-.1c-.67-1.13.56-1.79-.24-3l.49-.25c-1.36-1.25.64-2.37.64-2.77,0-.09-.49-.58-.6-.98-.07-.27-.53-2.36-.53-2.49,0-.51.41-.94.4-1.16-.01-.22-.55-.63-.61-1.18-.13-1.15.93-2.42.91-2.99-.01-.39-.79-1.19-.87-1.91-.1-.89-.05-2.6.39-3.36-1.11-1.03-.21-2.85.27-4.08-.6.11-1.42-.26-1.58-.87-.09-.33.12-.67.08-.87-.27-1.36-1.09-2.87.11-4.03-.45.08-1.39-1.01-1.39-1.27v-3.58c-.76.32-2.12.17-2.77-.34-.34-.25-1.41-1.9-1.41-2.4-1.58.49-1.87-1.31-2.92-1.6-.54-.15-.97.23-1.43.08-.99-.32-1.81-2.42-1.97-2.42-.76.91-2.22.99-3.1,1.51-.71.42-1.11,1.22-2.16,1.54-.66.2-1.72.09-1.97.23-.08.04-.73,1.1-1.21,1.44-.59.41-1.46.55-2.05,1.18-.3.32-.29.72-.72,1.13-.76.73-2.18.9-3.18,1.09-.26.22-.43,2.46-.61,2.97-.15.43-.56.63-.69.93-.59,1.36-.5,2.74-2.67,2.53.87,1.79-.39,1.9-.8,2.78-.79,1.65-.29,3.91-3.13,3.69.28.66.89,1.42.46,2.14-.09.14-.44.14-.47.32-.12.8.25,1.99-.05,3.14-.48,1.87-2.72,1.69-1.3,3.73.26.38.76.23.66.71-.54.63-1.32.62-2.08.58.18.69.64,1.23.68,2,.06,1.1-.49,3.13-1.83,3.09.14.65.34,1.31.25,1.98-.05.41-.38.29-.46.51-.34.98-.35,2.31-1.86,2.37-.17.63.79.66.89,1.06.11.45-.81,2.25-.66,2.94.04.2.44.13.59.6.11.35.37,1.89.36,2.23-.02.4-.4.33-.42.38-.05.15.16.4.05.63-.14.3-.74.56-.79.85-.03.17.63,1.03.44,2.05-.12.66-1.45.68-.23,1.15-.68,1.02-1.74,1.22-1.39,2.66l-1.15-.23c-.08.43.15,1.24-.05,1.57-.06.1-.4.13-.53.27-.45.5-.27.9-1.27.7l-.03,1.82-1.58.61c.56.73.81,1.51.69,2.43l-.69-.23c.19.4.33.76.19,1.22-.14.46-.87,1.67-1.06,2.17-.17.46.26,2.54.19,3.2-.06.57-.49.82-.49,1.15,0,.17.63.01.47.46l-.92.12c.48.54,1.04.7.92,1.61l-.93.11c-.59.5.23.28.25.47.1,1.07-.97.89-1.13,1.07-.1.12.01,1.51-.14,2.06-.04.13-1,2.28-1.07,2.39-.59.9-1.24.18-.47,2.06-.16.62-1.1.66-1.3.91-.13.16-.29,1.03-.51,1.46-.32.6-.94.57-.7,1.48l-1.85-.23c.45,1.52.55,2.9.48,4.49l-.71.13.23,1.38-.46-.24.2.79c-1.56.82-.31,3.31-2.74,3.37.49.97.27,2.91-.15,3.87-.15.36-.67.38-.75.66-.22.8,1.06,1.99-1.64,1.24.64,1.74.81,3.11.47,4.97-.15.83-.99.81-1.63.57-.04.86.88.18,1.15,1.27.05.21.12.64-.23.57l-.46-1.15-.23,2.08.81-.69c.38.73-.02,1.2-.81,1.17v.68l.46-.23c.17.25-.32,1.55-.48,1.9-.08.19-.44.19-.44.32-.02.39.4,1.11.36,1.61-.04.45-.6.86-.75,1.55-.23,1.09.36,2.82.4,3.97.03.98-.23,1.76-.25,2.56-.02.9.85,2.39-.45,2.78-.38.11-.65.07-.99-.13-.92-.56-.97-1.67-1.09-2.67-.8-6.51-1.09-13.12-1.91-19.57-.19-1.46-.93-3.78-1.01-5.18-.04-.83.35-2.01.14-2.94,1.05-.25,4.56-1.33,4.15-2.76-.05-.17-1-.69-.43-1.52,1.15-.11,2.32.19,3.21.9-.26-1.57-1.42-2.18-2.3-3.35.44-.58,1.22-.3,1.84-.35.04-.37-.5-.28-.71-.55-.69-.91.47-3.22,1.18-3.95.23-.24,3.02-1.96,2.54-2.43-.53.44-4.66.75-4.86.6-.62-.45.04-1.66.02-2.08,0-.14-.41-.11-.46-.29-.26-1.01.4-2.24.92-3.08l-1.25.45c-.5-.81-1.35-.79-.83-1.84-.71.54-1.14-.18-1.72-.2-.52-.02-1.06.3-1.84.19-.56-.08-1.08-.6-1.44-.63-.41-.03-.71.4-1.12.4-.16,0-1.19-.43-1.23-.49-.35-.56.31-3.43.17-4.43-.02-.16-.36-.12-.39-.26-.01-.06-.07-1.07-.07-1.13.04-.28.58.02.48-.37l-.48-.14c.28-.89-.06-2.12-.44-2.99l.46-.21c-.41-.83-.78-3.05-.66-3.94.04-.32.43-.46.61.05.59,1.72.17,3.63.98,5.26l-.48.22.57,1.18.41,6.63.41.4c.42-.31-.12-4.51-.23-5.31l.69-.23c-1.37.16-.85-2.56-.93-3.58-.05-.69-.26-1.53-.46-2.2l1.15-.23-1.17-.37-.47-5.31.48-.44c-.79-.64-.36-1.76-.46-2.66l-.41,2.25-.51.29c-.27-.27-.04-5.9.23-6.34l.69.11-.7-.6.24-1.48.92.46c.11-.59-.66-.69-.65-1.23.02-.81.96-4.17,1.22-5.25,2.8-11.41,7.82-23.41,9.13-34.99.51-4.54.3-9.65.91-14.1.29-2.09,1.19-4.37,1.17-6.68-.03-2.56-.84-5.78-.84-8.59,0-1.03.4-2.45.36-3.39-.1-2.21-2.36-7.96-2.93-10.72-1.23-6.02-1.73-12.21-2.16-18.17-.11-1.56-.62-3.02.26-4.53l-1.4.13c-.11-.99-1.01-1.12-.45-1.98l-.94.12c-.66-.73-.5-1.44,0-2.2-.71.13-1.23.51-1.75-.23l.36-1.16-.92.23.23-2.77c-1.46.59-2.93.97-2.54-1.15h-.93l.23-2.08c-1.39.59-2.77-.3-2.54-1.85-1.5.9-1.42-1.79-1.62-2.77-.5-.03-.77.38-1.28.45-1.54.22-1-.65-1.48-1.05-.32-.26-2.15.32-1.62-1.49-2.41.92-3.12-3.3-5.77-1.16-.02-.75-.64-1.11-1.03-1.64-.15-.19-.09-.6-.15-.66-.07-.07-.44.24-.8.02-.68-.42-.96-1.58-1.04-1.64-.09-.07-1.27.55-2.2-.22-.24-.2-.3-.64-.35-.68-.05-.05-.81.36-1.43.17-.51-.16-.51-.74-.68-.84-.44-.25-1.06.32-1.1-.97-.42.08-.71.26-1.17.15-.23-.06-1.56-1.17-1.79-1.29-.25-.13-1.87.73-3.27-1.86,0,0-.8-.62-.93,0-.23.33.93,0-.86,3.87-.18.39.03.96-.09,1.3-.12.34-.58.32-.63.4-.07.11.12,1.73-.13,2.54-.14.46-.55.42-.59.6-.1.47.1,1.02-.05,1.53-.12.44-.8.61-.88,1.21-.09.65.37,1.23.45,1.85.09.69.27,2.11.27,2.75,0,.94-.69,2.32-.65,2.97.02.34.72,2.16.63,2.23l-1.38-.46c-.36.8.42,1.25.46,2.08.74.18.33-.66.81-.92.37-.2.44.26.32.55-.21.5-1.05.71-1.36,1.18l.46.58-.92-.23c.15.19.03.77.92.7l-.92.58c.56.18.56.42.43,1.01l-.89.27c-.3.61.46.74.46.79-.03.29-.62.97-.65,1.21-.03.27.36.5.39.87.03.33-.23.8-.1,1.16.73,2.1.12,2.09.36,3.65.02.16.39.12.45.32.7,2.29.02,2.55,2.03,4.29.26.22.84,1.58.52,2l.69-.23c.36.26.11,2.78.93,2.89l-.24.46c-2.46-.02-2.64,3.63-4.85,3.81.09,1.04.81,1.84.91,2.92.09.93.2,1.58.3,2.47.1.89-.1,2.28.12,3.07.17.62.63.9.71,1.18.12.41-.21.92-.18.97.17.27,1.32.11.65,1.46-.13.27-.65.16-.44.87l.9.38c.18.5-.21.99-.19,1.37.02.35.44.58.45.91.02.51-1.41,1.19-.92,2.18.88-.15,1.08.38,1.64.8.17.13.54.08.64.16.04.03-.11.65,0,1.01.43,1.4,1.17,2.93,1.5,4.34.4,1.7.74,3.43,1.22,4.9.24.75.15,1.87,1.23,1.73l-.24.69c1.26.02.73.65.99,1.09.42.68,1.38,1.64,1.31,2.73-.02.43-.66.92-.21,1.73l1.46-.02c.19.87,1.19,1.04,1.08,1.98-.05.45-.54.58-.46,1.05,1.19-.22,1.01.59,1.61,1.27l-.69.57.92.24c-1.17,1.13.51,1.57.46,2.77-2.14-.64-4.73-1.89-6.93-1.39.4-.47-.63-1.36-.92-1.15l.35.92c-.44-.35-.67-.6-.36-1.14l-.91-.24.46,1.16h-1.38c.23-2.14-1.36,0-1.97.22-1.26.44-2.85.11-4.15.24-1.63.16-2.98.67-4.51,1.15.02.44.66.01.46.79-.1.39-1.03.56-1.31.67-.08.03-.08.32-.25.37-.83.25-1.79-.04-2.6.71-.06.41.52.24.75.18.85-.22,1.53-.67,2.53-.59.58.05,4.84,1.2,5.27,1.45.62.37-.55.93-1.26.81-.14-.02-1.89-.65-2.05-.73-.49-.26-.57-.84-.78-.89-1.07-.25-3.15-.11-4.16.41-.22.11-.38-.06-.3.4.11.64,1.25,1.76,1.4,2.55l-.05.32-.42.25c1.04-.22.85,1,1.2,1.7.16.31.98.61.82,1.44-.07.33-.71.17-.64.56h.93c-.48.95.56.92.8,1.39.3.57-.17,1.11,1.04,1.15l-.22.67,1.14.48-.92.46c1.28.06,1.72,1.13.92,2.08l1.85.47-1.15.92.69-.11-.13.58,1.51.69c.11.45-.98-.01-.69.57.18.38.89.28,1.26.59.49.4.71,1.87,1.16,2.07l.57-.69.9,2.2c1.51.4.76.98,1.01,1.66.17.46,1.71.78,2.13,1.22l-.35.47h.92c.13.3-.97.24-.46.69.27.24.83-.57.92-.46l-.22.81c.86.23,1.03.8,1.59,1.39.24.25.83.45.94.69.26.56-1.05.24-.81.81l.92.87c.46-.44.71-.37,1.27-.17l-.45.79c.55.89,1.4.66,1.14,2.22l.46-.11.12-.58c.55.48.91,1.22,1.74,1.16l-.24.46,1.39.11v.81c.67.24.28-.6.79-.45.69.2,1.32,1.17,1.81,1.45.66.37,1.76.32,2.38.84.43.36.09.75.3,1.06.23.34.8.47.89.63.3.49.21,1.76,1.21,1.57-.12.28-.2.55-.08.85.02.05.5.72.61.87.12.17.21.13.39.12l-.69.34.92.35c.19.72-.6.3-.92.8.34.51.8,3.02.58,3.35-.29.45-1.05.15-.58,1.16l.46-.23c.35.82-.47.98-.47,1.05,0,.09.44,1.72.49,1.8.42.68.88.37,1.14.84-1.54-.13-4.88-1.86-3.23-3.69-1.43.47-3.31-.01-4.5-.93-.43-.33-1.01-1.3-1.09-1.34-.29-.16-.95.02-1.4-.1-3.43-.89-7.14-4.7-10.4-6-1.47-.58-3-.61-4.43-.88-.18-.04-1.2-.89-1.23-.96-.04-.11.23-.61.2-.99-.28-3.06-.98-4.32-3.09-6.53-.79-.83-1.07-.35-1.8-2.04-.03-.09-.46-1.29-.46-1.37-.09-.75.09-1.49.25-2.21-1.03.48-2.1.55-3.17.05-1.01-.47-.65-1.3-.77-1.42-.08-.08-.77.05-1.15-.13-.09-.04-1.35-1.29-1.4-1.37-.32-.49-.21-.98-.21-1.52-.69.03-1.16.35-1.9.17-1.38-.33-3.27-2.22-4.59-2.81-2.49-1.12-6.15-1.91-8.82-2.96-1.25-.49-6.33-2.56-6.88-3.3-.16-.21,0-.51-.03-.54-.12-.09-.53-.06-.77-.25-.63-.52-1.08-1.49-1.03-2.32l-2.02,1.35c-1.04.26-.95-1.07-1.56.27-.64-.36-1.65-.51-1.73-1.39-1.09,1.01-2.75.21-3-1.15-.88.82-3.22,2.23-3.7.46-.37.02-.33.63-.62.7-.18.04-2.71.25-2.97.25-.42-.02-.31-.45-.49-.49-.8-.18-2,.88-3.4.43-.32-.1-.32-.59-.66-.73-.57-.24-1.39.02-1.81-.48-.47-.55-.18-1.44-.24-1.49-.11-.09-.52-.02-.78-.26-.26-.24-.75-1.6-.81-2-.05-.33.41-1.19-.11-1.23-.38-.03-1.8.62-2.34.68-1.55.16-1.68-.91-1.86-.93-.76-.09-1.52.63-1.7-1.14-1.5.99-2.63-.06-3-1.61-.75.53-2.93.64-3.48-.11-.33-.45-.22-1.6-.81-.34-.87.21-2.43-1.45-2.64-2.32-.08-.06-1.07.92-1.39,1.03-.32.11-2.58-.16-2.84-.32-.39-.25-.16-.92-.61-.94-.65,1.83-1.35.81-2.31.57-.35-.09-.64.11-1.08-.05-.5-.18-1.17-.84-1.58-1.21-.86,1.25-1.78,1.64-3.24,1.75-.83.07-3.15-.51-3.45-.5-.38.02-1.16.57-2.03.54-1.02-.04-2.2-.6-3.18-.86.28.8.26,2.27-.12,2.99-.38.72-1.16.48-1.22.53-.56.43-.62,2.25-2.12,1.33.24,1.82-2.09,3.28-3.69,2.54.06,1.24-.9,1.53-1.85,1.96L0,100.93c-.06.59.81.7.91.84.05.07-.19.57-.04,1.04.31,1,1.24.77.78,1.66,2.01.88.66,2.77,1.2,4.24.36,1,1.54,2.76,1.73,3.83.11.58-.2,1.55-.15,1.63.1.18.96.44,1.09,1.37.03.23-.37,1.49-.48,1.62-.15.18-.55.14-.69.28-.84.79-.91.88-.76,2.09.38.45,1.05.35,1.5.59,2.24,1.22,4.64,3.88,6.94,4.84.29.12.62.11.93.11-.35.88.29,1.48.46,2.31,2.25-1.35,4.31,1.17,6.69.23l-.24.56c1.05.25.15,2.04.35,2.46.19.4.79.33.97.52.49.49,1.14,1.87,1.68,2.52.29.35.87.55,1.15.99l-.46.34c.9-.39,2.33,1.12,2.47,1.15.82.21,3.55.9,4.21,1.29.41.24.49.87,1,1.1.37.16.71-.07,1.07.05,1.43.46,2.02,1.87,3.23,2.62.13.08.42-.01.48.04.08.07-.27.52-.03.81.31.38.9.35,1.25.56,1.02.63,1.04.71,2.36,1.16.74.25.98,1,1.84.28.24,0,1.22,1.88,1.61.64,1.1.5,2.49.66,3.69.69.37.01.69.22,1.05.24l.46-.69c.03.2-.42.63-.11.69.6.12.1-.69.81-.46l.14.64,3.07.55.03.66.92-.46.35,1.15.91-.47c.07,0,.67.96.83,1.04.41.2.83.04,1.1.19.1.06.36.63.85.89,1.33.72.59.4,1.28,1.01.79.71,2.99.9,3.42,1.11.13.06,1.23.6,1.3.64.41.27.1.5.28.69.24.25,2.26,1.53,2.57,1.56.66.07,1.05-.12,1.67-.18l-.23.46c.78.12,1.49-.26,2.23-.38.47-.07.91.54,1.1-.28l2.18.41.39-.64,1.26.2-.23-.46c.87.63,1.84-.22,2.16-.19.24.02.5.35.72.34.22-.01.61-.55,1.04-.38l-.23.69,2.67-.2c3.75,1.06,7.6,1.48,11.28,2.08,3.68.6,7.68,1.15,11.29,1.63.71.09,1.79,1.1,2.93.65l-.46.46c.84.12,1.54.68,2.31,1.05.19.09.48-.1.63-.04.18.07,1.06,1.01,1.13,1.03.9.31,1.67-.3,1.7,1.43,1.24-.44.91-.01,1.33.21.49.25,1.19-.2.74.94l1.48-.45c.38.6.96,1.07,1.73.94l.02.67.41-.16.14.36,1.06-.2-.23.46c.37.13.86.12,1.2.26.92.36.88.51,1.39,1.06.05.05,1.2.71,1.27.73.32.08.65-.23.99-.2l-.19.42c.55.38,1.39.93,1.36,1.62l1.59-.19-.23.69c.98-.12,1.1.78,2.31.49v.67l1.38-.23-.42.25-.04.55.46.35.12-.69c.15.56,2.25,2.63,2.66,2.31l-.46-.69,1.04.46-.35.35c.28.26,2,2.08,2.14,2.14.24.1.62-.29.86.17l-.69.23.66.38-.2.43.92-.23-.46-.46,1.14.24-.22.45h.7l-.12.92,1.5-.92c-.85.6-.63,2.13.46,1.61-.18-.5-.27-.96.46-.92l-.23,1.15h.69l-.23-.46h.69l-.23.92h.7l-.24.46c1.06-.52.73.29,1.62.24l-.46.69.89.27c.13.46-.06.96.04,1.42.04.17.35.17.44.34.14.27.1.79.3.94.15.11.51-.01.63.05.04.02-.21.58.01.97.12.23.77.17.44.63-.05.08-.67-.17-.44.47,1.67-.58,1.73,2.34,1.38,3.46l.92-.46c.05.47-.1,1.02,0,1.46.04.17.64.23.7.99.04.54-.67.1-.47.79l.82.22.12,1.26-.47.26c.88.47.61.34.46,1.27l.7-.15.34-.77.33.58-2.98,2.08,1.59-.1.25.59-.44.78.69.68-.92.71h1.15l-.69.92.71.13c-.25.73.33,1.5.35,2.06.05,1.85.07.77.49,2.01.13.38,0,2.02-.41,2.38l.46.35c-1.01.7.37,2.11-.68,2.07v.23c.85-.44,1.19,1.69,1.16,2.18,0,.07-.85.29-.46,1.06.02.04.51-.32.69.12l-.91.46c.32.3.55.44.65.91.26,1.21-.44,4.58-.66,5.9l.7-.34-.7,1.27h.69c-.47.7.47.97.47,1.04.02.74-.88.98-.94,1.2-.14.55.1,1.56,0,2.25-.05.35-.42.61-.45.94-.05.62.78,1.82-.69,1.26v.69h.52l.17.69-.69-.23c.39.92-.15,1.75-.17,2.47,0,.1.42,1.85.51,1.93.45.4.81-.39,1.28-.25.17.79-.51.29-.87.51-.05.03-.47.75-.48.82-.18.51.4.69.55,1.1.3.83-1.11,1.65.32,1.52l.16.65,1.01.03c-.43,1.57,1.16,2.75,2.08,3.81l-.93,1.04.93.24-.23.7h.69c.04,1.03-.64,1.72-.22,2.76h.68l-.43-.58c1.14-.89.53-1.34.28-2.34-.05-.18.15-.49.11-.64-.11-.4-.71-.2-.65-.59l.92-.23.7,5.08c-.75-.11-1.3.26-1.62.92l1.62-.46,5.31,46.19-2.19-1.62c-.97-.93-3.95-4.86-4.57-5.25-.34-.22-1.41-.4-2.09-.8-2.24-1.32-5.55-3.61-5.7-6.43-1.41.67-2.34-.5-3.23-1.5-.26-.29-.39-.91-.51-.99-.21-.15-.84-.1-1.45-.51-.23-.15-2.11-2.05-2.3-2.32-.41-.57-.66-1.39-.82-2.07-.53.27-1.06.32-1.63.13-.13-.05-1.54-1.3-1.73-1.5-.36-.38-1.48-1.95-1.72-2.44-.61-1.26-.64-2.47-.92-3.81-.67.74-.81,1.67-2.14,1.38-.15-.03-.14-.36-.34-.44-1.03-.42-1.88-.15-1.67-1.87-1.96.93-4.41-2.14-3.69-3.93-.44-.11-.69.38-1.07.42-1.87.18-3.69-5.8-3.55-7.35-.59.38-.75.94-1.56.54-.44-.22-.2-.61-.32-.72-.13-.13-.7.01-1.14-.37-.38-.32-.45-1.05-.65-1.19-.13-.1-.51.13-.76.07-1.43-.34-1.64-1.6-1.56-2.94l-1.68.43c-.57-.16-.7-.92-.92-1.06-.33-.21-.86-.06-1.45-.52-.38-.3-.64-1.04-.96-1.14l-1.7.11c-.58-1.82-1.45-3.52-1.61-5.44-2,1.38-2.69-.6-3.22-2.22-1.65.55-1.71-1.44-2.15-1.88-.14-.15-.6-.09-.88-.39-.43-.48-.79-2.82-.91-2.91-.55-.03-.8.54-1.32.65-.99.21-.98-.25-1.62-.6-.77-.41-1.36-.61-2.07-.92-1.12-.5-1.28-1.32-1.69-1.57-.32-.19-.79.28-1.38.02-.65-.29-1.81-2.43-1.97-2.43-.42.45-.92.97-1.6.92-.4-.03-2.8-1.13-2.44-1.85-.84.6-1.63.57-2.54.12-.13-.06-1.92-1.25-2.01-1.34-.26-.27-.76-1.81-1.03-1.97-.36-.21-1.76.03-2.37-.06-2.35-.36-3.91-1.8-5.43-2.2-.43-.12-.91.21-1.63.03-.8-.2-1.41-.95-1.63-1.73-1.36.46-2.08.97-3.57.46-.4-.14-.83-.63-1.18-.66-.35-.03-.86.44-1.57.43-.98-.01-2.13-.56-3.03-.68-.51-.07-4.14-.42-4.26-.25.53,1.32.47,2.96.75,4.22.17.77.77,1.48.88,2.36.07.59.08,2.73-.31,3.07-.14.12-.83-.07-.81.67.01.33.37.52.37.84-.01.66-1.1,1.44.25,1.33l.26.79-.46.11c-.11.56.1.37.46.56-.89,1.15-.66,3.67.93,3.82l-.69.8c.35.48,1.08,1.41.23,1.62,1.08.88.11,2.27,1.52,2.42l-.14,1.17h.7l-.17.34c.58.18.16.51.2.55.08.08,1.57.76,1.76,1.24.29.7-.37,1.24.99,1.33-.32,1.19-.75,1.46.23,2.53-.02.03-.65-.12-.45.35.24.56,1.19.11,1.6.37.14.58-.46.74-.46.8s.25.97.29,1c.21.16.64,0,.97.49.21.3.15,1.5-.09,1.86h.92l-.46.69.92.24-.46.35c-.01.65,1.15.33.46,1.38l.23.23c.53-.25.6.74,1.24,1.2.18.13.53.04.58.09.16.18-.23,1.47.08,2.12.26.56.73.53,1.04,1.04.28.46.24,1.38.75,1.79l-.46.22c.24,1.13,1.02.97,1.84,1.52l-.69.46.91.81-.43.46c.23.44.96.41,1.17.74.34.53-.66,1.5,1.36,1l-.46.81c.31.49.48.21.92.12-.51.88.31.62.57,1.4.11.32-.12.63-.1.66.05.08.65.09.86.3.23.24.17.83.4,1.11.2.25.65.16.82.38.14.18.3,1.14.21,1.23-.12.11-.77-.22-.69.23l2.07.93-.46.23-.19.77.41.49.7-.11-.25,1c.7.59,2.1.83,1.4,2,.09.11,2.36.47,2.71.62.55.24-.1.92,1.44.08v.93h1.61l-.92.23v.69c1.24-.24,2.16-.42,3.46-.23.04.43-.56.13-.83.45-.12.13-.06,1.11.28,1.13.88.1,1.75-.22,2.63-.08.15.03.7.13.34.35l-.81.23c1.03.44,1.07-.34,1.85-.46l-.02.58c.71.16,1.3.43,1.87-.12-.06.82.62.07,1.17.57.27.25-.22,1.07.91.58-.06.49-.45.8.11,1.14,1.07-.68,1.61-.29,2.66,0l-.57-.69c.78-.16.86.6,1.43.66.48.05.81-.19,1.12-.17.37.02.63.46,1.14.46.69.01,1.2-.85,1.97-.72l-.23-.45c1.06-.42,2.39-.43,3.4.17.61.37.48.85.85,1.23.55.58,1.44,1.17,2.05,1.83.1.11-.02.43.15.58.26.23.87.29.92.37.04.07-.16,1.16.1,1.54.37.55,1.54,1.15,1.87,1.9l.46-.46.57.47c.1.46-.97-.02-.69.57.22.46.94.25,1.11.39.11.09.11.73.26,1.01.42.8,1.43,2.44,2.32,2.42l-.24.69,2.54.7-.46.92.8-.47c.21.69.85.78,1.5.7-.04-.11,0-.32,0-.46h.92c-.09.49-.55.42-.92.46.2.63,1.58.96,2.15.85.32-.06.44-.5.85-.38-.44.98.55,1.34,1.39,1.39l-.46.69h.92l-.23-.91,1.39-.24c-.55.61-.03,1.74.69,1.5.83-.28-1.1-.71-.12-.81.45.67,1.56.55,1.51,1.15h.22c-.1-.72.62-.43,1.16-.46l-.23.69.92-.35-.35-.35c.99-.41,1.32.47,1.4.47.43.03,1-.33,1.82-.22s1.74.73,2.31.93c.13.04.86.05.48-.25l-.46-.23.78-.2c.14.41.13.53.6.66.64.17-.13-.72.66-.67.48.03.68.98,1.77.54l.57,1.05.46-.46.25.49c1.16-.41,2.58-.43,2.41,1.13.52.05-.1-.85.57-.69.52.13,1.14.8.81,1.38,1.24-.47,2.45.36,3.64.62.27.06.58-.14.76-.05.2.1.05.5.13.6.28.36.83.39.78.91l.69-.69-.92-.23,1.5-.24c.11,1.22,1.13.81,2.06.67.83-.12.64-.72,1.63.28l1.28-.49-.23.69c.75.07,1.09-.59,1.85-.37.99.28.22,1.61,1.38,1.76l-.46.57c.23.2,1.35.71,1.39.98.05.34-.21.71-.11,1,.29.85,2.05.89,1.26,2.07h.7l-.23.92c.1-.29,1.14.28,1.16.35.26.81-.48.86-.48.93.02.35.61.69.24,1.26h1.39v-.69h-.93c.05-.77,1.99-.15,2.08-.23.06-.55-.25-.69-.69-.46-.08-.94.83-1.62.46-2.54.29-.06.39,0,.56.24.29.41.96,4.5.84,4.93l-1.63.72c.3.78,1.37-.51,1.85-.34.9,6.31,2.18,12.73,3.2,18.86s1.92,12.27,2.82,18.43c.08.53.82,1.68.22,1.98-.4-1-.61-2.11-.79-3.2-.05-.31.17-.72.07-1.03-.14-.4-1.32-.64-.86-1.29.07-.1.52.14.42-.25-.94-.02-.27-1.94-1.04-2.54-.43-.18-.58,1.42-.55,1.5.05.17.48.04.43.22-.98.92-.31,1.01-.26,1.62.06.76.06,1.92-.66,2.31,1.08.37.25,1.18.69,2.2l.46-.23c.24.34-1.5,2.38.46,2.31.04.68-.54,1.12-.58,1.81-.04.65.51,1.55.1,2.42l.93.4c.31.59-.48,1.34-.48,1.47.03.59.81,1.22.39,1.76-.23.29-.88.01-.83.44.41-.23,1.47.36,1.39.81l-.69-.11c.4.85-.29,1.43-.44,2.28l.67.37-.66,2.4.9.72c-1.31-.14-4.32-.52-4.39-2.08-1.31.76-3.66-.82-3.23-2.3-.54,0-.64.45-1.26.48-.95.04-1.05-.68-1.21-.71-1.67-.35-4.6.83-3.54-2.08-2.2.87-4.31.4-5.87-1.4-.49-.56-.69-1.53-.94-1.83-.25-.3-.83-.17-1.28-.57-1.39-1.22-2.13-4.6-1.61-6.36l-1.63,1.48c-.81.5-1.89.44-2.7-.04-.38-.22-.55-.75-.66-.75-.34-.02-.79.36-1.54.2-1.03-.22-2.28-1.45-2.7-2.4-1.69.89-4.52-.28-4.86-2.18-.7.53-1.22,1.17-2.2,1.16-.77-.01-1.04-.58-1.41-.64-.97-.15-1.45.47-2.91-.35-1.81-1.01-1.89-2.35-2.93-3.49-.16-.17-.38-.24-.48-.14-.27,1.33-.76,2.57-2.12,3.08-.4.15-.88.11-1.33.28-.32.13-.53.62-1.1.75-.81.19-1.46.02-2.14-.41-.34,1.56-2.44,1.1-3.53.63-.92-.4-1.34-1.31-2.25-1.56.3,1.27-1.19,3-2.3,3.36-.45.15-1.07,0-1.35.16-.14.08-.17.58-.73.77-.78.27-1.98-.17-2.06-.11s-.14.48-.37.68c-.95.85-2.18-.01-3.13-.47-.05,2.29-2.03,1.27-3.08,1.45-.33.06-.49.47-1.17.4-.57-.05-1.23-.64-1.86-.68-.57.33-.25,1.05-.48,1.6-.23.55-2.25,1.51-2.88,1.74-.36.13-.95.04-1.12.15-.18.11-.04.78-.56.97-.45.16-.7-.1-.95-.08-.17.01-.04.41-.47.47-.38.05-1.89-.11-1.98-.02.47,1.96-1.2,1.8-2.2,2.54-.65.48-.98,1.45-1.98,1.95-1.1.55-.94.35-1.93,1.07-.8.58-2.14.92-3.13.92-.01.7.09,1.34-.18,2.02-.25.62-1.27,1.28-1.44,1.62-.7,1.38-.89,2.48-1.98,3.96-.32.43-.93.67-.98.74-.03.05.19.62-.09,1.18-.37.75-3.05,3.7-2.03,4.45.37.27,2.79.82,3.42,1.08l.27,1.11-.92-.92c.16.68-.49,1.54-1.04,1.87-.81.48-2.13-.46-1.99,1.49.06.88.86.73-.21,1.73l.59-.2c.29.86,1.44.04,1.95,1.01l-.46.22c.63.57.14,1.81.28,2.33.04.17.71.02.21.7l.43.11c-.02.47-.67-.02-.45.69h.46v.34l-.46.12.34.45,1.38-.69.58,1.15c.46-.74.84-1.22,0-1.96l.47-.25-.24-.56c.48.1.85-.41,1.24-.41.8-.02.53.68.64.83.03.04.33-.14.44-.06.17.13.17.46.26.53.08.07,1.46-.46,1.81.38-.21.37-1.05-.15-1.13-.09-.43.31-.81,2.29-1.87.31l-.69.13.72,2.05,2.85-1.6c.47,1.45,1.41,1.12,2.66,1.62l-1.15-1.61,2.08-.46c-.35.61.28.97.25,1.48,0,.07-1.38,1.12-.36,1.05.09-.01.85-1.06,1.5-.69-1.14,1.31.37,1.21,1.38,1.15l-.92-1.15,1-.21c.73.21.63,1.45.73,1.59.27.36.9-.01.35.93l.92-.23-.43-1.07.55-.54.35,1.15.92-.23c-.16.31-.28,1.08.23,1.15v-1.38l1.27-.46.34.8.59-.12c-.15-1.19,1.03-.63.15-1.74.27-.72.9-.36,1.28-.52.33-.15.72-.7.87-.7.18,0,.55.67,1.06.31.18-.12.63-1.05.1-1.28l-.35,1.15-1.15-.81c.69-.21,1.25-.41.92-1.26l1.39-.24c-.22,1.23.93,1.6,1.97,1.62.65.02.08-.19.25-.46.15-.23,1.67-1.37,1.95-1.15l-.13.69.82.23c-.02-.53.81-2.01,1.27-2.08l.11.69.81-.7.58.7c-.03-.86-.06-1.55-.69-2.2l.57-.35.13.44.44.02c.44-1.35.69-.07,1.27-.22.18-.05,1.5-1.6,1.05-2.09l.8,1.61c.42-.89.4-.93,1.41-1.13l.21.44.57-.58-.98-.35c-.81-1.34,1.33.05,2.14-.23l-1.15-.46.36-.46c.9.71,1.37.02,2.07.02.48,0,1.51.87,1.73.67.33-.29-.81-.8-.69-1.16h1.5c.34.13-1.12,1.29-.24,1.15,1.24-.19,1.67-2.64,3.02-3.22l.13.67,2.53.48c-.52-1.29,1.38-1.26.23-2.53.66.01.74-.77,1.15-1.04.09-.06,1.44-.17,2.06-.51.39-.21,1.61-1.13,1.4-1.46-.03-.03-.32.07-.41-.11-.26-.51-.06-1.09.64-.58.12-.41-.23-.47-.35-.69-.48-.94,1.28-.54,1.74-.46l-.46,1.61,1.27.47.12-.69c.32.11,1.18.23,1.39,0,.21-.23.18-.45-.29-.39-1.8.23-1.31-1.34-.06-.75l.12-.7.46.69.68-.59c.55.33,1.13.39,1.58-.15.05-.05-.15-.25-.1-.36.05-.09.67.04.21-.63l.53-.35.11,1.27c.82.11,1.28-.07,1.26-.93-.01-.3-.55-.39.12-1.03-.8.37-1.62.74-1.85-.47h2.08l-.23-.59c-.22-.15-.63.11-.93.02-.98-.28-2.21-.62-3.34-.46-.35.05-1.14.88-1.04-.12.84-.08,1.56-.4,2.42-.47,1.38-.12,6.34-.11,7.46.4.27.12.28.44.46.51,1.04.38,3.91.94,4.62,1.69.21.22.19.76.32.84.09.06,1.82.19,2.32.33.93.26,3.48,1.32,2.73,2.47,1.64-.77,2.99,1.81,1.16,2.54l.46-1.85c-.81.29-.87-.35-1.1-.45-.51-.22-1.36.06-1.67-.94l.7-.35-1.39-.11.12-.46c-1.12-.35-.93.55-1.73.69l-.21-1.06c-.48-.33-1.62.01-1.29.37.78.14.45.67.6.97.11.21.31.22.33.25.93,1.97.64,2.7-1.74,2.01l.23-.69c.85.64,1.38.41,1.02-.68-.36-1.09-1.42-.64-2.4-.94-.35.39.81,1.35,1.14,1.41l-.44.79c.68.15.68.99.91,1.17.2.15.7-.28.93.21-1.64.67.31,1.35,1.05,1.96l.58-.69c-.42.32.15,1.12.4,1.16.71.11,1.48-.74,1.82.23l.53-.21,1.54,1.82-.82,1.62c.32.06.76-.24,1.02-.19s.95,1.46,1.29,1.11c-.25-.6-.84-.91-.44-1.6h1.35l.36,1.14c.09.04.46-1.08.81-.69.3.34-1.04,1.29-.35,1.85l.56-.37-.1-.56c1-.24.04-.67.69-1.12.85.51,2-.18,2.66.55l-.45,1.04h1.15l.03-.89c.79-.48,1.07-.04,1.59.54-1.33.68.27.47.92.58.1-.11-.88-1.9.46-1.85l.93,1.61.94-.36.79.82c.53-1.01,1.55-1.33,2.08-.23l.23-.46c.67,1.11,1.17,1.35,1.96.23l.53,1.01,2.71-.08-.4.27-.06.65c.86.03,1.46.62,2.31.23-.62,1.61,1.42,1.85.93,3.7l.43-.2c.03.79,1.18,1.32,1.36,1.73.11.26-.08,1.7.06,1.93.01.02.3-.2.46-.09.3.2.4.73,1.28.77l-.14.94h.69l-.46.46c1.08.09.33,1.34.69,2.08l.34-.46.79.5-.22,1.21.48.28-.24,1.72.46-.46.46.35c.18.42-.69.35-.61.92.04.24.43.5.51.8.38,1.51.62,4.7.16,5.9-.22.58,1.08,3.33,1.03,3.7-.03.26-.52.43-.55.69-.04.35.84,2.7.86,3,.01.16-.46.06-.6.56-.22.79.09,1.27.05,1.87-.04.54-.93,1.25.09,1.96-.97.26-.2,1.16-.22,1.86-.02.96-.57,1.91,0,2.87-.75-.13-.84.26-.93.93l1.17,2.52v1.16h.54l1.54,3.32s0,.02-.01.04h.03s.29.61.29.61l-.09.44.22-.16.59,1.26c-.14.54-.34,1.07-.45,1.68l-.27.19-.06.61c.39.21,1.03,1.28,1.38,1.51.73.48.91,1.55,1.74,1.17l-.89-2.03.94,2.01s.02,0,.04-.01v.09l.32.68.14-.07c-.03.12-.03.21-.04.3l.32.69c.33.29.72.49.49,1.05l.11.24.49.29-.14.47,1.26,2.72c.09.12.22.23.51.25v.9l.43,1.5h5.77c-.75-3.36-1.61-6.7-1.61-10.17l.46.23-.2-1.02.32-.37.04-.68c-.69-.44-.07-1.33-.13-1.71-.03-.21-.48-.2-.59-.37-.22-.34-.06-3.04.04-3.66.31-1.95,1.17-3.64,1.9-5.3.13-.29.42-1.83.49-1.9l.66.26c-.33.14.26,1.15.61.67-.02-1.85.21-4.28,1.42-5.76l1.23.21c-.45-1.45.47-2.76,1.29-3.91.82-1.15,2.27-3.06,3.8-2.79-.8-2.33,1.65-6.3,4.16-6.47-.57-2.02,1.04-6.74,3.69-6.24-.68-1.52-.53-3.76.13-5.29.23-.52,1.26-1.24,1.27-1.33.05-.3-.28-.98-.25-1.57.28-5.72,4.42-11.79,5.72-17.4.33-1.45.75-3.79.96-5.28.17-1.24.66-5.22.5-6.22-.05-.35-.78-.71-1.05-1.5-.35-1.01-.31-2.71-.62-3.53-.16-.43-.76-.33-.88-.96-.17-.9.19-1.94.15-2.74-.13-2.63-1.27-5.27-.38-7.78-.61-.03-.85-.14-1.04.46-.74-.49-.71-1.62-1.03-2.15-.22-.37-1.41-.56-.82-1.54l.58,1.16.79-.25c.24.33-.01.61.59.48-.06-.69.24-1.56-.35-2.08l-.11,1.04-.46.11c-.16-.99-1.46-1.22-1.39-2.31l-.34,1.84c-3-1.29-1.41-4.31-2.01-6.3-.08-.29-.99-1.26-1.27-1.96-.43-1.08-.74-2.91-.77-4.08-.01-.52.32-2.11.24-2.19-.04-.04-.47,0-.67-.13-1.07-.68-1.24-2.99-1.76-3.79-.2-.32-1.48-1.17-1.94-1.75-.5-.63-.98-1.39-1.17-2.18-.54-.1-.95.3-1.35.59-1.56,1.12-6.24,5.71-7.64,6.01-.53.12-1.08-.21-1.6.12l-.03,1.13-.46-.12v.58c-.29-.22-1.24.06-1.35.26-.03.06.4.81-.09,1.3-.17.17-.61.2-.85.41-.29.25-1.74,1.45-1.8,1.55-.15.26,0,.78-.28,1-.32.25-.87-.34-1.16.21-.25.98.63.37.89.6.43,1.22,0,1.27-1.12.9.03.54-.07,1.13-.46,1.53-.42.44-.87-.16-1.22.61-.45.97.36,1.81-.89,1.93-.23.29.09,2.13-.26,2.94-.16.36-.54.32-.62.42-.24.33.64,1.03-.26.89l.69.23-.46.34c.71.8-.1,1.35.25,2.26.08.21.42.19.42.28-.04.8-1.03,1.36-.2,2.21h-.7c-.08.05.42.56.52.76.2.43-.46.74.63.62l-.69.81.69.57c-1.47.41-.49,1.35-.51,1.93-.02.47-.55.96-.56,1.2-.03.57.68.69.8.86.05.08-.01,1.5.15,1.81l1.03.23c-.21.8.33.82.46,1.1.13.27-.2.86.48.74-.1.67-1.06.06-1.38.34l.46,1.04.46-.69c1.23.22.72,1.06.46,1.85l.83.22-.13.93,1.61-.92c.21.62-.33.4-.4.5-.04.07.19.96-.52,1.35.86.57,2.28,1.35,1.62,2.54l.92-.46-.1,1.17-1.05.33c.65.84,1.31-.24,2.08-.11l-.69,1.62h.92l-.46.69.69.14c-.36.92,1.62,2.21-.45,2.29l.58.58.45-.46.57.25-.19.41c.49.33,2.33.92,2.27,1.54-.02.2-.62.24-.69.51-.46,1.79.64,1.56,1.29,2.14.41.37.93,2.52,1.49.71l-.69-.46c.59-.09,1.41-.17,1.91.23.29.23.08.79.63.69l-.46.69c1.23-.37,1.17.93,2.31.47l-.23,1.15.69-.69.42,1.09-.64,1.11c-.17.6.57.23.69.34l-.23,1.15c.88.46.84-.42,1.62-.46-.06,1.17-1.15,2.13-2.31,2.08.66,2.11.48,4.39-.39,6.41-1.03,2.38-.73,4.89-1.57,7.45-.27.82-1.08,1.8-1.22,2.47-.24,1.23-.11,2.9-.38,4.24-.54,2.65-1.8,5.23-3.09,7.53-.21.37-1.14,2.46-1.26,2.56-.14.12-.52,0-.59.07-.12.12.03.83-.08,1.2-.08.27-1.63,2.01-1.86,2.09-.6.2-1.17-.23-1.51-.03-.05.03-.82.83-.85.88-.23.37.08.95-.35.92l-7.31-40.58c.92-1.5.97-3.83,1.6-5.21.35-.77,1.44-1.04,1.32-2.02l-1.68.67c-1.15-.58-.85-1.67-.86-2.75-.51.42-2.26.84-2.5.08-1.48-8.81-3.28-17.57-4.81-26.37-.85-4.87-1.62-9.9-2.4-14.69-1.6-9.8-3.37-19.59-4.37-29.47l1.25.24,5.21-1.16c-1.2-.64-3.34-1.75-2.08-3.23-1.39.17-1.89-1.74-1.39-2.77-.73.06-2.05.06-2.42-.7-.14-.28-.06-.81-.14-.89-.08-.08-.84-.03-1.2-.24-1.11-.65-1.56-4.61-1.75-5.93-2.28-15.78-3.88-32.15-5.35-48.01-.15-1.56-.74-3.1-.43-4.71l1.58-.72-1.61.46c-.12-.08-.43-2.47-.46-2.89-.08-1.14.56-3.78-.92-3.58-.38.66.05,1.49,0,1.93-.02.16-.4.11-.47.31-.1.29.21.81-.23.76-.22-.71.26-1.58.22-2.18-.03-.51-.51-.77-.45-1.28l.43.2c-.04-.57,1.21-1.1.77-.31l.41.11.45-3.37,2.09.36c-.37-.73-2.01-.39-1.85-1.5l1.16-.12-.9-.72.21-1.36h1.84l-1.4-.59c.04-1.03.39-2.05.97-2.84,1.31.32,2.07,1.41,2.97,2.27-.15-1.76-3.12-2.03-2.54-3.7l.69.46.25-.79-.48-.24.52-1.45c.9-.73,1.36.57,2.25.63l-.92-1.38,1.16.23.22-.46c.01.18.55,1.56.93,1.15l-1.15-2.77,1.47.48c.43-.96,1.06-.71,2-.71l-.24-.46c.63.12.74-.15.93-.69l-.69-.46c1.02.19,1.7.43,2.77.23l-.46-.34.81-.81c.29,1.58.56.04,1.27,0-.6-.54.08-1.07-.69-1.26l.66-.3.18.42h.41c.99-.09,1.54-1.06,2.45-.92l-.92-.23v-.92h2.31c-.11-.24-.01-.95-.05-1.05-.09-.21-.52.05-.42-.33l1.04.4c.17-.15,1.81-1.21,1.11-1.33h-.36l-.18-.58c.74-.62.94-1,2.08-.83v-.68l.93.14c-.03-.65.6-1.04.62-1.1.09-.23-.51-.63.23-.7l-.17-.41,1.62.69-.92-.58c.52-.49,1.1-.89,1.85-.82-.61-1.7,1.39-1.6,2.05-2.91.27-.54.14-.95.27-1.3.08-.2.75-.31.45-1.1l.57.23c-.09.49-.23.51.35.46-.7-1.73.86-1.59,1.08-2.14.09-.23-.18-.63-.09-.81.13-.26,1.45-1.18,1.5-1.26.24-.4-.37-1.09.74-.87l-1.38-.46c1.59-.02,2.52-1.75,4.16-1.62.07-.06-.19-.53-.16-.77.05-.41,1.65-2.76,1.99-3.05.39-.34.9-.49,1.4-.57-1.08-1.3.51-1.82.86-2.37.14-.23.04-.64.28-.99.7-1.03,3.07-2.72,4.4-2.65-.12-.45-.86-.36-1.17-.79-.41-.58-.18-2.07.15-2.66.33-.59.94-.54,1.02-.94-.81.03-.53-1.04-.46-1.62l.57.46,1.04-.93-.02-.44-.41-.04-.02-.33c.1-.23,1.31-.9,1.62-1.17.2-.18.01-.47.05-.52.17-.18,1.02-.41,1.33-.51l-.69-.57c1.25-1.41,2.91-2.23,4.84-1.96-.39-1.71-.54-2.68,1.15-3.58-.7-.58-.56-1.44,0-2.09.2-.22.63-.29.68-.36.06-.09-.37-1.02-.06-1.76.19-.45,1.83-1.37,2.39-1.44.18-.69-.69-.42-.89-1.08-.24-.81.32-2.31,1.35-2.15-1.25-1.37.74-3.01,1.85-3.81.21-.45-.8-.34-.93-1.16-.12-.74.25-1.04.35-1.6.04-.26-.18-.59-.03-1.05.33-1.05,1.57-1.87,2.68-1.84.15-.15-1.3-1.01-1.06-1.85.02-.08.66-1.52.71-1.59.25-.38,1.04-.89,1.14-1.16.09-.25-.14-.65-.06-.99.39-1.67,2.23-3.94,3.65-4.92ZM152.7,55.84h.46l-.23,1.16h-.23v-1.16ZM114.13,26.74h-.23c-.08-.21-.11-.39-.11-.58,0-.18.04-.36.11-.57h.23v1.15ZM113.2,96.27h0v.69h0c-.48.03-.87.09-1.15-.34,0,0,0,0,0,0,0,0,0,0,0,0,.28-.43.67-.37,1.15-.35h0ZM123.13,93.49c-.06.06-.51-.23-.91-.58-.35-.3-.68-.63-.7-.8.26-.05,1.19.59,1.53,1.03.11.15.16.27.08.35ZM127,93.44c.15-.13.38-.17.59-.25.11-.04.21-.09.29-.17l.11.46-1.15.23c.03-.12.08-.21.16-.27ZM124.98,95.57h-.34c-.37-.24-.41-.49-.35-.92l.69.58v.34ZM133.52,107.6l-1.38-.93.03-.03h0s.43-.43.43-.43c-.27-.06-.63.04-.92,0,.3-1.28-.3-1.02-.69-1.5-.41-.51-.49-.95-.77-1.43-.2-.34-.91-.14-.38-1.23-1.16.13-.72-.68-.98-1.1-.39-.65-1.55-1.92-2.25-2.54l-1.38-2.6.04.04-.03-.05,2.54,2.71c1.27,2.71,3.73,4.95,4.85,7.67h0s0,0,0,0c0,0,0,0,0,0,.67.14.92.73.92,1.38l-.03-.02s0,.03,0,.05ZM135.37,101.35h-1.38v-.23h1.38v.23ZM26.06,110.91c-.16-.03-.3-.07-.39-.11l.27-1.33.54-.28s0,0,0,0h0c.57.28.09.76.16.89h-.01c.04.08.31.09.39.17.7.76-.31.78-.97.66ZM59.16,115.9s.03-.05.03-.08c.03-.27-.74-.68-.76-.9-.01-.11.16-.18.71-.15l.48,1.59c-.2,0-.4.01-.61,0s-.41-.02-.61-.06c-.4-.08-.78-.23-1.09-.52l1.85.12ZM52.81,116.83l.81.46c-.34.56-1.17.4-1.16,0,0-.13.1-.29.35-.46ZM51.54,113.12l.67.02.25.9c-.44.09-.63-.29-.92-.58v-.34ZM42.52,108.83c.31.1.64.27.88.48.12.11.22.22.29.35-.55-.06-1.35-.42-1.62-.92.14.02.29.05.45.1ZM43.23,120.28c-.53,0-1.64-.08-1.61-.81,0-.18.09-.26.22-.27.39-.05,1.19.47,1.37.41l.02.67h0ZM45.3,138.53l-.92.47.24-.93.68.24v.22ZM49.46,124.21c-1.09,0-1.88-1.32-2.81-1.18-.06,0-.12,0-.18.03,0,0,0,0,0,0,0,0,0,0-.01,0,.13-.5.28-.68.45-.67.29,0,.65.48,1.08.78h0c.08.05.09.27.16.3.06.03.16.03.27.02.06,0,.12,0,.18,0,.33,0,.71.1.88.72,0,0,0,0-.01,0,0,0,0,0,0,0ZM49.93,139.7h.45c-.08.69,1.03.33.93,1.15-.45.18-1.56-1-1.38-1.15ZM61.48,125.13s0,0-.01,0v.02c-.23.35-2.02-.28-2.36-.47-.29-.16-.34-.63-.52-.65-.15,0-.56.32-.93.32-1.21,0-2.18-.35-2.59-1.51h-.97l.21.43s-.01,0-.02,0v.03c-1.47.38-1.84-1.05-2.99-.92l.23-.92h-.9l.22.54h-.02s.01.03.01.03l-.46.11c.1-.65-.39-.19-.71-.56-.15-.18.12-.75-.68-.93-.42-.1-1.99.88-2.54-.36l.04.02s-.02-.03-.03-.05l1.15.46v-.66l-1.61-.23.11.43h0s0,.03,0,.03l-1.96-.47.03-.02h-.03s.66-.45.66-.45h-1.68l-.29-.34v-.02s0,0,0,0l.14-.53c-.19-.25-1.3,0-1.39-.49-.02-.07-.02-.15.01-.25.59.18,1.18.36,1.77.55v.03c3.44,1.11,7.29,2.75,10.94,3.95.69.23,1.58.38,2.31.58l-.23.92.78-.47,4.3,1.16v.69ZM64.29,127.91c-.99-.13-2.32-2.51-1.9-3h0s0,0,0,0l1.8.5h.01l.27,2.5c-.06.01-.13.01-.19,0ZM64.71,125.83l1.03-.47.35,1.16c-.61.09-1.16-.09-1.38-.69ZM111.02,133.23h.34s-.12.92-.12.92l-.57-.58.35-.34ZM108.67,136.08c.07-.22.16-.43.24-.65.12-.33.2-.66.14-1.06.57.41.29,1.84.43,2.51l-.89.26c-.1-.4-.03-.74.07-1.07ZM106.28,136.69c.43-.04,1.01-.06,1.15.46-.28.11-1.18-.22-1.2-.4,0-.03,0-.05.05-.06ZM100.05,131.83c-.09-.44.3-.62.58-.92l.08.66h0s0,0,0,0h0s0,0,0,0l-.66.26s0,0,0-.01h0ZM84.8,130.92c.05.41-.52.23-.78.2-.59-.05-1.46-.15-1.85-.65-.06-.07-.1-.15-.14-.24l2.77.69ZM81.8,119.83h1.15v.46l-1.15-.24v-.22ZM68.17,127.45h-1.15l.46-.34-.46-.81c.64.02,1.32.42,1.15,1.15ZM121.76,153.56s0,0-.01,0c0,0,0,0,0,0-.62.19-.38-.35-.63-.46-.3-.14-.71-.12-1.05-.25-.26-.1.03-.67-.86-.22l.23-.46-1.61.13c-.28-.22-.57-.43-.86-.64-.86-.64-1.72-1.27-2.6-1.88-.61-.43-1.22-.85-1.84-1.27-.53-.36-1.05-.71-1.58-1.06-.48-.32-.96-.63-1.44-.95-.3-.2-.37-.64-.52-.74-.56-.35-2.37-.75-3.02-1.43-.26-.27-.11-.67-.15-.71-.03-.04-.45.25-.75.19-.33-.07-2.74-1.39-2.02-2.04l-.45.17-.11.51h0s0,0,0,0l-2.32-1.37.12-.94c-.44-.13-.54.42-.93.36-.96-.16-2.53-1.71-3.68-1.75h.01s.68-.69.68-.69c-1,.39-2.31-.31-3.31-.73-2.08-.88-4-2.22-6.14-2.98h0v-1.04l-1.86-.11.23-.46-1.85-.11v-.81l-1.37-.23v.68h-.02s0,0,0,0l-1.38-.23c-.12-.43.83-.88.11-1.15-.11-.04-.18-.04-.23,0-.12.09-.13.33-.29.47-.03.03-.07.06-.11.08-.47.2-3.2-.62-3.92-.84-1.36-.43-3.03-1.2-4.23-1.73-.61-.04-2.04-.13-2.52-.27-.22-.07-.09-.42-.22-.63-.15-.25-.74.22.08-.77l-.58-.47s.03.01.05.02l-.04-.03c.66.41,1.67.43,2.26.74.67.35.63,1.26,1.51,1.11l-.67-.79s0-.08.03-.1c.06-.07.23-.05.32-.02.72.23,3.66,1.21,4.04,1.5.46.35,1.01,1.69,1.51,1,.04-.05.07-.11.1-.18l-1.15-.69s.02,0,.04,0l-.03-.02c.93,0,1.68.56,2.53.83.49.15.45.05,1.12.31,1.85.72,3.57,1.01,5.3,1.82.39.18.67.65.88.74.14.06.24.03.3-.03.1-.11.11-.33.03-.42-.1-.12-.87-.06-.69-.7,0,0,0,0,0,0,0,0,0,0,0-.01,1.1.77,2.01.43,3.23.7.02.13,0,.22-.03.29-.22.46-1.53-.3-2.04-.05.77.9,2.34,1.03,3.45,1.49,1.67.69,3.96,2.11,5.6,2.51.44.11.68.16,1.1-.09,0,.28,0,.61.23.81.6.51,2.63,1.06,3.39,1.46,5.45,2.87,12.09,6.78,17.01,10.48.69.52,3.29,2.36,3.65,2.84.26.34-.11.87-.03,1.28ZM122.4,145.28c-1.1.51-2.6-.12-4.1.08-.45-.21-.61-1.73-.47-2.2-.08-.07-1.24.18-1.45.28-.17.09-.33.46-.51.64-.11.12-.23.16-.36,0-.39-.44.88-.6.7-1.03l-.94-1.74h.03s-.01,0-.01,0l.67.22.61-1.85s.01,0,.02,0h0c.35,0,.76-.07,1.09.03.24.08.4.83.69.76.04-.01.08-.04.12-.09.25-.27-1.16-.95-.43-1.27.1-.05.25-.09.45-.12h.02c-.07,1.35.93.93,1.6,1.28.24.12,1.73,1,1.8,1.08.39.48.62,2.01,1.66,2.36-.29.88-.71,1.34-1.21,1.57ZM124.17,146.16l-.57-.35.35-.34.57.23-.35.46ZM147.15,120.28l1.64-12.56.89-.38c-.66-.74-.78-1.79-.75-2.89.03-1.1.21-2.26.17-3.22-.08-1.92-.44-4.06-.56-6h0s0-.01,0-.02l.46.12.17-.81c-.57-.26-.71-.63-.72-1.04-.01-.3.05-.63.07-.95,0-.1,0-.2,0-.3-.06-.65-.15-1.03-.2-1.84,0-.1-.17-.86-.17-1.38,0-.41.08-.67.4-.38v-.02c.05.36.12.71.2,1.07.01.05.02.1.03.14.27,1.2.64,2.38.88,3.58.15.79.39,1.81.5,2.5.16.98.72,5.19.69,7.09,0,.45-.04.77-.12.89-.2.3-1.22.61-1.17,1.26.04.35.3.27.27.39,0,.05-.07.14-.29.36-.2.2-.29.38-.31.51-.04.4.57.45.82-.22.39.17.55.56.6,1.03.14,1.13-.39,2.81-.46,3.52-.17,1.79-.09,4.49-.49,6.17-.06.23-.12.11-.18.31-.03.11-.06.32-.08.7,0,.07,0,.12-.01.19-.07,1.48-.69.88-.88,1.04,0,.08.25.44.21.74-.01.12-.07.22-.2.31l-1.39.11v-.02s0,0,0,0ZM146.69,161.63c-1.05.05-1.68-.19-2.09-.62-.68-.71-.72-1.95-.92-3.3-.98.98-1.58,1.24-2.77.3h0v-2.85h0c.1.04.17.1.22.17.23.26.18.63.43.75.1.05.25.05.5,0h0s.01.01.02.01l-.45.68,1.1-.03c.28-.76.29-1.26,1.19-.89l-.7-1.29.48-.46c-.25-.63-.4-1.23-.03-1.85l-.45-.21h0s-.01-.01-.01-.01l.48-1.95s.08,0,.11.01c.11.07.17.35.26.5.07.1.16.13.32-.05.19-.22-.39-.61-.36-.94.05-.53.56-1.04.95-1.37h0s0,.01,0,.01l.57.58,1.16,12.82h-.01ZM146.82,131.11c-.03-.82.25-1.67.56-2.4-.38-.1-.64-.29-.8-.52-.49-.71-.13-1.89.28-2.75l.08-4.46s.01,0,.02.01c.09.02.45.26.67.42.07.05.12.09.15.11h0c.35.39.5,1.19.53,2.01.03.82-.07,1.66-.23,2.14-.08.21-.47.16-.45.28.06.26.43.77.4,1.18-.01.25-.17.46-.63.56.36.49.45,1.19.43,1.92-.02.74-.15,1.51-.21,2.11,0,.04,0,.09,0,.14,0,.03,0,.07.01.1.04.32.13.66-.34.57-.31-.43-.44-.92-.46-1.41ZM147.01,146.45c.07-.12.19-.23.39-.3-.16.54.5,1.38-.23,1.62-.09-.43-.36-.95-.16-1.32ZM149.92,172.72l-.69-.46c1.53.17,1.83,1.75,2.08,3-1.07-.44-2.29-1.41-1.39-2.54ZM152,179.19l-.11,2.31c-.61-.17-.45-3.05.11-2.31ZM151.78,191.43c0-.52.23-.98.25-1.5.02-.49-.49-1.23-.04-1.29.06,0,.15,0,.25.02l.23,2.77h-.69ZM152.47,194.21c.43.05.59.13.61.24.05.17-.27.39-.27.55,0,.82.63,2.44-.11,2.9l-.23-3.69ZM153.24,200.86c-.13-.11-.12-.37-.25-.63-.04-.07-.52-.15-.29-.71l.92,1.38c-.21.05-.32.03-.38-.04ZM96.11,258.88h0s-10.85-9.93-10.85-9.93l3.7,2.88c1.85,2.04,4.06,3.72,6.06,5.6.02.02.04.04.06.06.18.18,1.02.91,1.06,1.27,0,.05,0,.09-.03.12ZM97.04,259.58l2.54,1.84c-1.15.03-1.9-1.05-2.54-1.84ZM153.39,306.93h0c-.09.31-1.18,1.15-1.38.93h0s0,0,0-.01l.15-.7,1.23-.23h0ZM156.16,299.31c-.64.17-1.53.56-1.85-.23h1.38c-6.13-2.4-11.81-5.61-17.4-9.05-8.78-5.4-17.57-11.36-25.89-17.52-3.94-2.92-7.96-5.66-11.44-9.12.08-.08.17-.1.27-.08.3.05.66.43.87.57.68.46,1.02,1,1.49,1.39h.01c2.46,2.03,5.54,4.21,8.25,6.18,13.64,9.88,29.28,18.3,44.03,27.32l.29.53s0,0-.01,0h0ZM70.95,392.85l.25-.9.67-.02h0s0,0,0,0c-.02.05-.05.1-.07.16-.17.39-.36.85-.85.76ZM71.64,394.24v-.69h.34l.35.46-.69.23ZM73.5,387.19l.67.22h0s.01.01.01.01l-.23.58c-.27-.01-.45-.08-.58-.18-.38-.29-.25-.91-.35-1.44l1.82.23h.02s.01,0,.01,0h.01s-.03,0-.03,0l-1.35.57ZM75.79,387.07l-.92.24.26-.66.66-.03v.45ZM89.07,397.24l-.34-.35.34-.57.35.35-.35.57ZM103.35,374.38h-1.23s0,0,0-.01h0c.06-.44,1.41-.85,1.62-.69l-.39.7ZM112.28,387.08h0s0,.01,0,.01c.15.8-1.24.52-1.61.45-.04-.18-.05-.28-.04-.34.03-.19.25.04.42,0,.39-.06.82-.11,1.23-.13,0,0,0,0,0,0h0ZM121.29,380.04c0-.12.29-.31.5-.36,0,0,.01,0,.02,0,.07-.02.13-.01.17.02.04.04.07.09.07.14.04.35-.76.77-.76.21ZM125.87,370.79c-1.91.02-3.85-.27-5.82-.09-.55.05-1.23.27-1.77.45l-.09-.67c-.29-.05-.53.04-.73.19-.34.25-.55.63-.68.67,0,0,0,0,0,0,0,0-.02.02-.03.02-.47.16-1.5-.4-2.12-.22l.22.45s-.03,0-.03.01h0c-.07.11-2.06.4-2.43.43-.28.03-.61-.22-.89-.19,0,0-.02.01-.03.02-.11.09-.34.31-.64.51-.23.16-.51.3-.82.36-.55.11-1.77-.02-2.37.15-.95.27-2.21,1.31-3.46,1.05-.04-.23.03-.37.16-.47.32-.3,1.15-.18,1.53-.31,1.63-.56,2.08-.62,3.65-.96.21-.05.45-.18.7-.34.26-.17.51-.36.73-.49.13-.08.25-.14.35-.17,1.42-.36,4.4-.75,5.97-.96,4.14-.55,8.19-.59,12.33-.02l.03-.02c-.05.21-.16.32-.3.38-.15.07-.34.09-.53.11-.81.09-2.07.09-2.93.1ZM146.38,376.23c-.11,0-.22-.04-.33-.08-.5-.2-.95-.75-1.55-.91-.24-.06-.5-.06-.8.06l.13-.04c-.05.01-.1.01-.15.03l.69-.23c.06-.05-.11-.29-.22-.35-.85-.39-3.56-.5-4.24-.79-.05-.02-.09-.04-.12-.06-.23-.17-.05-.68-.45-.88-.81-.37-1.69.02-2.21-.05-.09-.01-.2-.05-.34-.1-.8-.28-2.36-1.08-3.11-1.36-.12-.04-.22-.08-.29-.09-.62-.11-1.18.16-1.61.11-.08-.01-.18-.05-.27-.1-.07-.04-.14-.08-.21-.12-.22-.14-.47-.29-.73-.31-.38-.04-.79.27-1.1.14-.05-.02-.09-.04-.13-.08l.5-.77c4.15.43,8.25,1.7,12.21,3.04.2.07.41-.08.61-.01h.02s.02.02.02.02c.05.03.1.31.24.37,1.62.59,3.29,1,4.77,1.87h0s.01,0,.02.01c.17.4-1.2.7-1.37.69ZM162.51,390.08c-.9-.75.17-1.09.58-.23l-.58.23ZM165.86,382.22v.02c-2.31-.59-5.3-.42-7.44-1.39-.29-.14-.94-.98-1.74-1.1-.45-.07-.81.25-1.27.14-.31-.08-1.32-.78-1.82-.98-.7-.28-5.97-2.02-5.97-2.34,0,0,0,0,0,0,0,0,0,0,0-.01.02-.03.06-.04.09-.07.07-.07.15-.13.24-.19.1-.06.2-.1.31-.14.02,0,.03-.01.05-.02.08-.02.15-.06.23-.08,1.16-.22,5.83,2.1,7.35,2.61.33.11.72.03,1.02.13,2.75.92,5.46,1.99,8.33,2.53l.63.87v.02ZM167.86,382.6c-.46.17-1.64.08-1.77.08.39-.9,1.07-.74,1.85-.46.19.19.11.31-.08.38ZM192.89,356.81c.05-.42,0-1.32.69-1.15.14.48-.31.94-.69,1.15ZM199.01,359.59l-.81-.92h0s0,0,0,0c.26.16.64.15.85.3h0s.02.02.04.05c.08.1.21.32.22.46,0,.11-.07.17-.3.11ZM201.35,358.01c-.49.06-1.89-2.01-2-2.35,1.09.23,1.92,1.23,2.08,2.31-.02.02-.05.04-.08.04ZM189.07,427.49l.81-.22c.25.19-.73,1.17-.92.92l.11-.7ZM177.89,432.57h.92v2.11l-.92-2.11ZM181.95,441.86l-.52-1.2.61-.46c.11.61.04,1.14-.08,1.66ZM181.24,440.24l-.19-.44.29-.07-.1.51ZM180.97,439.62l-.3-.69c.24.11.54,0,.3.69ZM180.58,438.04c.05.12-.05.32-.08.5l-.9-2.05h.24c.07.6.57,1.07.74,1.55ZM178.94,405.17c.05.15.06.33.1.49.13.44.79,3.22.68,3.36h0s-.7-.39-.7-.39l-.45-3.77c.23.04.32.16.37.31ZM171.4,366.75c-.48-.15-.4-1.2-.46-1.61.55.15.45,1.16.46,1.61ZM158.47,223.54v.92h-.23l-.23-.92h.46ZM157.36,237.01l-.03-.31c.04.12.05.23.04.31,0,0,0,0,0,0l.19,1.76s0,0,0,0h0c-.41.06-.6-.12-.57-.39,0-.09.04-.19.1-.29h-1.39s0,0,0-.01h0c.28-.59,1.55-.46,1.65-1.07ZM157.55,228.38c-.19-.01-.39,0-.59.05-.04,0-.09.02-.13.03-.19.05-.37.12-.54.23-.37.23-.63.59-.6,1.08-.22.06-.38-.04-.51-.16-.14-.12-.26-.27-.41-.3-.02.18,0,1.76-.46,1.15v-1.15h0c.15,0,.33-.03.46,0,.02-.16.04-.3.07-.43.05-.26.11-.46.17-.63.06-.17.12-.3.18-.43.03-.06.05-.12.08-.18.05-.12.08-.24.1-.39.08-.55-.15-1.24.12-1.86h.68l-.46.69.42-.18.38.41.58-.93h0c-.22,1.16-.33,2.02.45,2.99,0,0,0,0,0,.01h0,0ZM158.15,225.83l-.6-.67,1.15.23-.55.44ZM171.4,214.52s0,0,0,0c0,0,0,0,0,0-.17.08-.98-.13-1.15-.34h0s0,0,0-.01l.34-.34c.12.31.76.41.81.46h0s-.01.15,0,.22ZM195.31,151.94c-.24.66-.66,1.58-.96,2.27-3.11,7.23-6.34,14.52-9.63,21.67h0c-1.6,3.48-3.35,7.33-5.24,10.77-.96,1.74-2.06,4.51-3.38,6.59-.12.19-.3.29-.53.28l.45.33s0,0,0,0h0c-.86.86-1.31,2.05-1.93,3.04-2.04,3.26-4.44,6.15-6.25,9.35-.04.07-.06.15-.08.22-.03.12-.05.24-.06.37,0,.02,0,.05,0,.07l-1.04-.46c-.52.86-.41,2.1-1.73,2.3,0,0,0,0,0-.01,0,0,0,0,0,0,.95-1.48,1.88-3.44,2.9-4.83,1.2-1.64,1.73-1.61,2.52-3.48,2.98-7.06,7.91-13.87,11.45-20.66,2.9-5.57,5.19-11.38,7.88-17.07.44-.93.89-1.86,1.35-2.78.64-1.29,1.28-2.58,1.91-3.87.78-1.59,1.55-3.19,2.25-4.82.27-.03.28.17.23.38-.03.12-.08.25-.11.33ZM198.19,145.01l-2.31,6.01h0c-.26.03-.4.02-.45-.07-.06-.08-.04-.24.03-.48l2.73-5.47-.02.04.02-.03ZM198.66,143.85l1.38-3.69c-.25,1.19-.39,2.9-1.38,3.69ZM202.93,131.6c-.07.28-.14.55-.22.83-.16.55-.32,1.1-.47,1.66s-.27,1.11-.34,1.68l-.46-.11,1.84-6.59c.01.87-.14,1.71-.35,2.54Z"/>
  <path class="cls-1" d="M185.95,451.16s.04.02.06.03l-.04-.1-.02.07Z"/>
  <path class="cls-1" d="M186.43,453.37c.22-.12.35-.16.46-.16l-.54-1.23c-.02.44-.11.97.08,1.4Z"/>
  <polygon class="cls-1" points="184.34 448.06 184.59 447.93 184.34 447.35 184.34 448.06"/>
  <path class="cls-1" d="M112.31,23.38v.77c.07.26.44.13.46.16v-.93h-.46Z"/>
  <path class="cls-1" d="M184.87,448.57l-.05-.12s.03.09.05.12Z"/>
</svg>