<?xml version="1.0" encoding="UTF-8"?>
<svg id="Ebene_1" data-name="Ebene 1" xmlns="http://www.w3.org/2000/svg" viewBox="0 0 332.08 462.98">
  <defs>
    <style>
      .cls-1 {
        stroke-linecap: round;
      }

      .cls-1, .cls-2 {
        fill: none;
        stroke: #1d1d1b;
        stroke-miterlimit: 10;
      }
    </style>
  </defs>
  <path class="cls-1" d="M216.63,436.64c.09-.67.18-1.06.93-.93-.57-.96-.02-1.91,0-2.87.02-.7-.75-1.6.22-1.86-1.02-.71-.13-1.42-.09-1.96.04-.6-.27-1.08-.05-1.87.14-.5.61-.4.6-.56-.02-.3-.9-2.65-.86-3,.03-.26.52-.43.55-.69.05-.37-1.25-3.12-1.03-3.7.46-1.2.22-4.39-.16-5.9-.08-.3-.47-.56-.51-.8-.08-.57.79-.5.61-.92l-.46-.35-.46.46.24-1.72-.48-.28.22-1.21-.79-.5-.34.46c-.36-.74.39-1.99-.69-2.08l.46-.46h-.69s.14-.94.14-.94c-.88-.04-.98-.57-1.28-.77-.16-.11-.45.11-.46.09-.14-.23.05-1.67-.06-1.93-.18-.41-1.33-.94-1.36-1.73l-.43.2c.49-1.85-1.55-2.09-.93-3.7-.85.39-1.45-.2-2.31-.23l.06-.65.4-.27-2.71.08-.53-1.01c-.79,1.12-1.29.88-1.96-.23l-.23.46c-.53-1.1-1.55-.78-2.08.23l-.79-.82-.94.36-.93-1.61c-1.34-.05-.36,1.74-.46,1.85-.65-.11-2.25.1-.92-.58-.52-.58-.8-1.02-1.59-.54l-.03.89h-1.15s.45-1.04.45-1.04c-.66-.73-1.81-.04-2.66-.55-.65.45.31.88-.69,1.12l.1.56-.56.37c-.69-.56.65-1.51.35-1.85-.35-.39-.72.73-.81.69l-.36-1.14h-1.35c-.4.69.19,1,.44,1.6-.34.35-1.03-1.06-1.29-1.11s-.7.25-1.02.19l.82-1.62-1.54-1.82-.53.21c-.34-.97-1.11-.12-1.82-.23-.25-.04-.82-.84-.4-1.16l-.58.69c-.74-.61-2.69-1.29-1.05-1.96-.23-.49-.73-.06-.93-.21-.23-.18-.23-1.02-.91-1.17l.44-.79c-.33-.06-1.49-1.02-1.14-1.41.98.3,2.04-.15,2.4.94s-.17,1.32-1.02.68l-.23.69c2.38.69,2.67-.04,1.74-2.01-.02-.03-.22-.04-.33-.25-.15-.3.18-.83-.6-.97-.33-.36.81-.7,1.29-.37l.21,1.06c.8-.14.61-1.04,1.73-.69l-.12.46,1.39.11-.7.35c.31,1,1.16.72,1.67.94.23.1.29.74,1.1.45l-.46,1.85c1.83-.73.48-3.31-1.16-2.54.75-1.15-1.8-2.21-2.73-2.47-.5-.14-2.23-.27-2.32-.33-.13-.08-.11-.62-.32-.84-.71-.75-3.58-1.31-4.62-1.69-.18-.07-.19-.39-.46-.51-1.12-.51-6.08-.52-7.46-.4-.86.07-1.58.39-2.42.47-.1,1,.69.17,1.04.12,1.13-.16,2.36.18,3.34.46.3.09.71-.17.93-.02l.23.59h-2.08c.23,1.21,1.05.84,1.85.47-.67.64-.13.73-.12,1.03.02.86-.44,1.04-1.26.93l-.11-1.27-.53.35c.46.67-.16.54-.21.63-.05.11.15.31.1.36-.45.54-1.03.48-1.58.15l-.68.59-.46-.69-.12.7c-1.25-.59-1.74.98.06.75.47-.06.5.16.29.39s-1.07.11-1.39,0l-.12.69-1.27-.47.46-1.61c-.46-.08-2.22-.48-1.74.46.12.22.47.28.35.69-.7-.51-.9.07-.64.58.09.18.38.08.41.11.21.33-1.01,1.25-1.4,1.46-.62.34-1.97.45-2.06.51-.41.27-.49,1.05-1.15,1.04,1.15,1.27-.75,1.24-.23,2.53l-2.53-.48-.13-.67c-1.35.58-1.78,3.03-3.02,3.22-.88.14.58-1.02.24-1.15h-1.5c-.12.36,1.02.87.69,1.16-.22.2-1.25-.67-1.73-.67-.7,0-1.17.69-2.07-.02l-.36.46,1.15.46c-.81.28-2.95-1.11-2.14.23l.98.35-.57.58-.21-.44c-1.01.2-.99.24-1.41,1.13l-.8-1.61c.45.49-.87,2.04-1.05,2.09-.58.15-.83-1.13-1.27.22l-.44-.02-.13-.44-.57.35c.63.65.66,1.34.69,2.2l-.58-.7-.81.7-.11-.69c-.46.07-1.29,1.55-1.27,2.08l-.82-.23.13-.69c-.28-.22-1.8.92-1.95,1.15-.17.27.4.48-.25.46-1.04-.02-2.19-.39-1.97-1.62l-1.39.24c.33.85-.23,1.05-.92,1.26l1.15.81.35-1.15c.53.23.08,1.16-.1,1.28-.51.36-.88-.31-1.06-.31-.15,0-.54.55-.87.7-.38.16-1.01-.2-1.28.52.88,1.11-.3.55-.15,1.74l-.59.12-.34-.8-1.27.46v1.38c-.51-.07-.39-.84-.23-1.15l-.92.23-.35-1.15-.55.54.43,1.07-.92.23c.55-.94-.08-.57-.35-.93-.1-.14,0-1.38-.73-1.59l-1,.21.92,1.15c-1.01.06-2.52.16-1.38-1.15-.65-.37-1.41.68-1.5.69-1.02.07.36-.98.36-1.05.03-.51-.6-.87-.25-1.48l-2.08.46,1.15,1.61c-1.25-.5-2.19-.17-2.66-1.62l-2.85,1.6-.72-2.05.69-.13c1.06,1.98,1.44,0,1.87-.31.08-.06.92.46,1.13.09-.35-.84-1.73-.31-1.81-.38-.09-.07-.09-.4-.26-.53-.11-.08-.41.1-.44.06-.11-.15.16-.85-.64-.83-.39,0-.76.51-1.24.41l.24.56-.47.25c.84.74.46,1.22,0,1.96l-.58-1.15-1.38.69-.34-.45.46-.12v-.34s-.46,0-.46,0c-.22-.71.43-.22.45-.69l-.43-.11c.5-.68-.17-.53-.21-.7-.14-.52.35-1.76-.28-2.33l.46-.22c-.51-.97-1.66-.15-1.95-1.01l-.59.2c1.07-1,.27-.85.21-1.73-.14-1.95,1.18-1.01,1.99-1.49.55-.33,1.2-1.19,1.04-1.87l.92.92-.27-1.11c-.63-.26-3.05-.81-3.42-1.08-1.02-.75,1.66-3.7,2.03-4.45.28-.56.06-1.13.09-1.18.05-.07.66-.31.98-.74,1.09-1.48,1.28-2.58,1.98-3.96.17-.34,1.19-1,1.44-1.62.27-.68.17-1.32.18-2.02.99,0,2.33-.34,3.13-.92.99-.72.83-.52,1.93-1.07,1-.5,1.33-1.47,1.98-1.95,1-.74,2.67-.58,2.2-2.54.09-.09,1.6.07,1.98.02.43-.06.3-.46.47-.47.25-.02.5.24.95.08.52-.19.38-.86.56-.97.17-.11.76-.02,1.12-.15.63-.23,2.65-1.19,2.88-1.74s-.09-1.27.48-1.6c.63.04,1.29.63,1.86.68.68.07.84-.34,1.17-.4,1.05-.18,3.03.84,3.08-1.45.95.46,2.18,1.32,3.13.47.23-.2.29-.62.37-.68.08-.06,1.28.38,2.06.11.56-.19.59-.69.73-.77.28-.16.9-.01,1.35-.16,1.11-.36,2.6-2.09,2.3-3.36.91.25,1.33,1.16,2.25,1.56,1.09.47,3.19.93,3.53-.63.68.43,1.33.6,2.14.41.57-.13.78-.62,1.1-.75.45-.17.93-.13,1.33-.28,1.36-.51,1.85-1.75,2.12-3.08.1-.1.32-.03.48.14,1.04,1.14,1.12,2.48,2.93,3.49,1.46.82,1.94.2,2.91.35.37.06.64.63,1.41.64.98.01,1.5-.63,2.2-1.16.34,1.9,3.17,3.07,4.86,2.18.42.95,1.67,2.18,2.7,2.4.75.16,1.2-.22,1.54-.2.11,0,.28.53.66.75.81.48,1.89.54,2.7.04l1.63-1.48c-.52,1.76.22,5.14,1.61,6.36.45.4,1.03.27,1.28.57s.45,1.27.94,1.83c1.56,1.8,3.67,2.27,5.87,1.4-1.06,2.91,1.87,1.73,3.54,2.08.16.03.26.75,1.21.71.62-.03.72-.48,1.26-.48-.43,1.48,1.92,3.06,3.23,2.3.07,1.56,3.08,1.94,4.39,2.08l-.9-.72.66-2.4-.67-.37c.15-.85.84-1.43.44-2.28l.69.11c.08-.45-.98-1.04-1.39-.81-.05-.43.6-.15.83-.44.42-.54-.36-1.17-.39-1.76,0-.13.79-.88.48-1.47l-.93-.4c.41-.87-.14-1.77-.1-2.42.04-.69.62-1.13.58-1.81-1.96.07-.22-1.97-.46-2.31l-.46.23c-.44-1.02.39-1.83-.69-2.2.72-.39.72-1.55.66-2.31-.05-.61-.72-.7.26-1.62.05-.18-.38-.05-.43-.22-.03-.08.12-1.68.55-1.5.77.6.1,2.52,1.04,2.54.1.39-.35.15-.42.25-.46.65.72.89.86,1.29.1.31-.12.72-.07,1.03.18,1.09.39,2.2.79,3.2.6-.3-.14-1.45-.22-1.98-.9-6.16-1.8-12.3-2.82-18.43s-2.3-12.55-3.2-18.86c-.48-.17-1.55,1.12-1.85.34l1.63-.72c.12-.43-.55-4.52-.84-4.93-.17-.24-.27-.3-.56-.24.37.92-.54,1.6-.46,2.54.44-.23.75-.09.69.46-.09.08-2.03-.54-2.08.23h.93s0,.69,0,.69h-1.39c.37-.57-.22-.91-.24-1.26,0-.07.74-.12.48-.93-.02-.07-1.06-.64-1.16-.35l.23-.92h-.7c.79-1.18-.97-1.22-1.26-2.07-.1-.29.16-.66.11-1-.04-.27-1.16-.78-1.39-.98l.46-.57c-1.16-.15-.39-1.48-1.38-1.76-.76-.22-1.1.44-1.85.37l.23-.69-1.28.49c-.99-1-.8-.4-1.63-.28-.93.14-1.95.55-2.06-.67l-1.5.24.92.23-.69.69c.05-.52-.5-.55-.78-.91-.08-.1.07-.5-.13-.6-.18-.09-.49.11-.76.05-1.19-.26-2.4-1.09-3.64-.62.33-.58-.29-1.25-.81-1.38-.67-.16-.05.74-.57.69.17-1.56-1.25-1.54-2.41-1.13l-.25-.49-.46.46-.57-1.05c-1.09.44-1.29-.51-1.77-.54-.79-.05-.02.84-.66.67-.47-.13-.46-.25-.6-.66l-.78.2.46.23c.38.3-.35.29-.48.25-.57-.2-1.49-.82-2.31-.93s-1.39.25-1.82.22c-.08,0-.41-.88-1.4-.47l.35.35-.92.35.23-.69c-.54.03-1.26-.26-1.16.46h-.22c.05-.6-1.06-.48-1.51-1.15-.98.1.95.53.12.81-.72.24-1.24-.89-.69-1.5l-1.39.24.23.91h-.92s.46-.69.46-.69c-.84-.05-1.83-.41-1.39-1.39-.41-.12-.53.32-.85.38-.57.11-1.95-.22-2.15-.85.37-.04.83.03.92-.46h-.92c.01.14-.04.35,0,.46-.65.08-1.29-.01-1.5-.7l-.8.47.46-.92-2.54-.7.24-.69c-.89.02-1.9-1.62-2.32-2.42-.15-.28-.15-.92-.26-1.01-.17-.14-.89.07-1.11-.39-.28-.59.79-.11.69-.57l-.57-.47-.46.46c-.33-.75-1.5-1.35-1.87-1.9-.26-.38-.06-1.47-.1-1.54-.05-.08-.66-.14-.92-.37-.17-.15-.05-.47-.15-.58-.61-.66-1.5-1.25-2.05-1.83-.37-.38-.24-.86-.85-1.23-1.01-.6-2.34-.59-3.4-.17l.23.45c-.77-.13-1.28.73-1.97.72-.51,0-.77-.44-1.14-.46-.31-.02-.64.22-1.12.17-.57-.06-.65-.82-1.43-.66l.57.69c-1.05-.29-1.59-.68-2.66,0-.56-.34-.17-.65-.11-1.14-1.13.49-.64-.33-.91-.58-.55-.5-1.23.25-1.17-.57-.57.55-1.16.28-1.87.12l.02-.58c-.78.12-.82.9-1.85.46l.81-.23c.36-.22-.19-.32-.34-.35-.88-.14-1.75.18-2.63.08-.34-.02-.4-1-.28-1.13.27-.32.87-.02.83-.45-1.3-.19-2.22-.01-3.46.23v-.69s.92-.23.92-.23h-1.61s0-.93,0-.93c-1.54.84-.89.16-1.44-.08-.35-.15-2.62-.51-2.71-.62.7-1.17-.7-1.41-1.4-2l.25-1-.7.11-.41-.49.19-.77.46-.23-2.07-.93c-.08-.45.57-.12.69-.23.09-.09-.07-1.05-.21-1.23-.17-.22-.62-.13-.82-.38-.23-.28-.17-.87-.4-1.11-.21-.21-.81-.22-.86-.3-.02-.03.21-.34.1-.66-.26-.78-1.08-.52-.57-1.4-.44.09-.61.37-.92-.12l.46-.81c-2.02.5-1.02-.47-1.36-1-.21-.33-.94-.3-1.17-.74l.43-.46-.91-.81.69-.46c-.82-.55-1.6-.39-1.84-1.52l.46-.22c-.51-.41-.47-1.33-.75-1.79-.31-.51-.78-.48-1.04-1.04-.31-.65.08-1.94-.08-2.12-.05-.05-.4.04-.58-.09-.64-.46-.71-1.45-1.24-1.2l-.23-.23c.69-1.05-.47-.73-.46-1.38l.46-.35-.92-.24.46-.69h-.92c.24-.36.3-1.56.09-1.86-.33-.49-.76-.33-.97-.49-.04-.03-.29-.94-.29-1s.6-.22.46-.8c-.41-.26-1.36.19-1.6-.37-.2-.47.43-.32.45-.35-.98-1.07-.55-1.34-.23-2.53-1.36-.09-.7-.63-.99-1.33-.19-.48-1.68-1.16-1.76-1.24-.04-.04.38-.37-.2-.55l.17-.34h-.7s.14-1.17.14-1.17c-1.41-.15-.44-1.54-1.52-2.42.85-.21.12-1.14-.23-1.62l.69-.8c-1.59-.15-1.82-2.67-.93-3.82-.36-.19-.57,0-.46-.56l.46-.11-.26-.79c-1.35.11-.26-.67-.25-1.33,0-.32-.36-.51-.37-.84-.02-.74.67-.55.81-.67.39-.34.38-2.48.31-3.07-.11-.88-.71-1.59-.88-2.36-.28-1.26-.22-2.9-.75-4.22.12-.17,3.75.18,4.26.25.9.12,2.05.67,3.03.68.71.01,1.22-.46,1.57-.43s.78.52,1.18.66c1.49.51,2.21,0,3.57-.46.22.78.83,1.53,1.63,1.73.72.18,1.2-.15,1.63-.03,1.52.4,3.08,1.84,5.43,2.2.61.09,2.01-.15,2.37.06.27.16.77,1.7,1.03,1.97.09.09,1.88,1.28,2.01,1.34.91.45,1.7.48,2.54-.12-.36.72,2.04,1.82,2.44,1.85.68.05,1.18-.47,1.6-.92.16,0,1.32,2.14,1.97,2.43.59.26,1.06-.21,1.38-.02.41.25.57,1.07,1.69,1.57.71.31,1.3.51,2.07.92.64.35.63.81,1.62.6.52-.11.77-.68,1.32-.65.12.09.48,2.43.91,2.91.28.3.74.24.88.39.44.44.5,2.43,2.15,1.88.53,1.62,1.22,3.6,3.22,2.22.16,1.92,1.03,3.62,1.61,5.44l1.7-.11c.32.1.58.84.96,1.14.59.46,1.12.31,1.45.52.22.14.35.9.92,1.06l1.68-.43c-.08,1.34.13,2.6,1.56,2.94.25.06.63-.17.76-.07.2.14.27.87.65,1.19.44.38,1.01.24,1.14.37.12.11-.12.5.32.72.81.4.97-.16,1.56-.54-.14,1.55,1.68,7.53,3.55,7.35.38-.04.63-.53,1.07-.42-.72,1.79,1.73,4.86,3.69,3.93-.21,1.72.64,1.45,1.67,1.87.2.08.19.41.34.44,1.33.29,1.47-.64,2.14-1.38.28,1.34.31,2.55.92,3.81.24.49,1.36,2.06,1.72,2.44.19.2,1.6,1.45,1.73,1.5.57.19,1.1.14,1.63-.13.16.68.41,1.5.82,2.07.19.27,2.07,2.17,2.3,2.32.61.41,1.24.36,1.45.51.12.08.25.7.51.99.89,1,1.82,2.17,3.23,1.5.15,2.82,3.46,5.11,5.7,6.43.68.4,1.75.58,2.09.8.62.39,3.6,4.32,4.57,5.25l2.19,1.62-5.31-46.19-1.62.46c.32-.66.87-1.03,1.62-.92l-.7-5.08-.92.23c-.06.39.54.19.65.59.04.15-.16.46-.11.64.25,1,.86,1.45-.28,2.34l.43.58h-.68c-.42-1.04.26-1.73.22-2.76h-.69s.23-.7.23-.7l-.93-.24.93-1.04c-.92-1.06-2.51-2.24-2.08-3.81l-1.01-.03-.16-.65c-1.43.13-.02-.69-.32-1.52-.15-.41-.73-.59-.55-1.1.01-.07.43-.79.48-.82.36-.22,1.04.28.87-.51-.47-.14-.83.65-1.28.25-.09-.08-.51-1.83-.51-1.93.02-.72.56-1.55.17-2.47l.69.23-.17-.69h-.52s0-.69,0-.69c1.47.56.64-.64.69-1.26.03-.33.4-.59.45-.94.1-.69-.14-1.7,0-2.25.06-.22.96-.46.94-1.2,0-.07-.94-.34-.47-1.04h-.69s.7-1.27.7-1.27l-.7.34c.22-1.32.92-4.69.66-5.9-.1-.47-.33-.61-.65-.91l.91-.46c-.18-.44-.67-.08-.69-.12-.39-.77.46-.99.46-1.06.03-.49-.31-2.62-1.16-2.18v-.23c1.05.04-.33-1.37.68-2.07l-.46-.35c.41-.36.54-2,.41-2.38-.42-1.24-.44-.16-.49-2.01-.02-.56-.6-1.33-.35-2.06l-.71-.13.69-.92h-1.15s.92-.71.92-.71l-.69-.68.44-.78-.25-.59-1.59.1,2.98-2.08-.33-.58-.34.77-.7.15c.15-.93.42-.8-.46-1.27l.47-.26-.12-1.26-.82-.22c-.2-.69.51-.25.47-.79-.06-.76-.66-.82-.7-.99-.1-.44.05-.99,0-1.46l-.92.46c.35-1.12.29-4.04-1.38-3.46-.23-.64.39-.39.44-.47.33-.46-.32-.4-.44-.63-.22-.39.03-.95-.01-.97-.12-.06-.48.06-.63-.05-.2-.15-.16-.67-.3-.94-.09-.17-.4-.17-.44-.34-.1-.46.09-.96-.04-1.42l-.89-.27.46-.69c-.89.05-.56-.76-1.62-.24l.24-.46h-.7s.23-.92.23-.92h-.69s.23.46.23.46h-.69s.23-1.15.23-1.15c-.73-.04-.64.42-.46.92-1.09.52-1.31-1.01-.46-1.61l-1.5.92.12-.92h-.7s.22-.45.22-.45l-1.14-.24.46.46-.92.23.2-.43-.66-.38.69-.23c-.24-.46-.62-.07-.86-.17-.14-.06-1.86-1.88-2.14-2.14l.35-.35-1.04-.46.46.69c-.41.32-2.51-1.75-2.66-2.31l-.12.69-.46-.35.04-.55.42-.25-1.38.23v-.67c-1.21.29-1.33-.61-2.31-.49l.23-.69-1.59.19c.03-.69-.81-1.24-1.36-1.62l.19-.42c-.34-.03-.67.28-.99.2-.07-.02-1.22-.68-1.27-.73-.51-.55-.47-.7-1.39-1.06-.34-.14-.83-.13-1.2-.26l.23-.46-1.06.2-.14-.36-.41.16-.02-.67c-.77.13-1.35-.34-1.73-.94l-1.48.45c.45-1.14-.25-.69-.74-.94-.42-.22-.09-.65-1.33-.21-.03-1.73-.8-1.12-1.7-1.43-.07-.02-.95-.96-1.13-1.03-.15-.06-.44.13-.63.04-.77-.37-1.47-.93-2.31-1.05l.46-.46c-1.14.45-2.22-.56-2.93-.65-3.61-.48-7.61-1.03-11.29-1.63s-7.53-1.02-11.28-2.08l-2.67.2.23-.69c-.43-.17-.82.37-1.04.38s-.48-.32-.72-.34c-.32-.03-1.29.82-2.16.19l.23.46-1.26-.2-.39.64-2.18-.41c-.19.82-.63.21-1.1.28-.74.12-1.45.5-2.23.38l.23-.46c-.62.06-1.01.25-1.67.18-.31-.03-2.33-1.31-2.57-1.56-.18-.19.13-.42-.28-.69-.07-.04-1.17-.58-1.3-.64-.43-.21-2.63-.4-3.42-1.11-.69-.61.05-.29-1.28-1.01-.49-.26-.75-.83-.85-.89-.27-.15-.69.01-1.1-.19-.16-.08-.76-1.04-.83-1.04l-.91.47-.35-1.15-.92.46-.03-.66-3.07-.55-.14-.64c-.71-.23-.21.58-.81.46-.31-.06.14-.49.11-.69l-.46.69c-.36-.02-.68-.23-1.05-.24-1.2-.03-2.59-.19-3.69-.69-.39,1.24-1.37-.63-1.61-.64-.86.72-1.1-.03-1.84-.28-1.32-.45-1.34-.53-2.36-1.16-.35-.21-.94-.18-1.25-.56-.24-.29.11-.74.03-.81-.06-.05-.35.04-.48-.04-1.21-.75-1.8-2.16-3.23-2.62-.36-.12-.7.11-1.07-.05-.51-.23-.59-.86-1-1.1-.66-.39-3.39-1.08-4.21-1.29-.14-.03-1.57-1.54-2.47-1.15l.46-.34c-.28-.44-.86-.64-1.15-.99-.54-.65-1.19-2.03-1.68-2.52-.18-.19-.78-.12-.97-.52-.2-.42.7-2.21-.35-2.46l.24-.56c-2.38.94-4.44-1.58-6.69-.23-.17-.83-.81-1.43-.46-2.31-.31,0-.64.01-.93-.11-2.3-.96-4.7-3.62-6.94-4.84-.45-.24-1.12-.14-1.5-.59-.15-1.21-.08-1.3.76-2.09.14-.14.54-.1.69-.28.11-.13.51-1.39.48-1.62-.13-.93-.99-1.19-1.09-1.37-.05-.08.26-1.05.15-1.63-.19-1.07-1.37-2.83-1.73-3.83-.54-1.47.81-3.36-1.2-4.24.46-.89-.47-.66-.78-1.66-.15-.47.09-.97.04-1.04-.1-.14-.97-.25-.91-.84l3.93-.7c.95-.43,1.91-.72,1.85-1.96,1.6.74,3.93-.72,3.69-2.54,1.5.92,1.56-.9,2.12-1.33.06-.05.84.19,1.22-.53s.4-2.19.12-2.99c.98.26,2.16.82,3.18.86.87.03,1.65-.52,2.03-.54.3-.01,2.62.57,3.45.5,1.46-.11,2.38-.5,3.24-1.75.41.37,1.08,1.03,1.58,1.21.44.16.73-.04,1.08.05.96.24,1.66,1.26,2.31-.57.45.02.22.69.61.94.26.16,2.52.43,2.84.32s1.31-1.09,1.39-1.03c.21.87,1.77,2.53,2.64,2.32.59-1.26.48-.11.81.34.55.75,2.73.64,3.48.11.37,1.55,1.5,2.6,3,1.61.18,1.77.94,1.05,1.7,1.14.18.02.31,1.09,1.86.93.54-.06,1.96-.71,2.34-.68.52.04.06.9.11,1.23.06.4.55,1.76.81,2s.67.17.78.26c.06.05-.23.94.24,1.49.42.5,1.24.24,1.81.48.34.14.34.63.66.73,1.4.45,2.6-.61,3.4-.43.18.04.07.47.49.49.26,0,2.79-.21,2.97-.25.29-.07.25-.68.62-.7.48,1.77,2.82.36,3.7-.46.25,1.36,1.91,2.16,3,1.15.08.88,1.09,1.03,1.73,1.39.61-1.34.52-.01,1.56-.27l2.02-1.35c-.05.83.4,1.8,1.03,2.32.24.19.65.16.77.25.03.03-.13.33.03.54.55.74,5.63,2.81,6.88,3.3,2.67,1.05,6.33,1.84,8.82,2.96,1.32.59,3.21,2.48,4.59,2.81.74.18,1.21-.14,1.9-.17,0,.54-.11,1.03.21,1.52.05.08,1.31,1.33,1.4,1.37.38.18,1.07.05,1.15.13.12.12-.24.95.77,1.42,1.07.5,2.14.43,3.17-.05-.16.72-.34,1.46-.25,2.21,0,.08.43,1.28.46,1.37.73,1.69,1.01,1.21,1.8,2.04,2.11,2.21,2.81,3.47,3.09,6.53.03.38-.24.88-.2.99.03.07,1.05.92,1.23.96,1.43.27,2.96.3,4.43.88,3.26,1.3,6.97,5.11,10.4,6,.45.12,1.11-.06,1.4.1.08.04.66,1.01,1.09,1.34,1.19.92,3.07,1.4,4.5.93-1.65,1.83,1.69,3.56,3.23,3.69-.26-.47-.72-.16-1.14-.84-.05-.08-.49-1.71-.49-1.8,0-.07.82-.23.47-1.05l-.46.23c-.47-1.01.29-.71.58-1.16.22-.33-.24-2.84-.58-3.35.32-.5,1.11-.08.92-.8l-.92-.35.69-.34c-.18.01-.27.05-.39-.12-.11-.15-.59-.82-.61-.87-.12-.3-.04-.57.08-.85-1,.19-.91-1.08-1.21-1.57-.09-.16-.66-.29-.89-.63-.21-.31.13-.7-.3-1.06-.62-.52-1.72-.47-2.38-.84-.49-.28-1.12-1.25-1.81-1.45-.51-.15-.12.69-.79.45v-.81s-1.39-.11-1.39-.11l.24-.46c-.83.06-1.19-.68-1.74-1.16l-.12.58-.46.11c.26-1.56-.59-1.33-1.14-2.22l.45-.79c-.56-.2-.81-.27-1.27.17l-.92-.87c-.24-.57,1.07-.25.81-.81-.11-.24-.7-.44-.94-.69-.56-.59-.73-1.16-1.59-1.39l.22-.81c-.09-.11-.65.7-.92.46-.51-.45.59-.39.46-.69h-.92s.35-.47.35-.47c-.42-.44-1.96-.76-2.13-1.22-.25-.68.5-1.26-1.01-1.66l-.9-2.2-.57.69c-.45-.2-.67-1.67-1.16-2.07-.37-.31-1.08-.21-1.26-.59-.29-.58.8-.12.69-.57l-1.51-.69.13-.58-.69.11,1.15-.92-1.85-.47c.8-.95.36-2.02-.92-2.08l.92-.46-1.14-.48.22-.67c-1.21-.04-.74-.58-1.04-1.15-.24-.47-1.28-.44-.8-1.39h-.93c-.07-.39.57-.23.64-.56.16-.83-.66-1.13-.82-1.44-.35-.7-.16-1.92-1.2-1.7l.42-.25.05-.32c-.15-.79-1.29-1.91-1.4-2.55-.08-.46.08-.29.3-.4,1.01-.52,3.09-.66,4.16-.41.21.05.29.63.78.89.16.08,1.91.71,2.05.73.71.12,1.88-.44,1.26-.81-.43-.25-4.69-1.4-5.27-1.45-1-.08-1.68.37-2.53.59-.23.06-.81.23-.75-.18.81-.75,1.77-.46,2.6-.71.17-.05.17-.34.25-.37.28-.11,1.21-.28,1.31-.67.2-.78-.44-.35-.46-.79,1.53-.48,2.88-.99,4.51-1.15,1.3-.13,2.89.2,4.15-.24.61-.21,2.2-2.36,1.97-.22h1.38s-.46-1.16-.46-1.16l.91.24c-.31.54-.08.79.36,1.14l-.35-.92c.29-.21,1.32.68.92,1.15,2.2-.5,4.79.75,6.93,1.39.05-1.2-1.63-1.64-.46-2.77l-.92-.24.69-.57c-.6-.68-.42-1.49-1.61-1.27-.08-.47.41-.6.46-1.05.11-.94-.89-1.11-1.08-1.98l-1.46.02c-.45-.81.19-1.3.21-1.73.07-1.09-.89-2.05-1.31-2.73-.26-.44.27-1.07-.99-1.09l.24-.69c-1.08.14-.99-.98-1.23-1.73-.48-1.47-.82-3.2-1.22-4.9-.33-1.41-1.07-2.94-1.5-4.34-.11-.36.04-.98,0-1.01-.1-.08-.47-.03-.64-.16-.56-.42-.76-.95-1.64-.8-.49-.99.94-1.67.92-2.18-.01-.33-.43-.56-.45-.91-.02-.38.37-.87.19-1.37l-.9-.38c-.21-.71.31-.6.44-.87.67-1.35-.48-1.19-.65-1.46-.03-.05.3-.56.18-.97-.08-.28-.54-.56-.71-1.18-.22-.79-.02-2.18-.12-3.07s-.21-1.54-.3-2.47c-.1-1.08-.82-1.88-.91-2.92,2.21-.18,2.39-3.83,4.85-3.81l.24-.46c-.82-.11-.57-2.63-.93-2.89l-.69.23c.32-.42-.26-1.78-.52-2-2.01-1.74-1.33-2-2.03-4.29-.06-.2-.43-.16-.45-.32-.24-1.56.37-1.55-.36-3.65-.13-.36.13-.83.1-1.16-.03-.37-.42-.6-.39-.87.03-.24.62-.92.65-1.21,0-.05-.76-.18-.46-.79l.89-.27c.13-.59.13-.83-.43-1.01l.92-.58c-.89.07-.77-.51-.92-.7-.02-.03-.39.1-.46-.16v-.77s.46,0,.46,0v.93s.92.23.92.23l-.46-.58c.31-.47,1.15-.68,1.36-1.18.12-.29.05-.75-.32-.55-.48.26-.07,1.1-.81.92-.04-.83-.82-1.28-.46-2.08l1.38.46c.09-.07-.61-1.89-.63-2.23-.04-.65.65-2.03.65-2.97,0-.64-.18-2.06-.27-2.75-.08-.62-.54-1.2-.45-1.85.08-.6.76-.77.88-1.21.15-.51-.05-1.06.05-1.53.04-.18.45-.14.59-.6.25-.81.06-2.43.13-2.54.05-.08.51-.06.63-.4s-.09-.91.09-1.3c1.79-3.87.63-3.54.86-3.87.13-.62.93,0,.93,0,1.4,2.59,3.02,1.73,3.27,1.86.23.12,1.56,1.23,1.79,1.29.46.11.75-.07,1.17-.15.04,1.29.66.72,1.1.97.17.1.17.68.68.84.62.19,1.38-.22,1.43-.17.05.04.11.48.35.68.93.77,2.11.15,2.2.22.08.06.36,1.22,1.04,1.64.36.22.73-.09.8-.02.06.06,0,.47.15.66.39.53,1.01.89,1.03,1.64,2.65-2.14,3.36,2.08,5.77,1.16-.53,1.81,1.3,1.23,1.62,1.49.48.4-.06,1.27,1.48,1.05.51-.07.78-.48,1.28-.45.2.98.12,3.67,1.62,2.77-.23,1.55,1.15,2.44,2.54,1.85l-.23,2.08h.93c-.39,2.12,1.08,1.74,2.54,1.15l-.23,2.77.92-.23-.36,1.16c.52.74,1.04.36,1.75.23-.51.76-.67,1.47-.01,2.2l.94-.12c-.56.86.34.99.45,1.98l1.4-.13c-.88,1.51-.37,2.97-.26,4.53.43,5.96.93,12.15,2.16,18.17.57,2.76,2.83,8.51,2.93,10.72.04.94-.37,2.36-.36,3.39,0,2.81.81,6.03.84,8.59.02,2.31-.88,4.59-1.17,6.68-.61,4.45-.4,9.56-.91,14.1-1.31,11.58-6.33,23.58-9.13,34.99-.26,1.08-1.2,4.44-1.22,5.25-.01.54.76.64.65,1.23l-.92-.46-.24,1.48.7.6-.69-.11c-.27.44-.5,6.07-.23,6.34l.51-.29.41-2.25c.1.9-.33,2.02.46,2.66l-.48.44.47,5.31,1.17.37-1.15.23c.2.67.41,1.51.46,2.2.08,1.02-.44,3.74.93,3.58l-.69.23c.11.8.65,5,.23,5.31l-.41-.4-.41-6.63-.57-1.18.48-.22c-.81-1.63-.39-3.54-.98-5.26-.18-.51-.57-.37-.61-.05-.12.89.25,3.11.66,3.94l-.46.21c.38.87.72,2.1.44,2.99l.48.14c.1.39-.44.09-.48.37,0,.06.06,1.07.07,1.13.03.14.37.1.39.26.14,1-.52,3.87-.17,4.43.04.06,1.07.49,1.23.49.41,0,.71-.43,1.12-.4.36.03.88.55,1.44.63.78.11,1.32-.21,1.84-.19.58.02,1.01.74,1.72.2-.52,1.05.33,1.03.83,1.84l1.25-.45c-.52.84-1.18,2.07-.92,3.08.05.18.46.15.46.29.02.42-.64,1.63-.02,2.08.2.15,4.33-.16,4.86-.6.48.47-2.31,2.19-2.54,2.43-.71.73-1.87,3.04-1.18,3.95.21.27.75.18.71.55-.62.05-1.4-.23-1.84.35.88,1.17,2.04,1.78,2.3,3.35-.89-.71-2.06-1.01-3.21-.9-.57.83.38,1.35.43,1.52.41,1.43-3.1,2.51-4.15,2.76.21.93-.18,2.11-.14,2.94.08,1.4.82,3.72,1.01,5.18.82,6.45,1.11,13.06,1.91,19.57.12,1,.17,2.11,1.09,2.67.34.2.61.24.99.13,1.3-.39.43-1.88.45-2.78.02-.8.28-1.58.25-2.56-.04-1.15-.63-2.88-.4-3.97.15-.69.71-1.1.75-1.55.04-.5-.38-1.22-.36-1.61,0-.13.36-.13.44-.32.16-.35.65-1.65.48-1.9l-.46.23v-.68c.79.03,1.19-.44.81-1.17l-.81.69.23-2.08.46,1.15c.35.07.28-.36.23-.57-.27-1.09-1.19-.41-1.15-1.27.64.24,1.48.26,1.63-.57.34-1.86.17-3.23-.47-4.97,2.7.75,1.42-.44,1.64-1.24.08-.28.6-.3.75-.66.42-.96.64-2.9.15-3.87,2.43-.06,1.18-2.55,2.74-3.37l-.2-.79.46.24-.23-1.38.71-.13c.07-1.59-.03-2.97-.48-4.49l1.85.23c-.24-.91.38-.88.7-1.48.22-.43.38-1.3.51-1.46.2-.25,1.14-.29,1.3-.91-.77-1.88-.12-1.16.47-2.06.07-.11,1.03-2.26,1.07-2.39.15-.55.04-1.94.14-2.06.16-.18,1.23,0,1.13-1.07-.02-.19-.84.03-.25-.47l.93-.11c.12-.91-.44-1.07-.92-1.61l.92-.12c.16-.45-.47-.29-.47-.46,0-.33.43-.58.49-1.15.07-.66-.36-2.74-.19-3.2.19-.5.92-1.71,1.06-2.17s0-.82-.19-1.22l.69.23c.12-.92-.13-1.7-.69-2.43l1.58-.61.03-1.82c1,.2.82-.2,1.27-.7.13-.14.47-.17.53-.27.2-.33-.03-1.14.05-1.57l1.15.23c-.35-1.44.71-1.64,1.39-2.66-1.22-.47.11-.49.23-1.15.19-1.02-.47-1.88-.44-2.05.05-.29.65-.55.79-.85.11-.23-.1-.48-.05-.63.02-.05.4.02.42-.38.01-.34-.25-1.88-.36-2.23-.15-.47-.55-.4-.59-.6-.15-.69.77-2.49.66-2.94-.1-.4-1.06-.43-.89-1.06,1.51-.06,1.52-1.39,1.86-2.37.08-.22.41-.1.46-.51.09-.67-.11-1.33-.25-1.98,1.34.04,1.89-1.99,1.83-3.09-.04-.77-.5-1.31-.68-2,.76.04,1.54.05,2.08-.58.1-.48-.4-.33-.66-.71-1.42-2.04.82-1.86,1.3-3.73.3-1.15-.07-2.34.05-3.14.03-.18.38-.18.47-.32.43-.72-.18-1.48-.46-2.14,2.84.22,2.34-2.04,3.13-3.69.41-.88,1.67-.99.8-2.78,2.17.21,2.08-1.17,2.67-2.53.13-.3.54-.5.69-.93.18-.51.35-2.75.61-2.97,1-.19,2.42-.36,3.18-1.09.43-.41.42-.81.72-1.13.59-.63,1.46-.77,2.05-1.18.48-.34,1.13-1.4,1.21-1.44.25-.14,1.31-.03,1.97-.23,1.05-.32,1.45-1.12,2.16-1.54.88-.52,2.34-.6,3.1-1.51.16,0,.98,2.1,1.97,2.42.46.15.89-.23,1.43-.08,1.05.29,1.34,2.09,2.92,1.6,0,.5,1.07,2.15,1.41,2.4.65.51,2.01.66,2.77.34v3.58c0,.26.94,1.35,1.39,1.27-1.2,1.16-.38,2.67-.11,4.03.04.2-.17.54-.08.87.16.61.98.98,1.58.87-.48,1.23-1.38,3.05-.27,4.08-.44.76-.49,2.47-.39,3.36.08.72.86,1.52.87,1.91.02.57-1.04,1.84-.91,2.99.06.55.6.96.61,1.18s-.4.65-.4,1.16c0,.13.46,2.22.53,2.49.11.4.6.89.6.98,0,.4-2,1.52-.64,2.77l-.49.25c.8,1.21-.43,1.87.24,3l.94.1c-.06.69-.72.93-.71,1.74s.78,1.16.83,1.61c.04.3-.18.76-.14,1.16.12,1.36.32,2.13,1.64,2.77-1.42.98-3.26,3.25-3.65,4.92-.08.34.15.74.06.99-.1.27-.89.78-1.14,1.16-.05.07-.69,1.51-.71,1.59-.24.84,1.21,1.7,1.06,1.85-1.11-.03-2.35.79-2.68,1.84-.15.46.07.79.03,1.05-.1.56-.47.86-.35,1.6.13.82,1.14.71.93,1.16-1.11.8-3.1,2.44-1.85,3.81-1.03-.16-1.59,1.34-1.35,2.15.2.66,1.07.39.89,1.08-.56.07-2.2.99-2.39,1.44-.31.74.12,1.67.06,1.76-.05.07-.48.14-.68.36-.56.65-.7,1.51,0,2.09-1.69.9-1.54,1.87-1.15,3.58-1.93-.27-3.59.55-4.84,1.96l.69.57c-.31.1-1.16.33-1.33.51-.04.05.15.34-.05.52-.31.27-1.52.94-1.62,1.17l.02.33.41.04.02.44-1.04.93-.57-.46c-.07.58-.35,1.65.46,1.62-.08.4-.69.35-1.02.94s-.56,2.08-.15,2.66c.31.43,1.05.34,1.17.79-1.33-.07-3.7,1.62-4.4,2.65-.24.35-.14.76-.28.99-.35.55-1.94,1.07-.86,2.37-.5.08-1.01.23-1.4.57-.34.29-1.94,2.64-1.99,3.05-.03.24.23.71.16.77-1.64-.13-2.57,1.6-4.16,1.62l1.38.46c-1.11-.22-.5.47-.74.87-.05.08-1.37,1-1.5,1.26-.09.18.18.58.09.81-.22.55-1.78.41-1.08,2.14-.58.05-.44.03-.35-.46l-.57-.23c.3.79-.37.9-.45,1.1-.13.35,0,.76-.27,1.3-.66,1.31-2.66,1.21-2.05,2.91-.75-.07-1.33.33-1.85.82l.92.58-1.62-.69.17.41c-.74.07-.14.47-.23.7-.02.06-.65.45-.62,1.1l-.93-.14v.68c-1.14-.17-1.34.21-2.08.83l.18.58h.36c.7.12-.94,1.18-1.11,1.33l-1.04-.4c-.1.38.33.12.42.33.04.1-.06.81.05,1.05h-2.31s0,.92,0,.92l.92.23c-.91-.14-1.46.83-2.45.92h-.41s-.18-.42-.18-.42l-.66.3c.77.19.09.72.69,1.26-.71.04-.98,1.58-1.27,0l-.81.81.46.34c-1.07.2-1.75-.04-2.77-.23l.69.46c-.19.54-.3.81-.93.69l.24.46c-.94,0-1.57-.25-2,.71l-1.47-.48,1.15,2.77c-.38.41-.92-.97-.93-1.15l-.22.46-1.16-.23.92,1.38c-.89-.06-1.35-1.36-2.25-.63l-.52,1.45.48.24-.25.79-.69-.46c-.58,1.67,2.39,1.94,2.54,3.7-.9-.86-1.66-1.95-2.97-2.27-.58.79-.93,1.81-.97,2.84l1.4.59h-1.84s-.21,1.36-.21,1.36l.9.72-1.16.12c-.16,1.11,1.48.77,1.85,1.5l-2.09-.36-.45,3.37-.41-.11c.44-.79-.81-.26-.77.31l-.43-.2c-.06.51.42.77.45,1.28.04.6-.44,1.47-.22,2.18.44.05.13-.47.23-.76.07-.2.45-.15.47-.31.05-.44-.38-1.27,0-1.93,1.48-.2.84,2.44.92,3.58.03.42.34,2.81.46,2.89l1.61-.46-1.58.72c-.31,1.61.28,3.15.43,4.71,1.47,15.86,3.07,32.23,5.35,48.01.19,1.32.64,5.28,1.75,5.93.36.21,1.12.16,1.2.24s0,.61.14.89c.37.76,1.69.76,2.42.7-.5,1.03,0,2.94,1.39,2.77-1.26,1.48.88,2.59,2.08,3.23l-5.21,1.16-1.25-.24c1,9.88,2.77,19.67,4.37,29.47.78,4.79,1.55,9.82,2.4,14.69,1.53,8.8,3.33,17.56,4.81,26.37.24.76,1.99.34,2.5-.08.01,1.08-.29,2.17.86,2.75l1.68-.67c.12.98-.97,1.25-1.32,2.02-.63,1.38-.68,3.71-1.6,5.21l7.31,40.58c.43.03.12-.55.35-.92.03-.05.8-.85.85-.88.34-.2.91.23,1.51.03.23-.08,1.78-1.82,1.86-2.09.11-.37-.04-1.08.08-1.2.07-.07.45.05.59-.07.12-.1,1.05-2.19,1.26-2.56,1.29-2.3,2.55-4.88,3.09-7.53.27-1.34.14-3.01.38-4.24.14-.67.95-1.65,1.22-2.47.84-2.56.54-5.07,1.57-7.45.87-2.02,1.05-4.3.39-6.41,1.16.05,2.25-.91,2.31-2.08-.78.04-.74.92-1.62.46l.23-1.15c-.12-.11-.86.26-.69-.34l.64-1.11-.42-1.09-.69.69.23-1.15c-1.14.46-1.08-.84-2.31-.47l.46-.69c-.55.1-.34-.46-.63-.69-.5-.4-1.32-.32-1.91-.23l.69.46c-.56,1.81-1.08-.34-1.49-.71-.65-.58-1.75-.35-1.29-2.14.07-.27.67-.31.69-.51.06-.62-1.78-1.21-2.27-1.54l.19-.41-.57-.25-.45.46-.58-.58c2.07-.08.09-1.37.45-2.29l-.69-.14.46-.69h-.92s.69-1.62.69-1.62c-.77-.13-1.43.95-2.08.11l1.05-.33.1-1.17-.92.46c.66-1.19-.76-1.97-1.62-2.54.71-.39.48-1.28.52-1.35.07-.1.61.12.4-.5l-1.61.92.13-.93-.83-.22c.26-.79.77-1.63-.46-1.85l-.46.69-.46-1.04c.32-.28,1.28.33,1.38-.34-.68.12-.35-.47-.48-.74-.13-.28-.67-.3-.46-1.1l-1.03-.23c-.16-.31-.1-1.73-.15-1.81-.12-.17-.83-.29-.8-.86.01-.24.54-.73.56-1.2.02-.58-.96-1.52.51-1.93l-.69-.57.69-.81c-1.09.12-.43-.19-.63-.62-.1-.2-.6-.71-.52-.76h.7c-.83-.85.16-1.41.2-2.21,0-.09-.34-.07-.42-.28-.35-.91.46-1.46-.25-2.26l.46-.34-.69-.23c.9.14.02-.56.26-.89.08-.1.46-.06.62-.42.35-.81.03-2.65.26-2.94,1.25-.12.44-.96.89-1.93.35-.77.8-.17,1.22-.61.39-.4.49-.99.46-1.53,1.12.37,1.55.32,1.12-.9-.26-.23-1.14.38-.89-.6.29-.55.84.04,1.16-.21.28-.22.13-.74.28-1,.06-.1,1.51-1.3,1.8-1.55.24-.21.68-.24.85-.41.49-.49.06-1.24.09-1.3.11-.2,1.06-.48,1.35-.26v-.58s.46.12.46.12l.03-1.13c.52-.33,1.07,0,1.6-.12,1.4-.3,6.08-4.89,7.64-6.01.4-.29.81-.69,1.35-.59.19.79.67,1.55,1.17,2.18.46.58,1.74,1.43,1.94,1.75.52.8.69,3.11,1.76,3.79.2.13.63.09.67.13.08.08-.25,1.67-.24,2.19.03,1.17.34,3,.77,4.08.28.7,1.19,1.67,1.27,1.96.6,1.99-.99,5.01,2.01,6.3l.34-1.84c-.07,1.09,1.23,1.32,1.39,2.31l.46-.11.11-1.04c.59.52.29,1.39.35,2.08-.6.13-.35-.15-.59-.48l-.79.25-.58-1.16c-.59.98.6,1.17.82,1.54.32.53.29,1.66,1.03,2.15.19-.6.43-.49,1.04-.46-.89,2.51.25,5.15.38,7.78.04.8-.32,1.84-.15,2.74.12.63.72.53.88.96.31.82.27,2.52.62,3.53.27.79,1,1.15,1.05,1.5.16,1-.33,4.98-.5,6.22-.21,1.49-.63,3.83-.96,5.28-1.3,5.61-5.44,11.68-5.72,17.4-.03.59.3,1.27.25,1.57-.01.09-1.04.81-1.27,1.33-.66,1.53-.81,3.77-.13,5.29-2.65-.5-4.26,4.22-3.69,6.24-2.51.17-4.96,4.14-4.16,6.47-1.53-.27-2.98,1.64-3.8,2.79s-1.74,2.46-1.29,3.91l-1.23-.21c-1.21,1.48-1.44,3.91-1.42,5.76-.35.48-.94-.53-.61-.67l-.66-.26c-.07.07-.36,1.61-.49,1.9-.73,1.66-1.59,3.35-1.9,5.3-.1.62-.26,3.32-.04,3.66.11.17.56.16.59.37.06.38-.56,1.27.13,1.71l-.04.68-.32.37.2,1.02-.46-.23c0,3.47.86,6.81,1.61,10.17h-5.77l-.46-1.61M227.26,460.2l-.46-1.61v-.93c-.91-.04-.34-1.03-1.38-.46-.36-.82.31-2.03-.48-2.21l.22-.76-.65-.39c.64-1.14-1.09-.91-.72-2.18l-.46.23v-.93c-.92.5-1.07-.64-1.83-1.14-.35-.23-.99-1.3-1.38-1.51l.06-.61.27-.19c.24-1.23.8-2.16.57-3.47l-.92.69.23-1.16-.46.11c.48-1.14-.12-.68-.35-1.03-.16-.24.12-.59.05-.78-.17-.48-.67-.95-.74-1.55h-1.03s0-3.92,0-3.92h-.92"/>
  <path class="cls-2" d="M153.12,30.57v-1.15h-.23c-.15.43-.15.73,0,1.15h.23Z"/>
  <polygon class="cls-2" points="192.15 59.67 191.69 59.67 191.69 60.83 191.92 60.83 192.15 59.67"/>
  <path class="cls-2" d="M187.53,92.47c-.73-.67-.24,1.56-.23,1.74.05.81.14,1.2.2,1.84.08.82-.47,1.78.66,2.29l-.17.83-.46-.12c.12,1.95.48,4.09.56,6s-.74,4.63.59,6.12l-.9.38-1.64,12.56,1.39-.11c.49-.31-.07-1-.01-1.05.19-.16.81.44.88-1.04.07-1.39.18-.81.27-1.2.4-1.68.32-4.38.49-6.17.09-1,1.16-3.97-.14-4.53-.34.91-1.32.51-.51-.31.63-.63.08-.21.02-.73-.07-.66.97-.97,1.17-1.27.43-.66-.37-6.75-.57-7.96-.11-.69-.35-1.71-.5-2.5-.31-1.6-.88-3.18-1.1-4.79Z"/>
  <path class="cls-2" d="M162.12,97.32c.28-.29-1.27-1.45-1.61-1.38.05.37,1.5,1.5,1.61,1.38Z"/>
  <path class="cls-2" d="M166.98,97.32l-.11-.46c-.33.3-.94.2-1.04.69l1.15-.23Z"/>
  <path class="cls-2" d="M163.97,99.4v-.34s-.69-.58-.69-.58c-.06.43-.02.68.35.92h.34Z"/>
  <path class="cls-2" d="M171.6,110.03c-1.12-2.73-3.58-4.97-4.85-7.68l-2.54-2.71,1.38,2.6c.7.62,1.86,1.89,2.25,2.54.26.42-.18,1.23.98,1.1-.53,1.09.18.89.38,1.23.28.48.36.92.77,1.43.39.48.99.22.69,1.5.29.04.66-.06.93,0l-.46.46,1.38.93c0-.66-.26-1.25-.92-1.38Z"/>
  <path class="cls-2" d="M152.19,100.1c-.48-.03-.87-.09-1.15.35.28.43.67.37,1.15.35v-.69Z"/>
  <rect class="cls-2" x="172.98" y="104.95" width="1.38" height=".23"/>
  <path class="cls-2" d="M82.68,113.49c-.27-.5-1.07-.86-1.62-.92.27.5,1.07.86,1.62.92Z"/>
  <path class="cls-2" d="M65.63,113.92c-.07-.12.42-.61-.16-.89l-.54.28-.27,1.33c.48.2,2.22.38,1.35-.55-.08-.08-.34-.09-.39-.17Z"/>
  <path class="cls-2" d="M91.2,116.97l-.67-.02v.34c.29.29.49.67.92.58l-.25-.9Z"/>
  <path class="cls-2" d="M98.13,118.6c-1.76-.07.35.75.02,1.13l-1.85-.12c.61.59,1.52.61,2.31.58l-.48-1.59Z"/>
  <path class="cls-2" d="M92.61,121.12l-.81-.46c-.97.67.36,1.21.81.46Z"/>
  <path class="cls-2" d="M82.37,122.13c-.58-.19-1.18-.37-1.77-.55-.23.78,1.18.42,1.38.71l-.15.56.29.34h1.71s-.69.47-.69.47l1.96.47-.12-.46,1.62.23v.69s-1.16-.46-1.16-.46c.55,1.24,2.12.26,2.54.36.8.18.53.75.68.93.32.37.81-.09.71.56l.46-.11-.23-.57h.92s-.23.92-.23.92c1.15-.13,1.52,1.3,3,.92l-.23-.46h1c.41,1.16,1.38,1.5,2.59,1.51.37,0,.78-.33.93-.32.18.02.23.49.52.65.34.19,2.13.82,2.36.47v-.69s-4.3-1.16-4.3-1.16l-.78.47.23-.92c-.72-.21-1.61-.36-2.31-.58-3.65-1.2-7.5-2.84-10.94-3.95Z"/>
  <path class="cls-2" d="M82.2,123.44c-.25.09-1.57-.87-1.59-.14s1.08.8,1.61.81l-.02-.67Z"/>
  <polygon class="cls-2" points="121.94 123.66 120.79 123.66 120.79 123.88 121.94 124.12 121.94 123.66"/>
  <path class="cls-2" d="M186.76,125.35c-.1-.11-.81-.58-.84-.54l-.08,4.46c-.53,1.15-1,2.87.53,3.27-.49,1.17-.93,2.66-.1,3.81.59.11.29-.45.33-.81.13-1.21.51-3.06-.22-4.03,1.23-.27.32-1.33.23-1.74-.03-.12.37-.07.45-.28.33-.96.39-3.38-.3-4.13Z"/>
  <path class="cls-2" d="M86.97,127c-.68-.48-1.19-1.44-1.52-.11,1.02-.37,1.84,1.14,3,1.15-.26-.98-1.08-.63-1.33-.74-.07-.03-.08-.25-.16-.3Z"/>
  <path class="cls-2" d="M103.19,129.24l-1.8-.5c-.45.52,1.08,3.18,2.08,3l-.27-2.5Z"/>
  <path class="cls-2" d="M105.08,130.35l-.35-1.16-1.03.47c.23.6.78.77,1.38.69Z"/>
  <path class="cls-2" d="M107.16,131.28c.16-.73-.51-1.13-1.15-1.15l.46.81-.46.34h1.15Z"/>
  <path class="cls-2" d="M111.55,132.43c-.93.18-.87-.75-1.55-1.11-.59-.31-1.6-.33-2.26-.74l.58.47c-.82.99-.23.52-.08.77.13.21,0,.56.22.63.48.14,1.91.23,2.52.27,1.2.53,2.87,1.3,4.23,1.73.72.22,3.45,1.04,3.92.84.35-.15.19-.7.63-.54.72.27-.23.72-.11,1.15l1.38.23v-.69s1.39.23,1.39.23v.81s1.85.11,1.85.11l-.23.46,1.86.11v1.04c2.14.76,4.06,2.1,6.14,2.98,1,.42,2.31,1.12,3.31.73l-.69.69c1.15.04,2.72,1.59,3.68,1.75.39.06.49-.49.93-.36l-.12.94,2.32,1.37.11-.52.46-.17c-.72.65,1.69,1.97,2.02,2.04.3.06.72-.23.75-.19.04.04-.11.44.15.71.65.68,2.46,1.08,3.02,1.43.15.1.22.54.52.74,2.84,1.85,5.63,3.74,8.32,5.8l1.61-.13-.23.46c.89-.45.6.12.86.22.34.13.75.11,1.05.25.25.11.01.65.63.46-.08-.41.28-.94.03-1.28-.36-.48-2.95-2.31-3.65-2.84-4.92-3.7-11.55-7.61-17.01-10.48-.77-.4-2.79-.95-3.39-1.46-.24-.2-.23-.53-.23-.81-.42.25-.66.19-1.1.09-1.64-.39-3.93-1.82-5.6-2.51-1.12-.47-2.69-.59-3.46-1.5.57-.31,2.24.76,2.08-.23-1.22-.26-2.13.07-3.23-.7-.18.64.59.58.69.7.13.15.04.62-.34.46-.21-.09-.49-.56-.88-.74-1.73-.81-3.45-1.1-5.3-1.82-.67-.26-.63-.15-1.12-.31-.84-.27-1.6-.82-2.53-.83l1.15.69c-.53,1.1-1.12-.43-1.62-.81-.38-.29-3.33-1.27-4.04-1.5-.12-.04-.38-.06-.34.11l.69.81Z"/>
  <path class="cls-2" d="M240.88,139.6c.29-2.27,1.41-4.39,1.38-6.7l-1.84,6.59.46.11Z"/>
  <path class="cls-2" d="M123.79,134.75l-2.77-.69c.27.71,1.32.83,1.99.89.26.03.83.21.78-.2Z"/>
  <path class="cls-2" d="M139.7,135.41l-.08-.67c-.28.3-.67.48-.58.92l.66-.26Z"/>
  <polygon class="cls-2" points="150.35 137.05 150.01 137.06 149.66 137.4 150.23 137.98 150.35 137.05"/>
  <path class="cls-2" d="M148.47,140.72c-.14-.67.14-2.1-.43-2.51.16,1.05-.72,1.71-.46,2.77l.89-.26Z"/>
  <path class="cls-2" d="M146.42,140.98c-.14-.52-.72-.49-1.15-.46-.29.13.83.58,1.15.46Z"/>
  <polygon class="cls-2" points="84.29 142.14 83.61 141.9 83.37 142.83 84.29 142.36 84.29 142.14"/>
  <path class="cls-2" d="M157.51,142.83c-1.58.24.28,1.08,0,1.38-.38.42-.55-.57-.83-.66-.33-.1-.74-.04-1.09-.04l-.62,1.86-.69-.23.94,1.74c.18.43-1.09.59-.7,1.03.33.38.57-.51.85-.64.18-.09,1.38-.34,1.46-.28-.15.48.01,1.99.47,2.2,2.16-.3,4.36,1.17,5.29-1.64-1.04-.35-1.27-1.88-1.66-2.36-.07-.08-1.56-.96-1.8-1.08-.67-.35-1.67.07-1.6-1.29Z"/>
  <path class="cls-2" d="M89.37,143.53h-.45c-.18.15.94,1.32,1.38,1.15.1-.81-1.01-.45-.93-1.15Z"/>
  <path class="cls-2" d="M237.65,147.68c.99-.79,1.13-2.51,1.38-3.69l-1.38,3.69Z"/>
  <path class="cls-2" d="M234.87,154.84l2.31-6.01-2.73,5.47c-.14.48-.1.62.42.53Z"/>
  <polygon class="cls-2" points="163.51 149.53 162.94 149.3 162.59 149.64 163.16 149.99 163.51 149.53"/>
  <path class="cls-2" d="M186.15,151.6c.73-.24.07-1.08.23-1.62-.79.31-.35,1.05-.23,1.62Z"/>
  <path class="cls-2" d="M185.68,165.46l-1.16-12.82-.57-.58c-.39.33-.9.84-.95,1.37-.03.33.55.72.36.94-.44.51-.39-.59-.69-.46l-.48,1.95.46.22c-.37.62-.22,1.22.03,1.85l-.48.46.7,1.29c-.9-.37-.91.13-1.19.89l-1.12.03.46-.69c-1,.24-.49-.61-1.15-.93v2.85c1.19.95,1.79.69,2.77-.31.32,2.17.22,4.05,3,3.93Z"/>
  <path class="cls-2" d="M223.71,179.71c3.29-7.15,6.52-14.44,9.63-21.67.3-.69.72-1.61.96-2.27.08-.22.3-.75-.12-.7-1.69,3.89-3.71,7.63-5.51,11.47-2.68,5.69-4.97,11.5-7.88,17.07-3.54,6.79-8.48,13.6-11.45,20.66-.79,1.86-1.32,1.84-2.52,3.48-1.02,1.4-1.95,3.35-2.9,4.83,1.32-.2,1.21-1.44,1.73-2.3l1.04.46c0-.23.02-.46.14-.66,1.81-3.2,4.21-6.09,6.25-9.35.62-.99,1.07-2.18,1.93-3.04l-.46-.34c.23.02.42-.09.54-.28,1.32-2.08,2.42-4.85,3.38-6.59,1.89-3.44,3.64-7.29,5.24-10.76Z"/>
  <path class="cls-2" d="M190.3,179.09c-.25-1.25-.55-2.83-2.08-3l.69.46c-.9,1.13.32,2.1,1.39,2.54Z"/>
  <path class="cls-2" d="M190.99,183.02c-.56-.74-.72,2.14-.11,2.31l.11-2.31Z"/>
  <path class="cls-2" d="M191.23,192.49c-.85-.18-.18.71-.21,1.27-.02.52-.25.98-.25,1.5h.69s-.23-2.77-.23-2.77Z"/>
  <path class="cls-2" d="M191.69,201.73c.74-.46.09-2.08.11-2.9,0-.26.81-.67-.34-.79l.23,3.69Z"/>
  <path class="cls-2" d="M192.61,204.73l-.92-1.38c-.23.56.25.64.29.71.21.41.07.81.63.67Z"/>
  <path class="cls-2" d="M210.39,218.13c-.05-.05-.69-.15-.81-.46l-.34.34c.17.22.98.42,1.15.34-.01-.07.03-.19,0-.23Z"/>
  <polygon class="cls-2" points="197.46 227.37 197 227.37 197.23 228.29 197.46 228.29 197.46 227.37"/>
  <polygon class="cls-2" points="197.69 229.22 196.54 228.99 197.14 229.66 197.69 229.22"/>
  <path class="cls-2" d="M193.77,233.14c.3.07.48.58.92.46-.06-.98,1.04-1.44,1.85-1.39-.8-.97-.68-1.83-.46-3l-.58.93-.38-.41-.42.18.46-.69h-.68c-.27.62-.04,1.31-.12,1.86-.08.59-.44.79-.59,2.06-.13-.03-.31.01-.46,0v1.15c.47.6.44-.98.46-1.15Z"/>
  <path class="cls-2" d="M196.54,242.61l-.23-2.08c.32.98-1.3.7-1.62,1.38h1.39c-.24.42-.09.76.46.69Z"/>
  <path class="cls-2" d="M135.1,262.71c.24-.26-.82-1.19-1.03-1.39-2.01-1.91-4.25-3.59-6.12-5.66l-3.7-2.88,10.85,9.93Z"/>
  <path class="cls-2" d="M138.57,265.25l-2.54-1.84c.64.79,1.39,1.87,2.54,1.84Z"/>
  <path class="cls-2" d="M142.58,269.1c-.47-.39-.81-.93-1.49-1.39-.27-.18-.81-.8-1.13-.49,3.48,3.46,7.5,6.21,11.44,9.12,8.32,6.16,17.11,12.11,25.89,17.52,5.59,3.44,11.27,6.65,17.4,9.05h-1.38c.31.78,1.2.39,1.85.22l-.29-.53c-14.75-9.02-30.39-17.44-44.03-27.32-2.71-1.97-5.79-4.15-8.25-6.19Z"/>
  <path class="cls-2" d="M192.38,310.76l-1.23.23-.15.7c.2.22,1.29-.62,1.38-.92Z"/>
  <path class="cls-2" d="M232.57,359.49c-.69-.17-.64.73-.69,1.15.37-.21.83-.68.69-1.15Z"/>
  <path class="cls-2" d="M240.42,361.8c-.16-1.08-.99-2.08-2.08-2.31.11.36,1.7,2.7,2.08,2.31Z"/>
  <path class="cls-2" d="M238.04,362.8c-.21-.15-.59-.14-.85-.3l.81.92c.62.17.1-.58.04-.62Z"/>
  <path class="cls-2" d="M210.39,370.58c-.01-.45.09-1.46-.46-1.61.06.41-.02,1.46.46,1.61Z"/>
  <path class="cls-2" d="M168.59,374.05c-4.14-.57-8.19-.53-12.33.02-1.57.21-4.55.6-5.97.96-.46.12-1.21.87-1.78.99-1.57.34-2.02.4-3.65.96-.51.18-1.8-.09-1.66.76,1.25.26,2.51-.78,3.46-1.05.59-.17,1.82-.04,2.37-.15.79-.16,1.4-.88,1.49-.89.28-.03.61.22.89.19.37-.03,2.36-.32,2.43-.42l-.23-.46c.63-.22,1.68.37,2.16.21.2-.07.64-1.02,1.44-.88l.09.67c.53-.17,1.21-.4,1.77-.45,1.97-.18,3.91.11,5.82.09.86,0,2.12,0,2.93-.1.35-.04.71-.05.8-.47Z"/>
  <path class="cls-2" d="M181.69,377.11c-.2-.07-.41.08-.61.01-3.96-1.34-8.05-2.61-12.21-3.04l-.5.77c.32.28.78-.11,1.21-.07.47.05.89.5,1.21.54.43.05.99-.22,1.61-.11.55.09,3.07,1.44,3.74,1.55.52.08,1.41-.32,2.22.06.4.19.22.71.45.88.46.34,3.47.43,4.35.85.11.05.29.3.23.35l-.69.23c1.2-.47,1.82.88,2.67.93.17.01,1.54-.29,1.37-.69-1.49-.87-3.17-1.28-4.78-1.87-.15-.06-.2-.35-.25-.38Z"/>
  <path class="cls-2" d="M142.73,377.51c-.21-.16-1.56.25-1.62.69h1.23s.39-.69.39-.69Z"/>
  <path class="cls-2" d="M204.85,386.05l-.63-.87c-2.87-.54-5.58-1.61-8.33-2.53-.3-.1-.7-.02-1.02-.13-1.52-.51-6.19-2.83-7.35-2.61-.33.06-.7.21-.91.49,0,.32,5.27,2.06,5.97,2.34.5.2,1.51.9,1.82.98.46.11.82-.21,1.27-.14.8.12,1.45.96,1.74,1.1,2.14.97,5.13.8,7.44,1.39Z"/>
  <path class="cls-2" d="M160.97,383.52c-.13-.13-.69.19-.69.35,0,.64,1.04,0,.69-.35Z"/>
  <path class="cls-2" d="M206.93,386.06c-.78-.28-1.46-.44-1.85.46.18,0,2.47.19,1.85-.46Z"/>
  <path class="cls-2" d="M113.86,390.45l-1.85-.23c.13.71-.14,1.57.92,1.61l.23-.58-.69-.23,1.38-.58Z"/>
  <polygon class="cls-2" points="114.78 390.45 114.12 390.48 113.86 391.14 114.78 390.9 114.78 390.45"/>
  <path class="cls-2" d="M151.27,390.91c-.41.02-.84.07-1.23.13-.23.04-.54-.37-.38.32.37.07,1.78.35,1.61-.46Z"/>
  <path class="cls-2" d="M202.08,393.68c-.41-.86-1.48-.52-.58.23l.58-.23Z"/>
  <path class="cls-2" d="M110.86,395.76l-.67.02-.25.9c.56.1.72-.52.92-.92Z"/>
  <polygon class="cls-2" points="111.32 397.84 110.97 397.38 110.63 397.38 110.63 398.07 111.32 397.84"/>
  <polygon class="cls-2" points="128.06 400.15 127.72 400.72 128.06 401.07 128.41 400.5 128.06 400.15"/>
  <path class="cls-2" d="M218.71,412.85c.11-.14-.55-2.92-.68-3.36-.09-.31-.02-.72-.47-.8l.45,3.77.7.39Z"/>
  <path class="cls-2" d="M228.87,431.1l-.81.22-.11.7c.19.25,1.17-.73.92-.92Z"/>
  <path class="cls-2" d="M185.91,393.22l-1.31-.76-.3-.85c.98-.02,1.8.58,1.61,1.61Z"/>
  <path class="cls-2" d="M178.06,386.29l.23,1.15c-.61-.02-.72-.66-1.38-.23-.04-.64.59-1.02,1.15-.92Z"/>
  <path class="cls-2" d="M171.13,380.75l-.11,1.85c-1.08-.34-.28-1.07-.58-1.84h.69Z"/>
  <path class="cls-2" d="M119.17,403.85c.03.42-1.04.25-1.23.19-.4-.12-.52-.75-.38-.89.34-.34,1.23.74,1.61.69Z"/>
  <polygon class="cls-2" points="108.31 398.53 108.21 399.23 107.39 399.45 107.39 398.3 108.31 398.53"/>
  <polygon class="cls-2" points="108.78 391.6 107.39 391.83 108.31 391.37 107.85 390.91 108.43 390.68 108.78 391.6"/>
  <path class="cls-2" d="M131.41,402.23c.07.89-1.09.5-1.62.69l1.62-.69Z"/>
  <path class="cls-2" d="M163.28,385.6c.13.88-.52-.12-.49.65-1.14.01-.45-1.11.49-.65Z"/>
  <polygon class="cls-2" points="108.78 396.92 108.54 397.61 108.2 397.6 107.62 397.03 108.78 396.92"/>
  <polygon class="cls-2" points="104.66 395.27 105.08 395.41 104.16 395.41 104.85 394.6 104.66 395.27"/>
  <path class="cls-2" d="M106.93,391.83c.51.76-1.39,1.42-.67.03l.67-.03Z"/>
  <path class="cls-2" d="M172.75,380.28h-1.15s0-.46,0-.46c.6-.24.89-.16,1.15.46Z"/>
  <polygon class="cls-2" points="193.31 253.93 192.38 253.7 192.62 252.78 193.31 253.93"/>
  <path class="cls-2" d="M194.23,265.48h-.23s-.23-1.38-.23-1.38c.59.18.47.88.46,1.38Z"/>
  <path class="cls-2" d="M112.47,402.69c.44.41-.92,1.03-.92.35,0-.24.76-.49.92-.35Z"/>
  <path class="cls-2" d="M165.59,386.52l-.47.92c-.58.11-.51-.12-.43-.67l.9-.25Z"/>
  <path class="cls-2" d="M172.98,382.83c-.35,1.5-1.19.19-.69-.12.23-.15.42.22.69.12Z"/>
  <polygon class="cls-2" points="122.63 286.04 122.63 286.73 121.71 286.5 121.71 286.04 122.63 286.04"/>
  <rect class="cls-2" x="252.43" y="348.87" width=".46" height=".92"/>
  <polygon class="cls-2" points="104.39 398.3 104.16 398.99 103.7 398.99 103.7 398.07 104.39 398.3"/>
  <polygon class="cls-2" points="155.2 397.38 155.2 397.84 153.81 397.6 153.81 397.38 155.2 397.38"/>
  <path class="cls-2" d="M188.69,144.91c-.2.52-1.39.1-1.85.23.2-.52,1.39-.1,1.85-.23Z"/>
  <polygon class="cls-2" points="181.76 391.37 181.18 392.29 180.83 391.95 181.3 391.37 181.76 391.37"/>
  <path class="cls-2" d="M182.68,391.6v.34c-.24.36-.5.4-.92.35l.58-.69h.34Z"/>
  <path class="cls-2" d="M193.07,256.24l-.46-.11c.39-.3.3-1.08.69-1.04l-.23,1.15Z"/>
  <path class="cls-2" d="M179.22,383.06c.24.24-.46.93-.69.69s.46-.93.69-.69Z"/>
  <path class="cls-2" d="M187.76,143.52c-.16.13-1.37-.59-1.15-.69.52-.09.97.21,1.15.69Z"/>
  <path class="cls-2" d="M117.78,284.19c-.12.46-.49.52-.92.46.12-.46.49-.52.92-.46Z"/>
  <rect class="cls-2" x="122.17" y="405.23" width=".69" height=".46"/>
  <rect class="cls-2" x="114.32" y="283.96" width=".46" height=".69"/>
  <path class="cls-2" d="M128.64,403.84c.35-.35.98.69.35.69-.15,0-.48-.55-.35-.69Z"/>
  <polygon class="cls-2" points="193.77 258.55 193.42 259.01 193.08 259.01 193.08 258.32 193.77 258.55"/>
  <path class="cls-2" d="M226.33,391.37c-.35-.35.69-.98.69-.35,0,.15-.55.48-.69.35Z"/>
  <polygon class="cls-2" points="160.97 389.29 160.63 389.29 160.28 388.83 160.97 388.6 160.97 389.29"/>
  <polygon class="cls-2" points="157.28 169.39 156.59 169.39 156.59 168.7 157.28 169.39"/>
  <path class="cls-2" d="M111.55,132.43l-.69-.81c-.04-.17.22-.15.34-.11.72.23,3.66,1.21,4.04,1.5.5.38,1.09,1.9,1.62.81l-1.15-.69c.93,0,1.68.56,2.53.83.49.15.45.05,1.12.31,1.85.72,3.57,1.01,5.3,1.82.39.18.67.65.88.74.38.16.47-.31.34-.46-.1-.12-.87-.06-.69-.7,1.1.77,2.01.43,3.23.7.16.99-1.51-.08-2.08.23.77.91,2.34,1.04,3.46,1.5,1.67.69,3.96,2.11,5.6,2.51.44.11.68.16,1.1-.09,0,.28,0,.61.23.81.6.51,2.63,1.06,3.39,1.46,5.45,2.87,12.09,6.78,17.01,10.48.69.52,3.29,2.36,3.65,2.84.26.34-.11.87-.03,1.28-.61.19-.37-.34-.63-.46-.3-.14-.71-.12-1.05-.25-.26-.1.03-.67-.86-.22l.23-.46-1.61.13c-2.69-2.05-5.49-3.95-8.32-5.8-.31-.2-.37-.64-.52-.74-.56-.36-2.38-.75-3.02-1.43-.26-.28-.11-.67-.15-.71-.03-.04-.45.25-.75.19-.33-.07-2.74-1.39-2.02-2.04l-.46.17-.11.52-2.32-1.37.12-.94c-.44-.13-.54.42-.93.36-.97-.16-2.53-1.71-3.68-1.75l.69-.69c-1.01.4-2.31-.3-3.31-.73-2.08-.88-4.01-2.22-6.15-2.98v-1.04s-1.85-.11-1.85-.11l.23-.46-1.85-.11v-.81s-1.38-.23-1.38-.23v.69s-1.39-.23-1.39-.23c-.12-.43.83-.88.11-1.15-.44-.16-.27.39-.63.54-.47.2-3.2-.62-3.92-.84-1.35-.42-3.03-1.19-4.23-1.73-.61-.04-2.04-.13-2.52-.27-.22-.07-.09-.42-.22-.63-.16-.25-.74.22.08-.77l-.58-.47c.66.41,1.67.43,2.26.74.68.36.62,1.29,1.55,1.11ZM129.56,138.67l-.92.11.57.35.35-.46Z"/>
  <path class="cls-2" d="M223.71,179.71c-1.6,3.48-3.35,7.32-5.24,10.76-.95,1.74-2.06,4.5-3.38,6.59-.12.2-.31.3-.54.28l.46.34c-.86.86-1.32,2.05-1.93,3.04-2.04,3.26-4.44,6.15-6.25,9.35-.11.2-.14.44-.14.66l-1.04-.46c-.52.87-.41,2.1-1.73,2.3.95-1.48,1.88-3.44,2.9-4.83,1.2-1.64,1.73-1.61,2.52-3.48,2.98-7.06,7.91-13.87,11.45-20.66,2.9-5.57,5.19-11.38,7.88-17.07,1.81-3.84,3.82-7.57,5.51-11.47.43-.05.2.48.12.7-.24.66-.67,1.58-.96,2.27-3.11,7.23-6.35,14.51-9.63,21.67Z"/>
  <path class="cls-2" d="M142.58,269.1c2.46,2.04,5.54,4.22,8.25,6.19,13.65,9.88,29.28,18.3,44.03,27.32l.29.53c-.64.17-1.53.56-1.85-.23h1.38c-6.13-2.4-11.81-5.61-17.4-9.05-8.78-5.4-17.57-11.36-25.89-17.52-3.94-2.92-7.96-5.66-11.44-9.12.32-.31.86.31,1.13.49.68.47,1.03,1.01,1.49,1.39Z"/>
  <path class="cls-2" d="M185.68,165.46c-2.78.12-2.68-1.76-3-3.93-.98.99-1.58,1.25-2.78.31v-2.85c.67.31.17,1.16,1.16.93l-.46.69,1.12-.03c.28-.76.29-1.26,1.19-.89l-.7-1.29.48-.46c-.25-.63-.4-1.23-.03-1.85l-.46-.22.48-1.95c.3-.13.25.97.69.46.19-.22-.39-.61-.36-.94.04-.53.56-1.04.95-1.37l.57.58,1.16,12.82Z"/>
  <path class="cls-2" d="M157.51,142.83c-.06,1.36.93.94,1.6,1.29.24.12,1.74,1,1.8,1.08.39.48.61,2.01,1.66,2.36-.93,2.81-3.12,1.34-5.29,1.64-.45-.21-.61-1.73-.47-2.2-.08-.07-1.28.19-1.46.28-.27.13-.51,1.03-.85.64-.39-.44.88-.6.7-1.03l-.94-1.74.69.23.62-1.86c.35,0,.76-.06,1.09.04.29.09.45,1.08.83.66.28-.31-1.58-1.14,0-1.38Z"/>
  <path class="cls-2" d="M187.53,92.47c.23,1.61.79,3.19,1.1,4.79.15.79.39,1.81.5,2.5.2,1.21,1,7.3.57,7.96-.2.3-1.24.61-1.17,1.27.05.52.6.1-.02.73-.81.81.17,1.21.51.31,1.3.56.24,3.53.14,4.53-.17,1.79-.09,4.49-.49,6.17-.09.38-.21-.19-.27,1.2-.07,1.48-.69.88-.88,1.04-.06.05.5.73.01,1.05l-1.39.11,1.64-12.56.9-.38c-1.33-1.48-.51-4.2-.59-6.12s-.44-4.06-.56-6l.46.12.17-.83c-1.13-.51-.58-1.47-.66-2.29-.06-.65-.15-1.03-.2-1.84-.01-.18-.5-2.41.23-1.74Z"/>
  <path class="cls-2" d="M204.85,386.05c-2.31-.58-5.31-.42-7.44-1.39-.29-.13-.94-.97-1.74-1.1-.44-.07-.8.25-1.27.14-.31-.07-1.32-.78-1.82-.98-.7-.27-5.97-2.01-5.97-2.34.22-.28.58-.42.91-.49,1.16-.22,5.83,2.1,7.35,2.61.33.11.72.03,1.02.13,2.75.92,5.46,1.99,8.33,2.53l.63.87Z"/>
  <path class="cls-2" d="M181.69,377.11c.06.02.1.32.25.38,1.62.59,3.3,1,4.78,1.87.17.4-1.2.7-1.37.69-.85-.05-1.47-1.39-2.67-.93l.69-.23c.06-.05-.12-.3-.23-.35-.88-.42-3.89-.51-4.35-.85-.23-.17-.05-.69-.45-.88-.81-.38-1.7.02-2.22-.06-.67-.1-3.18-1.45-3.74-1.55-.61-.11-1.18.16-1.61.11-.32-.04-.73-.49-1.21-.54-.43-.04-.9.35-1.21.07l.5-.77c4.15.43,8.25,1.7,12.21,3.04.2.07.41-.08.61-.01Z"/>
  <path class="cls-2" d="M168.59,374.05c-.09.42-.45.43-.8.47-.81.09-2.07.09-2.93.1-1.91.02-3.85-.27-5.82-.09-.55.05-1.23.27-1.77.45l-.09-.67c-.8-.14-1.24.81-1.44.88-.48.16-1.54-.43-2.16-.21l.23.46c-.07.1-2.06.39-2.43.42-.28.03-.61-.22-.89-.19-.09,0-.69.73-1.49.89-.55.11-1.77-.02-2.37.15-.95.27-2.21,1.31-3.46,1.05-.14-.85,1.15-.58,1.66-.76,1.63-.56,2.08-.62,3.65-.96.58-.12,1.32-.88,1.78-.99,1.42-.35,4.4-.75,5.97-.96,4.14-.55,8.19-.59,12.33-.02Z"/>
  <path class="cls-2" d="M82.37,122.13c3.44,1.11,7.29,2.75,10.94,3.95.69.23,1.58.38,2.31.58l-.23.92.78-.47,4.3,1.16v.69c-.23.36-2.02-.28-2.36-.47-.28-.16-.34-.63-.52-.65-.15-.02-.56.32-.93.32-1.21,0-2.17-.34-2.59-1.52h-1s.23.47.23.47c-1.49.38-1.85-1.06-3-.92l.23-.92h-.92s.23.57.23.57l-.46.11c.09-.64-.4-.18-.71-.56-.15-.18.13-.75-.68-.93-.42-.09-1.99.88-2.54-.36l1.15.46v-.69s-1.62-.23-1.62-.23l.12.46-1.96-.47.69-.46h-1.71s-.29-.35-.29-.35l.15-.56c-.2-.29-1.62.07-1.38-.71.59.18,1.18.36,1.77.55ZM92.84,126.43c-.14-.53-.72-.48-1.15-.46.14.53.72.48,1.15.46Z"/>
  <path class="cls-2" d="M186.76,125.35c.69.76.63,3.17.3,4.13-.07.21-.47.16-.45.28.09.42,1,1.48-.23,1.74.73.97.35,2.82.22,4.03-.04.36.25.92-.33.81-.83-1.15-.39-2.64.1-3.81-1.54-.4-1.07-2.12-.53-3.27l.08-4.46s.73.43.84.54ZM185.91,131.74l.23-1.15c-.53.15-.49.73-.46,1.15h.23Z"/>
  <path class="cls-2" d="M193.77,233.14c.15-1.27.51-1.47.59-2.06.08-.55-.15-1.24.12-1.86h.68s-.46.69-.46.69l.42-.18.38.41.58-.93c-.22,1.17-.33,2.03.46,3-.81-.05-1.91.41-1.85,1.39-.44.12-.62-.39-.92-.46-.02.18.01,1.76-.46,1.15v-1.15c.15.01.33-.03.46,0Z"/>
  <path class="cls-2" d="M135.1,262.71l-10.85-9.93,3.7,2.88c1.87,2.06,4.11,3.75,6.12,5.66.21.2,1.27,1.14,1.03,1.39Z"/>
  <path class="cls-2" d="M171.6,110.03c-.27-.06-.63.04-.93,0,.3-1.27-.3-1.01-.69-1.5-.41-.51-.49-.96-.77-1.43-.21-.34-.91-.14-.38-1.23-1.17.13-.73-.68-.98-1.1-.4-.66-1.55-1.92-2.25-2.54l-1.38-2.6,2.54,2.71c1.27,2.71,3.73,4.95,4.85,7.68.67.14.92.73.92,1.38l-1.38-.93.46-.46Z"/>
  <path class="cls-2" d="M103.19,129.24l.27,2.5c-1,.18-2.53-2.48-2.08-3l1.8.5Z"/>
  <path class="cls-2" d="M190.3,179.09c-1.07-.44-2.28-1.41-1.39-2.54l-.69-.46c1.53.17,1.83,1.75,2.08,3Z"/>
  <path class="cls-2" d="M240.88,139.6l-.46-.11,1.84-6.59c.03,2.31-1.09,4.43-1.38,6.7Z"/>
  <path class="cls-2" d="M65.63,113.92c.04.08.31.09.39.17.86.94-.88.75-1.35.55l.27-1.33.54-.28c.57.28.09.76.16.89Z"/>
  <path class="cls-2" d="M218.71,412.85l-.7-.39-.45-3.77c.45.08.38.49.47.8.13.44.79,3.22.68,3.36Z"/>
  <path class="cls-2" d="M240.42,361.8c-.38.39-1.96-1.95-2.08-2.31,1.09.23,1.92,1.23,2.08,2.31Z"/>
  <path class="cls-2" d="M148.47,140.72l-.89.26c-.26-1.06.62-1.72.46-2.77.57.41.29,1.84.43,2.51Z"/>
  <path class="cls-2" d="M196.54,242.61c-.55.06-.7-.27-.46-.69h-1.39c.32-.68,1.94-.41,1.62-1.39l.23,2.08Z"/>
  <path class="cls-2" d="M191.69,201.73l-.23-3.69c1.15.13.35.53.34.79-.01.82.63,2.44-.11,2.9Z"/>
  <path class="cls-2" d="M113.86,390.45l-1.38.58.69.23-.23.58c-1.06-.04-.79-.9-.92-1.61l1.85.23Z"/>
  <path class="cls-2" d="M234.87,154.84c-.51.08-.56-.05-.42-.53l2.73-5.47-2.31,6.01Z"/>
  <path class="cls-2" d="M138.57,265.25c-1.15.03-1.9-1.05-2.54-1.84l2.54,1.84Z"/>
  <path class="cls-2" d="M82.2,123.44l.02.67c-.53,0-1.64-.08-1.61-.81s1.35.22,1.59.14Z"/>
  <path class="cls-2" d="M98.13,118.6l.48,1.59c-.79.03-1.7.01-2.31-.58l1.85.12c.33-.39-1.78-1.2-.02-1.13Z"/>
  <path class="cls-2" d="M105.08,130.35c-.61.09-1.16-.09-1.38-.69l1.03-.47.35,1.16Z"/>
  <path class="cls-2" d="M191.23,192.49l.23,2.77h-.69c0-.52.23-.98.25-1.5.02-.56-.64-1.45.21-1.27Z"/>
  <path class="cls-2" d="M206.93,386.06c.63.65-1.67.45-1.85.46.39-.9,1.07-.74,1.85-.46Z"/>
  <path class="cls-2" d="M190.99,183.02l-.11,2.31c-.61-.17-.45-3.05.11-2.31Z"/>
  <path class="cls-2" d="M123.79,134.75c.05.41-.52.22-.78.2-.68-.07-1.73-.19-1.99-.89l2.77.69Z"/>
  <path class="cls-2" d="M107.16,131.28h-1.15s.46-.34.46-.34l-.46-.81c.64.02,1.32.42,1.15,1.15Z"/>
  <path class="cls-2" d="M237.65,147.68l1.38-3.69c-.25,1.19-.39,2.9-1.38,3.69Z"/>
  <path class="cls-2" d="M86.97,127c.08.05.09.27.16.3.24.11,1.07-.24,1.33.74-1.16-.02-1.98-1.53-3-1.15.33-1.33.84-.37,1.52.11Z"/>
  <path class="cls-2" d="M142.73,377.51l-.39.7h-1.23c.06-.45,1.41-.86,1.62-.7Z"/>
  <path class="cls-2" d="M152.19,100.1v.69c-.48.03-.87.09-1.15-.35.28-.43.67-.37,1.15-.35Z"/>
  <path class="cls-2" d="M151.27,390.91c.17.81-1.24.53-1.61.46-.16-.7.15-.28.38-.32.4-.07.83-.12,1.23-.13Z"/>
  <path class="cls-2" d="M162.12,97.32c-.11.11-1.57-1.01-1.61-1.38.34-.06,1.9,1.1,1.61,1.38Z"/>
  <path class="cls-2" d="M192.38,310.76c-.1.3-1.18,1.14-1.38.92l.15-.7,1.23-.23Z"/>
  <path class="cls-2" d="M192.61,204.73c-.57.13-.43-.26-.63-.67-.03-.07-.51-.15-.29-.71l.92,1.38Z"/>
  <path class="cls-2" d="M89.37,143.53c-.08.69,1.03.33.93,1.15-.45.18-1.56-1-1.38-1.15h.45Z"/>
  <path class="cls-2" d="M186.15,151.6c-.12-.57-.56-1.31.23-1.62-.16.54.5,1.38-.23,1.62Z"/>
  <path class="cls-2" d="M228.87,431.1c.25.19-.73,1.17-.92.92l.11-.7.81-.22Z"/>
  <path class="cls-2" d="M82.68,113.49c-.55-.06-1.35-.42-1.62-.92.55.06,1.35.42,1.62.92Z"/>
  <path class="cls-2" d="M91.2,116.97l.25.9c-.44.09-.63-.29-.92-.58v-.34s.67.02.67.02Z"/>
  <path class="cls-2" d="M92.61,121.12c-.45.75-1.78.2-.81-.46l.81.46Z"/>
  <path class="cls-2" d="M238.04,362.8c.06.04.58.79-.04.62l-.81-.92c.26.16.64.15.85.3Z"/>
  <path class="cls-2" d="M232.57,359.49c.14.48-.31.94-.69,1.15.05-.42,0-1.32.69-1.15Z"/>
  <path class="cls-2" d="M210.39,370.58c-.48-.15-.4-1.21-.46-1.61.54.15.45,1.17.46,1.61Z"/>
  <path class="cls-2" d="M110.86,395.76c-.2.4-.36,1.02-.92.92l.25-.9.67-.02Z"/>
  <polygon class="cls-2" points="121.94 123.66 121.94 124.12 120.79 123.88 120.79 123.66 121.94 123.66"/>
  <polygon class="cls-2" points="128.06 400.15 128.41 400.5 128.06 401.07 127.72 400.72 128.06 400.15"/>
  <polygon class="cls-2" points="197.69 229.22 197.14 229.66 196.54 228.99 197.69 229.22"/>
  <polygon class="cls-2" points="114.78 390.45 114.78 390.9 113.86 391.14 114.12 390.48 114.78 390.45"/>
  <polygon class="cls-2" points="150.35 137.05 150.23 137.98 149.66 137.4 150.01 137.06 150.35 137.05"/>
  <path class="cls-2" d="M202.08,393.68l-.58.23c-.9-.75.17-1.09.58-.23Z"/>
  <path class="cls-2" d="M163.97,99.4h-.34c-.36-.24-.4-.5-.35-.92l.69.58v.34Z"/>
  <path class="cls-2" d="M166.98,97.32l-1.15.23c.1-.49.71-.39,1.04-.69l.11.46Z"/>
  <path class="cls-2" d="M139.7,135.41l-.66.26c-.09-.44.3-.62.58-.92l.08.67Z"/>
  <polygon class="cls-2" points="163.51 149.53 163.16 149.99 162.59 149.64 162.94 149.3 163.51 149.53"/>
  <path class="cls-2" d="M146.42,140.98c-.32.12-1.44-.32-1.15-.46.43-.04,1.01-.06,1.15.46Z"/>
  <path class="cls-2" d="M210.39,218.13s-.01.15,0,.23c-.17.08-.98-.13-1.15-.34l.34-.34c.11.31.75.41.81.46Z"/>
  <polygon class="cls-2" points="84.29 142.14 84.29 142.36 83.37 142.83 83.61 141.9 84.29 142.14"/>
  <polygon class="cls-2" points="192.15 59.67 191.92 60.83 191.69 60.83 191.69 59.67 192.15 59.67"/>
  <path class="cls-2" d="M153.12,30.57h-.23c-.15-.43-.15-.73,0-1.15h.23s0,1.15,0,1.15Z"/>
  <polygon class="cls-2" points="111.32 397.84 110.63 398.07 110.63 397.38 110.97 397.38 111.32 397.84"/>
  <rect class="cls-2" x="172.98" y="104.95" width="1.38" height=".23"/>
  <polygon class="cls-2" points="197.46 227.37 197.46 228.29 197.23 228.29 197 227.37 197.46 227.37"/>
  <path class="cls-2" d="M160.97,383.52c.35.35-.69.98-.69.35,0-.15.55-.48.69-.35Z"/>
  <polygon class="cls-2" points="129.56 138.67 129.21 139.13 128.64 138.78 129.56 138.67"/>
  <path class="cls-2" d="M92.84,126.43c-.43.02-1.02.07-1.15-.46.43-.02,1.02-.07,1.15.46Z"/>
  <path class="cls-2" d="M185.91,131.74h-.23c-.03-.42-.07-1.01.46-1.15l-.23,1.15Z"/>
</svg>