<?xml version="1.0" encoding="UTF-8"?>
<svg id="Ebene_2" data-name="Ebene 2" xmlns="http://www.w3.org/2000/svg" viewBox="0 0 1105.76 2362.2">
  <defs>
    <style>
      .cls-1 {
        fill: #00ff06;
      }
    </style>
  </defs>
  <g id="Ebene_3" data-name="Ebene 3">
    <g>
      <path class="cls-1" d="M842.96,1166.62l.69-8.6c-5.99-65.95.86-131.42,12.18-124.17.42-2.75-.92-23.84.94-20.82.52.52,4.96,12.12,5.19,13.53.92,5.77,3.02,42.75,1.66,49.23-3.6,17.14-16.11-6.53-15,49.96.3,15.38,3.28,32.62,3.38,55.78.14,32.28-2.36,36.51-6.54,38.96-8.59,5.03-18.75-.61-26.04-33.12-.03,30.48-9.03,44.71-10.71,59.96-2.16,44.91-.36,40.62-8.13,56.28,7.94,48.59,3.1,65.31-5.24,63.51-4.67,31.43-5.92-13.28-7.94-34.42l6.17-17.37c.27-23.07-.45-44.27,1.44-65.21l3.68,3.63c-1.01-26.85,1.99-31.23,3.68-48.33.42-4.3,3.09-42.97,3.13-45.83.08-6.37-3.38-23.72-3.05-53.07.31-27.57,3.65-43.45,4.27-63.26,1.78-56.94-.55-105.31,6.21-161.88,4.58-25.86,4.5-18.9,4.89-59.44.47-10.21,2.88-18.1,2.76-25.91-.55-35.05-4.15-23.2-7.6-28.72-10.46-20.83-6.86-61.17-14.9-48.89-.11,14.91.56,32.84-.95,45.6-1.72,14.54-4.12,4.18-4.73,11.02-.88,21.7.99,37.16.69,61.8-.31,25.2-4.89,86.49-8.74,53.24-3.98-34.39-.11-36.85,1.21-61.66,1.51-28.24-3.04-31.24-5.07-46.76-2.82-25.07-4.25-66.07-7.84-88.11-1.97-11.01-6.86-.36-9.41.39-5.44-7.35-7.31-4.24-10.36,28.61,1.55.58,2.37-9.46,4.04-8.31.73.5,4.26,14.73,4.68,19.12,3.4,34.8-4.1,64.48-3.7,68.03,5.58,11.82,12.33,40.8,9.57,86.12-1.3,21.24-8.67,22.46-2.5,52.16,9.31,24.16,18.26,101.64,17.27,169.95-.68,27.92-2.38,63.69-3.93,90.2-.06,80.42-15.08,4.09-19.36,60.86-4.58,23.75-10.89,10.02-13.65-21.12-10.63-35.4-16.81-62.8-15.71-155.45-4.73-15.85-5.48,65.38-4.99,83.99l4.3,11.62c-.84,19.3,3.95,73.26-.32,81.63-3.54,6.92-3.45-15.24-5.83-24.18-1.26,25.04,2.9,58.83-.17,76.11-4.35,10.33-11.46-59.98-9.94-88.18-8.38-9.8-10.52-36.56-14.7-70.91-1.8-2.62-1.19,28.68-5.05,32.92-4.74,5.21-3.89-1.85-6.24-16.36-1.08-6.65-2.51-6.52-2.83-18.79-1.31-50.23,6.83-28.79,10.65-53.78-2.15-24.99-3.39-69.76-.62-95.57,2.09-19.53,7.62-12.57,9.99-33.82-1.95-56.28,1.06-105.45,5.14-153.01-1.43-22.32-4.01-41.96-4.31-67.39-.21-17.81,1.52-34.4,1.56-49.32.06-22.26-4.25-48.2-7.32-53.36-1.75-2.94-10.05-6.37-10.6,4.85l-.18,54.86c-4.49,13.3-9.47-23.83-13.38-20.26-3.26,2.98-1.46,19.37-1.61,30.8-.52,39.6-6.41-3.32-8.18,4.32-.53,2.29-2,24.25-2.84,31.13-1.46,11.88-2.93,9.64-3.88,28.37-1.34,26.43,1.25,58.17.78,71.97-.43,12.5-3.9,21.87-3.94,39.68-.03,11.45,3.55,24.89,2.74,46.94-.77,20.81-4.04,28.96-6,43.58,3.37,12.41,2.43,32.15,3.46,47.64,4.42,53.36,6.77,111.21,4.07,174.36,3.08.77,5.74,1.81,8.5-8.34l1.44,6.94c1.36,50.8-3.37,29.36-3.43,73.41-.15,35.63,2.95,80.96,1.82,116.25.21,9.18,3.97,41.97,4.55,56.47,1.46,36.75-1.19,29.32-3.87,47.27-4.4,29.43-9.81,70.11-13.42,104.28-.37,3.53-.87,4.13-.62,10.41,7.34-2.1,3.68,51.56,14.65,41.69,1.52-19.14,1.3-41.23,4.22-55.94,2.73-13.72,9.68-21.37,13.15-23.05-.42-25.51.49-65.03,4.85-71.63,1.08-6.94-1.52-65.3-2.21-76.6-1.65-26.91-9.87-79.23-8.12-106.48,1.29-20.06,11.36-25.48,14.27-40.04-2.2-20.49-2.68-47.12-2.42-71.96.99-19.56,8.13,3.62,9.03,18.21.54,8.84-.96,23.67-.63,33.65.42,12.79,4.45,28.11,4.75,47.04.39,24.7-1.4,18.42-2.24,27.29.35,45.57-12.37,1.84-14.13,16.45,6.1,31.62,6.91,82.75,9.12,128.5,1.24,25.75,5.35,50.17-.88,69.08l-.08,38.91c2.26,4.17,4.14-11.55,5.99-12.31,4.76,4.89,12.95,10.5,15.35-29.16l-1.25-4.12c2.7-6.67,2.03-35.74,8-48.85,1.78-3.66,12.55-10.83,14.24-9.22,3.17,3.02,6.08,24.17,4.45,45.6-1.1,14.49-7.28,10.23-9.39,12.67-2.72,3.14-5.73,11.41-8.7,11.7-1.86,21.97-2.56,51.08-6.08,64.79.44,4.11.81,5.38,1.56,6.23,3.86,4.37,14.77,3.58,16.91,25.16,2.01,20.25.46,38.55-3.08,41.32-5.46-.64-23.14-3.56-20.42-62.32-3.05,11.61-6.41-4.77-9.6.09-1.76,20.56-6.11,13-8.85,4.33-3.58,18.85-1.4,38.95-1.59,59.82-.42,46.44-11.49,44.66-15.12,79.2l.42,10.4c2.06,9.83,6.5,44.84,6.98,60.82.29,9.61,1.41,46.68,1.47,53.04.12,13.07-1.43,19.06-1.34,28.64,1.67,28.52,3.08,58.01.02,85.4,5.31,5.42,8.33-39.11,10.41-62.04.34-9.64-.8-28.58.27-41.7,10.65,7.72,6.37,97.9,2.98,135.94-.74,4.53-8.27,8.69-4.72,18.71,4.14,11.68,7.23-4.54,9.6-25.86,2.39-22.77,2.2-58.71,6.42-63.62.57-28.21,6.63-17.24,9.82-19.93,4.76-6.69,7.37-16.65,12.03.22,4.44,4.05,12.18,12.55,16.29,13,3.79.42,10.09-16.43,14.39-12.65,2.1,1.85,11.18,34.96,12.5,45.13,1.87,14.39-1.13,35.28-3.63,33.61-1.86-1.24-6.32-28.32-7.58-29.13-.85-.54-6.66,4.5-7.87,6.04-2.33,2.95-5.9,18.57-7.18,18.58-8.47-25.1-5.42-21.12-15.02-20.52-3.64-12.36-8.33-7.77-12.33-2.26l-1.52,18.99c-2.61-1.55-3.02-21.53-4.29-20.38-5.54,20.15-4.07,66.56-9.17,93.2-3.4,17.73-7.81,11.79-11.6,22.6-1.6-.61-9.66-41.55-9.85-57.66-5.69,7.85-7.85-19.52-7.78-54.36-2.54,25.97-5.09,70.48-6.41,98-.15,7.88,1.18,87.47,2.02,43.02l2.54,8.35c.53,30.24-1.4,21.12-3.47,31.26-4.31,21.13-2.4,20.93-2.47,45.53-.14,43.75-.96,53.74-6.96,74.73v4.06c3.17,10.34,3.48,36.78-.45,42.73-1.08,1.64-7.99,9.82-8.68,9.62-1.08-.32-.88-6.77-1.42-8.36-6.53-17.06-9.07-34.68-11.15-79.02-1.85-15.51-8.3-34.64-9.42-58.05-2.08-43.4,6.09-61.76,6.03-97.93-.03-17.29-2.03-15.35-3.19-24.63-2.13-19.15-5.14-48.44-3.12-72.68l-9.42-16.62c-.84,5.26,3.39,48.83,1.13,61.45-.33,1.84-7.41,12.81-8.37,13.17-6.7,2.45-6.99-25.28-10.06-29.01-3.7-4.49-7.53,17.63-10.51,11.67-1.51-3.02-7.06-42.72-6.73-57.29l-5.15,44.74c-5.55.19-10.42-.23-15.56,15.45-3.25,9.91-2.19,32-7.37,38.4-8.49,10.5-18.37-37.95-18.43-96.48-.04-39.23,6.59-89.87,6.79-112.72.16-18.41-3.61-42.38-2.85-68.86.57-19.85,4.18-37.16,4.64-48.59-2.22-61.2,4.9-73.8,10.89-106.65-1.34-35.53-5.14-61.04-1.21-96.82-2.62-4.66-10.83,9.46-11.31,26.9-.35,12.75.37,23.13-.48,38.29-.93,16.46-3.18,21.49-4.18,30.5-1,9.01-1.54,40.89-5.06,16.27-3.58-23.04-.16-51.65-1.57-76.35,0-2.56,1.02-2.49,1.43-7.64.45-5.64,2.15-27.18,1.65-31.77-6.72-20.94-11.09,7.53-17.81-33.82-1.67-10.21-2.85-48.02-5.72-49.78-1.47-.9-10.46,39.74-12.68,44.85-1.75,20.92-5.47,24.51-7.06,32.19-8.99,68.05-5.16,74.35-1.55,147.07.44,15.52-.61,58.53-1.26,75.05-.54,13.64-5.31,58.8-5.24,63.47l4.27,58.87c2.83,2.68,7.19,2.88,9.63,14.18,1.09,5.06,1.01,20.18,2.12,25.45,5.12,15.9,8.6.81,11.62,44.56.74,2.79,2.58-.33,3.81,1.78.4.69,3.89,15.68,4.19,17.91,2.88,21.08.05,68.22-4.62,64.02-4.6-4.14-6.86-52.78-11.71-64.07-3.37-7.84-4.55,12.39-9.52-10.49-2.02-9.28-5.61-20.67-6.75-27.11-1.32-13-6.46-56.93-6.93-76.64-2.84,27.72-2.45,74.75-4.52,104.89-1.14,18.81-4.54,6.55-6.44,6.88-1.61.28-2.99,7.39-4.46,8.21-16.09-12.21-11.84,53.05-22.07,38.64-7.01-15.36-18.06-90.3-19.96-137.76-2.7-67.04,9.73-181.47,20.23-181.33,3.16.04,6.92,25.26,10.59,11.24,1.77-6.75,6.41-51.93,6.44-65.34.02-10.43-2.63-16.33-2.92-24.89-.26-7.66.89-20.77.54-30.22,6.21-12.31,12.06,30.42,15.98,53.96,1.19,9.39.59,20.98,1.29,28.78.42,4.66,2.31,6.66,2.19,16.75,1.32-5.87,1.85-29.18,1.91-39.35.14-26.33-2.24-37.98-2.02-63.7-10.36-18.74-7.54-57.19-10.54-106.68-1.58-14.37-8.05-24.38-10.51-34.42-1.21-.71-4.06,21.81-5.26,26.05-1.69,5.97-6.73,2.69-8.41,19.1-3.68,35.95,3.14,57.03,2.81,80.57-.47,33.7-6.96,4.4-8.81-9.28-3.82-28.25-3.06-40.2-3.81-73.09-3.09-38.12.8-40.63,4.44-62.76.55-8.58-2.69-11.33-3.43-10.58-3.35,3.41-5.23,63.46-6.88,79.35-6,47.05-6.77,31.71-13.49,47.78-3,14.19-2.11,62.98-7.58,59.89.08,22.63,6.74,33.03,4.44,56.14-2.81,28.32-6.57-23.36-10.72,8.12-7.21,49.2,11.95,135.05-3.8,149.72.39,22.1-.43,48.62.08,69.99.69,29.2,6.51,60.7,3.36,97.46-1.21,14.13-6.77,23.12-9.06,19.19-1.37-2.34-10.68-30.5-12.13-36.14-3.94-15.29-5.69-28.92-5.47-59.66.23-31.86,2.83-25,6.65-34.94.32.11,3.82,16.03,3.95,17.32-.69,26.6.84,18.35,4.06,24.95,1.09,3.42,1.59,18.62,3.57,15.62-.93-41.65-6.38-76.58-4.75-120.65,1.03-27.88,2.2-48.58,1.63-80.72-.43-24.83-4.94-41.69-2.83-72.44,1.34-19.5,4.58-11.77.84-51.33-1.29-13.6-8.01-42.65-10.25-40.26-1.64,1.75-4.19,35.98-4.85,47.15-1.22,20.73-1.47,76.57-5.52,65.13-.27,2.34,1.49,26.97-1.06,32.66-2.66,5.96-3.83-11.43-5.71-15-10.88-6.04-10.83-36.7-18.04-51.31-2.63.93-2.04,13.03-3.5,22.98-1.44,9.85-4.55,15.39-6.17,25.59-.89,5.62-4.42,38.64-1,30.82,2.17-33.53,18.77-21.08,23.8-20.52,7.63,4.13,5.38,61.81,2.85,92.84,2.49,23.62,8.69,61.5,3.41,88.88-1.02,5.27-14.26,50.8-15.28,52.53-2.17,3.67-7.99-.61-8.73,2.52-.65,2.76-.97,30.39-5.73,20.23,4.07,76.24-13.13,64.87-16.51,17.84-2.17-10.88-8.06-28.69-8.87-47.03.08-38.6-2.74-63.02-4.06-106.16-.24-12.09.13-76.31-.7-80.47-3.18,25.23-8.47,18.08-9.42-12.41l-5.58,8.63c.37,12.12-.75,28.01-.56,38.11.63,32.99,6.33,43.72,1.75,83.9-1.7,14.96-7.8,34.37-7.45,48.89.58,24.34,9.15,69.72,12.26,85.36,2.27,11.41,9.1,30.91,9.53,49.31-.21,28.79-6.47,41.09-10.2,38.16-7.9-6.22-6.41-57.29-11.04-80.67-6.55-20.32-11.84-29.51-11.95-85.01-5.43,13.16-8.91,10.67-13.8-8.27l-1.89,41.31c4.86,8.43,7.73,23.72,4.01,54-1.15,25.83,9.05,61.99,7.15,105.02-.99,22.53-6.67,29.58-9.48,18.76-2.16-8.33-1.39-25.5-2.18-39.52-1.83-32.35-11.49-36.26-13.48-68.62-2.19-35.83,2-113.81,5.82-141.97,7.1-52.29,16.55-51.59,26.35-60.32-1.16-34.18-3.45-62.91-2.52-100.71l5.59-29.96c-3.75-26.61-2.27-61.18-1.81-93.36,5.31,7.38,6.49-31.63,6.86-59.61-4.96-17.28-11.33-50.66-12.1-90.52-.31-15.87,1.83-24.11.88-33.58-1.55-5.84-4.13-27.2-5.94-23.62-1.49,6.05-.76,18.18-1.35,28.69-1.32,23.64-8.26,35.16-11.28,21.28-.34.11-3.22,36.78-3.23,39.02-.02,8.01,1.83,18.42,2.14,25.96,1.4,34.15-2.79,37.46-3.49,57.98-.66,34.59,3.1,65.09-5.12,84.65,1.84,29.51-6.94,21.44-9.44,11.9-.32-10.24.34-6.58,1.26-10.22l-1.9-22.88,1.89-.05-1.26-16.54,5.69-10.74c.56-13.03-1.23-21.46-1.28-28.71-.06-8.69,1.57-15.64,1.84-25.09.42-15.1-.45-33.34.55-49.25-5.17-18.04-5.6-22.56-2.87-57.38,3.31-42.14,6.17-38.3,9.6-61.07.88-5.86.97-14.83,1.81-21.22.17-1.27,3.7-19.76,3.93-20.51,5.33-17.31,13.82,2.38,19.37,12.29,6.04,12.75,5.32,19.81,7.65,53.37.41,5.89-.37,11.3,1.42,9.06l-.73-107.21c-6.98-15.83-5.88-25.28-8.14-60.32-5.41-38.86-5.77-41.94-7.13-94-1.16-12.62-4.2,13.74-5.81,16-3.76,5.25-3.54-9.82-5.26-17.5-2.42-10.83-4.38-7.88-4.92-33.98-.77-36.88,4.15-28.05,4.4-45.39.17-11.97-2.23-31.39-2.44-42.46-.27-14.65,7.3-85.16,9.36-94.07,1.89-8.15,5.62-9.65,6.2-29.5,1.19-40.54-2.39-35.27-4.9-58.7-6.69-68.84-1.78-124.51,1.14-186.17-.02-7.83-4.12-28.98-3.76-53.41.36-24.08,4.73-42.07,5.64-64.73-.86,12.69-5.36,15.55-5.57,17.07.23,34.36-8.68,42.21-12.65,34.91-7.23-21.59-4.95-38.98-13.01-11.69-1.03,3.49-.99,13.67-2.98,13.24-2.65-.58-3.94-21.44-7.23-18.71-2.07,1.72-10.07,36.72-10.06,50.25,8.86,79.68-.95,62.61.92,97.81.76,7.01,4.37,2.18,6.05,5.68,3.84,8.03,9.51,72.55,5.84,80.57-3.25,7.08-9.06-8.17-12.48,17.15l1.64,30.63-3.77,17.66,1.22,18.15c6.6-20.09,15.59-53.45,22.74-32.1,2.14,6.39,5.48,28.63,7.72,27.65,3.26-13.16,2.92-1.92,6.74-4.74,3.11-4.12,6.52-33.22,8.88-7.05,2.84,31.58-2.16,77.55-7.13,80.84-2.56,1.7-5.3-6.13-8.11,6.51.02,25.36.18,55.8-4.95,41.92-5.87-15.88-3.44-53.22-7.52-66.42-6.39-20.67-7.99,20.19-12.28,37.26-6.89,27.36-16.47,42.25-23.37,7.46-4.02,44.11-12.04-27.53-14.74-52.23-11.21,29.82-8.2-92.13-10.06-134.53-2.23,11.41-8.71,4.6-9.91,9.2-.19.72-2.32,22.2-2.38,23.78-.34,8.48,1.26,23.96-1.34,28.7-1.56,2.85-6.85-19.11-7.36-28.3-.72-12.91,4.59-66.02,6.9-66.32,1.64-.21,3.49,6.67,5.31,3.85-.42-21.18-2.22-32.44-1.84-55.56,1.03-40.24,7.95-78.86,2.74-118.67-.27-5.17.4-11.77.34-12.27-5.48-6.61-10.71-42.01-11.38-80.85-.55-24.8,1.67-39.59-3.92-47.66-5.6,29.68-2.43,72.26-3.94,106.82-.78,17.74-3.65,31.35-4.72,47.67-.54,8.33-1.05,33.69-1.26,35.27-.64,4.86-10.14,21.37-9.83,39.44.19,11.27,1.43,16.94,1.17,38.11-.59,47.23-4.81,40.72-9.35,58.58-6.14,24.18-1.85,36.78-2.24,68.19-.06,59.45-8.66,140.57-17.89,88.81-.98-4.91-2.02-18.03-2.36-18.55-14.33,6.37-12.29-72.87-11.49-141.02l-5.65.06.57,22.25c-8.67,36.42-11.54,89.21-12.67,152.98-1.07,17.79-4.58,31-5.21,44.42-.28,6-1.35,53.66-1.31,59.8.09,13.54,2.12,26.43,1.38,35.84-1.12,14.25-3.03,2.85-4.11,6.11-1.32,4-1.15,16.26-4.09,15.1-.84-.33-3.82-9.15-4.43-12.65-1.89-11.03-.3-25.43-.26-39.45-.36-41.8-.47-74.22-.06-116.14-.43-17.1-3.34-28.18-4.06-45.58-.33-7.97-.89-45.1-.86-53.76.05-12.88,1.78-43.81,1.45-52.46-1.11-28.4-7.29-46.98-7.78-72.86-.62-32.2,4.74-70.1,4.44-82.09-6.07-25.93-6.64-78.99-5.79-122.43-3.35-6.62-7.87-13.46-9.01-37.85l-4.08,22.78c11.26,56.48-2.87,38.41-12.56,107.9,7.04,33.96-9.03,90.45-12.86,43.31-2.58-33.54,8.06-76.26,11.38-92.46,1.96-9.52,2.89-27.16,6.47-27.82-1.7-33.52-1.34-49.31,2.48-72.58,2.93-17.83,8.89-39.99,12.91-39.58,10.64,8.33,18.71,51.64,20.46,122.1-8.56,34.81-2.8,48.6.08,82.78.6,7.13,4.85,71.41,4.85,75.52,0,3.82-.98,19.4-1.37,21.77-.99,6.02-4.58,5.25-4.16,15.01.77,14.1,3.41,33.68,5.1,42.99,1.98,5.47,8.58-.35,9.94-13.04.92-36.61,4.72-61.75,8.53-87.36-1.03-14.31-1.55-33.23-3.5-42.8-2.36-45.78.65-64.05,2.48-98.11-.11-8.51-3.86-43.97-4.29-55.32-1.13-29.76,5.46-65.48,9.5-65.81,2.27-.19,6.98,5.44,6.72,25.1-.68,12.17-4.73,46.06-4.32,57.36,1.25,34.54,8.15,33.69,9.17,60.16.87,22.47-1.09,41.3-1.1,63.27,8.54,7.56,5.86,41.34,1.26,70.53,8.96-2.86,2.82,86.76,4.47,99.18,4.4,4.92,2.87,11.61,5.57,25.35-.66-24.61,2.94-86.99,6.09-98.78,1.67-6.24,4.4-2.76,5.11-5.65.17-.68,1.18-17.77,1.8-23.16s2.18-11.41,2.38-17.67c.06-1.79-1.05-21.96-.96-35.39.38-56.34,5.9-63.62,10.32-97.78.45-3.47,5.03-48.35,5.32-52.01,2.03-25.84-2.04-58.39,4.52-82.19,1.79-6.5,9.53-18.34,11.59-19.14,3.87-1.5,9.23,13.57,5.95,41.63,11.65,18.15,4.77,80.31,8.15,95.48,2.68-22.32,1.97-45.57,3.12-68.65.5-10,2.81-26.55,2.99-33.6.68-26.34-5.8-55.98-6.88-77.25-.7-13.69-.61-46.99-1.89-56.01-1.06-7.43-9.15-28.84-9.29-32.85-.93-35.15,4.89-29.8,8.82-24.22,9.74,15.32,13.76,91.31,16.15,146.38.74,10.3,2.98,11.78,3.65,25.65,1.92,39.94-3.43,48.67-3.49,83.21,3.62,2.24,8.57.46,7.51,34.36-.14,4.35-3.39,14.45-3.59,26.42-.15,9.17,1.53,25.9,1.7,37.24.6,40.22-6.03,43.5-6.28,50.01-.38,19.31,1.53,34.86,1.84,53.69.31,60.38,1.89,132.82,6.5,187.41,1.62,9.18,8.59.11,8.02,38.35,2.08-11.3,5.49,10,5.64-12.43-3.47.17-5.05-35.69-3.93-52.89,2.99-20.26,8.84-51.64,13.35-59.26-2.96-53.57-8.32-11.49-8.82-59.97-.27-38.69,2.94-56.32,4.92-88.2,3.23-75.66,2.7-86.56,13.83-118.19.61-46.39,8.48-41.91,13.55-45.26,2.18-2.54,6.06-14.3,7.6-14.32,2.19-.03,2.81,13.69,4.7,14.75-.52-31.85,10.37-47.18,11.17-54.88,1.21-25.01,1.33-30.54.21-55.53-.59-69.52,1.16-67.73,8.76-99.94,2.08-23.01-1.24-45.03-.53-64.48.8-21.79,8.38-40.03,8.68-59.37.18-11.18-2.49-30.81-3.12-45.75-.76-18.07-.27-33.83-.82-48.54-.55-14.55-4.76-38.27-3.83-55.96.78-12.22,3.29-6.79,4.75-10.49,1.9-4.81,3.36-17.98,5.81-15.75,1.77,1.61,1.15,9.71,1.79,15.57.33,2.97,1.43,3.65,1.52,7.21.12,5.06-1.25,18.18-.79,23.34,4.65,20.99,6.67,37.68,4.1,78.64,6.82-9.34,28.45-58.28,28.16,22.26,0,0-.94,6.23-.94,6.23-5.72-6.06-9.96,9.92-15.14,16.12-1.87,2.23-4.84-2.2-6.18,4.8-.77,4.05-.83,14.16-1.49,19.18-.77,5.83-2.34,8.06-2.83,14.47-.78,10.2-.29,26.92-2.21,37.25,1.74.69,3.35-6.3,4.05-16.36,3.84,8.54,12.95,56.39,5.84,75.49-4.73,12.71-7.87-10.63-12.29-12.85-.8,15.57-6.69,42.86-4.56,59.91,7.5,14.96,9.93,58.83,14.18,96.96,1.71-9.87,4.2-14.61,5.93-22.86,4.52-21.49,5.8-45.12,11.86-58.58,4.6-10.23,6.92-3.13,11.09-5.54,7.91-4.57,11.89-24.46,18.94,18.13,4.27,25.78,6.67,52.07,1.48,81.49,2.56.21,7.5,24.42,8.03,40.32.49,14.75-.93,39.72,2.9,34.58.59-.79,0-12.98,1.63-8.47v12.47c1.24,3.58,6.76-19.87,6.87-23.12.1-2.82-1.26-22.87-1.17-36.41.1-13.82,2.78-63.11,4.28-71.59,6.17-19.69,19.53-53.14,24.81-5.48,3.15,36.89-1.87,47.06-2.82,80l4.15,27.55,9.06-29.27c-2.94-70.34-.04-132.37,8.52-178.11,4.8-25.62,7.26-31.78,12.94-11.12,9.83,35.7,4.17,96.26,7.45,152.06l2.85-28.79c.5-17.71.31-50.15,2.2-64.33,1.64-12.32,5.5-15.42,7.49-25.27,2.17-32.55,12.42-30.14,13.25,4.25.46,34.11-4.45,44.48-8.76,44.18l-5.73,99c2.67.12,5.31,11.19,7.85,12.57,5.27,2.87,9.73-6.78,15.89,2.75,4.32,6.69,6.04,34.7,8.69,55.55,4.65,3.3,3.68-31.64,5.9-43.62,6.61-18.61,3.98,6.04,5.68-51.66l7.47,3.73-.63,12.39c3.09.38,6.2,39.94,4.4,58.09,5.7-10.38,5.39-8.65,10.05-33.12l-3.14,26.95c2.46,7.69,4.76-28.3,4.72-41.58-.08-27.5-6.99-45.39-4.63-80.28,1.19.66,2.93-4.54,3.91-3.53,3.61,3.71,11.05,92.86,11.08,119.14,6.49-18.78,10.48-12.91,16.28,10.71,6.15,6.73,11.03-13.92,18.39,11.17,4.85,16.53,3.01,32.58,4.39,43.6.45,3.57,3.8,4.49,3.69,15.43-.97,25.55-.73,54.41-3.83,72.59,4.33,7.04,7.52-20.33,11.63-20.06,2.35.15,4.6,18.09,7.21,15.91-2.24-29.99-1.16-43.62,2.36-64.76l-1.42-38.87c-2.22,17.82-4.11-8.24-7.52-4.37-2.7,3.06.27,26.52-3.66,20.14-4.28-22.61-10.01-28.67-9.23-73.95l16.85,7.73c2.64-17,1.41-39.15,2.99-57.17,5.19-44.88,9.56-24.22,15.6-4.22,10.54,34.39,45.7,22.67,39.92,140.79,1.25-3.6,1.39-15.8,2.55-22.49,2.88-16.62,11.06-18.6,14.67-14.61,5.25,3.07,7.3,56.27,9.76,53.71.68-60.54-1.46-128.25,6.91-170.08-4.3,1.44-4.32-45.57-1.86-60.06,2.97-17.46,10.76,8.62,11.76,34.05,2.27,58.2-8.37,65.56-9.26,117.23,3.79,5.73,8.45,6,8.14,39.09-.21,22.34-6.4,26.09-7.82,48.15-.81,12.65-1.4,48.91.92,56.23.7,2.2,1.58-4.77,2.34-5.61,5.35-5.93,2.56-4.06,5.58-17.08,2.51-10.78,8.79-4.47,11.54,3.74,1.3-28.16.72-43.81,5.62-52.11,13.43-22.73,28.2,33.67,27.03,133.02-.17,14.03-2.38,38.21,0,45.69,1.42,4.45,9.62-.47,11.12-5.4,6-19.67-3.09-38.82-4.43-59.04-.7-10.58,1.01-18.76.85-28.96,9.97,15.01,18.42,86.74,8.16,139.05l3.05,13.15c.6,67.01-11.2,14.96-15.92,17.94-2.15,1.35-3.65,35.35-3.46,47.38.29,18.93,4.08,32.8,2.86,64.73-2.7,29.89-7.86,126.06-15.41,103.69.73,30.32,1.96,53.37,5.03,76.67,5.22,39.63,5.43,25.78,11.81,5.66-.49-37.79,2.03-88.9,5.71-117.88,2.33-12.39,3.21,2.16,4.89-18.52,2.45-9.05,9.07-16.78,10.72-1.08,2.84,36.94,6.43,105.6,6.37,148.49,2.91,14.19,6.4,7.34,9.5,12.15,4.9,22.53,10.77,4.36,16.18,1.77,1.09-28.49,3.34-42.93,2.32-74.32-1.57-48.27-8.41-48.02-11.3-74.7-1.4-12.94-2.52-34.96.9-37.17.57-5.54-4.12-30.85-4.83-32.3-2.38-4.84-4.58,5.57-6.73,3.34-1.26-1.3-7.58-23.79-8.53-31.07-2.12-16.14-5.03-65.93-5.06-87.23-.04-24.75,2.33-44.39,2.58-66.45.33-29.53-3.39-61.51-2.38-86.05,1.91-46.32,12.16-41.93,17.6-49.71,2.78-3.97,12.13-33.16,13.9-32.34,1.87,3.43,2.03,9.17,4.02,5.3,1.05,4.04,6.81,51.7,7.92,61.45.79,6.94,1.15,19.3,1.78,23.54.84,5.62,6.86,21.16,7.21,7.52-.66-13.94-1-35.95.5-47.75,1.36-10.69,10.1-26.21,12.22-22.18,4.92,13.67,4.19,11.25,5.17,41.8,8.69,27.29,6.55,6.99,12.76-11.28,1.58-1.92,8.7,1.92,9.05-.35.7-28.04-.57-69.61,3.64-85.93s9.75-9.14,11.76-46.75c1.57-29.38.63-45.03-2-69.47-.42-3.87-4.6-33.08-4.93-33.97-.4-1.07-1.05-.02-1.54-.23,7.97,75.77-5.23,62.7-11.57,37.45-.62-4.28-1.42-26.04-.94-34.01,1.28-21.16,5-3.56,5.59-7.62.08-62.82,4.66-76.54,12.51-43.22,4.31,18.32,2.87,26.31,3.93,48.89,5.47,35.43,8.62,76.48,6.73,128.73-2.8,75.58-16.3,29.39-15,106.31.77,5.14,6.6-4.84,7.82-4.06,1.81,1.16,9.25,23.49,10.73,32.92,1.46,9.33,2.47,31.37,3.13,33.28,2,5.84,1.5-8.21,2.17-13.56,4.48-19.49-.64-54.66,5.46-76.91,4.68-19.67,6.47,6.81,9.31,24.15,2.43,14.79,5.49,21.77,5.34,49.79,3.11-11.52,2.54-87.78,7.93-56.57,1.85,13.06,1.88,36.92,1.34,53.6-.3,9.21-3.22,30.64-.73,35.86,4.88,7.96,1.39-40.08,6.92-50.72,2.24-31.13,9.11-23.94,7.8,14.97-.08,2.3-4.82,23.77-4.42,36.09,2.84-22.34,3.56-12.36,6.51-13.56.82-.34,1.46-7.02,2.45-6.22,6.8,12.8,4.76,33.12,9.06,43.8,7.65,2.97,16.29.1,24.04,9.15-5.71-53.98-2.66-101.46,6.95-114.09.9-5.16-.77-19.8.27-31.11.19-2.01,5.02-30.09,5.35-31.08,2.63-8.1,6.63,11.29,6.89,29.37.33,23.34-2.07,13.29-3.57,28.57,1.9,33.53,4.45,76.33,1.7,110.06,3.83-10.6,6.13-23.98,10.7-14.72.6,1.22,5.72,32.81,6.27,37.43,1.28,10.8.86,22.01,2.19,31.23,2.61-.84,1.56-17.69,1.73-19.93.46-6.24,3.83-16.39,4.85-23.64,1.44-10.22,2.83-50.92,5.55-42.84.07.22.08,5.94.89,8.79,5.45,19.2,5.67,5.54,10.81,2.8,7.57-4.04,14.62,14.96,23.24,12.53,3.75-1.06,5.73-14.39,9.64,4.86,1.06,24.91-1.73,34.27-3.43,52.87l-5.47-3.35-1.06,10.03c0,2.66,3.74,32.37,4.37,36.75.5,3.52.44,3.74,1.31,2.68.43-36.12,1.95-44.34,6.61-58,2.63-21.62,2.32-34.26,7.18-39.88.45-1.5.49-9.16,1.09-10.13,1.11-1.81,2.91,2.77,3.84-.75.45-1.71.88-16.21,1.82-20.12,5.01-15.05,12.5-10.56,17.14,8.5l.06-24.48c6.96-8.47,6.86,22.99,8.69,55.88,1.47,6.97,6.84-4.96,9.64,9.9,1.2,6.36,6.04,67.25,5.89,77.09-2.27,24.78-8.21,27.29-4.85,62.45,5.35,6.78,6.44-9.01,8.19-37.71,7.72-9.91,7.55,30.08,8.84,66.43-.13,30.57-3.41,18.93-6.09,26.52-1.26,3.57-1.4,12.1-1.93,13-1.06,1.79-4.94-1.98-5.21-.06,1.01,56.61-8.72,10.03-9.89-15.54-.72-15.77-1.81-99.92-1.26-114.17.49-12.69,3.36-21.15,2.98-36.28-2.04,11.41-5.18-.99-6.53-.16-.65.4-.19,13.49-2.51,12.69-.62-.22-4.52-11.98-5.34-14.96-2.18-7.92-6.37-44.72-5.79-2.33-2.67,11.05-4.73-2.91-7.44-3.5l4.45,30.5c12.63,31.27,15.02,84.79-.37,102.28-9.23,6.72-13.27-12.17-12.88-74.73.36-2.44,6.29,5.58,6.91-8.24-4.54-11.13-9.57-25.32-14.43-16.59.21,7.28,1.82,6.9,2.55,14.15,2.35,23.51-3.35,52.45-1.62,77.03.53,7.56,5.12,27.84,6.31,37.24,2.9,23,3.96,54.18,9.53,61.48.73.95,6.97,5.42,7.34,5.2,2.83-30.67,8.24-17.81,12.61-16.45,3.38.63,4.79-9.28,8.29,3.08s10.59,93.19,1.45,79.69c4.68,46.66,5.21,123.49-3.06,150.04-.36,4.22.45,12,.35,17.4-.24,13.14-2.59,38.54-4.19,46.64-1.26,6.39-2.4,2.91-3.71,8.08-2.14,8.41-3.62,27.39-6.53,35.86-4.57,13.31-10.65,3.26-14.64-14.89-12.39-54.7.39-134.99-18.44-147.69,1.76,14.96-.83,26.48-.63,39.09.13,8.48,1.67,18.24,1.57,33.62-.12,18.21-2.65,37.44-5.48,26.95-1.92-7.12-2.66-55.92-8.01-45.7-.62,14.57.89,26.11,1.03,42.99.11,13.82-.74,29.27-.49,43.57-7.26,30.28-7.22,43.38-16.54,33.87-.76.33-1.29,5.78-2.25,6.1-1.12.37-4.63-4.23-5.56-8.62-.26-1.24-4.09-30.23-4.23-32.15-.66-8.94-.23-21.12-1.48-29.69-.94-6.45-6.16-27.65-7.81-35.5-2.58-12.23-4.45-31.81-8.5-28.91.81,10.44-.32,14.82-.56,23.08-1.28,44.8.45,73.42-8.79,44.96-6.8-20.94-8.89-63.61-1.29-86.94-1.47-22.93-2.67-39.85-1.12-65.08.89-14.58,4.87-24.65,5.56-38.57.75-32-2.23-51.74.55-87.4.15-7.48-.57-20.14-.34-22.69.14-1.54,3.99-18.24,4.73-16.4-.3-10.1-4.62-6.35-5.02-8.29.2-25.33,2.39-42.92,3.77-66.32-3.55,4.68-4.91-6.17-7.53-14.51.95-29.31,5.54-36.81,9.42-45.75l-3.14-10.38c-.29-7.01,1.19-2.06,1.29-6.24.36-29.59-9.28-31.02-11.96-37.65-2.1,9.99-3.22,53.24-3.79,66.38.06,6.64,1,12,1.14,17.95-1.24,27.64,2.08,29.22,3.25,53.24.76,28.67-2.54,35.17-2.53,37.33,1.59,37.21,3.45,42.28,2.55,86.94-.46,15.87-9.53,42.17-11.28,58.5-.15,4.81,1.47,12.93,1.91,20.01,2.02,48.18-7.47,128.94-7.97,178.82-.08,7.74,2.07,28.12,1.65,45.34-.37,15.36-3.18,11.04-2.54,24.82.09,1.88,2.53,9.75,3,22.09,1.74,45.34-1.85,52.99-3.76,85.1-.73,12.29.13,30.07-2.21,35.21-5.3,4.44-10.78,26.07-16.17,21.88-3.6-2.8-4.51-29.5-8.48-31.48l-4.37,35.48c5.21,10.38,4.26,75.61.16,91.45-4.38,16.91-7.06,1.59-11.2-3.91-1.53-2.03-3.33,1.76-4.85-1.16-2.07-3.99-3.78-38.24-6.07-21.86-.85,6.08-.55,14.84-2.05,19.67-.86,2.77-5.97,10.09-7.14,10.88-7.02,4.74-11.03-25.39-11.61-69.71-6.39,4.11-11.89-22.5-10.47-67.92.57-18.37,3.47-26.97,3.67-46.89.11-11.49-3.06-16.87-1.8-44.49.53-11.55,8.2-43.7,9.9-46.91,1.16-2.18,5.55,16.71,5.96,22.97.23,3.59-.35,9.61-.17,13.84.42,9.55,3.03,20.03,1.67,39.82-2.4,3.48-4.35,10.77-5.56,25.4,6.3,3.5,5.6,46.77,10.99,62.22,1.5-7.89,1.61-26.01,3.2-32.7,4.34-18.32,12.96,15.42,13.45,49.37,1.84,9.16,6.36-59.9,7.49-67.55.84-5.7,1.99-4.97,2.4-8.12,1.23-9.61,2.17-50.27,5.63-56.53,1.47-2.67,5.92,11.12,7.03,18.39,1.48,9.67,2.49,38.37,3.16,41.35,1.23,5.46,3.49,3.17,4.37-4.68,2.89-25.9-.97-57.09-.46-85.68.53-29.45,6.89-52.23,7.8-73.63.43-10.21-.3-15.2-.19-22.23.06-3.57,1.01-7.68,1.05-13.1-2.36-52.6-2.99-48.86,2.52-99.62-4.59-29.56-6.86,87.96-16.13-18.74-5.33-3.17-10.86,9.17-15.9,14.32-1.25,1.77-2.03,10.68-3.98,10.4-5.5-.81-9.69-37.15-14.2-49.51.53,17.91,3.87,53.26,6.29,60.06,1.36,3.81,2.84-.03,4.12,5.97,1.79,8.4,5.34,48.47,3.76,62.87-5.83,19.5-9.22-3.94-12.67-28.9-4.91-19.32-6.55-17.39-11.86-46.27-1.28-6.97-2.87,1.62-2.21-20.57-6.34,51.15-11.42,4.23-16.8.65-2.72-1.81-5.63,36.23-7.07-13.13l-1.87,4.15c3.42-22.53,2.06-48.97,7.77-46.28,1.12-2.45.62-19.34,3.52-9.65,1.79,5.97.9,17.97,4.1,10.54,13.72-31.91,4.29-125.44,5.96-193.2.68-27.4,3.72-56.15,4.09-84.66.16-12.45-2.39-24.89-.85-51.7.41-7.21,1.89-5.63,1.77-8.82-.25-6.74-2.83-23.98-3.6-34.36-.93-12.7-2.21-58.31-2.66-61.3-.88-5.89-3.25-5.25-4.41-10.21,1.85,21.35-2.14,49.83-1.91,64.18.23,14.21,5.32,36.66,2.49,62.16-.79,7.15-2.15,5.34-2.37,7.07.01,33.69-1.84,22.67-5.99,33.07-1.98,6.98-3.06,37.32-6.07,18.36-5.28-33.28,3.25-60.94,4.42-93.49-3.41-13.93-6.93-11.11-10.48-19.97-2.13-5.31-5.58-29.83-6.77-30.05-.53-.1-.31,9.58-1.35,11.96-2.48,4.46-6.81,10.63-9.65,8.97-1.32,7.45,5.32,22.69,4.31,46.82-.62,14.8-10.25,30.72-11.58,44.42-.51,5.29,1.05,22.84.03,37.31-.98,13.92-5.16,34.09-6.83,50.24-8.72,82.35,1.11,106.06-7.9,180.16,12.36-6.97,10.43,53.44,19.77,51.85,0,0,12.56,0,12.56,0ZM413.81,349.12c.5-25.47-2.12-25.55-4.38-10.37l4.38,10.37ZM406.29,693.6c-5.4,1.89-13.78-46.54-10.71-81.2,1.48-16.75,5.35-19.27,4.06-47.64,7.38-13.36,12.86-50.22,19.2-76.62-5.34-23.66-3.57-17.53-4.97-58.35-.29-8.34.32-16.14-.62-24.99-.62-5.85-5.24-17.42-5.7-14.2.86,33.39-3.83,39.01-6.18,60.8-.35,11.76,5.7,36.92,3.84,66.64-.45,7.21-5.68,37.55-6.88,41.98-3.1,11.52-8.01,14.53-9.35,42.04-1.12,23.02,2.07,31.09,2.09,48.67.02,15.13-3.92,48.46-4.08,57.86-.23,13.12,2.15,45.36,1.09,63.8,7.44-16.66,16.33-5.54,20.22,42.76,1.65,20.54,1.62,41.66,3.33,60.96,2.08.62.31-27.6,1-32.71,7.32-9.79,9.97,20.89,7.63,65.05-.98,18.39-.77,18.36-3.92,23.71,1.48,9.85,5.74,39.97,7.75,38.64,6.32-28.58,13.84-23.31,20.5-3.36-4.14-48.98-1.38-46.68-2.66-90.27-3.62-10.51-7.52-20.51-10.96-33.39-2.96-11.07-7.93-40.37-10.4-47.43-7.81-10.05-17.79-36.53-14.27-102.72ZM277.57,448.71c-.15-20.58-2.45-43.2-5.64-45.64-1.52,25.83,3.25,32.03,5.64,45.64ZM374.79,713.45c-1.47-36.07-.02-58.95,3.13-87.54-3.46-38.43-5.89-65.8-.55-104.02-5.9-31.42-4.86-53.08-1.85-93.93-4.28-2.44-11.99,53.1-11.89,76.27.1,21.55,2.43,34.45-.31,60.94-1,9.72-5.57,36.44-7.26,39.43-2.57,4.56-3.23-6.54-5.65-6.53.88,21.39-2.63,25.68-3.58,34.45-.54,40.52-10.25,29.1-14.66,38.01-1.5,28.18-6.21,83.97-10.99,89.21-6.65,7.28-12.64-5.7-17.23-37.14l-1.57,83.05-6.01,19.25c1.52,22.69-4.37,89.28.66,92.72l-.63-24.82c3.31-12.24,9.62-8.7,9.46,22.57-.09,18.3-2.79,34.03-1.61,52.05,4.6-57.39,13.26-19.73,19.3-25.62,1.16-1.13,12.77-34.43,14.12-39.82,1.83-7.3,1.81-19.24,3.3-27.92-1.92-7.36-3.25-23.04-5.64-22.86l.44-8.24,2.06-6.21c-5.57-68.56,1.48-86.3,10.38-97.88,2.92-.93,8.28,20.39,6.28,41.9-.46,4.9-7.95,20.85-4.74,35.32,1.47,6.59,3.65-2.17,5.21-1.31,3.3,1.83,8.75,27.17,11.43,40.74,1.89,9.6,3.28,28.03,5.98,28.9.08-46.15-9.11-70.7-6.08-119.08l8.49-51.89ZM326.68,510.11c-.82-9.46,1.09-39.71-2.85-44.24-1.87,15.68-5.75,12.85-7.59,20.57-1.08,4.53-1.82,20.21-3.17,28.85-5.38,34.42-8.4,2.54-13.81,8.37-4.11,4.43-9.09,59.91-8.98,85.84.03,7.16,1.73,14.39,2.11,25.73.27,8.05.61,47.28.17,51.73-.44,4.41-1.41,4.87-1.77,9.91-1.96,27.5.32,22.97,1.51,34.19.76,7.2,1.42,23.81,1.61,33.05,2.12,3.29.99-15.59,1.4-26,.18-4.58,1.5-29.35,1.69-30.29l5.06-1.86c-1.89-25.77-1.31-65.45.31-91.25,1.27-20.15,2.76-8.24,3.98-13.07.89-3.49.45-28.9,1.03-36.86.1-1.33,3.01-19.93,3.23-20.33,9.09-.54,15.83,77.34,4.63,99.36-.56,5.38,4.14,15.92,5.02,12.36.07-.27-.69-6.27-.05-10.26.23-1.44,4.93-23.16,5.23-23.96,1.37-3.68,2.68-1.56,3.78-4.06,1.53-3.46,3.63-21.56,6.11-19.84-3.92-20.89-1.14-41.51-2.08-61.11-.32-6.65-5.94-19.58-6.57-26.84ZM580.77,474.01c-2.19-3.31-7.2,11.71-5.32,28.96l6.63,7.98-1.31-36.94ZM280.72,618.84c2.12-6.62,1-26.53,1.28-39.21.22-9.8,1.75-17.32.94-27.03-3.06-23.86-7.45-37.09-11.63-49.93-.7,22.15,2.23,20.36,4.34,31.43,3.19,16.77,3.65,59.35,5.08,84.74ZM602.49,535.86c-4.23-3.08-9.18,2.26-13.5,0,2.76,69.01-8.93-6.59-9.94,42.97,4.29,29.69,2.79,47.96-1.71,69.12-.54,7.09,2.57,29.96,3.8,33.17,2,5.22,4.28,2.05,6.13,5.13,7.2,12.01,11.36,30.98,19.64,24.19,1.65-1.35.82-9.01,1.72-15.74,1.07-8.05,4-10.98,5.15-22.17.66-6.42,2.35-72.17,2.21-80.26-.55-30.54-9.52-53.52-13.49-56.41ZM438.93,560.71l-1.56-16.53c-.96,27.14-5.22,16-5.34,41.46,6,2.08,11.04,19.36,10.68,62.21.11.73,2.1-.81,3.12,2.17,1.84,5.38,3.61,34.33,3.15,47.68-1.44,9.65-13.26-27.59-14.27-38.5-.47-5.13,0-14.44-1.05-20.04-1.18-6.3-6.15-7.38-7.89-14.22-1.35-5.32-2.14-25.64-5.04-22.66,1.36,24.17.03,39.03-3.1,52.26,2.69,102.12,12.58,128.63,24.86,166.95,6.56,26.58,5.25,48.53,8.7,71.12,7.93,23.71,8.24,78.95,10.03,129.02-3.05,18.35-12.08,20.54-15.77,24.27-4.71-.01-11.87-45.89-17.18-5.83,2.57,8.86,3.68,44.32,4.95,53.38,1.13,8.11,5.7,4.57,4.78,40.22-1.63,19.33-8.75-2.99-10.39-14.65-1.43-10.21-3.01-46.06-3.91-50.92-4.21-8.77-5.97-4.85-9.88-30.1-2.37,68.72-.39,70.98,0,130.48-.3,12.39-2.72,17.21-3.06,26.07-.83,21.04,3.08,32.99-3.43,51.71-5.19,14.96-11.21-20.07-8.24-50.36.78-7.97,2.95-16.07,3.29-23.87.91-20.86,1.4-56.84,1.37-78.02,1.38-35.92.53-21.48-3.07-41.9-.18-1.87-2.38-39.47-2.41-41.69-.17-10.66,1.81-35.19,3.85-34.35l.38-8.54-3.75-12.52c-1.42,14.82-1.35,33.61-2,47-.95,19.59-6.79-2.93-7.37-28.74-1.69-76.08,4.68-64.75,12.49-95.06-4.89-6.59-8.11-36.2-4.39-64.26-5.33-1.69-8.43,43.41-10.68,68.37-1.12,6.98-3.24,3.95-4.07,10.44-2.9,26.88-4.19,100.61-11.87,91-3.16-2.44-5.59-26.64-8.25-16.59-4.08,15.41-.98,42.85-1.05,64.65-.13,42.05-5.98,69.86-10.34,29.79-2.58-23.64-2.5-53.11-.77-79.25,2.8-29.72,5.69-68.62,11.87-68.9-2.51-53.29-7.76-20.07-13.81-33.17.53,14.39-1.64,46.33-3.17,55.82-.68,4.18-15.64,48.23-16.91,50.05-4.32,6.18-14.7-9.9-16.57-1.73-2.84,12.39-2.25,50.82-5.4,59.76,2.26,19.49,6.85,14.9,6.22,47.4-4.63,13.55-8.91-4.62-12.82-20.3-2.28,12.52-1.35,32.29-1.65,49.08-3.84,14.27-6.89-5.88-7.4-31.13-.14-7.03.6-27.26.24-30.65-7.53-31.01-6.19-7.76-12.54-66.22-2.59,19.94-3.33,46.77-7.54,25.88-.84.04-5.44,35.84-8.1,20.39l-2.8,27.09c1.45,25.6,6.8,36.89,4.94,67.68,11.54,6.84,7.93,56.06,11.27,101.9.28,2.49,6.28,41.41,6.69,42.93,2.69,9.99,6.85,3.29,9.3,29.78,2.7,29.23-1.48,41.76-2.12,64.17-1.19,41.62,1.84,82.57-1.28,118.08,2.81-6.94,4.82,10.46,6.64,12.46,3.24,3.57,7.77-25.8,11.08-34.35,4-10.34,10.27-6.65,12.7-28.11.54-22.54,6.87-68.98,7.09-85.44.24-18.06-3.16-34-2.99-57.27.09-12.64,3.87-87.42,5.01-94.8,3.45-22.48,14.03,13.32,17.62-17.5-1.52-24.25-4.87,8.5-8.52-5.92-5.53-21.87-.5-57.43,4.12-64.87,1.24-2,7.33,6.05,8.64,9.64,4.01,11.04,7.88,60.48,4.56,86.16-.96,7.43-6.07,27.75-7.62,32.65-3.13,9.93-12.07,17.68-11.28,49.68,4.46,15.19,4.19,77.47,3.19,106.39l1.58,3.83c.77-.12,3.6-37.91,4.65-43.58,3.22-12.1,4.84-3.86,5.77-30.4.11-.53.73,3.51,1.04,2.53.32-17.71,4.79,1.59,5.38.48.87-.44,1.71-8.47,3.21-7.6,1.66.97,5.21,20.39,4.04,32.78-5.79,19.7-6.91,6.75-9.87,57.48-.6,21.92,2.22,39.34-1.69,67.26-5.05,36.08-15.37-59.09-21.55-49.04-1.02,43.67-1.34,74.19-9.5,70,1.32,18.72-4.55,75.48-6.56,83.26-2.46,9.57-3.04-2.12-5.12-4.31-2.32-2.45-13.89,12.06-15.58,20.18l-2.88,56.54c8.49-.27,9.27,6.01,11.27,54.11,8.05,11.15,8.17,6.95,12.23,56.12,8.33,29.4,6.11,86.68,1.65,130.01,1.78,16.35,7.25,13.3,8.46,31.7.52,7.87-.9,47.12.92,62.07,1.74,11.75,1.21-33.58,1.38-38.54,1.31-38.18,5.6-12.89,8.19-41.73,9.28-37.51,8.07-27.23,16.79-15.14-.15-18.45,1.66-39.29,1.68-56.79.03-27.18-7.52-54.94-11.3-46.28-1.36,3.13-2.99,34.81-7.12,35.59-1.2.23-7.79-23.77-9.03-29.87-3.73-18.39-2.23-83.39-.8-109.41,1.64-29.75,6.26-24.03,9.64-31.71,8.06-45.28,15.38-18.28,22.57,18.5,1.85-24.36-1.27-46.86.08-70.05,3.76,7.31,3.84-12.89,5.9-17.13.39-.8-.03,13.27,1.56,8.3-1.04-14.06-2.57-24.7-1.38-40.94l-1.13-2.57c1.85-23.94,8.48-18.64,10.05-24.85.45-1.78,3.8-46.82,5.61-58.34,2.22-14.14,8.58-34.16,11.5-30.13,3.38,7.65,10.66,32.12,13.3,49.18.44,4.24,1.68,28.35,1.52,34.04-.45,16-4.62,30.43-5.56,46.7l6.27-2.13c-2.08-34.22,3.77-67,8.15-45.62,1.24-30.83,5.79-40.8,9.1-58.19,9.51-61.1,15.63-74.11,26.92-21.07,7.34-36.64,5.7-61.61,6.18-112.86.52-11.54,5-28.85,5.98-43.45,1.42-21,.67-56.75,2.05-79.79-1.63,6.57-3.63,2.32-5.16,4.91-4.9,18.71-4.16,19.79-10.14,20.65-.81,1.67-2.16,23.23-4.34,19.6-6.15-29.96-5.38-22.63-1.95-57.16.35-3.53,1.54-9.24.56-12.9-1.92,19.07-5.59,24.65-7.84,39.46-3.5,23-1.42,45.42-7.86,43.91-3.89-.92-7.38-23.21-8.77-46.08-1.49-24.61.09-30.78.94-53.93,8.07,10.63,4.28,44.73,9.39,30.97.7-2.03,8.35-41.46,8.64-44.53.54-23.31,3.21-42.23,6.72-48.93l1.61,12.73c-.33-30.66,7.01-25.1,8.49-8.37.75,8.53,1.03,41.23-.32,49.82,11.87,7.58,21.83-119.77,23.74-185.72.4-19.36-1.9-37.43-1.78-60.92.26-51.26,7.48-99.83,5.66-155.82l-7.53,29.08,1.88,16.49c-3.53,12.31-4.46-11.14-7.54-12.49l.61-7.99c-11.86-14.94-17.39-57.52-13-138.17.7-12.84,4.21-38.08,3.33-48.79-.21-2.5-6.49-33.1-6.9-33.94-4.81-9.82-9.57,33.82-14.78,6.84-1.35-6.97-.39-6.54.6-6.13ZM482.26,606.36c-1.25-13.1-1.9-26.14-2.19-41.44-1.15,8.81-.89,18.45-2.83,22.78l5.02,18.65ZM536.25,569.08c-4.08,7.01-1.42,21.71-7.78,13.52-2.1,1.46-2.1,18.33-6.49,8.14-1.43-3.31-3.12-16.08-3.71-16.86-.98-1.28-2.59,9.18-3.82,10.85-2.77,3.8-6.19-1.3-9.11,6.2-3.37,8.67-5.82,39.7-9.2,49.31,1.25,26.01-.9,28.86-4.46,28.43-1.04,31.43,2.96,41.83,2.53,72.61-.35,25.56-3.69,35.13-3.81,38.17-.38,10.25.24,27.66-.04,40.32-.17,7.7-2.11,41.24-1.83,43.82,3.58,8.62,9.07-10.25,8.8,29.15,3.2-19.75,5.88-14,9.51-14.71,3.02-.59,5.24-13.45,6.82,18.86,2.69-31.2,9.49,6.11,10.91,3.84,1.12-1.79.98-20.18,3.8-20.64,3.61-.59,6.43,11.15,9.13,25.1.5-11.72-2.08-14.05-2.37-17.48-1.19-32.18-.58-41.21,3.62-59.29.01-2.57-3.41-13-2.51-36.5.31-8.1,5.09-13.61,5.66-23.6-4.47-16.59-6.5-54.5-6.91-87.21h3.14c-.84-22.81,2.49-27.89,2.95-47.89-3.08-17.36-5.62-34.76-4.84-64.16ZM656.76,701.48c-.65-23.47-2.78-20.67-4.57-29.27-3.78-18.15-5.93-53.86-9.19-76.22-5.35-7.51-11.09-5.17-11.92,37.77-.43,22.21,2.19,25.34,2.4,42.22-1.71,42.12-.41,21.24-4.33,40.23-1.74,14.1-.25,34.19-4.01,44.04-1.39,3.63-5.41,8.01-6.96,8.34-10.13,2.15-21.45-1.23-30.8-29.29-2.29-.99-6.25,16.39-9.07,14.38-2.63,16.38.38,26.77.99,43.31,2.46,73.37-8.99,93.71-3.77,136.96,2.84,27.67,7.94,52.8,11.87,73.58,6.46-3.63,7.5-61.71,11.65-79.39,2.44-10.37,6.36-5.31,8.13-12.64,1.6-6.63,1.21-32.17,6.25-33.41.78-.19,9.32,29.14,8.83,43.82,2.77-19.79,7.13-36.97,11.25-22.49,1.25,4.38,3.35,26.89,4.47,25.02l6.91-50.74c-1.34-51.73-5.93-19-12.94-55.34-1.01-6.74-3.2-37.25-2.51-45.9,1.25-15.69,12.95-16.54,15.03-7.81,1.14,4.79,1.22,18.09,2.88,16.16,1.28-32.13,5.33-64.43,9.38-83.35ZM476.43,636.67c-7.29-32.35-12.8,31.75-14.25,73.26l3.97,8.2,4.63-32.99c4.77,3.7,8.27.15,12.57,17.79,1.03,5.53.63,26.94,2.67,23.79.07-23.21-3.6-35.76-5.63-51.94-1.13-9.03-2.91-32.61-3.96-38.12ZM291.35,947.08c-6-16.4-4.5-59.41-5.68-93.3-1.65-31.07-3.43-57.06-2.45-91.36-2.22-31.41-4.51-70.06-1.5-104.03l-1.63-22.9c.16,19.72-3.4,26.34-5.66,33.26,1.49,17.9,3.11,42.48,2.38,63.33-.17,4.76-4.5,38.04-5.17,40.56-1.25,4.64-2.12,4.41-3.48,3.99-1.87,76.63-2.56,55.88,5.91,112.24,1.43,13.89,1.04,32.4,3.85,32.69.89.09,2.39-4.99,2.7-3.57,1.66,25.15,6.35,36.76,8.57,61.88l2.15-32.79ZM313.99,647.95c-3.36-2.94-5.69,39.45-3.44,53.86l1.68-42.78,1.76-11.08ZM562,726.79c-7.19-.97-3.83,21.19-5.18,46.68-.66,12.46-3.23,17.51-3.48,20.53-.39,4.72-.04,16.07-.43,24.19-.32,6.76-2.67,25.65-2.22,28.89l6.56-20.92c1.84-34.85.25-72.48,4.74-99.38ZM901.67,789.04c-.86-1.89-3.93,5.75-3.13,8.22.86,1.89,3.93-5.75,3.13-8.22ZM951.75,864.66c-.31-2.1-2.14-3.42-3.02-6.97-6.01-24.04-5-13.96-11.42-19.98-5.77-5.77-13.52-19.99-19.54-28.28-.62.66-.56,10.52-1.42,12.44-2,4.47-3.24-13.64-5.23-1.64-1.11,6.73-1.49,20.14-2.55,28.93-1.09,9-7.07,42.56-5.65,51.86,4.37-4.34,6.55,23.24,10.73,6.02,2.61,1.2,5.09,22.57,5.41,23.02,3.33,4.68,4.25-14.86,4.59-33.18,4.27-.47,8.17,37.93,7.54,64.1-.32,13.08-2.52,16.32-3.68,25.73-1,8.15-1.95,32.55-2.98,34.14-3.54,3.67-8.42-46.21-10.06-48.34-2.7-3.5-8.04,25.6-11.52-5.03-2.75,23.28-1.04,48.41-.72,73.08.51,39.01-.26,70.72,5.51,96.38,4.74,21.09,5.91,3.85,10.58.67,16.47-11.57,12.2,42.56,16.63,31.01,4.49-33.62,2.52-33.33,1.96-70.71.33-27.15,13.36-38.06,15.59-62.45-3.16-27.04-2.63-49.68,1.58-68.11,2.21-19.04-.5-26.6-.89-43.73,0-31.74,1.06-29.35-1.44-58.96ZM1018.93,823.17c-1.7-9.53-3.16.98-4.71,2.22-5.2,4.16-11.11,5.14-15.86-11.53.16,12.83-.57,16.43-2.43,17.14l-.45,20.74c-3.34,5.45-6.31,11.69-9.68,3.69,2.36,13.61,3.1,45.62.07,55.7.1,10.27,1.07,18.23.42,32.64-.44,9.8-3.35,19.38-3.94,27.97-.45,6.47.4,18.92.1,22.94-.4,5.23-1.63,4.83-1.7,8.39-.18,10.08,2.08,27.61,1.98,41.1-.1,13.49-1.59,15.29-2.11,23.9-1.55,25.69-1.41,47.09-1.72,73.68l1.24-4.24c-.11,30.89,4.99,3.24,8.41,4.45,10.42,4.88,17.14,43.35,12.37,113.38,2.42,5.33,3.77,48.44,5.91,48.48,1.42.02,3.72-28.28,6.6-16.87-1.46-16.44.96-57.91,2.69-69.41.35-2.34,7.18-20.3,7.76-20.67,1.56-1.01,4.31,7.71,5.87,11.25-2.74-49.43,6.72-84.27,13.23-76.97,11.86,5.29,19.33,111.74,29.07,93.94,4.6-65.51,2.03-29.12-.2-90.2-.11-15.25,1.55-21.45.95-34.88-4.34-10.49-9.18,2.93-13.77-4.24-13.94-22.32-17.8-46.21-25.2-124.09-7.27,92.87-17.25,97-31.37,82.73-8.81-3.5-19.1,34.08-16.03-57.93,5.37,11.15,10.81-.8,16.03-.21,7.15.82,10.19,17.34,17.88-5.94,3.16-9.57,8.75-55.65,8.05-77.94-.69-22.01-9.49-55.28-9.46-89.21ZM757.89,855.41c-4.87,2.03-8.45,2.64-11.62-24.9-1.94,11.72-.04,61.05,1.27,70.47,1.26,9.09,6.01,8.53,7.84,8.32-1.64-23.76,2.01-33.22,2.51-53.9ZM601.7,976.76c-1.41,8.7-2.2,42.59-4.61,58.69-6.68,44.52-13.16,14.06-18.77-20.25-6.34-38.78-10.51-86.78-14.41-137.11-3.07-9.16-5.23,9.45-8.15,10.72.17,23.48,1.97,36.8-.66,57.81,3.83,3.39,3.78,18.49,1.88,37.33,2.94,9.35,6.09,29.75,4.66,54.25,6.32,14.94,13.46,14.95,16.72,59.78,4.03,20.67,13.58,24.73,14.84,66.71-3.23,28.57-7.49,2.63-10.92-5.48-7.62,2-9.51-38.99-11.46-57.06-10.72-14.13-12.68-26.52-17.57-90.27-.17-1.73-4.5-26.49-4.81-26.87-5.13,9.61-7.69-7.93-12.51-13.61-4.7-1.73-9,21.37-14.1-8.1-.6,4.93,6.77,85.53.36,83.05-2.63-1.02-4.29-30.79-8.52-16.64,1.51-34.2-1.19-56-4.09-82.93-1.65,16.43-4.19,30.72-7.41,23.98-.96-2.01-1.36-10.74-2.64-11.64-1.64-1.15-4.65,8.57-6.53,8.74-.39,13.13.37,29.77-.19,42.31-.4,8.81-2.51,13.78-2.88,22.44-.06,41.43-1.09,49.63-7.64,47,1.2,98.07-5.31,193.06-11.04,281.86-1.24,14.34-3.92,9.42-4.74,15.31s-4.02,59.16-3.45,63.96c9.38,19.84,20.04,52.52,18.51,129.68,2.4,17.88,6.43,7.3,7.35-13.63.46-10.32-.57-21.1.22-39.71,1-23.6,2.69-22.73,3.83-33.84.77-7.52.97-26.22,2.03-33.27,2.29-15.37,8.29-9.19,9.56,11.3,5.9-16.47-9.18-58.19,4.16-192.41,3.12-26.22,8.63-11.44,8.72,20.06.12,42.2-5.81,62.59-5.09,103.99.34,19.57,2.29,13.08,4.62,19.48,3.52,9.67,10.54,36.72,13.58,51.32,1.6,7.69,4.35,33.87,6.31,37.3s9.66-9.46,12.31-10.79c9.38-4.7,12.77-7.74,21.68,14.41,2.48,6.17,4.66-4.48,6.02,22.25,2.15,42.13-4.3,59.13-4.72,74.01,3.91,59.71-.15,76.28-3.17,116.18-.13,4.99,2.27,19.09.77,42.04-.72,11.1-2.41,4.99-3.69,8.95-3.93,12.17-8.74,60.08-9.29,88.1-.68,35.14,6.5,71.54,5.55,111.36,7.45-42.43,5.71-56.36,16.46-73.75,4.62-13.96,3.96-25.03,6.44-48.76,3.92-37.54,5.73-59.21,9.03-98.01,2.27-26.64,9.46-67.21,10.78-90.98.71-12.78-1.56-33.51,1.58-51.43,5.12-29.23,9.34,5.77,12.22,5.77,1.33,0,2.58-9.42,3.91-11.23,2.36-3.23,4.96,1.96,7.36-4.66,4.04,48.37,4.9,11.45,8.34.54,1.56-4.93,4.86-4.4,5.1-5.74,1.6-29.08,2.66-31.67,6.74-48.79,4.53-43.27,1.8-98.17,12.81-87.55-4.81-22.18-7.25-40.68-5.6-82.67l1.54-.08c1.61-28.77-.6-32.89-1.91-54.15-1.59-25.85-2.72-51.48-4.39-78.85-2.69-43.91.44-100.56-1.69-146.5-.67-14.42-6.59-22.49-6.02-66.1.2-15.46,1.78-16.51,1.75-17.62-.25-8.55-2.84-24.16-1.89-39.49-.96-.35-.77,8.1-1.55,12.53-4.43,28.11-14.53,47.23-15.46-3.85-4.76-2.15-4.2,3.28-9.04-12.68-1.19-.19-4.86,11.02-7.56,10.22-2.43-.73-6.91-13.23-9.56,3.09ZM888.48,984.03c-.56-21.57-1.53-45.83-.48-67.59.47-9.92,6.34-35.08,5.51-40.3-7.01,28.94-8.12,23.41-9.27,80.43l4.25,27.46ZM891.62,1141.72c-3.9-61.7,9.57-98.81-1.87-145.24,2.06,33.67-.85,36.55-2.37,56.95-1.69,22.56.61,75.89,4.24,88.29ZM1081.85,1208.09c3.77-40.11.66-60.47-2.18-95.39-4.07,31.18,3.45,49.93.93,93.29l1.25,2.1ZM995.22,1199.87c-3.48-6.27-10.48-15.17-11.93,12.36,4.07-3.05,6.62,24.06,9.41,37.38l2.52-49.74ZM980.15,1249.6c.03-9.41.34-18.91-.94-24.79l-.92,6.07.61,18.77,1.25-.05ZM1072.45,1270.41c-7.09,10.13-11.85-20.12-17.57-41.54,1.69,28.19,1.4,55.28,5.08,76.32,4.43,25.33,4.35-1.59,6.36-7.18,2.69-7.48,4.62-.77,6.13-27.61ZM939.34,1428.05c-.8,12.8.22,23.47,1.57,33.12l2.18-22.5-3.75-10.62ZM386.19,1535.99l-5.65,24.79,2.2,8.29,3.45-33.08ZM881.36,1587.22c-10.16-42.76-2.11-49.5-12.33-47.07l6.6,24.8c3.35,20.41,1.11,55.3,7.84,45.68.44-2.54-1.69-20.59-2.1-23.41ZM390.59,1585.77l-.31-20.75c-1.05,5.8-1.83,11-1.57,20.71l1.88.04ZM682.54,1631.39c-8.66-4.29-4.07,35.57-6.29,63.15-1.99,24.63-14.33,4.68-17.25-9.22-3.42-21.24-2.4-27.2-7.25-22.48-3.58-5.33-1.7-28.76-8.27-13.59-8.32,19.23-7.72,70.03-18.23,59.91-4.23-4.06-7.31-31.24-10.99-20.68-3.63,10.43-2.72,25.8-3.59,42.69-2.08,43.79-5.53,77.22-5.51,121.24-1.09,29.55-8.87,86.01-9.75,113.96-1.56,61.75,3.88,14.69,10.18,26.33,4.59,4.77,6.15,46.19,12.21,24.13.79-8.29-1.77-30.76.78-50.91,2.1-16.59,9.81-13.37,12.62-6.56,1.04,2.52,1.39,18.26,1.86,20.11.47,1.86,3.65-3.14,6.49,12.9,4.31,24.38.85,45.1,1.82,66.55.94,20.98,5.56,20.9,6.59,56.28,1.3,44.46-1.7,69.96-5.59,103.27,4.53,24.31,9.1,37.86,11.1,77.02l2.71-.17c-1.74-34.81,5.64-41.95,6.77-54.79,1.31-21.8-3.54-62.29,3.28-69.8-1.33-27.56-.61-72.19-.65-101.34.25-47.01,4.28-46.55,6.56-77.37.82-11.05,1.19-28.23,1.94-41.1.39-6.67,2.09-18.81,2.04-22.87-4.42-27.25-4.97-80.25.79-103.79-3.07-27.54-5.5-45.82-3.62-81.93.76-14.59,8.75-60.07,11.78-57.05-3.15-13.85-2.57-31.08-2.51-53.91ZM482.88,1743.46c-2.37,14.91-14.21-12.89-12.22,12.23.66,13.9,2.49,29.3,1.24,45.87-1.3,17.26-10.91-1.49-13.94,1.22-2.2,3.36-10.18,16.11-9.61,36.1,2.61-3.8,3.65,23.57,2.69,36.39-1.16,15.55-11.67,20.56-11.37,39.6.07,4.64,1.54,28.97,2.62,27.36,6.84-34.33,11.8-7.48,9.83,46.04,3.42-2.98,5.56-30.39,8.74-35.52,7-11.3,8.69,28.8,14.38-21.19,6.78-59.58,3.54-123.53,7.64-188.08Z"/>
      <path class="cls-1" d="M914.67,292.27c.15,1.1,1.86,24.59,1.93,26.58,1.93,54.83-4.44,36.66-5.86,50.85-1.27,12.75.74,73.01-4.96,79.28l-3.17,28.84c12.77-17.75,23.38-69.41,35.04-104.55,11.22-33.83,23.1-55.06,34.71-81.88l-1.01,12.05,3.14,4.12c-9.86,25.8-20.26,45.27-29.93,74.01-10.26,30.48-20.28,78.26-30.53,105.3-3.67,9.68-13.67,20.77-15.72,28.88-3.71,58.82-13.56,14-20.84,12.23-3.78-30.35-3.5-71.04,1.89-91.82,6.47-24.96,8.27,4.23,12.88,29.15-2-55.66,1.04-59.85,8.16-74.92-.32-21.24-4.21-47.42-1.92-68.58,1.64-15.12,11.09-20.9,13.55-37.63.37-.13,2.36,5.93,2.65,8.08Z"/>
      <path class="cls-1" d="M169.76,165.4c-.86-7.16-.53-18.98-1.1-23.9-.78-6.74-3.62-2.33-4.72-10.3l-2.84-26.94c4.2-26.09,8.55,3.31,13.46-.28l1.61-28.67c2.66,17.89,8.28-8.13,8.51,31.11.09,49.27-8.53,99.84-14.93,58.97Z"/>
      <polygon class="cls-1" points="901.66 660.37 901.67 668.63 899.16 668.61 899.16 664.55 901.66 660.37"/>
      <path class="cls-1" d="M381.9,1062.23c-.12-12.93-3.44-10.8-3.87-24.2,3.65-5.75,4.9-8.74,6.89,14.49l-3.03,9.71Z"/>
    </g>
  </g>
</svg>