<?xml version="1.0" encoding="UTF-8"?>
<svg id="Ebene_1" data-name="Ebene 1" xmlns="http://www.w3.org/2000/svg" viewBox="0 0 551.78 275.92">
  <defs>
    <style>
      .cls-1 {
        fill: #fff;
      }
    </style>
  </defs>
  <path d="M164.99,150.79c1.41.18,4.35,1.3,5.84,1.84,7.24,2.62,12.77,7.29,17.19,13.51,2.6-7.4,6.63-13.99,13.04-18.63,27.8-20.13,64.15,6.69,53.55,39.66-.61,1.89-1.99,3.42-2.04,5.36l4.78,1.94c3.81-17.6,28.2-19.34,34.09-2.42,10.66-2.42,22.53,1.29,27.59,11.52,1.21,2.44,2.22,8.76,3.07,9.89.41.54,3.58,2.32,4.57,3.11,1.2.95,2.2,2.33,3.38,3.34,3.49-15.77,20.15-24.31,34.62-15.92,3.42,1.99,7.19,5.33,8.32,9.2,1.25,1.18,1.67-3.97,1.88-4.59,6.17-17.65,28.93-20.93,40.33-6.45-5.59-12.63.17-28.42,13.94-32.38,21.52-6.18,38.77,18.18,24.92,35.97-9.36,12.01-26.76,11.51-36.45.25,3.2,8.61,2.46,17.87-3.6,24.97-8.85,10.37-25.35,10.4-34.5.42-.49-.54-3.48-5.52-4.13-4.75-.06,7.79-6.76,15.81-13.92,18.47-8.52,3.17-17.47,1.46-24.24-4.54-.65-.58-2.48-3.45-3.1-2.89-1.17,9.56-9.75,17.67-19.17,18.98-2.4.33-4.8-.08-6.95.25-3.37.52-5.84,2.63-10.04,2.32-13.5-1.01-21.11-15.94-14.35-27.55-4.33-4.18-7.09-9.13-7.85-15.14-2.75-.75-5.71.01-8.09-1.88l-.63.79c-.38,5.56-2.92,10.84-7.03,14.57-12.64,11.45-31.7,5.52-37.02-10.13-4.93,1.83-8.93,2.98-14.32,2.43-10.14-1.02-18.16-9.75-19.44-19.67-5.28,7.49-11.69,13.48-20.73,15.97-27.37,7.54-51.45-17.56-42.73-44.67,2.16-6.7,6.21-11.02,10.69-16.18-17.86-2.69-23.35-26.45-8.13-36.52.13-.9-3.28-5.02-3.97-6.59-.94-2.13-1.21-4.18-1.78-6.38-4.03-1.38-7.95-2.61-10.85-5.94-4.31,6.17-8.87,11.43-15.45,15.26-27.91,16.22-62-4-62.09-35.86C5.67,76.8-9.25,44.22,6.21,19.31,26.58-13.53,77.49-2.25,82.21,36.31c.18,1.47-.52,4.14.68,5.08.55.43,6.56,1.87,8.09,2.47,11.24,4.44,21.02,14.94,23.87,26.77,13.15-7.28,29.23.33,30.93,15.38,15.88,3.45,22.99,21.76,11.77,34.3-.79.88-3.38,2.02-3.37,3.37,0,.53,2.86,3.96,3.46,5.19,2.45,4.98,2.65,10.69.89,15.95-.74,2.2-2.29,3.81-2.9,5.98,2.96.26,6.47-.36,9.36,0ZM37,1.63C.78,5.84-11.38,53.42,18.93,73.7c30.81,20.61,69.92-7.61,60.27-43.5C74.37,12.2,55.59-.53,37,1.63ZM45.99,82.15c-3.15.28-6.64-.2-9.84,0-.44,24.81,22.78,43.48,47.03,38.65,14.66-2.92,26.98-14.32,30.56-28.95,5.5-22.47-8.76-44.85-31.52-48.58-.47,15.06-10,28.92-23.57,35.22-3.54,1.64-8.79,3.32-12.66,3.66ZM144.11,85.99c-.79-12.07-16.24-20.84-26.72-14.49-2.92,1.77-.72,5.97-.61,8.95.09,2.39-.18,5.76-.55,8.13-.65,4.26-2.56,8.14-3.56,12.28.73,1.78,8.91,6.2,9.85,5.3.37-11.69,9.99-20.42,21.59-20.16ZM155.94,119.42c18.07-18.43-11.76-44.75-27.65-24.54-14.29,18.18,11.64,40.88,27.65,24.54ZM153.1,150.65c2.16-1.71,4.6-7.95,4.87-10.72.43-4.42-1.49-12.54-5.45-15.1-1.36-.88-4.09,1.21-5.81,1.44-6.21.86-11.69-.6-16.75-4.12-12.35,7.36-11.68,25.8,1.26,32.18,7.8,3.85,9.06.8,15.78-1.85,1.51-.6,5.08-1.03,6.09-1.83ZM251.07,191.54c3.81-8.59,5.12-17.24,2.2-26.36-6.87-21.48-33.55-29.68-51.54-16.04-12.31,9.34-15.96,25.2-10.59,39.56.77.17.98-.27,1.45-.71,1.67-1.54,3.03-3.9,5.03-5.52,12.19-9.88,31.26-4.18,35.28,11,.73.63,4.26-1.37,5.27-1.64,4.33-1.18,8.51-.77,12.9-.3ZM153.58,152.34c-15.87,2.06-28,17.09-28,32.85,0,31.02,39.33,44.94,58.82,21.03,2.68-3.29,6.29-10.7,6.27-14.88,0-1.21-1.71-4.35-2.18-6-1.49-5.26-1.87-10.64-.86-16.02-6.49-12.36-20.31-18.77-34.06-16.98ZM421.24,176.51c-20.48,19.6,9.63,49.82,29.49,30.7s-8.85-50.45-29.49-30.7ZM225.01,184.1c-23.43-19.05-48.97,18.73-24.24,33.6,22.54,13.55,43.59-17.87,24.24-33.6ZM275.57,214.62c.37-8.04,3.75-15.03,10.41-19.59,3.35-2.29,5.93-1.32,2.07-6.56-8.35-11.36-26.78-7.04-29.23,6.75,3.06,3.67,5.82,6.65,7.3,11.35.51,1.63.73,5.15,1.56,6.12,1.18,1.39,6.07,2.08,7.9,1.93ZM224.81,218.08c3.33,18.91,30.13,22.08,38.56,4.73,9.18-18.89-11.61-37.82-29.42-27.28.84,8.61-1.54,17.65-9.13,22.55ZM319.72,212.23c-.84-11.86-11.5-20.33-23.26-19.19-16.48,1.59-24.68,21.21-14.56,34.23.84,1.08,5.45,5.92,6.63,5.12,1.49-15.61,16.33-25.05,31.19-20.16ZM382.27,231.74c22.75,20.53,51.3-17.41,26.09-33.54-22.34-14.3-44.91,16.55-26.09,33.54ZM368.97,209.52c-10.94-12.16-31.98-7.79-36.44,8.09-1.81,6.43.43,6.45,1.46,11.79.7,3.62-.22,4.61,2.52,8.04,8.39,10.49,25.15,9.67,33.35-.71,5.95-7.53,5.53-20.05-.9-27.2ZM308.58,212.84c-18.58,2.24-24.77,26.73-9.93,37.98,11.69,8.86,29.7,3.23,33.4-11.14,3.89-15.09-8.07-28.7-23.48-26.85ZM284.7,232.87c-5.72,11.63,1.92,24.86,15.13,24.5.83-.02,6.73-.56,4.2-1.84-6.54-3.31-10.96-5.73-13.8-13.07-.69-1.78-1.45-6.88-1.94-7.66-.19-.31-3.34-2.11-3.59-1.92Z"/>
  <path d="M422.7,115.47c.15.11.17.47.26.67l.56.04c16.21-11.86,40.4-3.15,43.99,16.85,3.46-.99,6.64-2.54,10.32-2.87s9.65,1.26,11.95.95c.88-.12,2.87-1.69,4.13-2.15,8.56-3.13,17.62-1.47,23.49,5.76,4.32,5.32,4.88,10.84,4.33,17.51,17.12-9.18,36.2,8.22,28.16,26.02-8.81,19.51-37.8,13.62-38.63-8.5-.02-.51,1.22-5.19-.33-4.55-.25.1-3.23,1.78-3.37,1.92-.66.69-1.56,3.8-2.25,4.95-9.83,16.69-33.75,18.64-45.96,3.44-2.99-3.73-4.25-7.89-6.02-12.23-12.3,6.52-28.68,2.77-36.05-9.16-1.52-.22-2.56,1.05-3.88,1.35-19.59,4.5-35.1-15.95-25.46-33.63,7-12.84,23.4-14.77,34.75-6.36ZM423.19,148.22c19.94-20.35-11.77-51.02-31.26-29.12-18.11,20.35,12.39,48.37,31.26,29.12ZM418.56,153.2c11.93,18.35,40.97,13.89,46.89-7.1s-13.06-38.86-33.43-32.48c-1.23.39-7.49,3-7.2,4.27,10.2,10.41,6.94,29.19-6.25,35.32ZM499.55,129.33c-23,2.21-20.35,37.41,2.71,36.83,24.42-.61,23.83-39.38-2.71-36.83ZM505.41,167.59h-6.96c-.53,0-4.9-1.6-5.7-1.98-10.13-4.84-13.99-17.99-8.72-27.81.5-.94,3.95-4.8,3.62-5.25-6.76-2.06-13.43-.58-19.59,2.47.85,11.48-3.91,20.71-12.87,27.51,2.3,10.62,10.07,19.09,20.92,21.16,12.27,2.34,24.88-4.32,29.29-16.11ZM530.26,151.4c-2.69.19-7.9,1.65-9.71,3.74-.8.93-1.35,2.74-2.28,3.96-3.55,4.66-5.63,5.37-5.18,12.08,1.11,16.38,22.15,23.2,32.61,10.56,10.42-12.59.75-31.46-15.44-30.33Z"/>
  <path d="M514.52,244.39c6.88,16.64-7.07,34.68-25.05,31.05-6.65-1.34-11.41-4.74-14.86-10.58-8.08-13.67-.2-31.1,15.43-33.45-.52-4.18-1.81-7.32-1.37-11.69,1.94-19.51,27.35-27.21,39.75-12.05,11.27,13.77,3.25,33.83-13.91,36.71ZM492.04,230.88c9.18-.48,17.34,4.1,21.84,12.02,17.87-2.63,24.73-25.72,10.2-37.11-17.29-13.55-40.63,5.36-32.04,25.09ZM480.74,237.47c-19.9,16.76,1.85,46.62,23.85,33.7,24.98-14.65-.85-53.08-23.85-33.7Z"/>
  <path d="M181.9,105.31c26.27-3.58,31.88,33.76,8.29,39.49-27.83,6.76-34.84-35.87-8.29-39.49ZM183.84,106.76c-23.86,1.66-22.13,38.36,2.73,36.81,23.91-1.49,21.66-38.51-2.73-36.81Z"/>
  <path class="cls-1" d="M37,1.63c18.59-2.16,37.37,10.57,42.2,28.57,9.64,35.89-29.46,64.11-60.27,43.5C-11.38,53.42.78,5.84,37,1.63Z"/>
  <path class="cls-1" d="M45.99,82.15c3.87-.34,9.11-2.01,12.66-3.66,13.58-6.3,23.1-20.16,23.57-35.22,22.77,3.73,37.02,26.11,31.52,48.58-3.58,14.62-15.9,26.02-30.56,28.95-24.24,4.83-47.46-13.84-47.03-38.65,3.19-.2,6.68.28,9.84,0Z"/>
  <path class="cls-1" d="M153.58,152.34c13.75-1.79,27.57,4.62,34.06,16.98-1.01,5.38-.63,10.76.86,16.02.46,1.65,2.17,4.78,2.18,6,.03,4.18-3.59,11.59-6.27,14.88-19.49,23.91-58.83,9.99-58.82-21.03,0-15.76,12.13-30.78,28-32.85Z"/>
  <path class="cls-1" d="M251.07,191.54c-4.39-.47-8.57-.88-12.9.3-1,.27-4.54,2.28-5.27,1.64-4.02-15.18-23.09-20.88-35.28-11-2.01,1.63-3.36,3.98-5.03,5.52-.47.44-.68.88-1.45.71-5.36-14.36-1.72-30.23,10.59-39.56,18-13.64,44.67-5.44,51.54,16.04,2.92,9.12,1.61,17.77-2.2,26.36Z"/>
  <path class="cls-1" d="M421.24,176.51c20.64-19.75,49.43,11.49,29.49,30.7s-49.96-11.1-29.49-30.7Z"/>
  <path class="cls-1" d="M382.27,231.74c-18.82-16.99,3.76-47.84,26.09-33.54,25.21,16.14-3.34,54.08-26.09,33.54Z"/>
  <path class="cls-1" d="M308.58,212.84c15.4-1.86,27.37,11.76,23.48,26.85s-21.71,20-33.4,11.14c-14.84-11.25-8.65-35.74,9.93-37.98Z"/>
  <path class="cls-1" d="M368.97,209.52c6.42,7.14,6.85,19.66.9,27.2-8.21,10.39-24.96,11.21-33.35.71-2.74-3.43-1.82-4.42-2.52-8.04-1.03-5.34-3.27-5.36-1.46-11.79,4.46-15.88,25.5-20.25,36.44-8.09Z"/>
  <path class="cls-1" d="M225.01,184.1c19.35,15.73-1.7,47.16-24.24,33.6-24.73-14.87.81-52.65,24.24-33.6Z"/>
  <path class="cls-1" d="M224.81,218.08c7.59-4.9,9.97-13.95,9.13-22.55,17.81-10.53,38.6,8.4,29.42,27.28-8.43,17.35-35.23,14.18-38.56-4.73Z"/>
  <path class="cls-1" d="M155.94,119.42c-16.01,16.34-41.94-6.36-27.65-24.54,15.89-20.22,45.71,6.11,27.65,24.54Z"/>
  <path class="cls-1" d="M153.1,150.65c-1.02.8-4.58,1.23-6.09,1.83-6.72,2.65-7.98,5.7-15.78,1.85-12.94-6.38-13.61-24.82-1.26-32.18,5.06,3.52,10.54,4.97,16.75,4.12,1.71-.24,4.45-2.32,5.81-1.44,3.97,2.56,5.88,10.68,5.45,15.1-.27,2.77-2.71,9.01-4.87,10.72Z"/>
  <path class="cls-1" d="M319.72,212.23c-14.86-4.89-29.71,4.55-31.19,20.16-1.18.8-5.79-4.04-6.63-5.12-10.12-13.03-1.92-32.65,14.56-34.23,11.76-1.13,22.42,7.33,23.26,19.19Z"/>
  <path class="cls-1" d="M144.11,85.99c-11.6-.25-21.22,8.48-21.59,20.16-.94.9-9.12-3.52-9.85-5.3,1-4.13,2.91-8.02,3.56-12.28.36-2.37.64-5.74.55-8.13-.11-2.98-2.31-7.18.61-8.95,10.48-6.35,25.93,2.42,26.72,14.49Z"/>
  <path class="cls-1" d="M275.57,214.62c-1.83.16-6.72-.53-7.9-1.93-.82-.97-1.04-4.49-1.56-6.12-1.48-4.71-4.24-7.68-7.3-11.35,2.45-13.79,20.88-18.11,29.23-6.75,3.85,5.24,1.27,4.28-2.07,6.56-6.66,4.56-10.04,11.54-10.41,19.59Z"/>
  <path class="cls-1" d="M284.7,232.87c.25-.18,3.39,1.62,3.59,1.92.49.78,1.25,5.88,1.94,7.66,2.84,7.35,7.26,9.77,13.8,13.07,2.53,1.28-3.36,1.82-4.2,1.84-13.21.36-20.85-12.87-15.13-24.5Z"/>
  <path class="cls-1" d="M418.56,153.2c13.19-6.13,16.45-24.91,6.25-35.32-.29-1.27,5.97-3.88,7.2-4.27,20.37-6.37,39.21,11.99,33.43,32.48s-34.96,25.45-46.89,7.1Z"/>
  <path class="cls-1" d="M423.19,148.22c-18.87,19.26-49.37-8.77-31.26-29.12,19.49-21.9,51.2,8.77,31.26,29.12Z"/>
  <path class="cls-1" d="M505.41,167.59c-4.42,11.79-17.03,18.45-29.29,16.11-10.85-2.07-18.63-10.53-20.92-21.16,8.96-6.8,13.73-16.04,12.87-27.51,6.16-3.05,12.83-4.53,19.59-2.47.33.45-3.12,4.31-3.62,5.25-5.27,9.81-1.41,22.97,8.72,27.81.8.38,5.17,1.98,5.7,1.98h6.96Z"/>
  <path class="cls-1" d="M499.55,129.33c26.54-2.55,27.13,36.22,2.71,36.83-23.06.58-25.71-34.63-2.71-36.83Z"/>
  <path class="cls-1" d="M530.26,151.4c16.19-1.13,25.85,17.74,15.44,30.33-10.46,12.64-31.5,5.83-32.61-10.56-.45-6.71,1.62-7.42,5.18-12.08.93-1.22,1.48-3.03,2.28-3.96,1.81-2.09,7.02-3.55,9.71-3.74Z"/>
  <path class="cls-1" d="M480.74,237.47c23-19.37,48.83,19.05,23.85,33.7-22.01,12.91-43.75-16.94-23.85-33.7Z"/>
  <path class="cls-1" d="M492.04,230.88c-8.59-19.73,14.74-38.64,32.04-25.09,14.53,11.39,7.67,34.48-10.2,37.11-4.49-7.92-12.65-12.5-21.84-12.02Z"/>
  <path class="cls-1" d="M183.84,106.76c24.39-1.7,26.64,35.33,2.73,36.81-24.86,1.55-26.59-35.15-2.73-36.81Z"/>
</svg>