<?xml version="1.0" encoding="UTF-8"?>
<svg id="Ebene_1" data-name="Ebene 1" xmlns="http://www.w3.org/2000/svg" viewBox="0 0 551.78 275.92">
  <defs>
    <style>
      .cls-1, .cls-2 {
        fill: #fff;
      }

      .cls-2 {
        stroke: #000;
        stroke-miterlimit: 10;
        stroke-width: 1.5px;
      }
    </style>
  </defs>
  <path d="M164.99,150.79c1.41.18,4.35,1.3,5.84,1.84,7.24,2.62,12.77,7.29,17.19,13.51,2.6-7.4,6.63-13.99,13.04-18.63,27.8-20.13,64.15,6.69,53.55,39.66-.61,1.89-1.99,3.42-2.04,5.36l4.78,1.94c3.81-17.6,28.2-19.34,34.09-2.42,10.66-2.42,22.53,1.29,27.59,11.52,1.21,2.44,2.22,8.76,3.07,9.89.41.54,3.58,2.32,4.57,3.11,1.2.95,2.2,2.33,3.38,3.34,3.49-15.77,20.15-24.31,34.62-15.92,3.42,1.99,7.19,5.33,8.32,9.2,1.25,1.18,1.67-3.97,1.88-4.59,6.17-17.65,28.93-20.93,40.33-6.45-5.59-12.63.17-28.42,13.94-32.38,21.52-6.18,38.77,18.18,24.92,35.97-9.36,12.01-26.76,11.51-36.45.25,3.2,8.61,2.46,17.87-3.6,24.97-8.85,10.37-25.35,10.4-34.5.42-.49-.54-3.48-5.52-4.13-4.75-.06,7.79-6.76,15.81-13.92,18.47-8.52,3.17-17.47,1.46-24.24-4.54-.65-.58-2.48-3.45-3.1-2.89-1.17,9.56-9.75,17.67-19.17,18.98-2.4.33-4.8-.08-6.95.25-3.37.52-5.84,2.63-10.04,2.32-13.5-1.01-21.11-15.94-14.35-27.55-4.33-4.18-7.09-9.13-7.85-15.14-2.75-.75-5.71.01-8.09-1.88l-.63.79c-.38,5.56-2.92,10.84-7.03,14.57-12.64,11.45-31.7,5.52-37.02-10.13-4.93,1.83-8.93,2.98-14.32,2.43-10.14-1.02-18.16-9.75-19.44-19.67-5.28,7.49-11.69,13.48-20.73,15.97-27.37,7.54-51.45-17.56-42.73-44.67,2.16-6.7,6.21-11.02,10.69-16.18-17.86-2.69-23.35-26.45-8.13-36.52.13-.9-3.28-5.02-3.97-6.59-.94-2.13-1.21-4.18-1.78-6.38-4.03-1.38-7.95-2.61-10.85-5.94-4.31,6.17-8.87,11.43-15.45,15.26-27.91,16.22-62-4-62.09-35.86C5.67,76.8-9.25,44.22,6.21,19.31,26.58-13.53,77.49-2.25,82.21,36.31c.18,1.47-.52,4.14.68,5.08.55.43,6.56,1.87,8.09,2.47,11.24,4.44,21.02,14.94,23.87,26.77,13.15-7.28,29.23.33,30.93,15.38,15.88,3.45,22.99,21.76,11.77,34.3-.79.88-3.38,2.02-3.37,3.37,0,.53,2.86,3.96,3.46,5.19,2.45,4.98,2.65,10.69.89,15.95-.74,2.2-2.29,3.81-2.9,5.98,2.96.26,6.47-.36,9.36,0ZM37,1.63C.78,5.84-11.38,53.42,18.93,73.7c30.81,20.61,69.92-7.61,60.27-43.5C74.37,12.2,55.59-.53,37,1.63ZM45.99,82.15c-3.15.28-6.64-.2-9.84,0-.44,24.81,22.78,43.48,47.03,38.65,14.66-2.92,26.98-14.32,30.56-28.95,5.5-22.47-8.76-44.85-31.52-48.58-.47,15.06-10,28.92-23.57,35.22-3.54,1.64-8.79,3.32-12.66,3.66ZM144.11,85.99c-.79-12.07-16.24-20.84-26.72-14.49-2.92,1.77-.72,5.97-.61,8.95.09,2.39-.18,5.76-.55,8.13-.65,4.26-2.56,8.14-3.56,12.28.73,1.78,8.91,6.2,9.85,5.3.37-11.69,9.99-20.42,21.59-20.16ZM155.94,119.42c18.07-18.43-11.76-44.75-27.65-24.54-14.29,18.18,11.64,40.88,27.65,24.54ZM153.1,150.65c2.16-1.71,4.6-7.95,4.87-10.72.43-4.42-1.49-12.54-5.45-15.1-1.36-.88-4.09,1.21-5.81,1.44-6.21.86-11.69-.6-16.75-4.12-12.35,7.36-11.68,25.8,1.26,32.18,7.8,3.85,9.06.8,15.78-1.85,1.51-.6,5.08-1.03,6.09-1.83ZM251.07,191.54c3.81-8.59,5.12-17.24,2.2-26.36-6.87-21.48-33.55-29.68-51.54-16.04-12.31,9.34-15.96,25.2-10.59,39.56.77.17.98-.27,1.45-.71,1.67-1.54,3.03-3.9,5.03-5.52,12.19-9.88,31.26-4.18,35.28,11,.73.63,4.26-1.37,5.27-1.64,4.33-1.18,8.51-.77,12.9-.3ZM153.58,152.34c-15.87,2.06-28,17.09-28,32.85,0,31.02,39.33,44.94,58.82,21.03,2.68-3.29,6.29-10.7,6.27-14.88,0-1.21-1.71-4.35-2.18-6-1.49-5.26-1.87-10.64-.86-16.02-6.49-12.36-20.31-18.77-34.06-16.98ZM421.24,176.51c-20.48,19.6,9.63,49.82,29.49,30.7s-8.85-50.45-29.49-30.7ZM225.01,184.1c-23.43-19.05-48.97,18.73-24.24,33.6,22.54,13.55,43.59-17.87,24.24-33.6ZM275.57,214.62c.37-8.04,3.75-15.03,10.41-19.59,3.35-2.29,5.93-1.32,2.07-6.56-8.35-11.36-26.78-7.04-29.23,6.75,3.06,3.67,5.82,6.65,7.3,11.35.51,1.63.73,5.15,1.56,6.12,1.18,1.39,6.07,2.08,7.9,1.93ZM224.81,218.08c3.33,18.91,30.13,22.08,38.56,4.73,9.18-18.89-11.61-37.82-29.42-27.28.84,8.61-1.54,17.65-9.13,22.55ZM319.72,212.23c-.84-11.86-11.5-20.33-23.26-19.19-16.48,1.59-24.68,21.21-14.56,34.23.84,1.08,5.45,5.92,6.63,5.12,1.49-15.61,16.33-25.05,31.19-20.16ZM382.27,231.74c22.75,20.53,51.3-17.41,26.09-33.54-22.34-14.3-44.91,16.55-26.09,33.54ZM368.97,209.52c-10.94-12.16-31.98-7.79-36.44,8.09-1.81,6.43.43,6.45,1.46,11.79.7,3.62-.22,4.61,2.52,8.04,8.39,10.49,25.15,9.67,33.35-.71,5.95-7.53,5.53-20.05-.9-27.2ZM308.58,212.84c-18.58,2.24-24.77,26.73-9.93,37.98,11.69,8.86,29.7,3.23,33.4-11.14,3.89-15.09-8.07-28.7-23.48-26.85ZM284.7,232.87c-5.72,11.63,1.92,24.86,15.13,24.5.83-.02,6.73-.56,4.2-1.84-6.54-3.31-10.96-5.73-13.8-13.07-.69-1.78-1.45-6.88-1.94-7.66-.19-.31-3.34-2.11-3.59-1.92Z"/>
  <path d="M422.7,115.47c.15.11.17.47.26.67l.56.04c16.21-11.86,40.4-3.15,43.99,16.85,3.46-.99,6.64-2.54,10.32-2.87s9.65,1.26,11.95.95c.88-.12,2.87-1.69,4.13-2.15,8.56-3.13,17.62-1.47,23.49,5.76,4.32,5.32,4.88,10.84,4.33,17.51,17.12-9.18,36.2,8.22,28.16,26.02-8.81,19.51-37.8,13.62-38.63-8.5-.02-.51,1.22-5.19-.33-4.55-.25.1-3.23,1.78-3.37,1.92-.66.69-1.56,3.8-2.25,4.95-9.83,16.69-33.75,18.64-45.96,3.44-2.99-3.73-4.25-7.89-6.02-12.23-12.3,6.52-28.68,2.77-36.05-9.16-1.52-.22-2.56,1.05-3.88,1.35-19.59,4.5-35.1-15.95-25.46-33.63,7-12.84,23.4-14.77,34.75-6.36ZM423.19,148.22c19.94-20.35-11.77-51.02-31.26-29.12-18.11,20.35,12.39,48.37,31.26,29.12ZM418.56,153.2c11.93,18.35,40.97,13.89,46.89-7.1s-13.06-38.86-33.43-32.48c-1.23.39-7.49,3-7.2,4.27,10.2,10.41,6.94,29.19-6.25,35.32ZM499.55,129.33c-23,2.21-20.35,37.41,2.71,36.83,24.42-.61,23.83-39.38-2.71-36.83ZM505.41,167.59h-6.96c-.53,0-4.9-1.6-5.7-1.98-10.13-4.84-13.99-17.99-8.72-27.81.5-.94,3.95-4.8,3.62-5.25-6.76-2.06-13.43-.58-19.59,2.47.85,11.48-3.91,20.71-12.87,27.51,2.3,10.62,10.07,19.09,20.92,21.16,12.27,2.34,24.88-4.32,29.29-16.11ZM530.26,151.4c-2.69.19-7.9,1.65-9.71,3.74-.8.93-1.35,2.74-2.28,3.96-3.55,4.66-5.63,5.37-5.18,12.08,1.11,16.38,22.15,23.2,32.61,10.56,10.42-12.59.75-31.46-15.44-30.33Z"/>
  <path d="M514.52,244.39c6.88,16.64-7.07,34.68-25.05,31.05-6.65-1.34-11.41-4.74-14.86-10.58-8.08-13.67-.2-31.1,15.43-33.45-.52-4.18-1.81-7.32-1.37-11.69,1.94-19.51,27.35-27.21,39.75-12.05,11.27,13.77,3.25,33.83-13.91,36.71ZM492.04,230.88c9.18-.48,17.34,4.1,21.84,12.02,17.87-2.63,24.73-25.72,10.2-37.11-17.29-13.55-40.63,5.36-32.04,25.09ZM480.74,237.47c-19.9,16.76,1.85,46.62,23.85,33.7,24.98-14.65-.85-53.08-23.85-33.7Z"/>
  <path class="cls-1" d="M37,1.63c18.59-2.16,37.37,10.57,42.2,28.57,9.64,35.89-29.46,64.11-60.27,43.5C-11.38,53.42.78,5.84,37,1.63Z"/>
  <path class="cls-1" d="M45.99,82.15c3.87-.34,9.11-2.01,12.66-3.66,13.58-6.3,23.1-20.16,23.57-35.22,22.77,3.73,37.02,26.11,31.52,48.58-3.58,14.62-15.9,26.02-30.56,28.95-24.24,4.83-47.46-13.84-47.03-38.65,3.19-.2,6.68.28,9.84,0Z"/>
  <path class="cls-1" d="M153.58,152.34c13.75-1.79,27.57,4.62,34.06,16.98-1.01,5.38-.63,10.76.86,16.02.46,1.65,2.17,4.78,2.18,6,.03,4.18-3.59,11.59-6.27,14.88-19.49,23.91-58.83,9.99-58.82-21.03,0-15.76,12.13-30.78,28-32.85Z"/>
  <path class="cls-1" d="M251.07,191.54c-4.39-.47-8.57-.88-12.9.3-1,.27-4.54,2.28-5.27,1.64-4.02-15.18-23.09-20.88-35.28-11-2.01,1.63-3.36,3.98-5.03,5.52-.47.44-.68.88-1.45.71-5.36-14.36-1.72-30.23,10.59-39.56,18-13.64,44.67-5.44,51.54,16.04,2.92,9.12,1.61,17.77-2.2,26.36Z"/>
  <path class="cls-1" d="M421.24,176.51c20.64-19.75,49.43,11.49,29.49,30.7s-49.96-11.1-29.49-30.7Z"/>
  <path class="cls-1" d="M382.27,231.74c-18.82-16.99,3.76-47.84,26.09-33.54,25.21,16.14-3.34,54.08-26.09,33.54Z"/>
  <path class="cls-1" d="M308.58,212.84c15.4-1.86,27.37,11.76,23.48,26.85s-21.71,20-33.4,11.14c-14.84-11.25-8.65-35.74,9.93-37.98Z"/>
  <path class="cls-1" d="M368.97,209.52c6.42,7.14,6.85,19.66.9,27.2-8.21,10.39-24.96,11.21-33.35.71-2.74-3.43-1.82-4.42-2.52-8.04-1.03-5.34-3.27-5.36-1.46-11.79,4.46-15.88,25.5-20.25,36.44-8.09Z"/>
  <path class="cls-1" d="M225.01,184.1c19.35,15.73-1.7,47.16-24.24,33.6-24.73-14.87.81-52.65,24.24-33.6Z"/>
  <path class="cls-1" d="M224.81,218.08c7.59-4.9,9.97-13.95,9.13-22.55,17.81-10.53,38.6,8.4,29.42,27.28-8.43,17.35-35.23,14.18-38.56-4.73Z"/>
  <path class="cls-1" d="M155.94,119.42c-16.01,16.34-41.94-6.36-27.65-24.54,15.89-20.22,45.71,6.11,27.65,24.54Z"/>
  <path class="cls-1" d="M153.1,150.65c-1.02.8-4.58,1.23-6.09,1.83-6.72,2.65-7.98,5.7-15.78,1.85-12.94-6.38-13.61-24.82-1.26-32.18,5.06,3.52,10.54,4.97,16.75,4.12,1.71-.24,4.45-2.32,5.81-1.44,3.97,2.56,5.88,10.68,5.45,15.1-.27,2.77-2.71,9.01-4.87,10.72Z"/>
  <path class="cls-1" d="M319.72,212.23c-14.86-4.89-29.71,4.55-31.19,20.16-1.18.8-5.79-4.04-6.63-5.12-10.12-13.03-1.92-32.65,14.56-34.23,11.76-1.13,22.42,7.33,23.26,19.19Z"/>
  <path class="cls-1" d="M144.11,85.99c-11.6-.25-21.22,8.48-21.59,20.16-.94.9-9.12-3.52-9.85-5.3,1-4.13,2.91-8.02,3.56-12.28.36-2.37.64-5.74.55-8.13-.11-2.98-2.31-7.18.61-8.95,10.48-6.35,25.93,2.42,26.72,14.49Z"/>
  <path class="cls-1" d="M275.57,214.62c-1.83.16-6.72-.53-7.9-1.93-.82-.97-1.04-4.49-1.56-6.12-1.48-4.71-4.24-7.68-7.3-11.35,2.45-13.79,20.88-18.11,29.23-6.75,3.85,5.24,1.27,4.28-2.07,6.56-6.66,4.56-10.04,11.54-10.41,19.59Z"/>
  <path class="cls-1" d="M284.7,232.87c.25-.18,3.39,1.62,3.59,1.92.49.78,1.25,5.88,1.94,7.66,2.84,7.35,7.26,9.77,13.8,13.07,2.53,1.28-3.36,1.82-4.2,1.84-13.21.36-20.85-12.87-15.13-24.5Z"/>
  <path class="cls-1" d="M418.56,153.2c13.19-6.13,16.45-24.91,6.25-35.32-.29-1.27,5.97-3.88,7.2-4.27,20.37-6.37,39.21,11.99,33.43,32.48s-34.96,25.45-46.89,7.1Z"/>
  <path class="cls-1" d="M423.19,148.22c-18.87,19.26-49.37-8.77-31.26-29.12,19.49-21.9,51.2,8.77,31.26,29.12Z"/>
  <path class="cls-2" d="M103.43,149.46c-18.87,19.26-49.37-8.77-31.26-29.12,19.49-21.9,51.2,8.77,31.26,29.12Z"/>
  <path class="cls-2" d="M198.37,172.99c-18.87,19.26-49.37-8.77-31.26-29.12,19.49-21.9,51.2,8.77,31.26,29.12Z"/>
  <path class="cls-2" d="M146.34,111.4c-23.35,23.82-61.07-10.85-38.67-36.02,24.11-27.1,63.34,10.85,38.67,36.02Z"/>
  <path class="cls-1" d="M505.41,167.59c-4.42,11.79-17.03,18.45-29.29,16.11-10.85-2.07-18.63-10.53-20.92-21.16,8.96-6.8,13.73-16.04,12.87-27.51,6.16-3.05,12.83-4.53,19.59-2.47.33.45-3.12,4.31-3.62,5.25-5.27,9.81-1.41,22.97,8.72,27.81.8.38,5.17,1.98,5.7,1.98h6.96Z"/>
  <path class="cls-1" d="M499.55,129.33c26.54-2.55,27.13,36.22,2.71,36.83-23.06.58-25.71-34.63-2.71-36.83Z"/>
  <path class="cls-1" d="M530.26,151.4c16.19-1.13,25.85,17.74,15.44,30.33-10.46,12.64-31.5,5.83-32.61-10.56-.45-6.71,1.62-7.42,5.18-12.08.93-1.22,1.48-3.03,2.28-3.96,1.81-2.09,7.02-3.55,9.71-3.74Z"/>
  <path class="cls-1" d="M480.74,237.47c23-19.37,48.83,19.05,23.85,33.7-22.01,12.91-43.75-16.94-23.85-33.7Z"/>
  <path class="cls-1" d="M492.04,230.88c-8.59-19.73,14.74-38.64,32.04-25.09,14.53,11.39,7.67,34.48-10.2,37.11-4.49-7.92-12.65-12.5-21.84-12.02Z"/>
  <path d="M28.72,52.4s-.05-.09-.05-.17l-1.54-.44-1.1-1.32.27-.27.99,1.21,1.32.39c-.07,0-.2-.15-.39-.44-.26-.4-.38-.84-.38-1.32,0-.44.09-.82.27-1.15.18-.33.42-.5.71-.5.37,0,.73.26,1.1.77.37.51.55,1.01.55,1.48,0,.33-.04.57-.11.72l.88-.6.44-1.65.33.11-.44,1.7-1.26.94c.11.22.17.35.17.39l1.15-.22.88-.55.17.27-.88.55-1.27.22.06.44,1.48.27.88,1.05-.33.22-.72-.88-1.32-.27c-.11,0-.18.06-.22.19-.04.13.04.23.22.3.18.11.33.31.44.6l.06.28c0,.15-.06.31-.17.49l.5.5.77.22-.06.27-.88-.22-.5-.55c-.15.11-.31.17-.5.17-.04.04-.15.02-.33-.06l-.27.66-.66.6-.17-.17.66-.55.17-.66c-.11-.07-.2-.17-.27-.3-.07-.13-.11-.23-.11-.3v-.17c0-.22.04-.4.11-.55.11-.15.14-.28.08-.39-.06-.11-.14-.17-.25-.17l-1.21.77-.33,1.16-.33-.06.33-1.32,1.32-.83-.22-.38-1.27.27-1.1-.22.06-.38,1.15.22,1.16-.27s-.02-.07-.06-.11ZM30.48,23.2l1.32.94.55,1.65-.38.17-.5-1.54-1.1-.83c.07.04.15.22.22.55.11.48.02,1.03-.27,1.65-.29.62-.66.94-1.1.94-.33,0-.6-.2-.83-.6-.22-.4-.33-.84-.33-1.32,0-.29.05-.57.16-.82.11-.33.24-.53.39-.6l-1.1.27-.99,1.38-.28-.27,1.05-1.43,1.54-.38c-.07-.15-.09-.27-.05-.39l-1.1-.22-1.04.22-.06-.33,1.04-.22,1.21.27c0-.15.04-.29.11-.44l-1.32-.83-.38-1.26.33-.11.38,1.04,1.16.77h.05c.11,0,.18-.05.22-.16.04-.11,0-.22-.11-.33s-.17-.31-.17-.6.11-.55.33-.77l-.22-.66-.66-.44.11-.27.77.55.27.71c.18-.07.35-.07.49,0,.07,0,.17.06.28.17l.49-.55.88-.27.05.22-.82.27-.39.5c.11.15.17.37.17.66s-.13.53-.38.71c-.15.11-.21.22-.19.33.02.11.08.18.19.22l1.38-.28.71-.93.27.16-.77,1.1-1.54.33s.06.17.06.39l1.32.22.94.6-.22.33-.94-.6-1.21-.17c.04.18.04.29,0,.33ZM30.75,43.49l1.32.94.55,1.65-.33.17-.5-1.54-1.1-.82c.07.04.15.22.22.55.11.48,0,1.03-.3,1.65-.31.62-.69.94-1.13.94-.33,0-.6-.2-.8-.6-.2-.4-.3-.86-.3-1.38,0-.18.04-.42.11-.71.15-.37.29-.59.44-.66l-1.1.27-.99,1.38-.27-.22.99-1.49,1.54-.38-.06-.39-1.1-.22-1.04.22-.06-.33,1.05-.22,1.21.27.17-.44-1.32-.83-.44-1.26.33-.11.38,1.1,1.16.72.06.05c.11,0,.19-.06.25-.19.06-.13,0-.25-.14-.36-.11-.11-.17-.31-.17-.6s.13-.55.38-.77l-.27-.66-.66-.44.11-.22.77.5.27.72c.18-.07.35-.07.5,0,.07,0,.14.02.19.05.06.04.1.07.14.11l.44-.55.88-.27.11.22-.88.28-.33.49.11.66c0,.29-.13.53-.38.71-.11.11-.17.22-.17.33s.06.18.17.22l1.43-.27.66-.99.33.22-.83,1.1-1.48.33s.06.17.06.39l1.32.22.94.6-.22.33-.99-.6-1.15-.17c0,.15-.02.26-.06.33ZM31.19,32.88l1.6.49.99,1.38-.27.28-.94-1.32-1.32-.44c.11.04.24.18.38.44.18.26.27.66.27,1.21,0,.44-.09.84-.27,1.21-.18.37-.42.55-.71.55-.4,0-.77-.26-1.1-.77-.33-.51-.5-1.01-.5-1.49,0-.37.06-.62.17-.77l-.94.55-.49,1.65-.33-.17.49-1.71,1.32-.82-.17-.39-1.1.17-.94.5-.17-.27.94-.5,1.27-.17-.06-.44-1.48-.33-.83-1.1.33-.22.72.88,1.32.38c.11,0,.18-.06.22-.19.04-.13-.04-.25-.22-.36-.18-.07-.31-.27-.39-.6-.04-.04-.05-.11-.05-.22,0-.15.05-.33.17-.55l-.44-.5-.77-.22.05-.33.88.27.5.6c.11-.11.27-.17.5-.17.04-.04.15-.02.33.06l.27-.66.71-.5.17.11-.71.55-.22.6c.11.11.2.23.28.36.07.13.11.23.11.3v.11c0,.07-.06.27-.17.6-.11.15-.14.27-.08.39.06.11.14.17.25.17l1.27-.72.33-1.15.33.05-.38,1.32-1.32.77s.06.1.08.19c.02.09.05.16.08.19l1.27-.22,1.16.27-.11.38-1.15-.27-1.16.22.06.33ZM38.86,55.46c-.05.02-.12,0-.19-.03l-.94,1.38-1.59.6-.17-.38,1.48-.55.77-1.1c-.04.07-.2.15-.5.22-.11.04-.26.06-.44.06-.55,0-1.06-.14-1.54-.41-.48-.27-.7-.61-.66-1.02,0-.33.21-.6.63-.8.42-.2.87-.3,1.35-.3.33,0,.57.02.72.06.33.15.53.27.6.38l-.27-1.04-1.43-.94.22-.27,1.48.94.5,1.54c.15-.07.27-.09.38-.06l.17-1.15-.27-.99.33-.11.27,1.04-.22,1.27.44.05.72-1.32,1.26-.44.11.33-1.04.44-.72,1.15v.06c0,.11.06.18.17.22.11.04.22-.02.33-.17.22-.11.44-.17.66-.17.29,0,.55.11.77.33l.6-.28.44-.66.27.11-.5.77-.71.33c.07.07.1.17.08.27-.02.11-.03.18-.03.22s-.02.08-.06.14c-.04.06-.09.1-.17.14l.6.49.27.83-.17.11-.33-.82-.55-.39c-.15.11-.37.17-.66.17-.22,0-.44-.11-.66-.33-.11-.11-.23-.17-.36-.17s-.21.06-.25.17l.38,1.38.94.66-.17.33-1.1-.77-.38-1.48s-.17.05-.39.05l-.17,1.32-.6.99-.33-.22.6-.99.11-1.21s-.08,0-.14.03ZM50.91,55.32c-.05.04-.1.04-.14,0l-.6,1.54-1.38.99-.27-.33,1.32-.88.5-1.27c0,.07-.15.18-.44.33-.29.18-.64.27-1.05.27-.48,0-.91-.1-1.29-.3-.38-.2-.58-.47-.58-.8,0-.37.25-.72.74-1.05.5-.33,1-.49,1.51-.49.4,0,.7.09.88.27l-.55-.99-1.6-.55.17-.39,1.65.6.77,1.38.39-.16-.06-1.1-.5-.94.28-.17.49.94.06,1.27c.11-.04.21-.05.3-.03.09.02.16.03.19.03l.38-1.49,1.16-.71.17.27-.94.66-.44,1.32c0,.11.06.18.19.22.13.04.25-.04.36-.22.07-.15.29-.26.66-.33h.17c.15,0,.33.06.55.17l.55-.38.28-.77.27.05-.33.83-.55.5c.07.07.11.24.11.5l-.11.33.66.33.5.72-.17.17-.5-.77-.6-.22c-.11.11-.24.2-.38.27-.15.07-.24.09-.27.06-.26.04-.5-.02-.72-.17-.11-.11-.23-.15-.36-.11-.13.04-.19.11-.19.22l.66,1.27,1.1.44-.05.33-1.32-.44-.71-1.38-.33.11.11,1.32-.33,1.1-.39-.11.39-1.1-.22-1.21s-.08.02-.14.06Z"/>
  <path d="M120.69,100.92l1.38-.05,1.2.78-.14.28-1.15-.74-1.1.05c.06-.03.2.05.41.23.21.15.38.39.51.71.12.32.18.64.18.94,0,.37-.11.64-.32.83-.28.18-.65.11-1.13-.23-.48-.34-.77-.71-.9-1.1-.09-.31-.11-.52-.05-.64l-.6.74.09,1.43h-.32l-.09-1.47.78-1.06-.23-.23-.83.41-.55.69-.23-.18.6-.69.92-.46c-.09-.18-.14-.31-.14-.37l-1.29.18-.92-.64.18-.23.78.51,1.15-.09c.09-.06.13-.15.12-.25-.02-.11-.1-.16-.25-.16-.21-.06-.38-.2-.51-.41-.09-.15-.12-.35-.09-.6l-.51-.32-.64.05-.05-.23.74-.05.55.32c.09-.12.2-.21.32-.28.03,0,.08,0,.16-.02.08-.02.13,0,.16.02v-.6l.41-.64.18.09-.41.6.05.55c.31.21.46.35.46.41.06.15.09.35.09.6l-.05.09c0,.12.04.21.11.25.08.05.15.05.21.02l.74-.92v-1.01h.28l.05,1.1-.83,1.01.23.23.97-.55.97-.05v.32l-.92.09-.87.51.14.23ZM121.82,87.97s0,.1-.02.16l1.24.6.69,1.24-.28.18-.64-1.15-1.01-.51c.06,0,.15.12.28.37.09.18.14.41.14.69,0,.4-.09.78-.28,1.15-.18.37-.43.55-.74.55-.28,0-.54-.21-.78-.62-.25-.41-.37-.82-.37-1.22,0-.43.09-.72.28-.87l-.87.37-.6,1.29-.28-.14.64-1.33,1.2-.6c-.06-.12-.09-.21-.09-.28l-.97-.05-.83.37-.09-.28.83-.32,1.06.05c0-.21.02-.35.05-.41l-1.2-.46-.55-.97.28-.14.46.78,1.06.46c.09.03.16,0,.21-.12.05-.11,0-.21-.11-.3-.12-.09-.21-.28-.28-.55v-.09c0-.18.08-.35.23-.51l-.32-.51-.6-.28.05-.23.69.32.37.51c.18-.09.32-.11.41-.05l.28.09.28-.51.69-.37.09.18-.64.32-.23.51c.06.06.12.16.16.3.05.14.07.24.07.3,0,.12-.08.31-.23.55-.09.12-.12.23-.09.32.03.09.09.14.18.14l1.1-.46.41-.87.28.09-.46,1.01-1.24.51s.05.08.07.16c.02.08.04.13.07.16l1.1-.05.87.41-.14.28-.87-.37-1.01.05s0,.07.02.11ZM126.95,82.43l-.6,1.2-1.24.69-.18-.28,1.15-.6.51-1.01c0,.06-.12.14-.37.23-.18.09-.41.14-.69.14-.4,0-.78-.09-1.15-.28-.37-.18-.55-.43-.55-.74,0-.28.21-.54.62-.78.41-.25.82-.37,1.22-.37.46,0,.75.09.87.28l-.37-.83-1.29-.64.18-.28,1.29.64.6,1.2c.12-.06.23-.09.32-.09v-.92l-.32-.83.23-.09.32.83v1.01l.37.05.46-1.2,1.01-.51.09.28-.78.46-.46,1.06c-.03.09,0,.16.12.21.11.05.21,0,.3-.16.15-.15.34-.23.55-.23h.09c.18,0,.35.06.51.18l.51-.28.28-.64.23.09-.32.69-.51.32c.06.21.08.35.05.41,0,.12-.03.21-.09.28l.51.32.37.64-.18.14-.32-.64-.51-.23c-.09.06-.21.12-.35.16s-.22.05-.25.02c-.18,0-.37-.06-.55-.18-.09-.09-.19-.13-.3-.11-.11.02-.16.07-.16.16l.46,1.1.87.46-.09.28-1.01-.51-.51-1.2c-.06.06-.17.09-.32.09v1.1l-.37.87-.28-.14.37-.87-.05-1.01-.28.05ZM127.27,93.7l-1.01.92-1.43.18-.05-.32,1.33-.14.83-.78c-.06.06-.23.09-.51.09-.4,0-.81-.16-1.24-.48-.43-.32-.64-.65-.64-.99,0-.25.13-.44.39-.57.26-.14.56-.21.9-.21.46,0,.83.09,1.1.28s.43.34.46.46l-.05-.92-.97-1.06.23-.18,1.01,1.06.09,1.33h.37l.32-.87v-.87h.28v.92l-.41.97.37.14.83-.92,1.15-.14v.28l-.92.14-.78.83-.05.09c0,.09.04.16.11.21.08.05.18.02.3-.07.09-.09.29-.11.6-.05.21.06.38.2.51.41l.55-.09.51-.51.18.18-.55.51-.64.14c.03.12.02.26-.05.41l-.23.23.37.46.09.74-.18.05-.09-.74-.37-.37c-.12.03-.25.05-.37.05s-.21-.02-.28-.05c-.12-.06-.26-.2-.41-.41-.06-.12-.15-.19-.25-.21-.11-.02-.18.02-.21.11v1.2l.69.74-.18.18-.78-.83-.05-1.29c-.18,0-.29-.02-.32-.05l-.37,1.06-.69.69-.23-.23.69-.69.28-.97c-.09,0-.17-.01-.23-.05ZM128.72,104.02s.1,0,.16.02l.6-1.24,1.29-.69.18.28-1.2.64-.51,1.01c0-.06.14-.15.41-.28.18-.06.38-.09.6-.09.43,0,.83.09,1.2.28.37.18.55.43.55.74,0,.28-.21.53-.62.76s-.84.35-1.27.35-.71-.09-.83-.28l.37.87,1.29.6-.18.28-1.33-.64-.55-1.2c-.12.06-.23.09-.32.09v.97l.32.83-.28.09-.32-.83.05-1.06c-.18,0-.31-.02-.37-.05l-.46,1.2-1.01.55-.14-.32.83-.46.46-1.01c.03-.09,0-.17-.12-.23-.11-.06-.21-.02-.3.14-.09.15-.28.23-.55.23l-.09.05c-.15,0-.34-.08-.55-.23l-.46.28-.28.64-.28-.09.37-.69.51-.32c-.06-.21-.08-.35-.05-.41,0-.12.03-.21.09-.28l-.51-.32-.37-.64.18-.14.32.69.51.18c.09-.06.21-.11.34-.16.14-.05.22-.05.25-.02.15,0,.34.08.55.23.12.09.23.12.32.09.09-.03.14-.09.14-.18l-.46-1.1-.87-.46.09-.28,1.06.51.46,1.2c.15,0,.26-.03.32-.09v-1.1l.37-.87.32.14-.41.87.05,1.01s.07,0,.12-.02ZM134.9,85.37s-.06-.06-.09-.09l-1.38.09-1.24-.69.18-.32,1.1.69,1.15-.09c-.06.03-.2-.03-.41-.18-.21-.15-.41-.4-.58-.74-.17-.34-.25-.67-.25-1.01,0-.55.21-.83.64-.83.34,0,.68.14,1.04.41.35.28.59.58.71.92.12.31.15.51.09.6l.55-.74-.14-1.43h.32l.14,1.47-.74,1.1c.12.06.2.14.23.23l.83-.51.55-.69.18.18-.51.69-.92.51c.09.18.14.31.14.37l1.24-.23,1.01.6-.18.23-.83-.46-1.15.14c-.09.06-.12.15-.09.25.03.11.12.16.28.16.18,0,.35.12.51.37.12.18.17.38.14.6l.51.28.64-.05.09.23-.78.05-.55-.28c-.03.06-.08.12-.14.18s-.12.09-.18.09c-.09.09-.18.11-.28.05v.6l-.41.64-.14-.05.37-.64-.05-.55c-.09-.03-.19-.08-.3-.16-.11-.08-.18-.15-.21-.21-.09-.28-.12-.48-.09-.6v-.09c0-.12-.04-.21-.11-.25-.08-.05-.15-.05-.21-.02l-.69.97.05.97-.28.05-.09-1.1.78-1.06s-.12-.08-.28-.23l-.92.6-.97.14-.05-.37.97-.09.83-.55c0-.06-.02-.11-.05-.14ZM134.28,98.36s0-.1.02-.16l-1.15-.74-.51-1.33.28-.18.46,1.29.97.6c-.06,0-.12-.14-.18-.41-.03-.09-.05-.23-.05-.41,0-.43.12-.84.35-1.24.23-.4.5-.6.8-.6.28.03.51.22.69.58.18.35.28.74.28,1.17,0,.25-.03.41-.09.51-.09.31-.18.49-.28.55l.87-.23.78-1.24.23.23-.78,1.24-1.29.37c.06.18.09.31.09.37l.92.14.87-.23.05.23-.87.23-1.01-.18c-.06.25-.09.38-.09.41l1.1.6.41,1.06-.28.09-.37-.87-.97-.6h-.05c-.12,0-.2.05-.23.14-.03.09.02.18.14.28.12.12.18.31.18.55,0,.18-.09.4-.28.64l.23.51.55.37-.09.23-.64-.41-.28-.6c-.06.06-.14.08-.23.07-.09-.02-.15-.02-.18-.02l-.28-.14-.37.46-.69.28-.09-.18.69-.28.28-.41c-.09-.28-.14-.48-.14-.6,0-.18.09-.37.28-.55.12-.09.18-.19.16-.3-.02-.11-.07-.18-.16-.21l-1.15.32-.55.83-.23-.14.6-.97,1.24-.32-.05-.32-1.1-.14-.83-.46.18-.28.83.46,1.01.09s0-.07-.02-.12Z"/>
  <path d="M63.24,79.53s0,.11-.02.17l1.08.93.44,1.47-.34.15-.34-1.42-.93-.74c.13.07.2.29.2.69,0,.42-.15.87-.44,1.32-.29.46-.62.69-.98.69-.29,0-.52-.16-.69-.49-.16-.33-.25-.7-.25-1.13,0-.36.06-.65.2-.88.13-.29.26-.47.39-.54l-.98.2-.93,1.18-.25-.25.98-1.23,1.37-.29s0-.07-.02-.12c-.02-.05,0-.12.02-.22l-.98-.25-.93.15-.05-.29.93-.15,1.08.29.15-.39-1.13-.73-.29-1.18.29-.05.29.93.98.73h.05c.1,0,.16-.04.2-.12.03-.08,0-.19-.1-.32-.07-.07-.1-.21-.1-.44,0-.33.13-.57.39-.74l-.2-.64-.59-.39.15-.25.64.54.2.59c.13-.03.28-.02.44.05.06,0,.16.07.29.2l.44-.49.73-.2.1.2-.78.2-.34.44c.06.2.1.38.1.54,0,.26-.13.47-.39.64-.13.1-.19.2-.17.32.02.11.07.19.17.22l1.23-.2.69-.78.24.15-.78.93-1.32.2v.39l1.13.25.83.59-.2.29-.83-.64-1.08-.2s0,.07.02.12ZM64.49,89.7l1.47.1,1.18.93-.2.29-1.08-.88-1.23-.1c.07,0,.21.1.44.29.16.16.3.41.42.73.11.33.17.64.17.93s-.07.55-.2.76c-.13.21-.31.32-.54.32-.33,0-.68-.18-1.05-.54-.38-.36-.6-.74-.66-1.13-.1-.33-.11-.54-.05-.64l-.64.69-.05,1.52-.34-.05.05-1.57.93-1.03-.25-.29-.93.39-.64.69-.2-.25.64-.64,1.08-.44c-.1-.16-.15-.29-.15-.39l-1.37.05-.93-.74.25-.24.78.59,1.23.05c.1-.03.14-.11.12-.22-.02-.11-.11-.19-.27-.22-.2-.06-.34-.23-.44-.49-.13-.2-.15-.42-.05-.69l-.54-.34h-.69l-.05-.25h.83l.54.39c.1-.16.23-.25.39-.25.06-.06.16-.06.29,0l.1-.64.49-.64.2.1-.49.64-.05.54c.1.07.2.15.29.25s.16.2.2.29c.07.23.07.42,0,.59l-.05.15c0,.13.04.22.12.27.08.05.15.06.22.02l.88-.88.05-1.08h.29l-.05,1.23-.98.98.25.25,1.08-.49h1.03v.39h-1.03l-.98.44.15.24ZM70.88,97.49s-.09-.02-.12-.05l-1.22.78h-1.52l-.05-.34,1.42.05,1.03-.69c-.07.03-.25.03-.54,0-.39-.03-.78-.24-1.18-.61-.39-.38-.59-.74-.59-1.1,0-.49.36-.73,1.08-.73.26,0,.54.05.83.15s.52.21.69.34c.26.23.41.41.44.54l.1-.98-.88-1.27.29-.15.88,1.27-.1,1.42c.16,0,.28.02.34.05l.54-.83.1-.93.29.05-.15.93-.59.93c.2.1.33.18.39.25l1.03-.88,1.18.05v.34h-.98l-1.03.73v.1c0,.23.13.28.39.15h.2c.2,0,.34.03.44.1.2.1.34.26.44.49h.64l.59-.44.15.2-.64.44-.69.05c0,.2-.05.34-.15.44,0,.03-.08.1-.24.2l.34.54-.05.78-.2.05.05-.78-.34-.44h-.1c-.2,0-.39-.05-.59-.15-.2-.16-.33-.33-.39-.49-.03-.13-.11-.21-.22-.25-.11-.03-.2,0-.27.1l-.15,1.23.59.88-.25.2-.69-.98.2-1.37c-.16,0-.28-.03-.34-.1l-.59,1.03-.78.64-.24-.29.83-.59.49-.98s-.07-.05-.12-.05ZM77.79,67.14s-.11,0-.17-.02l-.74,1.27-1.32.69-.2-.29,1.27-.64.59-1.03c-.03.07-.18.15-.44.25-.2.07-.39.1-.59.1-.46,0-.88-.11-1.27-.32-.39-.21-.59-.48-.59-.81-.03-.29.16-.56.59-.81.42-.25.87-.37,1.32-.37.52,0,.85.11.98.34l-.34-.93-1.32-.69.2-.29,1.37.73.54,1.32c.13-.06.25-.1.34-.1l.05-1.03-.29-.88.25-.05.34.88-.1,1.08c.13,0,.26.03.39.1l.54-1.27,1.13-.49.1.29-.88.44-.54,1.08c-.03.13,0,.22.12.27.11.05.22,0,.32-.17.1-.1.31-.18.64-.25.2,0,.41.1.64.29l.54-.34.29-.59.25.05-.39.73-.54.34c.03.07.05.21.05.44l-.15.29.54.34.34.73-.2.1-.34-.73-.49-.25c-.2.13-.39.2-.59.2-.23,0-.42-.08-.59-.24-.13-.13-.25-.18-.34-.15-.1.03-.16.1-.2.2l.44,1.18.88.54-.1.29-1.08-.59-.44-1.32c-.07.07-.18.1-.34.1l-.05,1.18-.44.93-.29-.15.44-.93v-1.08s-.07,0-.12.02ZM83.35,96.71s.1-.05.2-.05l.29-1.42,1.13-1.03.24.24-1.08.93-.25,1.18c0-.07.11-.18.34-.34.36-.26.8-.39,1.32-.39.39,0,.72.07.98.22.26.15.39.35.39.61,0,.33-.22.66-.66,1-.44.34-.86.53-1.25.56h-.15c-.26,0-.44-.03-.54-.1l.64.78,1.47.29-.1.29-1.57-.29-.88-1.08c-.1.1-.2.15-.29.15l.24,1.03.54.74-.24.15-.54-.74-.25-1.13c-.13.07-.26.1-.39.1l-.2,1.32-.88.83-.2-.24.73-.74.2-1.18c0-.13-.07-.2-.2-.2s-.21.08-.25.24c-.1.16-.28.29-.54.39-.07.03-.15.05-.25.05s-.25-.03-.44-.1l-.44.44-.1.69h-.29l.2-.78.44-.49c-.13-.2-.2-.34-.2-.44,0-.13.02-.23.05-.29l-.59-.2-.54-.59.15-.15.49.59.59.1c.06-.1.15-.18.27-.25.11-.06.2-.11.27-.15h.2c.16,0,.31.03.44.1.13.07.25.07.34.02.1-.05.13-.12.1-.22l-.74-1.03-1.03-.25.05-.29,1.18.25.83,1.13s.08-.07.15-.1c.06-.03.11-.06.15-.1l-.29-1.13.15-1.03.34.1-.15.98.29,1.03s.06-.02.1-.05ZM87.37,70.64l-1.37.39-1.47-.44.1-.34,1.32.44,1.18-.34-.05.05-.44-.15c-.33-.13-.61-.39-.86-.78-.24-.39-.37-.77-.37-1.13,0-.49.24-.73.73-.73.36,0,.73.1,1.1.29.38.2.63.44.76.73.2.26.28.46.25.59l.39-.88-.44-1.47.34-.05.44,1.52-.54,1.27.34.2.73-.69.39-.83.25.15-.39.83-.83.73c.1.1.18.21.25.34l1.27-.54,1.13.39-.15.34-.93-.34-1.18.39s-.05.1-.05.2c0,.13.08.2.24.2.26,0,.49.1.69.29.16.16.25.36.25.59l.64.2.64-.25.15.25-.78.24-.64-.2c-.03.2-.13.33-.29.39-.07.07-.16.1-.29.1l.15.64-.29.73-.2-.05.29-.73-.2-.54c-.33-.1-.52-.2-.59-.29-.16-.23-.25-.42-.25-.59s-.04-.28-.12-.34c-.08-.06-.17-.06-.27,0l-.54,1.18.29,1.03-.29.1-.34-1.18.59-1.23c-.07,0-.16-.06-.29-.2l-.88.83-.93.29-.15-.29.98-.34.73-.78-.2-.2ZM91.17,89.95s.04-.08.07-.15l-.78-1.23.1-1.52h.34l-.1,1.42.64,1.03c-.07-.06-.07-.25,0-.54.06-.39.29-.78.66-1.15.38-.38.74-.56,1.1-.56.49,0,.73.36.73,1.08,0,.29-.05.59-.15.88s-.25.52-.44.69c-.23.26-.41.39-.54.39l.98.15,1.27-.83.15.29-1.32.88-1.37-.2c0,.1-.03.21-.1.34l.83.54.93.2-.05.25-.93-.15-.93-.64c-.07.13-.15.24-.25.34l.83,1.08-.1,1.23-.34-.05.05-1.03-.69-.98-.1-.05c-.23,0-.29.13-.2.39l.05.15c0,.16-.05.33-.15.49-.1.2-.28.34-.54.44v.64l.39.59-.2.15-.44-.69v-.64c-.2,0-.33-.06-.39-.2-.07-.03-.13-.11-.2-.25l-.59.29-.78-.05v-.2l.78.05.44-.34c0-.13.02-.25.05-.37.03-.11.06-.2.1-.27.13-.2.31-.33.54-.39.13-.03.21-.1.24-.2.03-.1.02-.18-.05-.25l-1.27-.25-.88.59-.2-.29,1.03-.64,1.37.24s-.03-.09,0-.17c.03-.08.07-.14.1-.17l-1.03-.59-.59-.83.29-.2.59.83.93.49s.06-.07.07-.1ZM92.13,79.41l-1.37-.54-.88-1.27.29-.2.78,1.18,1.13.44c-.07,0-.18-.13-.34-.39-.13-.33-.2-.64-.2-.93,0-.42.09-.81.27-1.15.18-.34.42-.51.71-.51.33,0,.64.22.93.66.29.44.44.89.44,1.35,0,.36-.08.62-.25.78l.88-.49.49-1.42.34.15-.54,1.47-1.23.69.15.34.98-.05.83-.44.15.25-.83.44-1.13.05c.03.1.04.19.02.27-.02.08-.02.14-.02.17l1.27.34.69,1.03-.29.15-.54-.83-1.18-.39c-.13,0-.2.06-.22.17-.02.11.06.22.22.32.16.16.26.36.29.59v.15c0,.13-.05.29-.15.49l.34.49.69.25-.05.25-.78-.29-.39-.49c-.07.07-.21.1-.44.1l-.29-.1-.29.59-.64.44-.15-.15.69-.44.15-.54c-.2-.29-.28-.49-.25-.59-.03-.23.02-.44.15-.64.1-.13.12-.25.07-.34-.05-.1-.12-.15-.22-.15l-1.08.59-.39.98-.29-.05.39-1.18,1.23-.64s-.06-.08-.07-.15c-.02-.06-.02-.11-.02-.15l-1.18.1-.98-.29.1-.34.98.34,1.08-.2c-.07-.06-.08-.15-.05-.25Z"/>
</svg>