<?xml version="1.0" encoding="UTF-8"?>
<svg id="Ebene_1" data-name="Ebene 1" xmlns="http://www.w3.org/2000/svg" viewBox="0 0 305.03 445.02">
  <defs>
    <style>
      .cls-1 {
        fill: #0dff00;
      }
    </style>
  </defs>
  <path class="cls-1" d="M196.13,212.98c-.11-.22-.15-.47-.23-.7-.15.02-.31-.02-.47,0-.06.43.27.76.7.7Z"/>
  <path class="cls-1" d="M195.91,212.27h0s0-.01,0,0c0,0,0,0,0,0Z"/>
  <path class="cls-1" d="M195.9,212.28s.01,0,.02,0c0,0,0,0,0-.01,0,0,0,0,0,0h-.01Z"/>
  <path class="cls-1" d="M221.01,221.44s0-.03,0-.05l-.02.03s0,.03,0,.05l.02-.03Z"/>
  <polygon class="cls-1" points="250.96 274.49 251.01 274.44 250.96 274.49 250.91 274.54 250.96 274.49"/>
  <polygon class="cls-1" points="125.4 372.2 125.4 372.2 125.4 372.2 125.4 372.2"/>
  <polygon class="cls-1" points="207.44 181.87 207.44 181.85 207.43 181.85 207.44 181.87 207.44 181.87"/>
  <polygon class="cls-1" points="271.98 261.61 271.98 261.61 271.97 261.61 271.97 261.61 271.98 261.61"/>
  <path class="cls-1" d="M256.99,248.37h0s-.01,0-.02,0h0s.01,0,.02,0Z"/>
  <path class="cls-1" d="M252.87,226.19s0,0,0-.01c0,0,0,0-.01,0,0,0,0,0,0,.01,0,0,0,0,.01,0Z"/>
  <path class="cls-1" d="M38.47,156.89s.01.04.02.06l.03.07s-.01-.04-.02-.06l-.03-.07Z"/>
  <path class="cls-1" d="M121.86,369.72h-.02s.01,0,.02,0c0,0,0,0,0,0Z"/>
  <path class="cls-1" d="M217.84,344.96s0-.02.01-.02c-.01,0-.02,0-.03,0h.01s.01.02.01.02Z"/>
  <polygon class="cls-1" points="210.64 377.3 210.64 377.3 210.63 377.3 210.63 377.3 210.64 377.3"/>
  <path class="cls-1" d="M206.39,441.48s0,0,0,0c0,0,0-.01,0-.02,0,0,0,0,0,0,0,0,0,.01,0,.02Z"/>
  <rect class="cls-1" x="252.86" y="228.59" width="0" height="0" transform="translate(-87.64 212.88) rotate(-39.47)"/>
  <polygon class="cls-1" points="169.85 372.28 169.86 372.29 169.86 372.29 169.85 372.27 169.85 372.28"/>
  <polygon class="cls-1" points="147.79 302.77 147.79 302.77 147.8 302.82 147.79 302.77"/>
  <polygon class="cls-1" points="72.32 334.57 72.33 334.57 72.32 334.56 72.32 334.55 72.32 334.57"/>
  <polygon class="cls-1" points="163.7 287.61 163.7 287.61 163.69 287.61 163.69 287.61 163.7 287.61"/>
  <polygon class="cls-1" points="256.8 271.54 256.8 271.53 256.79 271.53 256.79 271.54 256.8 271.54"/>
  <polygon class="cls-1" points="127.58 335.93 127.58 335.93 127.58 335.93 127.58 335.93 127.58 335.93 127.58 335.93"/>
  <polygon class="cls-1" points="128.36 221.05 128.37 221.06 128.37 221.05 128.36 221.04 128.36 221.05"/>
  <path class="cls-1" d="M143.24,330.1s0,0,0,0c0,0,0-.01,0-.02,0,0,0,0,0,0,0,0,0,.01,0,.02Z"/>
  <path class="cls-1" d="M293.33,273.76v.97h.48c.06-.43,0-.85-.48-.97Z"/>
  <polygon class="cls-1" points="152.5 226.82 152.5 226.82 152.51 226.83 152.51 226.82 152.5 226.82"/>
  <path class="cls-1" d="M24.03,28.42c.13-.18.02-.52.22-.66.38-.28,1.52,0,1.3-.58-.43-1.14-1.82-1.42-2.89-1.09.03,1.05.08,1.8.96,2.41.02-.01.31.05.41-.08Z"/>
  <path class="cls-1" d="M55.19,328.31s-.02-.01-.03-.02c0,.01.02.02.03.04.01,0,.02.02.03.03,0-.01-.03-.03-.03-.05Z"/>
  <path class="cls-1" d="M303.34,268.39c-3.3-.66-9.68,1.86-9.23,6.02l-.23.18-.07.14c-.68.68-3.41.33-4.45.5-3.18.52-8.36,3.15-11.45,4.48-2.86,1.23-6.04,2.6-8.83,3.96-.22.11-.18.42-.48,0-.55-1.07-.56-1.96.72-2.33l1.33.64c.03-.85-1.35-.64-.95-1.78l.68-.41-.22-.7c1.01.25.78-1.01,1.45-1.57l-1.2.36.11-.97,1.09-1.68-1.09.48-.49-1.44c1.22-.88,2.76-2.18,4.22-2.56.7-.18.65.49,1.53-.58.11-.14-.03-.48.16-.6.56-.35,2.06-.51,2.67-.12.43-1.02-.15-.68-.4-1.04-1.28-1.81-1.18-.98-2.41-1.94-1.81-1.41-.32-3.51-1.03-4.4-.45-.57-1.24-.21-1.79-.38-.41-.12-.46-.72-.75-.94-.37-.28-1.2-.16-1.32-.6l.43-2.89c2.09-1.95,5.28-.48,5.08-4.32-.04-.63-.55-1.15-.47-1.93.05-.53.52-.82.48-1.35-.47-.5-1.61,1.6-1.69,1.69.9-1.08.86.72-.24.97,0-.21.15-.86.24-.97-.15.15-1.04.9-1.14.93-1.38.34-.89-1.16-1.26-2.04-.81-1.91-2.82-.76-2.07-3.97.18-.77,1.34-1.62,1.55-2.53-2.62-1.7-.59-3.23-.47-5.42-.82,1.3-2.58,2.57-3.38,3.74-.75,1.11-1.66,3.85-2.5,4.73-.51.53-2,1.17-2.56,1.91-.17-.65.86-1.22.93-1.6s-.46-.73-.4-1.13c.06-.4.8-.89.84-1.68.08-1.78-.64-1.38-1.66-1.89-.29-.14-.34-.72-1.16-.45,1.09-4.13,1.17-7.07.23-11.21-.1-.41-.48-.91-.48-1.23,0-.55,1.21-.65.73-1.07-.29-.26-.83.58-.96.48-.33-.88-.62-1.85-1.04-2.7-1.04-2.09-1.71-2.51-1.6-5.11.04-.94.48-2.23.48-3.16.02-3.08-1.86-7.4-5.66-6.36l-2.32,3.34-.46-.02-.17-.46-.78.04-.53,1.27c1.24.99,2.07,1.66,1.96,3.41-.07,1.06-1.39.63-.75,2.03l-.96-.48c-.39,1.48.9,2.42.3,3.8-.64,1.46-2.18.8-3.26,1.08-1.87.48-3.21,4.41-4.77,5.61-2.15.91-2.08-1.52-3.83-1.83-.28-1.07.83-1.65.94-2.63.7-.16.85,1.11,1.35,1.19l1.01-.51c.33-1.26-1.11-1.44-.4-2.69.18-.33,2.53-2.29,2.87-2.44.41-.18.94-.04,1.15-.17.09-.06.34-.95.56-1.25.37-.5,1.24-1.19,1.4-1.73.25-.86-.84.12-1.08.12-.48.01-1.09-.59-2.18-.49-.7.06-2.57,1.09-3.3,1.48-3.73,1.97-7.34,5.42-10.63,8.19-1.37,1.16-2.62,2.5-4.04,3.61-.67-3.54-.48-7.17-.73-10.74-.39-5.63-1.42-12.12-1.14-17.67.02-.39.45-.65.45-1.15.01-.75-.65-.91-.72-1.24-.08-.4,1.25-2.3-.27-2.98.09.66-.46.49-.97.48-.2.18.46,1.7-.48,1.45l-1.47-7.82c-2.74-11.3-7.12-22.38-11.67-32.73-1.03-2.36-2-4.91-3.22-7.16-.75-1.38-1.62-2.72-2.46-3.94l-.48.72-1.21-2.65c.51.81,2.63-1.2,2.73-1.5.34-.98.02-2.07.41-3.08l-2.17.24c.24-.63.64-.7,1.21-.48.49-1.4-.93-1.84-1.2-2.36-.22-.43-.11-1.1-.47-1.64-.3-.44-1.18-.72-1.35-1.07-.14-.3.14-.68.08-1.03-.12-.7-1.11-.86-.91-1.63l-.96.24c-.15-.95,1.01,0,.72-1.08l-1.21-.37c-.06-.51-.02-.52.48-.49v-.47l-.49-.14.26-.83-.72.48.72-1.08c-.89-.98-.43.27-1.2.12l-.24-.72-.48.72c.36-1.15.42-1.97.24-3.14.58.26.57.83,1.17-.16l-.81-1.54c-1.45-.05-.41,1.37-.36,1.69-.53-.24-1.07-.38-1.63-.53l-.06-1.64-1.44,1.09.96.36c-.18.61-.93.48-1.45.48.67-1.32-.86-2.05-.73-3.38-.67-.24-.41.42-.49.47-.49.35-.44-.34-.59-.42-.11-.06-1.02-.02-1.09.32-.14.51.56,1,.44,1.61-.11.56-1.26,1.29-1.16,1.38.33.3,1.27.58,1.2,1.45-.07.09-1.81-.95-2.16-.12.76.69,1.46.8,1.2,2.05h-1.21c-.01.46.79.27,1.06.46.73.5-.99,1.31-1.06,1.95h1.69c.19.8-.47.34-.72.49-.12,1.2.59,2.47-.25,3.37l.95.02c-.06.77.63,1.3-.24,1.59v.65l.97.77c-.68.13-.6,1.05-.47,1.64.02.11.64.42.82.9.15.39.09,1.07.17,1.17.07.09,1.7.35,1.9.88l-1.21.24c-.04,1.14.53,1.66.92,2.46.33.68.09,1.27,1.01,1.63l-.48.6c.74-.3,1.04.85,1.39.95,1.72.5,1.77.46,3.29,1.24.47.24,1.3.56,1.83.71l-.48.6,1.45.36c.31-.85-.38-.92-.46-1.15-.1-.3-.52-1.92-.5-2.11l.48-.12c5.5,9.14,9.37,19.21,13.03,29.2-1.11-.57-.72-1.81-1.33-2.65l-.12.97c-.98.16-1.72-.26-2.55-.71l.14-.74-3.95.46c-.48-1.27-1.03-.82-2.08-1.43-.19.24-.15,2.06-.25,2.49-.05.2-.13.3-.26.97-.46,2.27-1.24,4.2-1.67,6.43-.56-.18-.38-.29-.31-.66.36-1.98,1.4-4.09,1.76-6.1-.22-.25-.94.54-1.07.73-1.36,1.97-1.66,5.23-1.8,7.62-.03.47.3.94.23,1.38-.01.13-1.56,1.13-.03,1.96l-1.19,5.92-.48-.48-.25,1.44c-.64-.31.01-1.53,0-2.05-.02-.89-.3-2.81-.86-3.48-.81-.96-2.02-.89-2.02-2.57-.29-.18-.76-.02-1.06-.1s0-.58-.4-.48c-.31,1.5.76,1.37,1.27,1.91.06.07.86,1.09.9,1.15,1.02,1.67-.57,1.34-1.29,1.57-.56.18-.55.82-1.49.93-.85.09-1.71-.05-1.96-.98-.09-.32.34-2.4.44-2.96.06-.34.41-.63.41-1.02.01-.61-.72-1.51-.46-2.3l.48.48c.33-.93,0-1.69,0-2.52-.01-.37.24-.76.23-1.19-.02-.93-.79-1.83-.7-2.8-.35-.45-.37-.13-.41.31-.08.98.49,2.11-.43,2.83-.53.25-.36-.85-.66-1.15-.52-.53-2.77-.27-3.57-.06v-1.21l-1.69.24c-.05.19.24.29.24.36v3.5c-.34.06-.35-.43-.41-.67-.17-.68-.15-1.93-.44-2.47-.19-.37-.72-.4-.79-.53-.17-.3.03-1-.1-1.47-.15-.52-1.31-2.98-1.75-3.01l-1.07.45c.11,1.25.02,1.8,1.41,1.92.21.56-.24,1-.35,1.44-1.46,5.87-6.36,8.62-10.54,12.56-2.46,2.32-5.25,4.82-7.56,7.21-.81.85-1.66,2.15-2.45,3.08-.15.18.01.45-.55.3.22-1.32-.13-2.47.11-3.87.32-1.89,1.64-4.07,2.3-5.9l-.47-.36c-.58.93-1.03,1.96-1.58,2.9-.18.32.04.61-.6.48.43-2.4-.11-5.21,1.45-7.24-.85-.63-1.4,2-1.59,2.39-.03.07-.61,1.1-.82.87-.81-.89-.21-2.38-.61-3.26-.26-.58-1.81-1.48-2-2.11-.14-.46.15-2.23.3-2.74.22-.72,1.55-2.07,2.18-2.64.31-.28.79-.36,1.07-.61,1.3-1.16-.86-3.56-.47-3.97,1.99.25,3.16-.15,4.88-.97.26-.12.26-.53.59-.66.49-.21,1.16-.05,1.75-.43,2.16-1.38,2.16-9.43,1.94-11.81-.34-3.65-4.25-16.37-6.87-18.71-.46-.41-1.12-.1-1.09-1.44-2.56,1.3-3.23-.86-5.3-1.69-.51.81.1,1.62.02,2.29-.04.35-1.28,1.06-.96,2.14.08.27.53.29.63.45.18.27.14.98.36,1.45.27.55.92.81,1.1,1.32.69,1.98-.18,4.28.06,6.34l-.95-1.82c-2.41.6-2.73-1.31-3.52-3.01-.34-.08-1.18,1.37-1.08,1.69l-.48-.72h-.47c-.16,1.29-1.38-.12-1.84,1.44-.71,2.38,2.56,4.31,2.8,6.39.15,1.24-.36,1.86-.41,2.69-.07,1.23.45,2.67-.32,3.95l-.96-.48c.03,1.12-.28,2.2-.37,3.31-.07.84.18,1.64.03,2.49-.46,2.54-3.73,7.05-5.02,9.47-1.87,3.52-2.91,7.31-5.06,10.63-.86,1.33-3.37,3.71-3.28,5.29.06,1.07,1.18,1.73.72,2.77-.55,1.24-1.44,1.01-2.12,1.5-.89.64-2.72,7.92-3.31,9.47-.35.92-1.33,2.08-1.56,3.02s-.21,2.43-.3,3.44c-.36-.21-.56-1.23-.65-1.64-1.01-4.57-1.66-10.2-4.02-14.32-1.84-3.21-7.94-9.12-11.12-11.08l-2.18-.96-.02,8.53c1.02,3.59.96,7.03,1.26,10.71.02.21-.1.36-.15.55l.7.02c-.16.92.68,1.17.87,1.91l.24-.48c.97,1.31.57,2.98.12,4.44l.73.62-.5.14.25.72c-1.32.47.12.57.24.98.11.37-.05,1.85.31,2.45l1.99,1.39c.81-.26,2.12-.16,2.85-.38.22-.07.08-.43.52-.49,1.11-.16,1.87.42,2.19.42.27,0,1.51-1.22,2.53-.4-.84,2.03-.49,4.48-.73,6.63-.77,6.86-1.54,13.53-.96,20.51.26,3.05,1.85,5.49,1.21,8.94-.12.63-.68.39-.75.95-.14,1.17.25,2.27.28,3.38.01.67-.2,1.36-.17,1.9.09,1.62.36,3.26.64,4.86l-.48-.12.12,1.21c-.38-1.22-2.85-2.2-3.14-2.9-.12-.29.1-.62.04-.79-1.17-3.27-2.13-6.12-4.51-8.96-.8-.96-2.25-1.57-2.65-2.78l-.48.12c-.14,3.14-1.55,6.03-.97,9.29l-2.06-.75-.83.51c-.08-.1.24-.56.19-.82-.16-.9-4.45-2.13-4.73-2.96-.64-6.03-1.73-12.01-2.21-18.06-1.63-20.54-1.34-41.88-1.4-62.49-.03-9.4-.73-17.27-2.46-26.42l-.24,1.21h-.24v-1.21h.48c-.8-4.23-1.95-8.3-2.84-12.49-1.23-5.76-2.15-11.61-3.38-17.37.69-1.44,2.92-3.69,2.87-5.26,0-.41-.42-.33-.49-.54-.21-.64-.75-1.78-.75-1.89-.03-.78.91-1.98-.72-2.28.79-1.21-.19-2.53-.49-3.85l-.48.48c.05-.65.14-.89-.48-1.09v-.36c1.51-.24-.43-1.26,0-2.42l-.48.24c.06-.4-.09-.92,0-1.29.07-.29.59,0,.49-.4h-.96l.48-.96c-1.47-.33-.43-1.36-.48-1.45-.03-.04-.68-.01-.66-.61l.66-.84-.96.48c-.15-.68-.79-.42-.24-1.31-.83-.4-.9-1.7-1.22-2.55l-.48.96c.05-.63.12-.9-.5-1.09l.5-1.32-.96.48c0-1.1-1.54-1.45-2.41-1.93-.77,1.89-1.62,3.73-1.21,5.79l-1.21-.48c.84.91,2.05,2.57.49,3.25l.72,1.09c-.62-.33-.84-.06-1.2.48,1.28-.15,1.6.17,1.45,1.45l-.97.12c.7.55,1.41.74,1.21,1.81h-1.2v.72c.42-.4.88.41,1.45.6v.48l-.49.24.48.6-.72.48c.86.03.74.94.98,1.56-.75.1-.39,1.1.23,1.1v.48l-.96.36c1.26.99-.19,2.79,1.14,3.36l-.18,1.59.72-.72.22,1.1c-1.01.42.23,2.77.94,3.24.35.23,1.69.66,1.74.74.08.12-.29.56-.13.94.17.43,1.25,1.2,1.63,2.24,1.2,3.32,2.15,6.97,2.62,10.65,8.53,27.71,5.16,56.57,6.24,85.21.44,11.86.98,23.91,2.96,35.64.08.45.37.81.43,1.26-.6.04-1.68-.03-2.24-.17-.26-.07-1.57-1.14-1.61-.31-.02.51,2.36,3.22,1.44,4.47l.48-.25c-.13,2.36,1.51,4.46,2.29,6.52.78,2.06,1.04,4.69,1.74,6.46.12.3.57.27.57.43,0,.3-.34.71-.26,1.15.03.17.46.13.5.32.25,1.26.26,3.3.55,4.72.49,2.34,1.27,4.66,1.62,7.05l-1.81-1.81c-.3,1.13,1.21,2.37,1.57,3.26.13.3-.04.44-.35.35-2.51-.74-4.71-7.02-5.42-9.3-7.02-22.66-7.57-47.29-11.65-70.39-1.37-7.8-3.54-15.75-4.7-23.53-.11-.73-.55-3.11-.52-3.58.03-.4.45-.58.47-.95.01-.14-.4-.08-.48-.3-.61-1.75-.63-4.89-1.04-6.88-1.85-9.04-6.14-17.53-10.55-25.45-.44-.79-.59-1.93-1.46-2.37l.25-.83-.73.16-.23.81c-.41-1-.26-1.14.24-1.93l.96.38c.95-.83,1.31-2.84.8-3.95-.23-.51-.72-.22-.8-.29-.16-.15.55-1.3.49-1.77-.01-.09-1.11-1.12-1.2-1.32-.36-.75-.45-2.27-.79-3-.28-.61-.9-.64-1.03-.89-.1-.18.14-.55.07-.8-.1-.36-.58-.59-.74-.96-.42-.96.1-1.87-1.63-1.87l.48-1.2c-1.26.41-1.12-2.14-2.41-2.53l.47-.47c-.44-1.09-1.67-.54-1.44-2.06l-.96.38-1.33-1.83c-.31,1.03-1.25.29-1.33-.48l-.24.48-.6-.48-.25.5-.83-.26.24.72-.96-.24.49,1.09-.48.13c-.24.74.44.23.47.72h-.96c.33.49.98.61,1.2,1.33.26.86-1.15-.31-1.2.35.89.08,1.5,1.06,1.61,1.86.04.34-.21.72-.17,1.14.08.75.73,1.12-.01,2.17l.74.5-.48.24c.84.45.26,1.29.36,1.69.38,1.51.9,3.29,1.33,4.77.04.12,1.11.85,1.21,1.51l-.5.27.29,2.23.93.28-.48.6.96.61c-.69,1.04-.03,1.58-.03,2.75l.99.14-.49.6.73.12-.25.72c1.37-.05,2.49,1.39,3.86.97l.12.72c.82-.59,1.39.41,1.59,1.19l.7.02-.48-1.2.94-.22c4.77,9.22,9.12,17.95,10.61,28.37,2.26,15.81,5.84,31.37,7.75,47.26,1.06,8.84,1.85,17.57,3.17,26.27,1.69,11.18,3.66,21.7,6.88,32.45.5,1.66.82,3.39,1.52,4.99-1.03.62-1.23-.63-1.61-.86-.53-.32-1.26-.08-1.9-.45-.36-.2-5.34-5.87-5.53-6.29-.16-.37-.04-.78-.14-1.02-.1-.24-.75-.51-.58-1.4l-.27-.21c-1.77.76-1.87-.44-2.77-1.35-.96-.97-.86-1.26-1.26-1.74-.24-.28-1.04-.55-1.28-1.04l-.09-.33c.42-1.07,1.55-.28,2.04-.44.05-.02.45-.22.83-.36.75-.26,2.04-1.37,2.2-.18.07.52-.61,1.57-.02,1.8,1.1-1.21-.03-2.34,0-3.02.02-.45.58-.55.38-1.34-.16-.62-.62-.42-.99-.71-2.46-1.93-5.1-3.03-7.68-4.64-.67-.42-3.74-2.35-3.97-2.79-7.44-19.29-13.81-38.98-20.68-58.46-8.69-24.65-18.09-49.05-26.25-73.89-2.57-7.81-4.4-15.75-6.14-23.78-.55-2.51-.87-6.72-1.92-8.92-.22-.46-1.04-.87-1.09-.13l-.43-.17c-.18.24.71,1.93,0,2.17l-3.81-12.24.18-.79c.22.8.17,1.82,1.21,1.93l-.47.82,2.65,7.86c.43.1.16-.37.26-.46.17-.13,1.32.91,1.19.11-.17-1.09-1.18-3.74-1.65-4.85-.15-.35-.34-1.01-.38-1.06-.11-.17-.51-.18-.59-.28-.1-.13.23-.62.17-.99-.12-.71-.82-1.87-1.04-2.59-4.03-13.05-8.7-26.3-7.84-40.17.13-2.2.78-4.44.96-6.64l.84,1.44c.2-.63,1.27-1.08,1.45-1.44.09-.17.24-1.86.61-1.3.08.11-.16.42.24.33.1-.69.19-1.11.97-.96l-.24-.96,1.69-.49-.25-.72c1.37-.02.75-.78,1-1.17.09-.14.69-.19.95-.41.2-.18-.01-.5.04-.56.29-.34,1.62-.61,2.11-.53l-.72-1.69,1.69-.24c-.68-1.89,1.13-3.12.72-.24,1.89.11,1.11-.94,1.2-1.78.02-.18.45-.04.51-.5.1-.69-.1-1.58-.02-2.31-1.23.11-.69,1.98-1.92,2.27-.77.18-.69-.55-.73-.58-.57-.38-.35.66-.84.48-1.73-1.24.73-1.82,1.2-2.42.18-.24.07-.63.12-.72-.25.05-.84-.08-.97,0-.07.04.06.84-1.21.48l.24-.96c.54-.37.52,1,.96.48.07-.09-.19-2.02-.25-2.25-.1-.4-.31.19-.27-.63-.08-.11-.14-.25-.21-.31,0-.07.02-.13.04-.19,0,0,0,0-.01,0-.02.06-.04.12-.04.18-.06-.05-.34.04-.48,0-.06-.34.1-.59.38-.68.13-.15.33-.23.6-.22.01-.06-.2-.24-.18-.41.04-.43.56-.69.15-1.25l-2.14-.27v-.72c.08-.08,2.27.53,1.6-.66-.03-.06-.41-.06-.4-.18.04-.4.99-.7.73-1.33l.96.24c.12-1-1.12-.87-.72-2.17.9.02,1.95.09,2.65-.6-.6-1.04-2.31-.11-2.41-1.57,2.12-.07,4.23.15,6.27-.6-.85-.77-2.22.12-3.26.14-1.04.02-2.15-.46-3.26-.26l-.73-2.53,1.21.11c.28-.43-1.19-.84-1.13-2.02.04-.78.96-.61.89-1.35l-.96.24.25-.83-.5-.46.48-1.84-.72.24.48-.85-.48-.48c.72-.99,1.21.91,2.17.24-.39-.49-1-.6-1.49-.87-.2-.11-.24-.44-.32-.46-.86-.22-.29.64-1.08.48l.24-1.69-.96.24c0-.41-.05-1.63-.3-1.87-.28-.27-.47-.08-1.12-.87-.82-.99-1.57,2.29-2.92,1.54.1.88.6,1.57-.36,2.15l-.6-.46.48,1.45h-.72v.48l.48.24c-2.13.11-1.25.82-1.77,2.1-.13.33-1.32.58-.88,1.52.18.21,1.68-.7,1.44.12l-.62.81-1.06-.2.48.6-.72.36c.17.64,1.04-.25,1.46.34,1.03,1.43-1.16,1.72-2.18,1.35l.61,1.2.6-.72c1.01.7-.05.79-.26,1.13-.4.63-.25,1.46.02,2.11l-.51.28c.53,1.01-.17.75-.22.98-.12.51.08,1.22,0,1.77l-1.93-.48.49,1.79-.5.48c.62,3.13,3.61,1.01,4.84,3.39l-.61.6c-.65-.7-1.81-.5-2.6-1.02-.93-.61-1.52-2.64-3.07-2.6-.18,1.44,1.37,1.95,1.78,2.91.1.21.41,2.3.38,2.48-.03.14-.79.6-.96.53l-1.09-1.34-.6.48c-.13-.48-1.14-1.77-1.69-1.44v.84c.42.34,2.47.81.91,1.08-.32.06-.21.7-.18.73.14.16.83-.24,1.06-.24.06,0,.53.81.86.85.13.84-1.07-.03-1.21.12v.73c-.66.14-1.16-1.11-1.6-1.18-.6-.1-1.29.63-.92,1.41.2.43,1.94,2.7,1.56,3.15-1.44-.32-1.03-1.92-1.76-2.58-.45-.41-1.63-.63-2.21-1.05-.54.4.07.44.15.53.5.59,1.2.84,1.66,1.4-.89.24-2.07-.97-2.75-.97-.07,0-.64.78-1.08.87.42.6.01,1.33.04,1.69.03.33.69.24.92.51.28.33.38,1.33.95,1.65l-.48.24.73.84c.19.12,1.05-1.32,1.68-.96l-.14,1.46c1.23.23,2.01,1.13,1.11,2.27.41.63.85.22,1.43.13.18,1.45,1.31,2.24,1.46,3.62l1.45-.24v1.93l.96-.48c-.16.96-.39,2.06-.48,3.02-1.8,20.18,5.55,34.59,11.03,53.15,2.94,9.95,4.28,20.43,7.38,30.51,4.09,13.3,9.3,27.1,14.1,40.19.71,1.94,1.02,4.19,2.22,5.99l.02.33c-.85.18-2.13.46-2.65,1.21l2.66-.62c.18.11,1.42,3.21,1.61,3.72,3.45,9.41,6.74,19.02,9.87,28.54.27.83,1.08,1.89,1.21,2.87.1.81-.32,1.6-.14,2.41,1.87-.13,1.13,1.26,1.25,2.24.05.43.16,1.98.21,2.07.04.06.6.23.84.5.84.95.25,1.42.39,2.25.23,1.4,1.19,2.98.67,4.36l.97.79c-.59,1.09.14.72.38,1.06.16.22-.12.52-.06.67,1.3,2.98,2.46,6.33,3.61,9.51,2.61,7.19,5.12,14.43,7.89,21.55.06.52-.07.43-.36.12-5.29-5.75-6.61-12.12-9.18-19.06-.18-.5-1.66-3.72-1.84-3.83-.37-.23-1.58.03-2.01-1.01l-.47.51-1.58-.51c-.14.13.64,1.38,0,1.44-.12-2.36-1.54-3.87-1.2-6.26,1.29.21.26-.69.79-1.39.17-.22.83-.5,1.14-.56l-.72-1.08c.4-.55,1.08-.34,1.68-.36.17-1.3-.95-2.3-1.38-3.32-.32-.77-.95-3.24-1.38-3.68-.59-.62-1.78.17-2.54,0,.58.61,1.35,1.73,0,1.93l-.24-3.62-1.09.21c-.46-.27-.31-.52-.12-.92l-.95-.15c-.34.43-.78.91-1.07,1.36-3.13,4.88-6.84,15.35-6.41,21.09.13,1.7.87,3.3,1.2,4.95l-.6-.72-.84.72c.96.09,1.53,1.8.5,1.95l-.02.46c.15.02.35.05.45.16.24.25,1.05.92,1,1.17-.83.7-.74.85-1.93.72l.24.85.96-.24c-.05.56-.36.97.23,1.32l1.22-.11-.72.96c.25-.02.9.52.94.67.1.37.45,3.01.54,3.14.08.12.43.15.56.29.51.58.5.81,1.33,1.09-.54.22-.74.56-.71,1.18l.95.4c-.43.42.71,1.5.81,1.74.17.44-.18.94.12,1.28l1,.35-.22.61.44.22-.22.62h.97v1.45h.97c-.6,1.25.06,1.28.36,1.95.17.38-.33.9.61.95v.48l-.72.36,1.46.74c.21.9-.36.76-.74,1.31l.74.16c-.3,1.28.55.49,1.18,1.17-1.19,1.21.58,1.46.85,1.8.09.1-.07.48,0,.73.08.28.38.54.38.84,0,.08-.84.59-.74,1.34.61.09.62.02.84-.48.85.38.96.77.85,1.69h1.21l-.96,1.33c.74.33,1.1,1.31.72,2.05l1.57-.96c.91.76.37,1.51.12,2.4.75.26.52-.78.75-.93h.8l.64,1.88,1.43.02-.24,1.44,1,.14.42,2.62.99.14-.24.96c.64.24.38-.43.64-.48.32-.07.71.03,1.05,0,.16.97-.6-.07-.96.61l.48,1.56-1.2.24c.41.05.9-.09,1.29,0,.25.06.01.74.64.49l.48-.72c-.06.32-.02,1.44.36,1.44.74,0-.36-1.53.6-1.2v1.08l.48-.12-.24.97-.85-.48-.16.42-.31-.11-.13.66,1.19-.46.02.45h.46c-.18-.87,1.15-.26,1.39.09.56.83.31,2.14.32,3.07l1.2-.24-.48.96h2.17c-.26,1.27-1.04,1.56-.24,2.89l.96-.96c-.2,1.14.21,2.1,1.45,1.93l-.48.96c.57-.17.92.18,1.08-.48l.12.73.72-.24c.02,1-.59,1.45-.11,2.42l.22.18c.27-.38,1.35.19,1.51.36.14.15,0,.52.21.68.18.14.72.12.8.23.17.23-.8,2.7,1.22,1.43l-.24.74h.7c-.3,1.31.55,1.6.51,2.64.51-.1.13-1.14.96-.96.15,1.21.54,1.7,1.8,1.43l.15.71,2.28.51c.17.23-.43.51-.38,1.07.05.62,1.11,1.27.98,2.06l1.29-.26c.94,1.22-.33.3-.33,1.22l-.24-.48-.48.36,2.67,1.68-.02,1.82c1.92-1.73,3.35,1.49.96,0,.05,1.21.9,1.35,1.93,1.21.09,1.2-1.14-.02-.96.96.63.03.88.15,1.08-.48l.36,1.21,1.93-.48v.72l-.72-.24c.19.64.28,1.05-.24,1.57.62.7,1.63-.32,2.65.12v.72h-.73c.22.57.1.74-.24,1.2l1.45-.24v.61l.69-.11c.53,1.3.87,2.8,1.96,3.73-.49.74-.59-.24-1.2-.12l-.24,1.2c-.51-.78-.14-2.43-1.31-2.43-.27,0,.03.6-.38.5l-.48-.48-.24.48c-.09-.71-1.22-1.11-1.83-1.46h-.43c-.3.98-.75-.18-.99.7-.35-.53-1.27.51-1.34.87-.25,1.31.36,2.78.27,3.87-.06.63-.5.76-.51,1.32h.73l-.26,1.06.52.29-.28.93.5.62c-2,.13-4.1-3.98-5.31-4.47-.35-.14-.63.13-.96.13.56-.95-.91-2.38-1.57-3.14-1.76-2.04-3.97-3.71-5.83-5.63-3.03-3.13-5.48-6.39-8.96-9.07-.52-.4-4.49-3.24-4.81-3.33-.41-.12-.85-.06-1.27-.06l-.02,1.43c-2.16.81-2.5-1.42-4.33-1.43l.15-.5c3.73-1.67,2.38-2.96.09-5.17-1.92-1.84-11.86-9.65-13.87-10.52-1.13-.49-1.81.35-2.54-1.56l-1.21.37c-.07-.06.24-.4.23-.61-.06-.93-3.55-2.71-4.39-3.25-1.19-.77-2.97-2.22-4.34-2.71-1.03-.38-2-.38-3.16-.94-1.78-.85-2.72-2.56-4.98-1.66l.15-.73c-1.32-.32-1.86-2.22-2.8-.35l.48.36c-1.07.94-3.25.46-3.58,2.11-.42,2.12,2.1.02,2.61.8.12.65-.04.59-.48.86l.25.58c-.6-.3-.93.74-1.33.68-.9-.13.07-2.1-1.69-2.03-1.44.06-1.4,2.25-1.62,3.11-.16.62-.63.9-.61,1.67.03,1.31.52,2.27,1.88,2.48-.86.15-1.16,1.16-2.17,1.09-.15.75.33.41.8.47l.16.73c-3.03-.54-6.88-3.06-9.96-2.36-.61.13-1.04.47-.9,1.15.21.2,1.72-.44,1.45.48l-1.95,1.11.74,1.18c-.46.73-1.15.65-1.93.61-.43,1.08.83,1.06.92,1.6.04.24-.24.55-.15.77.03.06.95.55.93,1.01-.66.07-1.41-.08-2.06-.01-.49.05-.76.39-.99.42-.58.08-1.56-.42-2.35.02-.75-.14-.79-1.98-1.83-1.64l.97,2.04c-1.91.49-.67,1.9.72,2.06l-.47.24-.25.96c2.06-.21,1.7,1.51,2.3,2.4.31.46,1.06.24.59,1.22,1.25-.6,2.24.84,2.65,1.8l-.93.41-.03,1.17.85-.96.35.35-.96,1.09c1.1-.26,1.41,1.52,1.76,1.86.14.13.52.11.76.32.38.34.41,1.12,1.34.96l-.25.72.86.22.11,1.23c1.25-.67,1.42,1.13,2.31,1.66.51.31,1.24.26,1.66.5.19.1-.14.43.11.61,1.14.8,2.6,1.1,3.62,1.71.71.43,1.33,1.34,2.32,1.55.46.85-.19.52-.37.97.92-.06,2.08-.48,2.81.32.13.15.08.54.32.75.71.62,2.78.32,2.65,1.82,1.04-.55.61.26,1.1.43.43.14,1.65-.34,2.27-.08.98.43-.56,1.59.61,2.06.66.27.18-1.04.48-.96l1.45,1.69-.12-.96.93.03.29.92c1-.39,1.68-.02,2.24.8.45.66,0,1.37,1.36,1.13v-.72l1.44.24v2.41h.72c.07-.69-.71-1.08-.12-1.69.17.53,1.18.66,1.28.78.09.11.38,1.58.82,1.83.51.29,1.31.02.92-.67l.72.36-.48,1.33c.62.29.41-.48.63-.5.69-.06,3.99.54,3.47,1.71l1.11-.02c.41,1.44.47.63,1.17.75.47.08.72.55,1.34.23v.73l1.43-.22.5.82-.48.85c.76-.17,1.13.38,1.69.61.22.09.58-.08.74.01.36.2.41.75.51.81.12.07,1.04-.32,1.38.06l.03.93,1.53-.45c1.3,1.54,3.03,1.73,4.5,2.98l-1.45.36c.12.35,1.82.64,2.25.64.93.01.67-.69,1.37-.65l-.24.96c.63-.05.9-.15,1.09.48l.96-.48.73,1.45.12-.48h.48l-.25.48c1.7-.71,1.35.68,1.73.92.46.29,1.93-.27,1.65,1.01l1.08-.48c.47.43.66,1.11.38,1.68l.95.26v-.73c.48-.51,2.39,1.59,2.61,1.67.65.24,1.19-.05,1.56.02.08.02.48.9,1.37.49l-.24.96h.97l-.24.48,2.51.46.14.75.97-.24v.73c1.79-.84,2.6,1.07,4.1,1.07l.24.85c.17.17,1.14-.34,1.52-.25.25.05.23.52.39.62.04.03.78.3.91.35.27.1.69-.04,1.03.13.56.27.69,1.27.48,1.81.57.08.9-.48.97-.96h.47c.13,1.08,2.26.73,2.42,1.91h.47l.13-.47.37.72.84-.48.35,1.09,2.05.14.36.82c1.19.28,2.98.11,3.31,1.58,2.18-.7,1.53,1.66,3,1.31l-.25-.84h.48c.02.22.07.44.26.58,2.12,1.62,2.51,2.14,5.14,2.31.07,0,.48.78,1.06.91.58.13,1.14.01,1.72.1.12,1.47.72.58,1.31.72.3.07.49.57.82.66.41.11.84-.19,1.29-.11.49.09.56.89,1.42,1.02.73.12.67-.73,1.68,0,1.56,1.13,2.62.9,4.44,1.37.35.09.48.55,1,.65,1.14.22,1.34-.41,2.2.94l.45.04.23-.49c1.61.93,3.56.71,5.32,1.21l.12-.55.48-.18c-.2.95.39.66.8.95.23.16.15.48.17.49.11.07,1.22-.83,2.48-.49.26.07.25.52.4.61.26.16.69-.48,1.08.55l1.68-.41.74.71c.53-.23.84-.55,1.47-.52.44.02.32.47.52.51,1.62.36,3.27.34,4.9.59.96.15,1.71.37,2.54.86.4-.31.19-.9.85-.72l-.02.61c1.2.11,2.35.03,2.19,1.56l.96-.24c.28.62-.49.45-.48.6.07.81,1.04.49,1.35.84l.1,1.45.73-.48v.72c1.24-.44.98.42,1.68.84l-.48.72.48.37.36-.96c.49.4.4,1.14.83,1.58.29.29,1.21.51,1.46,1,.37.74.52,2.6.59,2.72.13.2,2.06,1.17,2.25,1.5.32.56.12,2.19,1.48,2.38l-.18,1.4c.6.12,1.75.78,1.96,1.3.21.52-.07.71-.06.99,0,.11,1.32.73.23,1.83.69-.03,1.11.28,1.23.96l.67-.21c.1,1.06,1.16.67,1.22.72.48.43-.57,1.48.14,2.41.19.26.56,0,.82.12.45.21,1.15.75,1.71.96.12.54-1.17,1.23-.48,1.69.76.51.74-.39.84-.37,1.41.67,1.93,1.52.85,2.89l2.3.47.28.37-.41.48.36.36.6-.24c.03.37.3,2.15.46,2.31.67.66,1.39-.12,1.82,1.1.1.27-.08.55-.03.65.16.34,1.37.86,1.6,1.16s.66,1.97.75,2.03l.72-.72.25.96.36-.48c.73.58.36,1.57.65,2.36l1.53.27.47,1.23.6-.48c.32.72.88,1.64,1.15,2.35.14.37-.05.87.18,1.27.23.4,1.36.59,1.31,1.58l1.46-.13c-.89,1.67-1.93,3.64-1.93,5.55l1.48-3.82c.42.07,1.29-.24,1.55-.2.3.05.36.64.57.77.14.08,1.84-.38,2.38.4.25.75-.07.98-.68,1.28l.49.28c-.28,2.9.06,4.71,2.04,6.85,1.73,1.87,4.01,2.24,2.54,5.54,1.06.29,1.42-1.55,1.4-2.3-.02-1.25-1.49-2.12-2.24-3.02-.22-.25-.3-.83-.42-.91-.21-.14-.59.1-.94-.2-.19-.16-1.59-2.65-1.63-2.92-.21-1.26.92-2.42.68-3.68h.72c-.33,1.2.88,1.17,1.69,1.57l-1.19.74.23.82c1.08-1.73,2.21.36,3.73-.72l.36.37-.21.8.56.27-.11.49,1.2-.24c-.69,1.79-.7,2.72-.25,4.58-1.98,0,.83,1.33,1.09,1.94.3.72.05,1.65.12,2.41h1.21v-1.21c.92.71,1.28,1.5,2.65,1.2l-2.66-2.07c.46-1.34.46-3.22.99-4.5.1-.24.81-.74,1.07-1.4.55-1.38.09-3.09,2.06-1.55-.17.75-.42,1.64-.48,2.4-.13,1.84.05,4.53-.25,6.26-.07.4-.36.53-.48.85.43-.08,1.35.15,1.65-.04.11-.07.98-2.04,1.12-2.38.33-.78,1.29-4.38,1.55-4.66.26-.28.87-.15,1.23-.4l.26,2.29-.5,5.19h1.45c-.51-3.27.18-6.79-.96-9.89l1.65.28,1.61,3.34c.44-2.17-1.89-3.81-1.32-6.11.04-.18.45-.15.48-.32.19-.91-1.04-2.15-.97-2.25l.72-.49c-.36.27-1.9-.48-2.06-.71-.2-.29-.1-1.18-.23-1.71-.23-.95-1.28-1.06-.85-2.41.93-.26.94.48,1.68.73l.12-.72c.58-.84,2.17.92,3.02.72.17.53-.64.77-.66,1.08-.01.21.45.63.42,1.19-.04.65-.8,1.06-.74,1.69.01.14.38.14.49.31.64,1.04,1.45,2.91,2.89,2.71l.15-1.2c-.36-.49-1.9.32-2.44-1.68-.32-1.18.31-1.01.72-1.71.37-.64.26-1.34,1.25-1.65.45-.14.26.4.49.46.14.04,2.67.22,2.81.2.27-.05,2.25-1.35,2.33-1.54.75-1.71-1.88.58-2.01.63-1.18.47-1.87-.16-3.04-.38.7-.88,1.48-1.5,2.13-2.46.49-.72.76-1.67,1.1-2.16.96-1.38,3.59-3.63,4.18-4.98.28-.64.19-1.73.51-2.52.49-1.22,1.78-1.76,2.46-2.86.44-.23,3,1.62,3.56,2,4.84,3.31,7.39,5.87,13.15,7.85,1.14.39,2.2,1.01,3.43,1.15l-.84-1.09c1-.7,1.48,1.07,2.05,1.33,1.02.04-.69-1.46-.97-1.68-1.73-1.36-3.04-2.36-5.18-3.03-.47-.15-.99-.04-1.45-.24-.42-.19-2.37-2.04-2.85-2.29-.55-.29-1.22.09-1.63-.22-1.06-.81-2.33-2.92-3.33-4.05-.85-.97-1.96-2.38-2.89-3.37-.25-.27-1.5-1.02-1.55-1.1-.14-.27-.01-.92-.27-1.54-.39-.91-3.43-4.44-4.29-4.63-4.63-1.05-5.34-2.66-8.61-5.75-.13-.12-.5-.04-.64-.24-.26-1.26-.3-2.58-.44-3.86-.16-1.52-.22-.89-.59-2.06-1.28-4.04-1.06-5.63-4.03-9.19-1.01-1.21-2.8-2.23-3.48-3.09-1.58-1.99-1.93-6.66-5.01-8.27l-4.04-1.85c3.19-.86,6.7-1.78,9.66-3.25,9.37-4.67,15.48-15.22,21.59-23.31-.2-1.42-.07-.67.58-1.08.5-.31,1.49-2.4,1.96-3.07.41-.58,1.86-2.11,2.05-2.6.13-.35-.17-.67-.02-.97.08-.17.55-.06.86-.32,1.67-1.44,3.86-6.08,5.44-8.09.6-.76,1.55-1.65,2.27-2.32.93-.88,2.18-1.92,3.26-2.53l.11-.48-.48-.12c.18-.86,1.1-.91,1.37-1.17,2.88-2.82,4.59-3.9,7.98-6.12,2-1.3,1.41-.49,3.01-1.06.21-.07.21-.39.38-.44,1.04-.3,2.13-.56,3.19-.26l-.13-2.18,1.34-.23-.24-.71h1.78l.16-.74c1.41.6,2.05-.53,3.38-.49l-.48-.72h1.68c.74-2.77,4.46-3.75,6.75-5.2.91-.58,1.99-1.4,2.97-2.05.44-.29,1.92-1.73,2.36-1.43l-.25.48c.48.03,1.07.06,1.21-.48l-.48-.48c.44.11.84-.38,1.13-.42.26-.03,2.57.63,2.93.39.11-.07.13-.48.27-.57.19-.12.59.18.97.01.69-.3.64-1.25,2.15-.64l.56-1.15,1.65-.03-1.21-.96c.78-.22,1.5-.04,1.69-.97-.63-.32-.77.49-.84.49-2.03-.21,1.26-1.63,1.55-1.84,1.05-.73,2.88-2.27,3.47-3.3,1.52-2.65,4.2-10.83,4.7-13.87.27-1.64.15-2.31-1.58-2.65ZM273.84,266.66c.1,0,.21,0,.32.02-.09.36-.33.48-.64.5-.1,0-.21,0-.32-.02.09-.36.33-.48.64-.5ZM189.52,136.03c.52-.05,1.02.48.96.96l-.96-.96ZM190.97,142.06v-.48l.96.72-.96-.24ZM191.43,129.27c.24-1.4.8-.61,1.69-.48.06.38-.08.47-.32.45-.39-.02-1.02-.32-1.37.03ZM192.9,142.3v-.48l1.45.24v.23h-1.45ZM194.11,143.26l.96.96c-.52.05-1.02-.48-.96-.96ZM195.29,129.75h-1.2c.04-.14.1-.23.18-.31.25-.23.67-.2,1.02-.17v.48ZM197.71,134.57l.25,1.93h0s0,0,0,0c-.1-.04-.17-.11-.22-.17-.01-.01-.02-.03-.03-.04-.13-.19-.21-.39-.7-.27,0-.01,0-.05,0-.11.02-.42.24-1.77.72-1.33ZM196.75,133.12h.48l-.24.97h-.24v-.97ZM197.47,136.5v1.21h-.23l-.25-1.21h.48ZM197.47,144.23c-.07,0-.14,0-.23-.01v-.96h.48l.24.6c-.16.2-.29.35-.49.37ZM199.17,137.7v-.72s.48,0,.48,0v.72s-.48,0-.48,0ZM200.62,141.32v-1.44h0s.24,1.2.24,1.2h0s.96-.49.96-.49c.03.14.04.25.04.34.01.65-.58.35-1.24.4h0ZM209.82,165.68c-.14-.04-.24-.1-.31-.18-.22-.25-.2-.68-.17-1.02h.24l.24,1.2h0ZM165.43,162.62c.54-.08.62,0,.93.39.38.48.54,1.1.57,1.75.05,1.09-.26,2.29-.53,3.16h0,0s-.02,0-.04,0c-.51-.1-.71-.33-.73-.62-.06-.67.75-1.66.71-2.1,0-.06-.03-.14-.07-.24-.04-.1-.09-.2-.15-.32-.12-.24-.26-.51-.4-.77-.27-.53-.49-1.05-.3-1.24ZM166.89,173.1s0,0,0,0h0c-.4.42-1.21,2.23-1.5,2.48h0c-.34.28-2.23.53-2.35-.07h0s0,0,0-.01l1.56-3.73,2.29,1.32ZM163.92,166.28c.14-.3-.08-.58.33-.56.06,0,.13.01.22.03h.01c-.12.53-.27,1.09-.45,1.6-.12.35.17.67-.43.58-.03,0-.05,0-.09,0-.09-.6.17-1.12.41-1.64ZM163.17,172.64c0,.11-.5,2.08-.56,2.23-.21.51-2.54,2.12-2.95,1.75,0,0,0,0,0,0,.25-1.2.95-1.68,2.17-1.45,0,0,0,0,0,0-.05-.17-.06-.34-.04-.52.05-.55.32-1.13.28-1.53-.05-.53-1.04-1.13-1.04-1.93,0-.11.02-.23.07-.35.14-.05.27-.07.41-.07.93,0,1.71.99,1.66,1.88ZM160.59,153.72c0,.18-.08.31-.47.21,0,0,0,0,0,0l-.25-.96h1.45c.04.23-.08.26-.23.24s-.35-.05-.46.04c0,0,0,0,0,.01-.04.04-.05.11-.04.19,0,.09.02.19.02.27ZM160.03,151c.18,0,.38.06.49.11.09.04,1.46,1.37.67,1.61l-1.57-1.56c.05-.12.23-.16.41-.16ZM159.16,166.72l-.96.25c-.08-1.09.49-1.2.96-.25ZM85.26,114.48c.53.29.65,1.39.72,1.93-.56-.3-.75-1.35-.72-1.93ZM86.19,97.11l.73-.13-.49-1.08h.72v2.17h-.7s-.26-.96-.26-.96ZM86.69,112.79c.11-.02.21,0,.31.02.3.1.53.4.66.7-.11.02-.21,0-.31-.02-.3-.1-.53-.4-.66-.7ZM91.53,117.84v-.72s.48,0,.48,0v.72s-.48,0-.48,0ZM92.49,111.57v-1.69l.72.72c-.87-.16-.16.87-.72.97ZM93.97,133.05v-1.69s.24,0,.24,0v1.69s-.24,0-.24,0ZM94.82,135.7c-.37-.26-.42-.52-.36-.96l.72.24-.36.72ZM99.8,160.78v-1.44h.24c.19.5.09.93,0,1.44h0s-.24.01-.24.01h0ZM98.82,152.58c-.54-.26-.44-1.43-.48-1.93.54.26.44,1.43.48,1.93ZM97.43,147.58c-.25-1.01-.55-2.18-.55-3.19v.03s0-.03,0-.04l.7,1.83.27,2.02h-.01s0,.02,0,.02c-.34.05-.35-.43-.41-.67ZM97.83,149.53c0-.1,0-.21.02-.32.36.09.48.33.5.64,0,.1,0,.21-.02.32-.36-.09-.48-.33-.5-.64ZM98.83,156.69h0c-.74-.29-.44-1.29-.48-1.93.05,0,.1,0,.13,0,.24.04.05.39.09.61h0c.1.44.18.88.26,1.32h0ZM98.86,154.84l.45-.33.24,1.93-.69-1.6ZM99.56,158.38c-.04-.3-.32-.95-.29-1.36.02-.25.15-.4.52-.33l-.23,1.69ZM100.17,161.03l.11.96-.48-.36.37-.6ZM100.31,178.16v-1.45s.24,0,.24,0v1.45s-.24,0-.24,0ZM100.52,175.5c0,.09.01.17.03.24-.56-.34-.1-1.61-.24-2.17.21.12.28.37.29.68.01.4-.08.89-.07,1.25ZM100.78,169.23c.4.15.5.42.48.73-.02.31-.16.66-.24.96-.53-.12-.12-1.28-.24-1.69ZM101.03,173.33l-.24-1.2h.47s.25,1.2.25,1.2h-.48ZM62.6,131.4v-.23l1.2-.25v.73s-1.2-.25-1.2-.25ZM65.14,138.64c-.3-.25-.54-.49-.6-.83-.02-.11-.02-.24,0-.37.14.09.66.25.68.28.02.03.03.08.05.15,0,.04.01.07.02.12,0,.04,0,.07,0,.11,0,.05,0,.09,0,.14,0,.07-.01.14-.03.2,0,.01,0,.02,0,.03-.02.08-.06.13-.12.15ZM66,146.36l-.14-1.21,1.1-.24-.96,1.45ZM66.72,142.5l.24-1.21h.24l.24,1.21h-.72ZM70.1,140.56c-.04-.14-.04-.25-.02-.33.04-.16.18-.22.37-.18.09.02.2.06.31.12.06.03.76.69.54.88l-1.2-.48ZM21.78,98.18l.72.24v.48h-.36s0,0,0,0c-.2-.16-.34-.28-.37-.49,0-.07,0-.14.01-.23ZM16.59,28.69c-.08,0-.16,0-.24-.01.08-.31,1.25-1.13,1.45-.96-.24.46-.65.94-1.21.97ZM19.02,16.04c.05-.56.14-1.83.69-2.08h0s0,.01,0,.01l-.48,3.14h0c-.23.01-.28-.19-.28-.42,0-.23.06-.51.07-.65ZM20.07,26.07c.97.16-.04,2.85-.21,2.85l-1.31-.87.26-1.73,1.26-.25ZM18.76,23.86v.96l-.96-.12.96-.84ZM18.5,13.97c-.01.08-.03.16-.05.25-.09.44-.24.96-.52,1.33-.11.15-.24.27-.4.35,0-.67.35-1.59.96-1.93ZM18.48,17.45c0,.19-.17.44-.61.85-.91-.06-1.53-.7-1.55-1.27-.02-.44.33-.83,1.19-.86.26.77,1,.86.97,1.28ZM16.57,12.52c-.54-.26-.44-1.43-.48-1.93.54.26.44,1.43.48,1.93ZM16.09,20.49l1.39-.69c1.34.1,1.19,2.04-.04,2.04-.3,0-1.76-.89-2.3-.88,0,0,.45-.22.95-.47ZM14.04,11.32l.84,1.68-.49.14c0,.13.16.44.24.73.08.29.09.55-.22.58.12-.59-1.06-2.87-.37-3.13ZM10.86,21.62c0,.38.51.93.4,1.17-.03.08-.13.12-.34.11-.28-.37-.44-.79-.48-1.2-.15-1.24.68-2.47,2.04-2.66-.75.96-1.59,1.14-1.62,2.58ZM12.73,20.98s0-.01.02-.02l-.03.02c1.05-1.07.07-1.62-.18-2.6-.25-.98-.38-1.95-.31-2.95v.03s0-.02.01-.03l.24.71,1.09-.94h0s0,0,0,0l.58.46h.01c-.21.1-1.18.6-1.21.66-.18.45-.43,1.87.01,2.35.06.06.14.11.23.13-.06-.65,0-2.15.96-2.17h0s0,.01.01.01l-.95,2.87.95-.94h.46l.21.25.3.35-2.41,1.81ZM10.37,58.13v-5.55s.23,0,.23,0v5.55s-.23,0-.23,0ZM12.79,72.06c0-.15.01-.29.02-.42h.24l.24,1.45c-.46-.14-.5-.59-.49-1.03ZM14.74,78.4h-.24l-.24-1.44c.13-.3.55.73.52,1.25,0,.07-.02.14-.04.19ZM16.2,83.22l-.96-2.65c.72.51.92,1.82.96,2.65ZM16.2,83.47c.12-.26.49.59.5,1.04,0,.06,0,.12-.02.16-.55-.14-.52-.75-.48-1.2ZM16.81,86.12l-.12-1.21.9,1.88.55,2.46-1.33-3.13ZM23.48,107.82c-.45.05-.17-.52-.23-.85-.07-.37-.25-.7-.25-1.08.74.29.44,1.29.48,1.93ZM25.91,120.12v-.96h.24l.24.96h-.48ZM26.52,122.05l-.12-1.2.9,2.11.06,1.26-.84-2.17ZM35.6,147.86l-4.22-10.62c-.92-3.71-2.9-7.57-3.71-11.26-.03-.13-.09-.34-.09-.51,0-.18.05-.32.27-.29.52,1.21.69,2.69,1.08,3.88.12.35.36.43.37.46v-.96h.24l.24.96h0v.02s-.47,0-.47,0c.57,1.71,1.32,5.31,2.13,6.68.28.47.64.58,1.02.91h0s0,0,0,.01l-.5.25c.6,2.37,1.7,4.56,2.6,6.81.06.15.11.32.16.51.1.38.18.81.3,1.16.05.14.1.27.16.38.23.4.51.32.59.59.05.16.02.44-.15,1.02ZM38.51,157.02h-.01s-.01-.05-.02-.07l-1.3-3.31-1.34-4.82c.1.02.18.06.24.11.19.15.23.44.32.67.87,2.24,1.34,5.02,2.09,7.36l.03.07h0ZM39.19,159.6l-.19-1.13,1.81,4.21,1.1,3.99-2.72-7.07ZM45.24,176.26c-1.08-2.53-1.89-5.34-2.83-7.89l.95-.25-.46.81,2.89,8.11c-.42-.07-.42-.48-.55-.78ZM47.72,182.34h-.24l-.24-1.2c.55.14.52.75.48,1.2ZM45.41,248.22c.24-.39-.21-1.37.23-1.47.06-.01.14,0,.25.02l.24,1.45h-.72ZM66.95,288.48h-.48s0-.96,0-.96h.48v.96ZM85.03,274.7l.96.36-.49.85-.47-.12v-1.09ZM85.32,311.38v-.48s.72,0,.72,0v.48s-.72,0-.72,0ZM94.73,309.44c.39.17.8.52.72.96-.39-.17-.8-.52-.72-.96ZM10.78,315.36c-.46-.24-.94-.65-.97-1.21,0-.08,0-.16.01-.24.46.24.94.65.97,1.21,0,.08,0,.16-.01.24ZM15.6,313.9c-.88-.28-2.12-.99-2.32-1.92-.02-.09-.02-.17-.01-.26.09-.92,1.71-1.56,1.8-.82.03.27-.13.71-.64,1.39l1.18,1.61h0ZM25.26,320.89c.43-.03,1.03.27,1.21.72-.43.03-1.03-.27-1.21-.72ZM28.62,323.2c-.16-.1-.85-.28-.45-.63.13-.11,2.3.99,2.41,1.44-.64-.12-1.41-.47-1.96-.81ZM30.82,324.25c.43-.03,1.03.27,1.21.72-.43.03-1.03-.27-1.21-.72ZM32.51,325.22c.68.08,1.53.64,1.93,1.2-.71-.1-1.6-.56-1.93-1.2ZM216.52,430.37h.48v.97h-.36l-.36-.36.24-.61ZM217.01,434.47l-.96-1.69c.85-.02,1.02,1.04.96,1.69ZM235.65,409.36l.14-.98c.72.15.9.71,1.29,1.12h0c.14.16.62.3.65.54.01.08-.02.17-.13.28l-1.95-.95h0s0-.01,0-.01ZM231.19,406.94l-3.61-2.17.12-.48s0,0,0,0h0c.76-.1,1.18.21,1.35.95l.68-.23s0,0,0,0h.01c-.28.94,1.39.85,1.45,1.93h-.01s0,0,0,0ZM229.75,408.15l-.72.48v-.96h.36l.36.48ZM231.06,404.2c.13.14.47-.03.38.33h0s0,0,0,.01h-.58c-.37-.58-1-.88-1.67-1.15-1.15-.46-2.4-.8-2.58-2.23,1.74.73,3.19,1.63,4.45,3.04ZM215.51,420.1c.51-3.06.52-6.73,1.02-9.82.28-1.72,1.08-3.23,1.46-4.81.51-2.1.46-4.81,1.71-6.73.12-.19.19-.23.26-.2.06.01.13.1.24.23,1.76,2.01,3.94,3.26,5.55,5.43l.03.02,2.55,2.39c-.46-.14-1.09.35-1.28.32-.05,0-.09-.03-.13-.06-.13-.07-.24-.23-.38-.33-.1-.07-.22-.1-.38-.06-.05.43.05.67.22.82.3.23.79.24,1.19.48h0s.02.01.03.02l-.48,1.18c.95.71,1.61,1.38,2.04,2.5.33-1.1.94-1.69.94-2.87l.85.13s0,0,0,.01h.04c-.63,1.77-1.71,3.26-2.62,4.87-.42.73-.55,1.95-1.34,2.52-.38.28-.97.13-1.13.37-.16.24-.13.89-.35,1.28-.46.82-4.44,6.69-4.85,6.78-1.14.24-2.46-.76-3.52-1.24-.49-.21-.88-.12-1.12-.33-.15-.12-.26-.34-.28-.81l-1.17.23s0-.02,0-.03h-.03c-.17-.17.88-1.87.95-2.3ZM214.12,432.14c.06-.11.13-.21.2-.32.22-.32.49-.62.75-.91.17-.19.34-.37.48-.54-.02.99-.91,1.89-1.68,2.42.04-.22.13-.43.25-.65ZM213.61,435.71c-.54,1.84-.56,3.42-1.31,5.28-.12.29-.25.97-.59.97,0,0,0,0,0,0,0,0,0,0-.01,0,.37-1.39.18-3.37.47-4.66.07-.3,1.22-.48.92-1.1-.02-.05-.74-.06-.43-1h0s0,0,0,0l.95.51h-.01ZM212.91,433.76c-.25.44-.69,1.02-1.2.96.25-.44.69-1.02,1.2-.96ZM210.63,377.3h.02,0c.4.78.83.86.5,1.9l.96.4c-.83,1.31-.05,2.96-.24,4.07-.09.5-.56.79-.67,1.27-.08.35-.09,2.97-.4,2.97,0,0,0,0,0,0,0,0,0,0,0,0-.31-.47.01-1.25-.12-1.77-.01-.05-.05-.08-.1-.11-.07-.03-.16-.05-.24-.07-.08-.02-.16-.04-.16-.1,0-.17,1.03-2.09,1.08-3.13.1-1.85-.14-3.71-1.09-5.31l.47-.12s0,0,0,0ZM207.26,371.26c.28.18.39.21.43.16.03-.03.03-.1.04-.16.02-.1.06-.21.24-.24h0c0,.11,0,.23,0,.34,0,.06,0,.12.01.17s.03.1.05.15h0c.08.13,1.2.52.31.54l-1.09-.96s0,0,0,0h0ZM208.51,398.05h-.24s0-1.69,0-1.69h.24s0,1.69,0,1.69ZM205.91,435.94h0s0,0,0-.01l.94.23c-1.15-1.23.29-1.24-.21-2.25h.01s0,0,0-.01l1.66-.62c0,2.88-1.63,5.32-1.92,8.19,0,0,0,0,0,0h-.01s0,.02,0,.02c0,0,0-.01,0-.02-1.66-1.62-.72-3.64-.48-5.54ZM223.1,301c.06,0,.12.01.21.03.12.9-.83,1.57-1.18,2.13-.2.34-.36,1.82-1.23,1.73h0s0-.02.01-.03c.38-1.11,1.13-2.3,1.76-3.3.01-.02.02-.04.03-.05,0,0,0-.01,0-.02.15-.25,0-.52.38-.49ZM219.04,229.91c.46-2.27-.09-5.27.93-7.25l1.02-1.23s0-.03,0-.05l.02.02.02.02-.02.03c-.13,1.77.41,3.63.64,5.42.08.64-.28,1.34.33,2.14l.5,6.5c-.13.68-2.78,3.46-3.47,4.25-.21.25-.63.35-.78.54-.23.28-.71,2.01-1.27,1.62,0,0,0-.01,0-.02,0,0-.01,0-.02,0,.02-.35-.36-.62-.42-.9-.19-.87.17-6.21.47-7.11.38-1.16,1.81-2.8,2.05-3.98ZM219.12,303.36h0c-.04.08-.31.12-.39.27-.12.22-.23.45-.34.68-.3.66-.58,1.36-.95,1.96-.18.3-.39.57-.64.8,0,0,0,0,0-.01,0,0,0,0,0,0,.25-1.79,1.74-3.2,2.41-4.83.22.02.28.15.26.32-.03.28-.28.67-.35.81ZM219.22,310.69l-.24.96h-.23v-.96s.47,0,.47,0ZM217.72,271.11c.41.16.27.89.22,1.46,0,.09-.01.18-.01.26,0,.08,0,.15.03.21-.55-.21-.11-1.45-.24-1.93ZM213.23,179.91l.96,2.89c-.16-.07-.29-.15-.4-.24-.79-.62-.57-1.63-.56-2.65ZM212.75,185.32c.48-.27,1.07.27,1.54.12.33-.1.28-.52.45-.66.04-.03.1-.06.18-.05l1.94,7.96h0,.01c-.12.01-.25.01-.37,0-1.81-.1-3.29-2.26-3.75-3.86-.16-.03-.31,0-.42.06-.11.07-.2.18-.25.34-.13.41.19,1.26-.28,1.29h0s0,0-.01,0l.02-1.92.36-.07.34-.07v-.83l-.72.47h0c0-.12,0-.24,0-.37,0-.9.15-1.97.96-2.42ZM214.36,318.24c-.62,1.8-1.67,3.6-2.12,5.48h0c-.31.03-.45.08-.48-.1-.01-.05,0-.13,0-.22,0-.01,0-.02,0-.03,0,0,0,0,0,0,0,0,0,0,0,0,0-.06.06-.23.13-.45.13-.36.33-.88.55-1.44.46-1.14,1.01-2.43,1.17-2.75.16-.3.56-.31.56-.44l.11-.83c.22.16.3.25.31.34.02.13-.15.22-.23.46ZM212.4,267.26l-.24,1.93c-.51-.09-.16-1.83.24-1.93ZM211.54,182.81c.21-.03.27.11.27.29,0,.14-.02.3-.03.43,0,.04,0,.09,0,.12.02.3.01.6,0,.9,0,.3-.01.61,0,.91-.42.06-.23-.55-.24-.84-.03-.6.01-1.21,0-1.81ZM211.56,191.25l.24,1.69c-.38.07-.49-.08-.5-.33-.01-.4.3-1.05.26-1.36ZM211.86,317.93c.47-1.24.62-2.9,1.57-3.86v.02s0-.01.01-.02l-3.36,9.66h-.02c-.43.06-.23-.53-.18-.78.27-1.45,1.42-3.55,1.98-5.02ZM209.83,320.83h-.48l.24-.96h.48l-.24.96ZM206.85,182.83c.28-.38-.22-1.17.58-.98v-.02s0,.02,0,.02v.02s0,0,0,0l.25,1.43s-.92-.1-.76.28c.03.05.07.12.14.19.6.63,1.4,0,1.91,0,.07,0,.67.77,1.07.83,0,0,0,0,0,.02,0,0,0,0,.01,0-.18,1.03-.58,1.59-1.52,2.06-.16-.1-.24-.2-.28-.3-.13-.3.17-.62.09-.98-.04-.19-.09-.34-.13-.48-.33-.91-.74-.49-1.56-.65-.04,0-.65-.56-.66-.6,0,0,0,0,0-.01,0,0,0,0,0,0-.23-.93.58-.44.86-.82ZM206.57,240.73l.24-1.21h.48c.03.14.02.27,0,.39-.07.37-.34.67-.72.82ZM206.72,333.4l1.2-.5c.01.08-.03.26-.11.49-.04.12-.09.24-.14.37-.27.65-.68,1.35-.95,1.07v-1.43ZM207.7,191.26l.24-.72h.48c.08.46-.28.8-.72.72ZM206.61,268.23l-.48,1.93c-.58-.22-.01-1.8.48-1.93ZM205.17,183.8c.06-.37-.26-.77-.02-.98h0s0,0,0,0c.02.01.03.02.04.03.34.22.51.54.53.86.03.56-.39,1.1-1.17,1.04-.02-.09-.03-.16-.03-.21.01-.41.56-.21.65-.74ZM205.41,272.58h-.24c-.17-.35.21-1.46.41-1.5.03,0,.05,0,.07.05l-.24,1.45ZM204.04,176.55h.74v.96h-.37c-.38-.25-.42-.52-.37-.96ZM204.69,274.03l-.72,2.9-.19-.79.91-2.11ZM203.3,313.37s.01.05,0,.09c0,.28-.19,1.05-.25,1.11-.04.03-.16-.01-.24,0-.01-.02-.02-.06-.02-.11-.01-.35.21-1.21.5-1.09ZM201.65,186.2l-1.44,3.14c-.03-.07-.04-.17-.04-.31.01-.98.68-3.45,1.48-2.83ZM199.85,261.97h.48l-.24.97h-.24v-.97ZM199.37,263.9c.04.45.07,1.06-.48,1.21-.02-.04-.02-.1-.02-.16,0-.45.38-1.31.5-1.05ZM197.93,268.97l.72-2.41c-.03.73,0,1.98-.72,2.41ZM198.45,294.18l-.48.37.12-.96.36.59ZM198.61,245.56c-.48.06-1.01-.44-.96-.96l.96.96ZM197.21,361.79c.07-.19.18-.39.29-.56.11-.17.24-.29.33-.33l-.24,1.45c-.48.14-.51-.18-.38-.56ZM189.12,192.98c-.63.1-1.25-.33-1.2-.96.47.24,1.3.26,1.2.96ZM186.28,205.57c.06-.04.14-.05.23-.05.17,0,.36.03.51.03.07,0,.13-.01.17-.04l.02-.7h.01s0,0,0,0l1.21.24h-.01c.27,1.11-.85.98-1.14,1.27-.25.25-.35,1.62-.79,1.98-.16.13-.37.19-.59.25-.01,0-.03,0-.04.01,0,0-.02,0-.03,0-.07.02-.14.04-.2.07-.3.11-.58.3-.7.76h0s0,0,0,0l-.61-.25c.4-.44,1.79-3.48,1.97-3.58ZM178.51,197.34c-.27.36-1.91.08-1.87-.51,0-.14.11-.29.34-.46.5-.27,1.89.49,1.53.97ZM177.49,191.6c.13.15.23.32.31.49s.13.37.15.56c.05.38,0,.78-.16,1.15-.1.23-1.1.1-.98,1.12-2.87-.13-1.95-4.16.68-3.32ZM171.33,231.61s0,0,0,0h0s.85.49.89.55h.01c.64.96-.31,3.93-1.01,3.79h0s0,0,0,0l-.83-1.76.94-2.58ZM170.78,351.76v.02s.02.02.02.02c.24.88.17,2.44.34,3.21.07.3.34.6.43.97.23.95.22,2.16.77,2.96.08.11.17.22.27.31.43-2.17-.86-4.14-1.1-6.27l.72-.25v.02s.01,0,.01,0l2.19,11.58c-.11-.07-.18-.16-.24-.26-.24-.38-.22-.96-.37-1.34-.12-.27-.34-.44-.84-.33l-.24.48v-.03s-.01,0-.01,0l-2.4-9.56c.06-.5-.41-1.74.45-1.54ZM176.54,255.27c.15.61,1.05.97,1.12,1.56l-.49.84,1.68.97-.14.48-.69.71h0s0,0,0,0l-.73-.41c-.66.06-1.07,2.24-1.2,2.84-.06.25.1.53.08.61-.03.14-.83.08-.19,1.08h-.84l.12.48s0,0-.01,0h0c-1.78-.35-.34-2.29-.76-3.59l-1.19-.43c.25-1.57-.24-3.53-.17-5,0-.3.44-.63.38-.96-.08-.43-1.75-1.9-.09-2.57h0s0,0,0,0l.16.43c.45-.27.76-.2,1,.02.4.36.57,1.1.8,1.26.26.18.97.12,1.2.45.23.33-.14.81-.04,1.23ZM177.58,368.18c.17.74-.35.35-.53.49-.16.13-.34.87-.67.47-.04-.04-.05-.09-.05-.15,0-.39.82-1.03,1.25-.81ZM170.81,360.23l-.48-2.17c.68.32.45,1.55.48,2.17ZM170.29,343.1v1.45s-.24,0-.24,0v-1.45s.24,0,.24,0ZM169.87,372.3h-.01s-.01-.02-.01-.02c0,0,0,0,0,0-.78-.74-.88-2.34-.96-3.37.05.02.09.05.13.09.26.27.4,1.04.48,1.36.16.62.29,1.29.36,1.93,0,0,0,0,.01.01ZM169.15,345.28c-.77-.08-.68-1.76-.27-1.8.06,0,.13.02.21.1l.25,1.69c-.07.01-.13.02-.19.01ZM167.4,337.06c1.15,1.1.97,3.52,1.21,5.06h0v.02c-.69.11-.41-.15-.52-.56-.1-.37-.18-.77-.26-1.17-.18-1-.29-2.06-.4-3.04-.01-.1-.02-.2-.03-.3,0,0,0,0,0,0,0,0,0,0,0-.01ZM168.59,330.79v-1.2h.24l.24,1.2h-.48ZM169.25,297.73v1.69s-.24,0-.24,0v-1.69s.24,0,.24,0ZM168.95,301.1s.05,0,.08,0h.01c-.05.57-.37,1.01-.46,1.59-.03.24-.06.48-.1.72-.03.25-.06.49-.09.75-.06.56-.12,1.14-.16,1.73,0,.13-.02.26-.03.39-.05.7-.08,1.41-.11,2.12,0,.03,0,.06,0,.1-.04,1.16-.04,2.3-.02,3.36.03,1.32.32,2.61.26,4.09-.01.29.18.9-.24.84,0,0,0,0,0,0,0,0,0,0-.01,0,.22-1.15-.4-2.19-.49-3.26-.28-3.46.01-8.5.94-11.83.11-.36-.22-.69.41-.6ZM166.27,229.34c.42.04,1.36-1.69,1.66-1.34,0,0,0,0,0,0h.01s.01.02.01.02c0,0,0,0,0,0,.44.56-.41,1.01-.42,1.07-.24.96.32,3.19-.77,3.26h0s0-.01-.01-.01l.22-1.17-1.42-.62h0s-.01-.01-.01-.01l.74-1.19ZM163.17,241.32l.45-.04h0c.11,1.04,1.63.68,1.46,1.92l.72-.25.24.97h-.01s0,.01,0,.01l-.47-.12.25.7-.5.62c.38-.2.87.06,1.2-.11.1-.05.17-.13.23-.22.11-.18.15-.39.26-.52.06-.07.13-.11.23-.12.24,1.17.03,1.73-.42,2.14-.45.41-1.16.67-1.92,1.22-1.21-1.05-2.52-1.56-3.93-2.28-.12-.38.06-.67.27-.86.16-.15.33-.26.41-.32.02-.02.03-.03.04-.04.08-.57-.3-1.74-.01-2.49h0s0,0,0-.01l.6.73.87-.92h0s0-.01,0-.01ZM165.91,314.5c-.43-5.11-.61-10.23-.75-15.32h.01s0,.01,0,.01l.47.61.26,6.62.48-.48s0,.02,0,.02h.01c-.52,2.43.12,4.91.25,7.35.18,3.18.16,6.36.5,9.53-.02-.01-.05-.04-.08-.07-.33-.29-.9-1.59-.91-1.75,0-.17.5,0,.52-.48.07-1.64-.61-4.29-.76-6.04ZM165.94,326.69c-.1.02-.18.02-.25.02-.04,0-.07,0-.1,0-.01,0-.03,0-.04,0-.24-.05-.05-.3-.12-.62-.6-2.85-.97-6.32-1.23-9.17-.53-5.74-.57-11.48-.51-17.25,0,0,.01,0,.02,0h0c.91-.1.87,1.83.88,2.49.08,3.87,0,7.82.14,11.64.01.45.56.91.39,1.26h.02s-.7.03-.43.9c.02.07.08.09.14.1.09,0,.2,0,.32.03.13.03.26.09.35.28.35.77.02,2.08.41,2.96-.07.1-.12.12-.18.1-.16-.04-.26-.55-.27-.64-.08-.58-.08-1.14-.07-1.72l-.46.58.98,9.04ZM162.54,313.92s-.05.1-.05.17c-.01.36.3,1,.19,1.4-.04.17-.15.3-.38.36-.57-5.53-1.11-11.08-1.23-16.65h0s0,0,0,0c.46-.08.65.19.72.6.06.33.08.71.09,1.11.01,1-.1,2.17-.1,3.16,0,.2,0,.39.02.56.11,1.86.53,3.78.5,5.66h0s.48-.95.48-.95c.02.2.03.41.03.62,0,.61-.05,1.25-.06,1.87,0,.83.08,1.63.52,2.34h0s0,0,0,.01l-.72-.24ZM162.77,318.26h-.24s0-1.69,0-1.69h.24s0,1.69,0,1.69ZM162.11,349.14l-.97-.24.37-.48h.35l.25.72ZM161.05,290.03s.06-.01.09,0c0,0,0,0,0,0,.03.01.05.03.08.05,0,0,.01.02.02.02.02.02.04.04.06.07.01.02.02.04.03.05.01.02.03.04.04.06.09.16.16.35.16.35v4.22c-.91.2-.34-1.16-.39-1.72-.1-1.05-.51-2.09-.1-3.1ZM159.63,342.14c.07-.02.17-.02.29,0h.01l.24,1.45h-.49c-.05-.41-.56-1.35-.05-1.46ZM159.44,310.12l.43-.31.24,2.41-.67-2.1ZM159.81,274.71s0-.02,0-.03c0-.18-.03-.36-.03-.5,0-.26.09-.41.52-.32h0c.06,1.42.23,2.84.37,4.26.05.47.09.94.12,1.41.05.64.27,1.78-.12,2.29-.03-2.38-.81-4.75-.86-7.11ZM159.31,266.51h.01s0,0,0-.01l.73-.13h-.01c-.13,2.32.11,4.6.25,6.89.02.25,0,.34-.06.37,0,0-.03,0-.04,0-.01,0-.02,0-.03,0-.07,0-.17,0-.35,0-.5-2.4.17-4.77-.5-7.12ZM159.31,260.83h.01s0,0,0,0c.41.26.52.78.53,1.35.01.57-.07,1.19-.05,1.65.02.49.2.92.21,1.39.01.28-.04.58-.21.91-.04.03-.14-.04-.25-.13-.02-.02-.04-.03-.06-.05-.1-.09-.19-.18-.19-.18v-4.94s0,0,.01,0h0s0-.02-.01-.02ZM161.03,282.3v3.38s-.23,0-.23,0v-3.38s.23,0,.23,0ZM160.8,288.1h0s0,0,0-.01h.73l-.12,1.21s0,0,0,0h0c-.68-.31-.69-.42-.61-1.2ZM161.05,295.09s0,0,.01,0h0s0,0-.01,0h.01s.08.08.11.11c.34.33.44,1.05.44,1.73,0,0,0,0,0,.01,0,.15,0,.3-.01.45-.02.29-.04.54-.06.72,0,.05-.01.1-.01.14-.02.2,0,.24-.16.24-.07,0-.17-.01-.31-.02v-3.38ZM163.17,254.79c-.64.14-.42-.16-.6-.47-.7-1.16-1.54-1.81.35-1.94l-.49,1.32.74,1.09ZM162.74,288.82l.74.13-.13,1.8h0s0,0,0,0l-.84-.24c.12-1.48-.88-2.78,1.19-2.9h0s.01,0,.01,0h0s0,0,0,0c.03.48-.23.5-.49.5-.04,0-.07,0-.11,0-.29,0-.54.03-.36.71ZM162.76,306.91v1.45h-.23l-.25-1.44h.48ZM162.79,319.94l.47.25.24-.73s0,.02,0,.02v-.02c.04.84.55,1.52-.46,1.93h-.02s-.24-1.45-.24-1.45h.01s0,0,0,0ZM163.88,352.95c.35.79.29,1.91.41,2.69-.76-.73-.78-2.37-.97-3.38.26.16.44.4.56.69ZM163.73,298.11c.69-1.43.22-3.52.59-5.07.08-.33.32-1.03.83-.85h0s0,.03,0,.04c-.29,1.03-.23,2.07-.37,3.04,0,0,0,0,0,.01-.02.11-.05.21-.09.32-.04.1-.1.2-.15.3-.1.19-.2.37-.22.51-.06.54.39,1.47,0,2.05l-.58-.35h0ZM165.39,286.16l.24,2.41c-1.1.11-.1-1.82-.24-2.41ZM165.16,296.29h0c.13-.58.15-1.23.25-1.8,0-.05.01-.1.01-.15,0-.14-.04-.27-.03-.35.01-.11.11-.16.48-.11h0c-.28.67.45,2.42-.72,2.41ZM165.37,299.08c-.06,0-.13-.04-.21-.14-.03-.13-.13-2.52.27-2.55.06,0,.13.04.21.14.03.13.13,2.52-.27,2.55ZM165.39,289.54c.08.11.1,2.12-.48,2.17.17-.55-.47-2.34.48-2.17ZM161.23,239.5c.07-.45.19-1.18.7-1.35l-.48,2.89c-.39-.03-.31-.97-.24-1.4,0-.06.02-.11.02-.14ZM160.97,243.94l-.24,1.21h-.48c-.02-.15-.03-.3-.02-.45.02-.44.18-.81.74-.76ZM160,248.15c.05-.83.3-1.7.37-2.53.63.81-.01,2.42-.12,3.38-.4.07-.27-.59-.25-.85ZM159.78,249.85c.03-.23.09-.46.21-.51.07-.04.16-.01.28.14h0s-.47,2.9-.47,2.9c0-.02,0-.04,0-.06v.07c.06-.81-.11-1.75-.01-2.54ZM159.3,259.42c0-.1.02-.2.03-.29,0-.09.01-.18.01-.26,0-.08,0-.15-.03-.21.55.21.11,1.45.24,1.93-.21-.08-.27-.3-.28-.58,0-.18.01-.39.03-.59ZM158.65,299.2c-.01,3.5.63,6.94.98,10.37l-.67-1.86-1.03-8.51h.72ZM157.93,296.78c.46.17.22,1.26.48,1.69-.11.03-.2.03-.27,0-.5-.13-.1-1.25-.21-1.7ZM157.67,294.38h-.24s0-1.45,0-1.45h.24s0,1.45,0,1.45ZM156.95,289.78c.88.47.36,1.84.48,2.65h0v.02c-.08,0-.15-.08-.21-.19-.13-.25-.19-.7-.22-.98,0-.08-.01-.14-.02-.18-.02-.22-.03-.44-.04-.66,0-.22,0-.43,0-.65ZM155.86,209.44h.96c-.13.48-.51.54-.96.48v-.48ZM156.18,304.7l.55,3.67-.66-2.11-.55-3.44.66,1.88ZM155.58,344.08c-.55-.14-.52-.75-.48-1.2.12-.26.49.59.5,1.04,0,.06,0,.12-.02.16ZM155.07,332.02v-.96s.48,0,.48,0v.96s-.48,0-.48,0ZM155.04,300.17l.48,2.41c-.73-.4-.43-1.71-.48-2.41ZM154.99,275.07c-.78-.49-.4-1.88-.48-2.65.36-.02.42.86.45,1.11.06.51.04,1.03.03,1.54ZM154.83,326.71c-1.14-.9-.61-2.69-.75-3.96-.07-.65-1.07-2.15.01-2.1.07,0,.15.01.25.03h0s-.01.03-.02.04c-.56.79.16,1.28.22,1.83.16,1.15-.18,2.87.29,4.16,0,0,0,0,0,0h0ZM148.26,340.8c.3.28.7,1.2.88,1.3.29.17.74-.03,1.02.3.05.05.08.13.11.22.07.18.12.43.21.66.04.11.1.22.17.32.59.81,1.81,1.4,2.04,2.42h0s-.06.02-.12,0c-.41-.13-1.61-1.14-1.81-1.32,0,0,0,0,0,0-.02-.02-.05-.05-.07-.07-1.28-1.12-3.65-3.37-4.63-4.62,0,0,0,0,0-.01-.21-.27-.47-.53-.57-.86-.03-.11-.05-.22-.03-.35.02-.02.11.03.23.11.23.15.54.4.63.47h0c.6.48,1.51,1.01,1.95,1.43ZM147.3,299.82v-.85s0,0,.01,0h0s.04.01.06.02c.15.04.33.21.39.29.02.02.04.05.04.05v3.5h0s0,0,0,0h-.01v-.06l-.49-2.95ZM147.22,250.97v-1.45s.24,0,.24,0v1.45s-.24,0-.24,0ZM146.72,226.34c.69.45,1.51,2.1,2.06,3.77.55,1.67.85,3.38.49,3.96-.06.09-.14.15-.22.18,0,0-.01,0-.02,0-.08.02-.16.02-.25,0-.03,0-.05,0-.07-.02-.07-.02-.13-.04-.19-.07-.03-.02-.06-.03-.09-.05-.07-.04-.14-.09-.19-.14-.56-.54-2-7.26-1.52-7.65ZM146.26,265.35c-.02-.31.02-.59.27-.64.69,1.03.13,1.41-.24,2.41-1.29-.06-.02-.82,0-.88.01-.05.02-.12.02-.19,0-.21-.04-.47-.05-.7ZM146.83,261.91c-.14.17-.34.3-.54.38-.04-.22.04-.42.18-.59.14-.17.34-.3.54-.38.04.22-.04.42-.18.59ZM149.53,337.34l-1.2-1.09c-.09-.21,0-.33.12-.38.12-.06.29-.05.37.01h-.01c.06.06.69,1.22.73,1.45l-.02-.02s0,.02,0,.03ZM148.71,268.33h-.48v-.96c.48.13.54.51.48.96ZM148.45,258.67l.24-.96h.24v.96h-.48ZM148.9,239.38h-.24s0-1.45,0-1.45h.24s0,1.45,0,1.45ZM148.2,249.03h.96c-.13.48-.51.54-.96.48v-.48ZM151.7,330.33c.15.05.26.13.33.23.22.31.15.82.15,1.22h-.24l-.24-1.45h0s0,0,0,0ZM153.2,362.42c-.45.07-.84,0-.97-.48.45-.07.84,0,.97.48ZM153.14,326.24c-.25.2-.57.1-.75-.34-.24-.58-.55-3.07-.67-3.91-.01-.09-.03-.19-.04-.29-.17-1.2-.37-2.74-.46-4,0-.06,0-.12-.01-.18,0,0,0-.02,0-.03-.01-.19-.02-.36-.02-.53,0-.19-.04-.42-.04-.62,0-.34.08-.61.53-.49h0c.3.33.4,5.23.51,6.14.06.51.36.96.44,1.49.01.08.02.17.02.26.03.59-.04,1.4,0,1.79,0,.02,0,.05,0,.07.02.1.58.21.6.42,0,.06-.02.13-.13.22ZM152.62,223.44h.36v.96h-.72c-.02-.11-.02-.21-.02-.3,0-.27.1-.47.38-.66ZM153.53,265.42l.48,2.17c-.97.15-.3-1.68-.48-2.17ZM154.74,272.18c-.26.05-.38.04-.44-.02-.1-.08-.01-.28-.08-.54-.29-1.08-.39-2.42-.45-3.54,1.04.99.49,2.84.97,4.1ZM153.98,247.08l-.16-5.63.63-2.57c-.32,2.75.08,5.49-.47,8.2ZM153.95,223.2s0-.03,0-.04v.04c-.08-.48.09-1.08,0-1.53-.05-.25-.72,0-.49-.64h.98l-.48,2.17ZM153.69,224.4s0,0,0,0c0,0,0,0,0,0,.12.34-.71,2.95-1.19,2.42h0s-.01,0-.01,0h-.01s0,0,0,0l-.25-1.93c.34-.04.74.08,1.05,0,.28-.07,0-.59.39-.49ZM152.79,260.24c-.02-.36.02-.39.22-.38.07,0,.15.01.27.02h.01c.04,1.47.28,2.92.33,4.4.01.35.3.59-.21.91,0,0,0,0,0,0,0,0,0,0,0,0-.18-1.6-.51-3.35-.61-4.95ZM153.74,330.54c.1,0,.22,0,.37.03l-.12,1.21c-.62-.5-.97-1.21-.25-1.24ZM154,332.02l.36.6-.48.37.12-.97ZM153.46,220.54v-2.41l.43.17.19-.43.82.26-1.44,2.41ZM152.89,162.63c.05-.07.73.48.86.59h0c.68.55.86,1.14.83,2.05h0s0,0,0,.01l-.83-.25-.37.5-.49-2.89s0,0,0,0h0ZM147.37,192.32s0,0,0,0c0,0,0,0,0,0,.12.13.52.3.76.4.05.02.1.04.13.05.04.02.07.03.07.03h.01s-.01.17,0,.23h-.01s0,0,0,.01h-.59c-.29-.19-.45-.38-.38-.72ZM144.27,210.75c.24-2.74.37-5.69.72-8.43.15-1.18.55-4.46,2.04-4.45.18,0,3.29.9,3.44,1v.02c.31.22.57,1.71.82,2.2.22.42,1.42,1.69,1.49,1.89.59,1.52-.59,5.7-.78,7.55-.19,1.85.03,6.01-.48,7.41,0,0,0,0,0,0,0,0,0,0,0,.01-.11.3-.54.3-.69.51,0,0-.01,0-.01.02v.48c.23.15.47.08.5.47,0,.01,0,.02,0,.03.07.96-.4,2.79-.5,3.86,0,.1,0,.21,0,.33.02.38.08.84.07,1.23-.02.5-.17.85-.71.74l.64.22s.05.09.05.17c.02.2-.05.54-.06.85-.02.41.05.76.51.67l-.04.02s.02,0,.04,0l-.47.24.98,3.68h0s0,.02,0,.02l-1.56.65c-.19,0-1.1-3.07-1.31-3.55-.59-1.33-1.88-2.62-1.76-4.06,0,0,0,0,0,0,0,0,0-.01,0-.02.17-2.02,3.34-.8,3.39-2.06,0-.08,0-.17-.03-.28-.02-.08-.92-1.48-1-1.55-1.03-.9-3.27,1.01-3.4,2.48-.01.2.01.4.09.57,0,0,0,0,0,0,0,0,0,.01,0,.02-.05.07-.28-.13-.36-.24-.82-1.24-1.71-10.38-1.61-12.51,0-.06,0-.14,0-.19ZM144.6,264.96h.48s0,.01,0,.03c.04.08.16.5.2.73,0,.04.02.08.02.1.04.52-.12.84-.32,1-.35.3-.83.08-.58-.46.06-.13.15-.28.31-.44l.35.47-.47-1.43ZM145.42,324.8c-.39-.17-.8-.52-.72-.96.39.17.8.52.72.96ZM144.81,244.93v-1.21h.72c.09.55-.21,1.01-.72,1.21ZM144.52,331.38s.03.04.05.05c1.01,1.13,1.98,2.74,3.27,3.49,0,0,0,0,.02.01h0s-.49.36-.49.36l-3.62-4.46h0,0c.51-.13.54.28.78.55ZM138.06,218.93c1.13-.14,2.24-.63,3.36-.65.19,0,.37,0,.56.03.19.03.38.07.57.13.39.73.14,1.76.34,2.44.16.54,1.16.8.92,1.61-.1.04-.2.05-.3.06-.59.03-1.22-.43-1.71-.5-.08,0-.15-.01-.22,0-.85.18-1.39,1.48-2.37,1.44-.33,0-.7-.17-1.15-.56v-4ZM142.8,350.86c-.45.1-.66-.3-.96-.6v-.36h.48l.49.96s0,0-.01,0h0ZM141.08,326.98s0,0,0,0c0,0,0,0,0-.01.41.27.77.82,1.06,1.23.37.52.88,1.3,1.1,1.89,0,0,0,0,0,0h0v.02s0-.01,0-.02c-.88-.83-1.92-1.91-2.16-3.12ZM141.31,318.05c.71.45.94,1.64,1.21,2.41-.63-.37-1.19-1.65-1.21-2.41ZM141.06,317.56l-1.13-1.39-.31-1.02,1.44,2.41ZM138.17,314.31l.96-.12h0v.48h0c-.44.06-.7.01-.96-.36h0,0ZM136.46,320.5l.75,1.41-1.44-1.08.69-.33ZM135.39,321.33c.99,1.16,2.56,2.24,3.36,3.26.53.68.99,1.32.99,1.99,0,.4-.17.81-.58,1.24l.48.12c.02.08.03.14.04.2.03.37-.25.2-.54.43l.26,1.06h0s-.01,0-.02,0c-.17.07-1.58-.45-1.63-.52,0,0,0,0,0,0-.03-.04-.05-.1-.05-.17,0-.14.02-.31,0-.47,0-.08-.02-.16-.06-.22-.02-.03-.06-.1-.11-.15-.03-.05-.07-.1-.12-.16-.13-.18-.31-.4-.51-.65-.6-.76-1.35-1.7-1.55-2.05-.02-.04-.06-.1-.07-.12,0,0,0,0,0,0-.16-.56.04-1.13-.31-1.82,0,0,0,0,0,0-.48-.97-2.73-1.88-1.16-3.77,0,0,0,0,0,0,.21-.13,1.32,1.54,1.55,1.82h0ZM139.19,346.53h-.01c-.25.05-.36.03-.43-.03-.11-.09-.08-.29-.2-.44-.04-.05-.08-.11-.13-.16-.13-.16-.26-.33-.38-.52-.16-.26-.3-.54-.32-.78.05,0,.11.04.18.1.47.36,1.36,1.76,1.28,1.84ZM136.04,342.67c-.39-.17-.8-.52-.72-.96.39.17.8.52.72.96ZM134.07,318.54h.72l-.11.72-.61-.72ZM134.28,225.4l.61.24-.37.48-.59-.36.35-.36ZM134.4,226.37v.48s-.72,0-.72,0v-.48s.72,0,.72,0ZM133.06,211.17c.2.16.35.28.37.49,0,.07,0,.14-.01.23l-.96-.36.6-.36ZM132.63,325.3l-.96-.96c.24-.03.49.08.68.26.19.18.31.44.28.7ZM129.73,320.96l-.48-1.44,1.69.48.11-.73,1.1,2.65-2.38.23-1-1.31.96.12ZM128.53,321.22s0,.16,0,.22h-.01s0,0,0,.01h-.59c-.29-.19-.45-.38-.38-.72,0,0,0,0,0,0,0,0,0,0,0,0,.12.13.52.3.76.4.05.02.09.03.12.05.04.02.08.03.08.03h0ZM127.31,316.86s-.16-.01-.24,0c-.08-.17,0-.82.18-1.19.08-.18.18-.3.3-.26.01.02.02.06.02.11.01.34-.17,1.24-.26,1.34ZM127.79,309.39c.39.17.8.52.72.96-.39-.17-.8-.52-.72-.96ZM127.4,216.72h.96c-.13.48-.51.54-.96.48v-.48ZM127.64,218.65s0,0,0,0h0c.25,0,.62,1,.65,1.15.09.43.1.82.07,1.25h0s-.01,0-.01,0h-.01s0,0,0,0l-.94-.94.24,1.31-.73.12h0s-.01,0-.01,0l.72-2.89ZM126.56,222.39c.04-.17.08-.29.12-.36.09,0,.16.07.23.17.07.09.13.22.19.35.11.27.18.56.2.69.19,1.01.33,2.9-.49,3.61-.08,0-.15-.06-.21-.17s-.1-.28-.14-.49c-.02-.1-.03-.21-.04-.33-.04-.36-.05-.77-.05-1.2,0-.86.09-1.76.19-2.26ZM125.92,333.45c.58.83,1.14,1.66,1.66,2.48h0s0,0,0,0c.06,0,.18-.02.3,0,.02,0,.05.02.07.03.01,0,.03,0,.04.02,0,0,0,0,0,0,0,0,.01,0,.02,0,.32.23,1.71,2.82,2.23,3.32-.22.05-.37-.01-.5-.12-.13-.1-.24-.24-.37-.37-.89-.93-1.23-1.98-1.8-2.89,0,0,0,0,0,0h0s0,0,0,0c-.52-.29-1.68-1.66-3-3.33-2.05-2.6-4.49-5.93-5.47-7.08-2.47-2.89-5.55-5.62-7.96-8.5-.17-.2-.41-.32-.48-.55-.03-.08-.03-.17,0-.29.25-.06.39.02.5.14.11.12.2.3.36.45,4.96,4.7,10.33,10.82,14.4,16.68ZM121.21,269.58h0s.16.14.32.16c.08.01.15-.01.21-.1s.09-.26.08-.53l.6,1.07c-.14.17-.26.36-.46.38-.07,0-.14,0-.23-.04-.05-.02-.6-.67-.51-.93,0,0,0,0,0,0ZM114.67,257.77l.23.82-.95.39c.04-.47.02-1.39.72-1.21ZM110.34,285.28s.02,0,.03,0c0,0,0,0,0,0,.66.04.18.91.24.96h.03s.05,0,.1,0c.06,0,.13-.01.21-.01.16,0,.34.01.44.15.33.47-.06,1.27.57,1.35.09,0,.19,0,.31-.02,0,0,0,0,0,0,.01,0,.02,0,.03,0-.02,1.22,1.19,1.29.76,2.86l.69-.23s0,0,0,.01h.03c-.29.63.91,1.67.91,1.8-.03.58-.36-.05-.02,1.29.54,2.14,1.76,3.8,1.91,5.83.05.7.05,1.91-.37,2.42.11.03.19.04.27.04.38-.04.42-.48.65-.5.09-.02.21.02.41.21.1.15-.07,1.83-.46,1.95-.04.02-.09.01-.14-.01v.23c.51-.08.54.27.48.72l.69-.23h0s.03,0,.03,0l.26,1.92h.93s0,0,0,.01h.03c-.29.42.11.74.16,1.11.03.27-.24.74-.17.81.04.05.86-.02,1.11.49.2.39-.1.63-.1.85,0,.14.41.07.45.27.06.27-.23.82-.02,1.24l.23-.8.47-.12s0,0,0,0h.03c.51,1.13-.84,2.06.27,2.99l-.39.86s-.02,0-.03,0h0c-.34.07-1.07-1.11-1.45-1.44-.28-.25-.77-.27-1.1-.59-.56-.54-2.74-5.95-3.24-7.15-1.89-4.58-3.4-9.25-4.45-14.15-.14-.68-.94-4.92-.79-5.13ZM107.91,313.02c.22.22.62.18.76.32h-.01c.15.15.15.62.42.91.49.54,1.3.59,1.11,1.43,0,0,0,0,0-.01,0,0,0,0,0,.01-.33-.64-1.36-.7-1.41-.77-.1-.13-.06-.54-.27-.8-.52-.64-1.68-1.63-1.58-2.29,0,0,0,0,.01,0,0,0,0,0,0,0,.46.28.66.87.98,1.2ZM106.55,307.97h.72s0,.01,0,.01c-.04.15-.04.38-.02.64.02.27.06.56.07.84.02.41-.02.77-.24.9-.07.04-.17.06-.29.04l-.24-2.41h0,0ZM103.89,306.53l-.36.47c-.29-.31-.7-.5-.6-.96l.96.49ZM102.17,315.69c-.94-.69-1.89-1.9-3.08-2.16h.05s-.03-.02-.05-.02l.95-.11c1.89,1.67,4.22,2.78,6.2,4.29v.02c3.62,2.76,6.85,7.04,10,10.38,3.82,4.05,7.61,7.88,11.36,11.98,5.99,6.54,11.94,13.04,19.02,18.49.36.28,1.25.99,1.73.85-.29-1.03-1.1-.65-1.43-.84,0,0,0-.01,0-.02,0,0,0,0,0,0-.01,0,.04-.1.08-.21.03-.12.04-.26-.07-.36-.23-.2-.69-.21-.92-.43-3.21-3.18-6.75-6.85-9.72-10.24-1.72-1.97-3.18-4.17-5.01-6.03l-.32-.89h0s0-.02,0-.02l.48-.12c.68,1,1.42,2.06,2.19,3,3.4,4.15,7.03,8.2,10.95,11.85.52.48,6.54,5.26,6.2,5.62h0s0,.02,0,.02l-.7.12c.56.39,1.29,1.54,1.77,1.81.49.28,1.19.16,1.31.26.04.03.05.14.06.27,0,.04,0,.07.01.12.02.17.06.34.19.44.25.18.74.02.93.15.17.11.13.58.26.76.22.28,1.15.37,1.4.7,0,0,0,.02,0,.02,0,0,0,0,0,0,.03.03-.02.18-.02.33,0,.14.04.29.22.32.4.07.55,0,.55-.13-.03-.3-.67-.88-.67-.93,0,0,0,0,0-.01,0,0,0,0,0,0-.04-.37.82-.28.94-.1.03.04.04.12.04.22,0,.19-.02.45-.02.7,0,.12.02.24.05.33.18.6,1.21.87,1.16,1.62,0,0,0,0,0,0,0,0,0,.01,0,.02-.22.21-2-1.18-2.26-1.35-9.29-6-19.03-14.35-26.38-22.83-.62-.72-.97-1.77-1.39-2.24-3.78-4.3-8.27-8.03-12.14-12.22-2.7-2.93-5.57-7.03-8.44-9.55-1.65-1.46-3.72-2.57-5.49-3.86ZM129.56,355.72c-.5,1.07.87,1.07,1.2,1.92h-.04s0,0,0,0l-4.91-1.49-1.94-1.62-.12.71h-.03s0,0,0,0l-1.45-.24v-.72l.96-.36c-4.18-3.65-7.42-8.25-10.63-12.78l.47-.36h.06l.98,1.91,1.41-.47h0s.03,0,.03,0l-.26,1.29c.59.43.84.3.51,1.11l1.41-.47s0,0,0,0h.03c.19.66-.39.35-.56.76-.16.37-.18.76-.16,1.15.15-.06.28-.09.38-.1.33-.04.5.15.69.57l.58-.46v.03s.03-.03.03-.03l-.26.81c.6.24.56.49.5,1.12l2.19.11c-.05,1.52.59,1.07.96,1.49.27.31.69,1.26.96,1.42.05.03.12.05.19.05.26,0,.6-.18.91-.17.32,0,.6.18.73.94.05.31-.21.38-.24.49-.09.3,0,.4.17.41.24,0,.58-.13.75-.14.05,0,.09,0,.11,0,.37.22,2.09,2.25,2.26,2.32.11.01.3-.11.48-.11.07,0,.13,0,.2.04.32.21.37.93,1.09.92.1,0,.21-.02.34-.06,0,0,0,0,0,0,.01,0,.02,0,.03,0ZM127.38,359.09h-.96v-.48c.45-.06.83,0,.96.48ZM120.52,355.62c-.84-.44-1.61-1.02-2.4-1.4-.16-.08-.34-.1-.5-.09-.08,0-.16,0-.23,0-.34.02-.48,0,.09-.81.5.88,1.83.41,1.92.47.07.05.06.7.31.91l3.56,1.5c-.26.04-.5.06-.74.04-.72-.03-1.38-.29-2.01-.62ZM120.86,356.45l-.35.24c-.24-.37-1.77-.33-1.57-.84.31-.79,1.01,0,1.33.23.16.11.27.44.59.37ZM117,353.55l-.97-.24v-.23l.72-.25.25.72ZM114.09,350.91c-.37.35-3.11-2.59-3.53-2.86-.35-.22-1.02-.24-1.06-.27,0,0,0,0,0,0,0,0,0,0,0,0-.02-.02.15-.26.15-.56,0-.1-.02-.21-.07-.32-.05-.11-.12-.19-.19-.27,0,0,0,0,0,0-.04-.04-.09-.07-.13-.1-.04-.03-.08-.07-.12-.09-.17-.11-.34-.2-.45-.35-.66-.97-2.78-4.33-2.8-5.62,0-.09,0-.17.02-.23.08-.29.39-.47.69-.39h0s7.5,11.07,7.5,11.07c0,0,0,0,0,0h0ZM105.4,342.24c.72-.1.73.75.97,1.2-.09.02-.16.03-.23.02-.47-.07-.43-.87-.74-1.22ZM106.12,345.37l-1.93-2.53c.06-.26.48-.14.67-.05.4.18,1.13,2.04,1.26,2.58ZM111.18,338.36l.72.61-.47.36-.25-.97ZM119.62,336.9c.89-.11,1.28.64,1.8,1.09.32.28.84.72,1.09,1.03.14.17.41.54.07.55-.05,0-.11,0-.18-.02-1.24-.79-1.61-1.91-2.78-2.65ZM123.25,340.75l.12-.48,1.29.04.28.93-1.69-.49ZM101.05,340.07c.34-.33,1.14.16,1.43.65.12.2.17.41.02.55-.47.45-1.93-.73-1.45-1.2ZM100.11,351.41c-.71-.05-1.29-.92-1.69-1.44.71.05,1.29.92,1.69,1.44ZM98.17,349.97l-.96-.96c.48-.06,1.01.44.96.96ZM89.97,349.26c-.4.82-1.34-.51-1.54-.63-.76-.45-1.87-.7-2.32-1.54,1.44.2,2.48,1.7,3.86,2.17ZM86.36,351.65c.45.35.92.69,1.39,1.02.09.06.19.13.28.2,0,0,0,0-.01,0,0,0,0,0,.01,0-.43.07-.72-.05-1.1-.22-2.11-.96-4.32-3.43-6.38-4.6h0s0,0,0-.01l.12-.48c.21-.02.34-.02.53.09h0c.87.49,2.43,1.9,3.33,2.57.62.46,1.22.95,1.82,1.42ZM75.63,337.05s0,0,0,0c0,0,0,0,0,0,1.63,1.56,3.24,3.6,4.66,5.2.06.04.38.07.61.23,1.11.73,2.6,2.71,3.74,3.62l-.04-.03s.04.03.06.05l-4.28-3.44s0,0,0,0h-.02c-.12-.15-.04-.39-.07-.42-.88-.69-1.78-1.48-2.64-2.32-.86-.84-1.69-1.73-2.43-2.62-.12-.13-.26-.23-.36-.35-.1-.12-.17-.26-.12-.49.01,0,.07.02.14.07.09.05.22.13.34.22.17.12.34.24.39.29ZM72.58,334.56l.96.49h.01s0,.47,0,.47h-.01s-.36.01-.36.01c-.3-.3-.7-.51-.61-.96h.01s0,0,0-.01ZM69.19,331.68l2.66,2.04.47.84s0,0,0,0h0v.02h0c-.13.08-2.22-1.74-2.45-1.95-.22-.21-.55-.39-.66-.66-.02-.04,0-.09-.01-.13,0-.05-.03-.1-.01-.16h0s0,0,0-.01ZM68.71,331.19l-.85-.48-2.29-2.41c1.24.51,2.23,1.91,3.14,2.89ZM64.12,326.85c-.71-.05-1.29-.92-1.69-1.44.71.05,1.29.92,1.69,1.44ZM61.94,324.45c.15,1.26-1.61-.67-1.93-.96l1.93.96ZM59.05,322.52c.46-.08.8.28.72.72l-.72-.24v-.48ZM35.63,313.88l2.39,1.58.75.82c-1.16-.41-2.34-1.47-3.14-2.4ZM39.51,329.31c.32-.02.66.09.96.27.3.18.57.43.73.69-.63.04-1.37-.43-1.69-.96ZM47.24,333.64h0l-.12.48c-1.68-1.18-3.68-1.98-5.19-3.37h0,0c.49-.14.66.18.97.35,1.46.82,2.82,1.83,4.34,2.54h0ZM60.04,341.1l-1.17-.4-2.69-1.52h0,0c.16-.03.33-.04.5-.02,1.19.1,2.55,1.2,3.36,1.94h0ZM60.52,341.34c.45-.07.84,0,.97.48-.45.07-.84,0-.97-.48ZM55.19,328.33c-2.19-1.57-11.69-7.69-12.56-9.15-.54-.33-1.07-.49-1.74-.98-.41-.31-1.08-1-1.4-1.43h.02s-.01,0-.02-.01l3.09,1.98c.12.12.02.36.05.42,3.48,2.13,6.06,4.3,9.27,6.65,1.27.93,2.35.97,3.29,2.5,4.58,3.29,8.7,6.83,13.23,10.1,3.5,2.53,8.44,5.06,11.41,8.07.25.26.57.42.48.85h0s0,.01,0,.02l-15.43-10.98c-1.83-1.38-8.83-6.64-9.69-8.04ZM92.64,358.67l-28.73-15.16s0,0,0,0h0c.19-.61,1.64.12,1.99.3,3.63,1.87,7.26,3.94,10.94,5.82h0c5.08,2.61,10.46,5.27,15.35,8.42.27.18.51.06.48.43,0,.06-.01.12-.03.2ZM95.18,360.34c-.89-.34-.12-1.42.6,0-.19-.02-.46.05-.6,0ZM97.22,361.07c-.88,0-.88-.72,0-.72v.72ZM101.57,360.75s0,.04,0,.06c-.03-.01-.06-.03-.1-.05-.67-.31-3.12-1.54-3.24-1.68-.06-.08-.06-.18-.05-.26,0-.07.02-.14,0-.17h0c-.24-.06-.54-.17-.87-.3-.17-.07-.34-.14-.52-.22-.37-.16-.76-.34-1.17-.54-2.28-1.11-5.1-2.75-6.4-3.6-.26-.16-.57-.35-.77-.6-.07-.08-.12-.17-.16-.27.56.23,1.21.48,1.74.74,2.05,1.01,4.86,2.27,7.06,3.57,0,0,.01,0,.02.01.1.06.18.11.26.16.52.32.51.41.82,1.05.23.06.6.02.96.12.74.19.79.6,1.05.76,0,0,0,0,0,0,0,0,0,0,0,0,.46.27,1.3.08,1.38.88.01.1,0,.22-.01.35ZM102.77,361.54l-.72-.24v-.48h.72v.72ZM106.56,361c-.14-.08-.26-.19-.42-.3,0,0,0,0-.01,0-1.1-.7-2.32-1.79-3.39-2.58-.01,0-.02-.02-.03-.03l-10.56-6.79s.1-.03.16-.03c.45,0,1.31.5,1.68.73,1.97,1.22,4.02,2.53,5.96,3.8,2.46,1.6,5.02,3.29,7.17,5.25-.24.06-.41.03-.55-.05ZM106.51,350.43c-.74-.75-2.58-1.38-2.15-2.58,0,0,0,0,0-.01,0,0,0,0,0,0,.09-.25.42-.29.47-.37.1-.22.19-.81.46-1.14.09-.12.21-.22.35-.25.68,1.23,1.78,2.46,2.8,3.48v.02c3.33,3.36,7.27,5,10.86,7.84.17.14.36.25.59.24,0,0,0,.01-.01.02,0,0,0,0,0,0-.14.16-.23.3-.29.42-.38.87,1.19.84,1.97,1.51l-.45,1.06.24.24c.63.31,2.28.65,2.75,1.06.29.26.1.69.15.75.02.03.47-.31.72-.14.17.11.25.51.53.72.9.67,1.83.83,2.26,2.07l.23-.47s0,0,0,0v-.02c.67-.22.58.47.76.48.81.07,1.79-.52,1.3,1.21h1.69l-.24.72c1.49.47,3.49-.03,4.11,1.68,0,0-.02,0-.03,0,0,.01.01.02.02.03-2.63-.87-5.26-1.8-7.95-2.53-.53-.15-1.1-.02-1.54-.15-.48-.15-.5-.72-.96-1-1.1-.67-3.2-1-4.49-1.52-6.71-2.7-9.3-8.38-14.16-13.35ZM121.29,369.63c-.39-.06-.79-.11-1.19-.22-.13-.03-.25-.06-.38-.11-.39-.14-.65.13-.53-.54h0s0,0,0,0l2.64.5c.08.15,0,.32.02.46.52.1,1.02.18,1.53.27.04,0,.08.01.11.02.25.04.49.09.74.15.02,0,.05,0,.07.01.28.07.56.14.84.24.37.13.69-.22.57.51h-.02s0,0,0,0l-3.86-.72c-.02-.15.02-.33,0-.48-.18-.04-.37-.06-.55-.09ZM116.45,366.36c-.05.01-.13,0-.25-.03-.08-.02-.17-.05-.26-.08-.55-.17-1.24-.42-1.79-.75-.31-.18-.58-.38-.75-.59.16-.03.31-.03.45-.01,1,.1,1.65,1.09,2.7.97h-.01c0,.26.07.46-.09.49ZM109.78,365.38h0s0,0,0,0l.59-.48c.46.3,1.01.37,1.49.58h0c1.34.57,2.62,1.37,4.01,1.91.46.18.94.33,1.43.43l1.17.93h0,0c-3.06-.67-5.86-2.11-8.69-3.37ZM124.02,372.37c-.73-.04-1.75-.11-2.43-.35-.54-.19-.46-.56-.5-.57-.22-.08-1.94-.18-2.79-.47-.53-.17-2.94-1.13-3.2-1.38-.21-.2-.33-.23-.25-.59,0,0,0,0,0,0,0,0,0,0,0-.01.42-.04.75.2,1.11.34h-.01c1.15.47,2.62.96,3.94,1.49,1.32.53.97.16,2.01.38.36.08,1.84.78,2.12,1.15,0,0-.01,0-.02,0,0,0,0,0,.01.01ZM128.6,373.57c-.14.08-.87,0-1.7-.16-.05,0-.09-.02-.14-.03-.26-.05-.53-.12-.79-.18-.43-.11-.84-.24-1.16-.38-.43-.18-.7-.38-.65-.56.01-.05.04-.09.1-.14.39,0,.76-.09,1.14.07h0s.06.12.13.23c.05.08.13.16.27.21.94.32,1.51.32,2.44.45.43.06.4-.12.36.48ZM130.04,372.5c-.72-.18-3.17-.85-3.67-1.15-.3-.18-.49-.25-.42-.64,0-.01,0-.02,0-.04.39.01.77-.09,1.14.07h0c.66.3,1.66.68,2.56.93.23.06,3.26.51,3.42,1.13.03.09,0,.18-.12.28-.94-.26-1.98-.35-2.91-.58ZM133.92,375.01l-3.38-.72h0s0-.01,0-.01l.36-.72c.21-.08.05.34.17.41h0c.34.22.99-.04,1.4.19l1.45.84h-.03s.03.01.03.01ZM148.4,377.16h0c-.07.44-1.26.28-1.58.26-2.38-.16-5.51-.73-7.84-1.32-.3-.08-1.16-.25-1.2-.61h0s0,0,0,0l10.62,1.67h0ZM151.29,376.67l-18.1-3.35.55-.69s0,0,0,0h0c1.14.5,2.38.64,3.6.82.28.04.55.09.83.14.04,0,.09.01.13.02.57.12,2.65.43,2.78.49h.01c2.09.96,5.9,1.2,8.76,1.95.04.01.08.02.13.03.19.04.44.1.68.18.3.1.57.22.63.39h-.01s0,0,0,0ZM140.18,370.17c-1.01.14-1.93-.39-2.71-.97-.12-.09-.92-.74-.67-.95,0,0,0,0,0,0,0,0,0,0,0-.01.31.18,1.02.04,1.21.14.39.21.51.96.86,1.03.22.05.63-.28.78-.18h.01s.36.75.52.93c0,0-.01,0-.02,0,0,0,0,0,0,0ZM144.53,371.13c.13-.06,1.13.17,1.2.24h0s-.01.16,0,.24c-.02.01-.06.02-.11.02-.35.01-1.21-.21-1.09-.5h0ZM146.22,371.85v-.24h1.2v.48l-1.2-.24ZM158.51,370.15l-5.11-2.91c-2.41-1.68-4.77-3.43-7.07-5.24-4.86-3.81-9.5-7.89-14.02-12.12-1.92-1.79-3.81-3.61-5.69-5.45l-.72-2.11h0s0,0,0,0l.48-.12h0s0,.02,0,.02l.49.62-.24.57.96-.12h0v.85c1.25-.26,1.59,1.21,2.31,1.92.22.22.52.04.83.34.46.47.99,1.54,1.47,1.94.44.37.89.12.91.16,2.18,2.87,4.41,3.73,6.71,6.31,1.06,1.19.73.56,1.25.94.41.3,1.66,2.23,1.78,2.31.18.12.61-.05.85.1.21.13.63.98,1.27.9h0s0,.01,0,0l-.47.47c.26.02.57-.05.8.04,1.22.5,3.74,3.12,5.06,3.98.37.24,2.39,1.03,2.58,1.3h0s0,0,0,0l-.23.69c1.05-.43.75-.06,1.07.14.98.59,1.35,1.12,2.07,1.66.89.68,2.55,1.03,2.69,2.22.02.17.01.36-.04.57ZM158.73,350.59h-.01c-.55-.22-1.05-1.33-1.15-1.86-.4-2.19-.86-4.24-1.36-6.37-.11-.47-.19-.94-.15-1.42,0,0,0,0,.01,0,0,0,0,0,0,0,.42.1.53.56.66.91.95,2.64,1.26,6,2.01,8.74h-.01ZM160.21,371.1h0s-1.2-.23-1.2-.23h0v-.24h0s.81-.23.81-.23c.24.11.38.26.4.47,0,.07,0,.15-.01.23ZM162.12,358.08c-.36.09-.48-.06-.51-.29-.04-.3.08-.74.05-1,0-.06-.03-.11-.06-.14l-.7-.17s0-.09,0-.13c0-.11,0-.23-.02-.33-.1-.42-.37-.79-.45-1.21-.53-2.97-1.72-6.28-2.38-9.45-.24-1.15-.27-2.5-.37-3.53-.05-.55-.79-1.45-.76-2.32,0-.3.1-.59.34-.87l.48.24s0,.01,0,.02h0c-.17.26-.21.49-.18.73.1.72.9,1.38.94,2.15,0,0,0,.01,0,.02,0,0,0,0,0,0,.04.69-.38,1.6-.32,2.43,0,.11.03.22.06.33v-.02l.72-.48c-.09.92.64,2.05.73,2.8,0,.08,0,.14.01.2.04.57-.08.69-.07.93,0,.16.07.39.28.85,1.18,2.59,1.34,6.46,2.21,9.22,0,0,0,0,0,0,0,0,0,.01,0,.02ZM164.19,358.55l-.5.73c-.67,0-1.24-4.69-1.39-5.37-.16-.74-.83-2.13-.93-3.17-.03-.35,0-.66.13-.9l.82.04v.02l1.87,8.63h0s0,.02,0,.02ZM166.71,365.06c-.09-.02-.16-.05-.22-.1-.19-.15-.29-.41-.38-.62-.27-.62-.46-1.29-.61-1.99-.45-2.11-.52-4.49-1.21-6.45l.89,2.12,1.53,7.04h0,0ZM167.15,334.65h-.48v-.96c.48.13.54.51.48.96ZM167.15,336.34v-1.2c.14.04.23.1.31.18.23.25.2.67.17,1.02h0s-.48.01-.48.01h0ZM167.65,366.91c-.25-.82-.47-1.7-.45-2.57,0,0,0,0,.01,0,0,0,0,0,0,0,.35-.06.34.42.41.67.22.8.3,1.67.56,2.46h-.01c-.09.02-.17.02-.23.03-.42.02-.19-.24-.29-.59ZM170.99,387.97h0s0,0,0,0l-1.25-1.05-1.78-2.08s0,0,.01,0h0c1.07.08,1.84.84,2.51,1.59h.01c.41.45,1.01.58.51,1.54ZM171.29,362.16h-.23l-.25-1.21h.48v1.21ZM175.45,394.01l-1.86-1.76c-.13-.34-.1-.71-.3-1.03-.3-.49-1.66-2.07-1.62-2.85,0-.18.09-.32.27-.4l.56.05h0c.48.61,1.15,1.22,1.46,1.94.19.42.24.88.05,1.39l.72-.48c.28.96.72,1.72.75,2.7,0,.14,0,.29-.02.44ZM176.35,395.79c-.24-.38-.38-.84-.42-1.31l1.45,2.17c-.45-.17-.79-.48-1.03-.86ZM177.35,372.76l2.17,4.1c-.64.67-2.19-3.6-2.17-4.1ZM180.25,378.31h-.48c-.02-.15-.03-.28-.01-.4.05-.37.27-.61.73-.56l-.24.96ZM182.59,376.07h0c-1.11.89-.22,3.33-1.85,4.16,0,0,0,0,0,0-.5-1.9.02-1.89.77-3.21.1-.18.54-1.48.81-1.63.04-.02.07-.02.1,0l.18.66h0ZM183.98,298.68c.02-.72-.04-1.69.96-1.45l-.96,1.45ZM186.29,384.45l.48-.35.48,1.2-.96-.85ZM186.79,319.42c.1.07.17.15.22.23.16.23.13.47.04.71-.12.33-.35.66-.38.99-.56-.22.05-1.52.12-1.93ZM187.11,298.19h-.23v-.97s.47,0,.47,0l-.24.97ZM187.76,241.25c-.03.99-1.25.4-1.79.48-.99.14-1.58,2.45-1.58,3.38-1.39-1.6-3.97-5.34-6.17-5.77-1.07-.21-.81-.04-1.76-.46-3.37-1.48-2.78.46-3.42,3.11l-.48-.24-.24,1.21s0,0,0-.01h0c.04-.19.04-.38.03-.57-.03-.57-.22-1.12-.25-1.67,0,0,0,0,0,0,0,0,0,0,0,0-.02-.33.25-.78.24-1.22-.02-.59-.5-1.08-.53-1.65,0-.08,0-.16.02-.25.03-.16.39-.17.46-.36,1.11-2.71,2.16-5.06,4.23-7.3.57-.62,2.21-1.45,2.42-1.94.09-.2.11-.37.1-.54-.02-.25-.09-.48-.06-.81.03-.33.17-.75.59-1.38,1.04-1.54,2.35-1.85,2.96-2.59.36-.44.26-1.03.5-1.43,1.35-2.21,4.4-5.47,6.04-7.59.95-1.23,1.27-3.73,3.33-4.27.5,1.67,1.88.56,2.63.78.6.18.51.66.43,1.06-.02.09-.03.18-.04.26,0,.06,0,.11,0,.15.01.07.3.12.49.65,0,0,0,0,0,.01.15-.02.32.02.47,0,.02-.69-.03-1.37,0-2.05,0-.22-.1-.63.03-.78.04-.06.11-.08.22-.07-.3,1.53.51,3.2.44,4.63-.16,3.05-2.82,8.73-3.47,12.19-.05.27.25.71.17.8h-.01s0,0,0,.01l-.71-.24c-.18.69.47.26.51.82.08,1.09-.76,1.91-.51,3.03,0,0,0,0-.01-.01,0,0,0,.01,0,.02-.69-.84-3.13-1.55-3.74-.87-.2.23-.19.62.16,1.2.29.5,1.02.65,1.15,1.03.19.54-.24,1.78-.79,2.47-.08.1-.16.18-.24.25-.01.01-.02.03-.03.04-.1.08-.2.15-.3.18-.3.09-.83-.04-.98.09-.08.08-.06.47-.18.64-.09.13-.21.26-.33.37-.06.05-.11.1-.15.15-.04.05-.08.09-.1.12-.32.69,1.53.2,1.69.36-.25.92.23,1.95-.6,2.65,0,0,0,0,0,0,0,0,0,0,0,0-.22.18-.5.17-.68.23,0,0,0,0,0,0-.03.01-.05.02-.07.04-.05.04-.08.1-.07.2l.64.5c.62-.11,1.12-.41,1.48-.83.32-.37.52-.85.61-1.37.01-.08.03-.15.04-.23h0v1.94h0s-1.93,1.93-1.93,1.93l-.84-.47ZM196.73,275.49h-.48c-.06-.44-.01-.7.36-.96l.12.96ZM195.66,364.29v.48h-.96c.13-.48.51-.54.96-.48ZM195.53,278.87c.07.45,0,.84-.48.97-.07-.45,0-.84.48-.97ZM192.47,361.93c.12-.32-.08-.58.33-.56.05,0,.11.01.18.02.01,0,.02,0,.03,0-.22,1.16-.48,2.78-.83,3.87-.06.18-.16.38-.29.53-.14.14-.32.23-.56.18h0s0,0,0-.01c0-.01-.01-.03,0-.05,0-.51.97-3.54,1.15-3.98ZM189.79,309.77c-.73.12-.47-.28-.42-.78.21-2.1,1.44-4.51,1.44-6.76l1.37-4.53-2.39,12.07ZM190.04,319.66v.36l-.71.6v-.96s.71,0,.71,0ZM192.2,309.04c-.07-.45,0-.84.48-.97.07.45,0,.84-.48.97ZM192.44,309.52l-.12,1.21-.61-.39.73-.82ZM189.68,238.82c.15-.52-.14-1.29.48-1.45,0,.53.14,1.26-.48,1.45ZM189.4,369.37l-.24,1.93c-.52-.14-.25-1.85.24-1.93ZM190.6,371.56c-.53.32-.11,1.2-1.19.95h0s0,0-.01-.01l1.2-4.83c.16-.02.27,0,.34.05.48.3-.45,1.78,0,2.27.04.03.08.06.13.09.44-.64.4-1.53.65-2.12.13-.3.54-.25.55-.44.01-.21-.22-.48-.13-.83.11-.43.49-2.05.6-2.25.17-.31.64-.09.73-.16.09-.07-.09-1.79.24-2.24l.72-.17h.01s0,.02,0,.02c-1.09,3.47-1.76,7.09-2.81,10.57-.34,1.12-.62,1.21-.81.86-.19-.34-.28-1.1-.24-1.76ZM190.88,387.94c.41.14.66,1.06.72,1.45-.55-.21-.75-.9-.72-1.45ZM193.42,391.08l-2.55-4.72.04-.31c1.13-.28.84-1.06,1.04-1.97l.85-.24c.05.75-.07,1.53.02,2.28.1.81.18,1.58.28,2.37.06.44,1.13,2.27.32,2.59ZM197.08,390.74c-.1-.03-.16-.11-.16-.28,0-.04.04-.09.09-.14.11-.1.31-.21.46-.24.07-.01.14,0,.17.03.28.27-.27.71-.56.64ZM198.07,367.28c-.05.49-.77,4.16-.92,4.39-.21.33-.36.39-.47.28-.32-.26-.23-1.97-.05-2.33l-.46.24s0,0,0-.02h0c-.09-.62.43-1.19-.04-1.6-.03-.02-.05-.05-.08-.07l-.24.5-1.08-.49-.48,2.39c.75-.16.35-1.54.47-1.68l.94.26s0,0,0,0h.01c-.38,1.71-.66,3.47-.92,5.23l.93-1.41v.06s.02-.05.02-.05l-.23,1.18c.31-.22.5-.25.62-.15.53.38-.51,3.29-.73,3.56-.27.33-.71.24-1.09.24,0,0,0,0,0,0,0,0-.01,0-.02,0-.06-1.16.32-2.25.48-3.38,0,0,0,0,0,0-.03.03-.17.06-.27.13-.03.03-.06.06-.07.1-.19.47-.09,1.41-.75,1.64-.04.01-.08.01-.12.02-.06.01-.12.03-.2.03,0,0,0,0,0,0,0,0,0,0,0,0,0-.63-.21-1.08.43-1.33l.29-3.23-1.19,2.76h0s0,0,0,0l-.94-.16c.75-3.08,1.63-6.31,2.85-9.29h0s0,0,0,0l.73.14-.36,2.15c.62-.61.7-1.56,1.05-2.29.1-.2.21-.34.33-.41.13-.07.27-.06.43.07.47.37-.45.5-.48.64-.17.75-.17,1.87-.24,2.68l.5-1.86.69-.02-.24-.97h.96s0,0,0,.01h0c0,.67.05,1.35-.02,2.02ZM197.59,360.42s-.05-.07-.05-.11c-.03-.3.55-.83.77-.61.03.03.05.07.05.11.03.3-.55.83-.77.61ZM199.81,393.24c-.56.56-1.27-1.14-1.45-1.44.21-.12.43-.11.63-.03.2.08.39.25.54.43.3.38.45.86.28,1.04ZM200.17,314.09c-.17-.06-.25-.17-.28-.31-.07-.42.39-1.08.76-1.14l-.48,1.45ZM204.39,389.37v-1.45h.24l.24,1.45h-.48ZM202.69,381.65h0s.84-.49.84-.49l1.03,1.08s0,0,0,0h0c-.21.18-.31.32-.34.45-.1.39.39.61.4.99,0,0,0,0,0,0,0,0,0,0,0,0,.02.39-.44.72-.42,1.16.02.34.64,1.93.68,2.43,0,.07,0,.13-.01.15-.46.1-.66-.32-.77-.79-.09-.35-.13-.72-.18-.94-.02-.07-.04-.12-.07-.15-.07-.08-.26-.08-.46-.12-.07-.01-.14-.04-.2-.07-.02,0-.03-.02-.05-.03-.07-.04-.12-.11-.16-.19,0,0-.01-.01-.02-.02-.04-.11-.06-.24-.06-.38,0-.27.04-.57.05-.85,0-.14,0-.27-.03-.39-.04-.18-.43-.14-.47-.33-.15-.64-.4-1.93-.5-2.6,0-.01,0-.04,0-.05-.04-.26-.13-.87.25-.81l.49,1.93ZM214.71,357.75c-.91.79-1.95,1.46-3.06,2.04-2.06,1.07-4.37,1.77-6.58,2.07h0c.28-.29.64-.5,1.03-.67.89-.4,1.95-.6,2.79-.93,1.96-.78,3.85-1.74,5.82-2.51h0ZM218.24,351.62c-4.93,4.17-11.1,6.23-17.27,7.83,0,0,0,0,0-.01,0,0,0,0,0,0-.11-.46.26-.57.48-.84,2.22-2.7,6.8-6.1,9.45-8.35,1.82-1.54,4.78-4.59,6.93-5.31.46-1.02.91-1.07,1.05-.84.14.17.08.54-.32.74-.29.14-.54.06-.71.12-.11.25-.57,1.73-.48,1.91.99-.9,2.44,1.05,3.09.45.08-.08.02-.49.16-.68.2-.27.61-.19.76-.33.48-.44.25-1.08,1.28-.65h0s0,0,.01.01l-4.42,5.95ZM224.08,343.58c-.1.36-.58,1.28-1.03,1.7-.09.08-.18.15-.27.19-.09.04-.17.05-.25.02-.04-.01-.07-.04-.11-.07-.14-1,.68-.84.89-1.02.04-.04.08-.08.11-.13.11-.2.09-.48.19-.65.07-.13.2-.2.49-.13,0,.02,0,.06-.02.09ZM224.39,300.06c-.15-.04-.21-.12-.23-.23-.05-.31.35-.81.46-.98.14-.21.01-.62.61-.48l-.84,1.69ZM224.94,264.35c-.07-.45,0-.84.48-.97.07.45,0,.84-.48.97ZM271.97,261.61h0s.01,0,.01,0h.01s0,0,0,0l.24,1.21-.96.12c.21.58,1.05.75.97,1.33,0,0,0,0-.01,0,0,0,0,0,0,0-.15-.04-.28-.06-.39-.07-.76-.04-.57.67-.88,1.29-.08.15.13.3-.07.29-.06,0-.17-.02-.34-.06l-.28-1.42-1.38-.06c-1.1-2.39,1.41-2.48,3.09-2.63ZM269.06,242.73l1.2-1.14s0,0,0,0h0s0,.01,0,.02c-.75,2.19-2.16,4.2-3.41,6.16-.02.04-.05.07-.07.11-.17.25,0,.54-.39.51-.06,0-.12-.01-.21-.03l2.89-5.62ZM261.32,243.15h0s0,0,0,0l2.18.74c-.26.25-.7,1.51-.82,1.59-.16.11-.3.14-.42.13-.17-.01-.29-.09-.37-.1-.01,0-.03,0-.04,0h.01c-.25.15-.38,1-.97,1.11-.19.04-.44,0-.75-.18.16.48-.41,1.15-.81,1.05-.06-.01-.12-.04-.17-.09-.25-.24,2.19-3.5,2.15-4.25ZM258.7,253.07h0s-.73,1.09-.73,1.09l-.72-.61,1.45-.48h0s-1.45-.36-1.45-.36h1.69l-.24.36h0ZM258.3,232.92h0s0,0,0,0l.31.91h.01l-.44.38c-.09.05-.17.06-.23.06-.42-.03-.07-1.2.34-1.35ZM254.15,212.67c.59-.17,1.26,0,1.95.72.64.65.4,1.05.7,1.6h.01c.21.39.65.75.88,1.4.2.58.54,1.48.36,2.04-.22.7-1.54,1.28-.96,2.2.13.2.58.14.74.69.18.63.1,1.3.1,1.95,0,0,0,0,0,0,0,0,0,0,0,.01-.9-.27-1.66-.49-2.39-1.1-.73-.61-.87-1.33-1.3-1.72-.23-.21-.67-.17-.84-.36-.15-.18-1.21-3.08-1.25-3.47-.17-1.59.72-3.6,2.01-3.96ZM252.9,250.79c-.08-.42.2-.63.5-.83.84-.55,2.58-1.24,3.58-1.58h0s.01,0,.01,0h.01s-.01,0-.02,0l-1.55,1.2-2.53,1.21s0,0,0,0h-.01ZM252.42,249.33c.2-.52,1.75-.94,1.93-.24l-1.93.24ZM252.38,227.94c.15-.45-.41-1.93.48-1.76,0,0,0,0,0-.01h.01s.01.02.01.02c0,0,0,0-.01,0-.23.42-.22.78-.1,1.13,0,.03.02.05.03.07.02.06.05.12.08.18,0,.01.01.03.02.04.13.24.3.49.46.74l-.97-.4s0,0,0,0h-.01ZM250.45,233.3c.11-.6.38-1.25.65-1.79.48-.97,1.65-1.58,1.29-2.8l.47-.12h0s0,0,0,0h0,0s.49.6.49.6l-.44.15c-.68.88,3.22,2.98,4.06,2.98-.89,1.81-1.1,5.1-2.95,6.21-.29.18-3,1.2-3.16,1.16,0,0,0,0,0,0,0,0,0,0,0,0-.24-.07-.46-.44-.38-.72h0s0,0,0,0l.71.14.48-.87-.95.24s0,0,0,0h-.01c.52-1.65-.56-3.48-.27-5.18ZM252.42,250.79l-2.89,1.69s-.04-.06-.04-.09c-.03-.53,2.39-2.02,2.93-1.6ZM249.51,240.18c-.22,1.74-.56,3.88-1.92,5.07h0c.52-1.4.93-2.85,1.41-4.26,0,0,0,0,0,0,.11-.32.07-.73.51-.81,0,0,0,0,0,0h0ZM248.46,226.61c.18,0,.36.03.54.07h-.01c.52.97-.26,1.82-.22,2.5.04.82.93,1.08.97,1.83h-.01s0,0,0,0l-1.03-.02-.83,1.46-3.39.46h0s0,0,0,0l-.96-1.57c.62-2.26,2.34-4.88,4.95-4.73ZM240.39,268.18c1.13.13.95-.92,1.4-1.62,2.01-3.15,5.75-7.24,8.64-9.58.2-.16.25-.56.55-.74.32-.2,1.5-.08,1.94-.15l-.25-.47s0,0,0,0h0c.65.2.99-.93,1.16-.37,0,.02,0,.04.01.06,0,.03.01.05.02.09,0,0,0,.02,0,.02,0,.05.02.1.02.17h.46s0-.02,0-.03c0-.02,0-.04,0-.06.19-.5,2.79-1.22,2.89-1.11h0c.04.07.05.14.05.22-.02.51-.99,1.3-1,1.39,0,.14.2,1.19.25,1.35.07.22.47.17.48.33,0,0,0,0,0,0,0,0,0,0,0,0,.02.32-.21.51-.2.67.01.09.12.17.44.25h0s0,0,0,.01l-.49,1.19c.29.45.54.23.95.13l.16.98s0,0,0,0h0c-1.45,1.31-3,3.84-4.63,4.79-1.54.9-1.72.71-3.4,1.98-1.85,1.4-3.91,2.44-5.76,3.85-1.46-1.39-1.51-.56-3.22-.22h0s0,0,0,0l.02-1.19.68-.37-1.19-1.56s0,0,0,0h0ZM239.69,285.31l11.27-10.82.05-.06h0v.02l-.05.05-3.18,3.7c-2.5,1.72-4.82,5.13-7.22,6.78-.28.19-.49.42-.87.34h.01s0,0-.01-.01ZM241.6,276.51c-.32.12-.42.79-.48.84h0s-.16,0-.24.01c0-.03,0-.06,0-.09-.09-.72.19-1.47.73-.77,0,0,0,0,0,0,0,0,0,0,0,0ZM239.54,278.57c.11-.18.31-.29.62-.26h0v.47h0s-.72.5-.72.5c-.05-.28-.02-.53.1-.71ZM239.58,285.51s.08.02.11.05c.22.22-.31.8-.61.77-.04,0-.08-.02-.11-.05-.22-.22.31-.8.61-.77ZM237.61,287.09s.05-.04.09-.07c.07-.06.18-.14.29-.21.11-.08.24-.15.35-.21s.22-.1.3-.1c.04,0,.07,0,.09.03.31.3-2.22,2.75-2.65,2.9-.14-.15,1.32-2.13,1.53-2.33ZM236.75,255.16h.48c.08.46-.28.8-.72.72l.24-.72ZM236.03,256.61h.48l-.24.96h-.24v-.96ZM235.07,259.75v.72s-.48,0-.48,0v-.72s.48,0,.48,0ZM234.48,285.17l1.35-1.54h0s0,0,0,0c0,0,0,0,0,0-.04.57-.29,1.06-.64,1.48-.29.36-.66.67-1.04.92h0s0,0,0,0l.33-.87ZM232.23,266.44c.11-.4,1.31-3.79,1.51-3.79,0,0,0,0,0,0,0,0,0,0,0,0,.51.37.33.43.18.89-.39,1.16-1.32,2.39-1.5,3.69h-.02c-.42.06-.24-.55-.18-.79ZM233.67,291.84c.06.51-.52.95-.96,1.21-.06-.51.52-.95.96-1.21ZM230.26,271.09h.48l-.24.97h-.48l.24-.97ZM229.41,341.08h0s0,0,0,0l3.5-7.95s0,0,0,0c.69-.43,1.38-.45,1.3-1.47l.95.24c-.1-.36.5-1.28,1.14-2,.54-.61,1.1-1.07,1.28-.91,0,0,0,0,0,0h0s0,0,0,0l-8.18,12.08ZM249.95,288.45c-1.5,1.55-3.12,3.35-4.71,4.93,0,0,0,0,0,0,0,0,0,0,0,0-.67.67-1.73,1.08-2.37,1.73-.38.39-.6.86-.5,1.52,0,0,0,0-.01,0,0,0,0,0,0,.01-.44-.19-.79-.14-1.1.03-.5.28-.87.86-1.29,1.23-.16.14-.32.26-.49.32-.53.18-1.96.7-2.35.79-.75.17-1.68-.06-2.48.29.04-.53-.13-1.12.07-1.63.02-.05.16-.21.38-.43.94-.94,3.37-3.1,3.77-3.5,1.34-1.35,2.69-2.83,4.1-4.25,2.36-2.37,4.9-4.57,7.93-5.7.44-.16,3.35-.98,3.59-.92.49.17,1.56,2.85,1.37,3.09h-.01s0,.02,0,.02c-2.63.35-4.02.52-5.89,2.45ZM256.79,271.53s0,0,0-.01h.01s.01.02.01.02c0,0,0,0,0,0-.04.74.29,1.08.72,1.44.15.12.3.24.46.39h0s0,0,.01.01l-.19.91-2.43.63s0,0,0-.01h0c-.2-.63.34-1.13.41-1.6.11-.7-.68-1.78,1.02-1.78ZM255.61,280.71c-.09.36-.33.48-.64.5-.1,0-.21,0-.32-.02.09-.36.33-.48.64-.5.1,0,.21,0,.32.02ZM264.27,285.49h0c-1.34.48-2.56,1.24-3.84,1.84-.44.2-.96.08-1.42.27-.93.37-6.41,4.76-7,4.22,0,0,0,0,0,0,0,0,0,0,0,0,.03-.11.05-.23.08-.34.16-.72.23-1.44.16-2.19-.04-.44-.32-.84-.36-1.21-.03-.22.03-.43.28-.62,1.33-1.03,3.92-.32,5.48-.5,1.06-.12,2.01-.79,2.65-1,.49-.16.92.11,1.18.05.05-.01.1-.06.15-.12.1-.14.2-.36.32-.54.05-.08.1-.15.16-.21.43-.4,1.12-.61,1.06-1.08-.01-.07-.04-.14-.08-.22,0,0,0,0,0,0,0,0,0,0,0,0,.36-.24,1.19.88,1.22,1.46,0,.08,0,.16-.04.21ZM265.09,261.01h.01c-.7.52-1.62,1.41-2.21,1.84-.16.11-.34.2-.53.27-.41.16-.88.27-1.36.44-.33.12-.65.26-.95.49-.95.7-1.4,1.78-2.13,2.57-2.05,2.2-4.08,3.94-6.32,5.99-.57.52-1.99,2.27-2.41,2.52-.59.34-1.6.35-2.27.76,0,0,0,0,0,0,0,0,0,0,0,0-.48-1.37-1.68-1.72-1.22-3.62l-.95.24s0,0,0,0h-.01c.17-.32.75-1.19,1.24-1.44.08-.04.15-.06.22-.07,0,0,0,0,.01,0,.08,0,.16.01.22.06l-.12.71c1.48-1.53,3.57-2.34,5.17-3.61l-.72-.12,1.09-.84h0s0,0,0,0l.11.48s.07.02.1.02c.83-.02,4.06-2.94,4.6-3.5,1.44-1.47,2.37-3.05,3.87-4.35,1.07-.93,5.66-4.89,6.67-4.91,0,0,0,0,0,0,0,0,0,0,0,0,.28-.01,1.37.21,1.52.4l-.18,2.98c-.09.29-2.93,2.29-3.47,2.69ZM276.84,283.78c-.31-.13-.57-.47-.73-1.06.26-.36.49-.42.72-.34.23.07.46.28.73.45-.01-.25.03-.38.1-.45.19-.2.63.26.87.57-.53.71-1.17,1.05-1.69.83ZM281.62,281.41c-.27,0-.52-.02-.69-.02l.02-1.66.95-.27h.01s-.01,0-.01,0v.73l.47-.24h0s0,0,0,0l.22,1.06c-.08.35-.54.41-.98.4ZM287.09,278c-.08-.02-.15-.06-.21-.12-.4-.42-.13-1.65.81-1.33.07.36.07,1.61-.6,1.45ZM298.29,273.72c-.02-.05-.01-.11.02-.19.17-.43.59-.64.94-.59.35.04.63.35.5.94-.21-.07-1.35.21-1.46-.16ZM300.94,280.37c-.36.51-1.67.06-1.43-.81.23-.82,1.65-.29,1.57.47-.01.11-.05.22-.14.34ZM303.37,273.39v1.45c-.42.03-.79.1-1.13.13s-.65,0-.95-.17c-.1-.06-.2-.13-.29-.22-.1-.09-.19-.2-.29-.34,0,0,0,0,0,0-.04-.1,0-.19.08-.28.25-.27.89-.48,1.06-.51.25-.05.5-.07.75-.07.25,0,.51,0,.76,0h0Z"/>
  <path class="cls-1" d="M42.63,319.16h0v.02s.02.01.03.02c0-.01-.03-.03-.03-.04Z"/>
  <polygon class="cls-1" points="167.94 228.01 167.94 228 167.93 228 167.94 228 167.94 228.01"/>
</svg>